<?xml version="1.0" encoding="UTF-8"?>
<svg width="26px" height="20px" viewBox="0 0 26 20" version="1.1" xmlns="http://www.w3.org/2000/svg" xmlns:xlink="http://www.w3.org/1999/xlink">
    <!-- Generator: Sketch 51.3 (57544) - http://www.bohemiancoding.com/sketch -->
    <title>folder</title>
    <desc>Created with Sketch.</desc>
    <defs></defs>
    <g id="UI" stroke="none" stroke-width="1" fill="none" fill-rule="evenodd">
        <g id="iPad-2-3-1" transform="translate(-28.000000, -432.000000)" fill="#FFFFFF" fill-rule="nonzero">
            <g id="sidebar/menu1" transform="translate(0.000000, 23.000000)">
                <g id="Group">
                    <g id="archive-tab" transform="translate(21.000000, 409.000000)">
                        <g id="folder" transform="translate(7.000000, 0.000000)">
                            <g id="inbox-(2)">
                                <path d="M9.14094978,14.1666667 L16.864033,14.1666667 L18.4128429,11.0416667 L26,11.0416667 L23.3887858,1.7328543 C23.1013588,0.708195284 22.1671728,2.46904327e-15 21.102964,2.66453526e-15 L4.89703603,3.99680289e-15 C3.83282722,4.19229488e-15 2.89864121,0.708195284 2.61121419,1.7328543 L0,11.0416667 L7.59213993,11.0416667 L9.14094978,14.1666667 Z" id="Shape" fill-opacity="0.15"></path>
                                <path d="M18.0413086,10.8333333 L16.5178711,13.8888889 L9.48212891,13.8888889 L7.95869141,10.8333333 L0,10.8333333 L0,17.62595 C1.60569762e-16,18.9371016 1.06289839,20 2.37405,20 L23.62595,20 C24.9371016,20 26,18.9371016 26,17.62595 L26,10.8333333 L18.0413086,10.8333333 Z" id="Shape" fill-opacity="0.35"></path>
                            </g>
                        </g>
                    </g>
                </g>
            </g>
        </g>
    </g>
</svg>