<?xml version="1.0" encoding="UTF-8"?>
<svg width="16px" height="17px" viewBox="0 0 16 17" version="1.1" xmlns="http://www.w3.org/2000/svg" xmlns:xlink="http://www.w3.org/1999/xlink">
    <!-- Generator: Sketch 51.3 (57544) - http://www.bohemiancoding.com/sketch -->
    <title>attach_file - material</title>
    <desc>Created with Sketch.</desc>
    <defs></defs>
    <g id="UI" stroke="none" stroke-width="1" fill="none" fill-rule="evenodd">
        <g id="iPad-3-2-messages" transform="translate(-259.000000, -560.000000)" fill="#4F5FE8">
            <g id="Repeat-Mode-Copy" transform="translate(242.000000, 544.000000)">
                <g id="Selector">
                    <path d="M29.0352,19.76 L30.3,19.76 L30.3,29.5112 C30.3,30.3680043 30.0926021,31.1567964 29.6778,31.8776 C29.2629979,32.5984036 28.6986036,33.1695979 27.9846,33.5912 C27.2705964,34.0128021 26.4920042,34.2236 25.6488,34.2236 C24.8055958,34.2236 24.0236036,34.0128021 23.3028,33.5912 C22.5819964,33.1695979 22.0074021,32.5984036 21.579,31.8776 C21.1505979,31.1567964 20.9364,30.3680043 20.9364,29.5112 L20.9364,18.9236 C20.9364,18.3115969 21.0927984,17.7438026 21.4056,17.2202 C21.7184016,16.6965974 22.1365974,16.2784016 22.6602,15.9656 C23.1838026,15.6527984 23.7515969,15.4964 24.3636,15.4964 C24.9756031,15.4964 25.5399974,15.6493985 26.0568,15.9554 C26.5736026,16.2614015 26.9849985,16.6795973 27.291,17.21 C27.5970015,17.7404027 27.75,18.3115969 27.75,18.9236 L27.75,27.8384 C27.75,28.2192019 27.654801,28.5727984 27.4644,28.8992 C27.273999,29.2256016 27.0190016,29.483999 26.6994,29.6744 C26.3797984,29.864801 26.0296019,29.96 25.6488,29.96 C25.2679981,29.96 24.9110017,29.864801 24.5778,29.6744 C24.2445983,29.483999 23.979401,29.2256016 23.7822,28.8992 C23.584999,28.5727984 23.4864,28.2192019 23.4864,27.8384 L23.4864,19.76 L24.7716,19.76 L24.7716,27.8384 C24.7716,28.0832012 24.8565992,28.2837992 25.0266,28.4402 C25.1966008,28.5966008 25.4039988,28.6748 25.6488,28.6748 C25.8936012,28.6748 26.0941992,28.5966008 26.2506,28.4402 C26.4070008,28.2837992 26.4852,28.0832012 26.4852,27.8384 L26.4852,18.9236 C26.4852,18.5427981 26.390001,18.1858017 26.1996,17.8526 C26.009199,17.5193983 25.7508016,17.254201 25.4244,17.057 C25.0979984,16.859799 24.7444019,16.7612 24.3636,16.7612 C23.9827981,16.7612 23.6292016,16.859799 23.3028,17.057 C22.9763984,17.254201 22.714601,17.5193983 22.5174,17.8526 C22.320199,18.1858017 22.2216,18.5427981 22.2216,18.9236 L22.2216,29.5112 C22.2216,30.1232031 22.3779984,30.6943973 22.6908,31.2248 C23.0036016,31.7552027 23.4217974,32.1767984 23.9454,32.4896 C24.4690026,32.8024016 25.0367969,32.9588 25.6488,32.9588 C26.2608031,32.9588 26.8251974,32.8024016 27.342,32.4896 C27.8588026,32.1767984 28.2701985,31.7552027 28.5762,31.2248 C28.8822015,30.6943973 29.0352,30.1232031 29.0352,29.5112 L29.0352,19.76 Z" id="attach_file---material" transform="translate(25.618200, 24.860000) rotate(-315.000000) translate(-25.618200, -24.860000) "></path>
                </g>
            </g>
        </g>
    </g>
</svg>