<svg height="472pt" viewBox="0 -9 472 472" width="472pt" xmlns="http://www.w3.org/2000/svg" xmlns:xlink="http://www.w3.org/1999/xlink"><linearGradient id="a"><stop offset="0" stop-color="#00efd1"/><stop offset="1" stop-color="#00acea"/></linearGradient><linearGradient id="b" gradientTransform="matrix(1 0 0 -1 -20 485.005656)" gradientUnits="userSpaceOnUse" x1="256" x2="256" xlink:href="#a" y1="502" y2="19.934"/><linearGradient id="c" gradientTransform="matrix(1 0 0 -1 -20 485.005656)" gradientUnits="userSpaceOnUse" x1="207" x2="207" xlink:href="#a" y1="502" y2="19.934"/><linearGradient id="d" gradientTransform="matrix(1 0 0 -1 -20 485.005656)" gradientUnits="userSpaceOnUse" x1="107" x2="107" xlink:href="#a" y1="502" y2="19.934"/><linearGradient id="e" gradientTransform="matrix(1 0 0 -1 -20 485.005656)" gradientUnits="userSpaceOnUse" x1="307" x2="307" xlink:href="#a" y1="502" y2="19.934"/><linearGradient id="f" gradientTransform="matrix(1 0 0 -1 -20 485.005656)" gradientUnits="userSpaceOnUse" x1="407" x2="407" xlink:href="#a" y1="502" y2="19.934"/><path d="m421.550781 38.003906h-38.550781v-28.464844c0-5.519531-4.765625-9.53515575-10.289062-9.53515575h-64.132813c-5.109375-.17578125-9.398437 3.82421875-9.578125 8.93359375-.007812.199219-.007812.402344 0 .601562v28.464844h-126v-28.464844c.152344-5.109374-3.867188-9.378906-8.976562-9.53515575-.199219-.00390625-.402344-.00390625-.601563 0h-64.132813c-5.523437 0-10.289062 4.01562475-10.289062 9.53515575v28.464844h-38.550781c-27.570313 0-50.449219 22.328125-50.449219 49.902344v316.5625c0 27.570312 22.878906 49.535156 50.449219 49.535156h371.101562c27.570313 0 50.449219-21.964844 50.449219-49.535156v-316.5625c0-27.574219-22.878906-49.902344-50.449219-49.902344zm-102.550781-18h44v54h-44zm-210 0h44v54h-44zm-58.550781 38h38.550781v26.375c0 5.523438 4.765625 9.625 10.289062 9.625h64.132813c5.152344.140625 9.441406-3.925781 9.578125-9.082031 0-.179687 0-.359375 0-.542969v-26.375h126v26.375c-.164062 5.15625 3.882812 9.464844 9.035156 9.625.183594.007813.363282.007813.542969 0h64.132813c5.523437 0 10.289062-4.097656 10.289062-9.625v-26.375h38.550781c16.542969 0 30.449219 13.355469 30.449219 29.902344v36.097656h-432v-36.097656c0-16.546875 13.90625-29.902344 30.449219-29.902344zm371.101562 376h-371.101562c-16.542969 0-30.449219-12.992187-30.449219-29.535156v-260.464844h432v260.464844c0 16.542969-13.90625 29.535156-30.449219 29.535156zm0 0" fill="url(#b)"/><g fill="url(#c)"><path d="m228 172.003906c0-5.519531-4.476562-10-10-10h-62c-5.523438 0-10 4.480469-10 10v60c0 5.523438 4.476562 10 10 10h62c5.523438 0 10-4.476562 10-10zm-21 49h-41v-39h41zm0 0"/><path d="m228 261.003906c0-5.519531-4.476562-10-10-10h-62c-5.523438 0-10 4.480469-10 10v60c0 5.523438 4.476562 10 10 10h62c5.523438 0 10-4.476562 10-10zm-21 49h-41v-39h41zm0 0"/><path d="m228 350.003906c0-5.519531-4.476562-10-10-10h-62c-5.523438 0-10 4.480469-10 10v60c0 5.523438 4.476562 10 10 10h62c5.523438 0 10-4.476562 10-10zm-21 49h-41v-39h41zm0 0"/></g><path d="m128 172.003906c0-5.519531-4.476562-10-10-10h-62c-5.523438 0-10 4.480469-10 10v60c0 5.523438 4.476562 10 10 10h62c5.523438 0 10-4.476562 10-10zm-21 49h-41v-39h41zm0 0" fill="url(#d)"/><path d="m128 261.003906c0-5.519531-4.476562-10-10-10h-62c-5.523438 0-10 4.480469-10 10v60c0 5.523438 4.476562 10 10 10h62c5.523438 0 10-4.476562 10-10zm-21 49h-41v-39h41zm0 0" fill="url(#d)"/><path d="m128 350.003906c0-5.519531-4.476562-10-10-10h-62c-5.523438 0-10 4.480469-10 10v60c0 5.523438 4.476562 10 10 10h62c5.523438 0 10-4.476562 10-10zm-21 49h-41v-39h41zm0 0" fill="url(#d)"/><path d="m328 172.003906c0-5.519531-4.476562-10-10-10h-62c-5.523438 0-10 4.480469-10 10v60c0 5.523438 4.476562 10 10 10h62c5.523438 0 10-4.476562 10-10zm-21 49h-41v-39h41zm0 0" fill="url(#e)"/><path d="m328 261.003906c0-5.519531-4.476562-10-10-10h-62c-5.523438 0-10 4.480469-10 10v60c0 5.523438 4.476562 10 10 10h62c5.523438 0 10-4.476562 10-10zm-21 49h-41v-39h41zm0 0" fill="url(#e)"/><path d="m328 350.003906c0-5.519531-4.476562-10-10-10h-62c-5.523438 0-10 4.480469-10 10v60c0 5.523438 4.476562 10 10 10h62c5.523438 0 10-4.476562 10-10zm-21 49h-41v-39h41zm0 0" fill="url(#e)"/><path d="m428 172.003906c0-5.519531-4.476562-10-10-10h-62c-5.523438 0-10 4.480469-10 10v60c0 5.523438 4.476562 10 10 10h62c5.523438 0 10-4.476562 10-10zm-21 49h-41v-39h41zm0 0" fill="url(#f)"/><path d="m428 261.003906c0-5.519531-4.476562-10-10-10h-62c-5.523438 0-10 4.480469-10 10v60c0 5.523438 4.476562 10 10 10h62c5.523438 0 10-4.476562 10-10zm-21 49h-41v-39h41zm0 0" fill="url(#f)"/><path d="m428 350.003906c0-5.519531-4.476562-10-10-10h-62c-5.523438 0-10 4.480469-10 10v60c0 5.523438 4.476562 10 10 10h62c5.523438 0 10-4.476562 10-10zm-21 49h-41v-39h41zm0 0" fill="url(#f)"/></svg>