<?xml version="1.0" encoding="UTF-8"?>
<svg width="49px" height="44px" viewBox="0 0 49 44" version="1.1" xmlns="http://www.w3.org/2000/svg" xmlns:xlink="http://www.w3.org/1999/xlink">
    <!-- Generator: Sketch 51.3 (57544) - http://www.bohemiancoding.com/sketch -->
    <title>love-letter</title>
    <desc>Created with Sketch.</desc>
    <defs></defs>
    <g id="UI" stroke="none" stroke-width="1" fill="none" fill-rule="evenodd">
        <g id="iPad-0-login-password-update-2" transform="translate(-701.000000, -294.000000)" fill="#712AEA" fill-rule="nonzero">
            <g id="love-letter" transform="translate(701.000000, 294.000000)">
                <path d="M48.9936836,19.0730135 C48.944875,18.2792703 48.6818828,17.556473 48.2224121,16.9363108 C47.9559746,16.5949189 47.710209,16.3469865 47.4311387,16.1347162 L41.2472812,11.4289189 L41.2472812,8.22216216 C41.2472812,6.11147297 39.5099824,4.3942027 37.3744629,4.3942027 L32.0029336,4.3942027 L27.7777363,1.17893243 C25.8477871,-0.289459459 23.1522129,-0.289459459 21.2222637,1.17893243 L16.9970664,4.3942027 L11.6255371,4.3942027 C9.49011328,4.3942027 7.75271875,6.11137838 7.75271875,8.22216216 L7.75271875,11.4289189 L1.56895703,16.1346216 C1.28988672,16.3468919 1.04412109,16.5948243 0.833287109,16.8678243 C0.318117188,17.556473 0.055125,18.2791757 0.00832617188,19.0397162 C0.00258398437,19.1435811 0,19.2144324 0,19.2855676 L0,40.8371351 C0,42.5383243 1.40032813,43.9224324 3.12145313,43.9224324 L45.8785469,43.9224324 C47.5996719,43.9224324 49,42.5383243 49,40.8371351 L49,19.2855676 C49,19.2144324 48.997416,19.1435811 48.9936836,19.0730135 Z M41.2472813,13.8166757 L45.8134687,17.2913243 L41.2472813,19.7191892 L41.2472813,13.8166757 Z M22.3899375,2.67816216 C23.0111465,2.20537838 23.7555254,1.96908108 24.5,1.96908108 C25.2442832,1.96908108 25.9889492,2.20556757 26.6100625,2.67816216 L28.8653066,4.39439189 L20.1346934,4.39439189 L22.3899375,2.67816216 Z M9.66678125,9.97244595 L9.66678125,8.22225676 C9.66678125,7.15475676 10.5455273,6.28618919 11.6255371,6.28618919 L14.5108906,6.28618919 L17.6485176,6.28618919 L31.3514824,6.28618919 L34.4891094,6.28618919 L37.3744629,6.28618919 C38.4544727,6.28618919 39.3332188,7.15475676 39.3332188,8.22225676 L39.3332188,9.97244595 L39.3332188,12.3601081 L39.3332188,20.7369324 L31.0388203,25.1471216 C31.0212109,25.0547027 17.9788848,25.0546081 17.9612754,25.147027 L9.66687695,20.7368378 L9.66687695,12.3601081 L9.66678125,9.97244595 Z M7.75271875,13.8166757 L7.75271875,19.7191892 L3.18662695,17.2913243 L7.75271875,13.8166757 Z M1.9140625,39.7264595 L1.9140625,19.2855676 C1.9140625,19.1192703 1.93502148,18.9546757 1.97454688,18.7951892 L8.25621289,22.1351351 C8.25627669,22.1351982 10.9651217,23.5754955 16.382748,26.456027 L1.9140625,39.7264595 Z M18.5,27 L30.5,27 L45.1120556,41.1406989 C45.3104921,41.3327343 45.3156812,41.6492742 45.1236459,41.8477107 C45.0294506,41.9450459 44.8997955,42 44.7643448,42 L4.23565515,42 C3.95951278,42 3.73565515,41.7761424 3.73565515,41.5 C3.73565515,41.3645493 3.7906093,41.2348942 3.88794444,41.1406989 L18.5,27 Z M47.0859375,40.0776385 L32.617252,26.5845584 L40.7436495,22.191268 C40.7437133,22.191268 42.8376477,21.0592417 47.0254527,18.7951892 C47.0649784,18.9573515 47.0859375,19.1247076 47.0859375,19.293795 L47.0859375,40.0776385 Z" id="Shape"></path>
                <path d="M18.5025723,13.5852027 L26.6693027,13.5852027 C27.1977754,13.5852027 27.626334,13.1616081 27.626334,12.6392568 C27.626334,12.1169054 27.1977754,11.6933108 26.6693027,11.6933108 L18.5025723,11.6933108 C17.9740996,11.6933108 17.545541,12.1169054 17.545541,12.6392568 C17.545541,13.1616081 17.9740996,13.5852027 18.5025723,13.5852027 Z" id="Shape"></path>
                <path d="M18.5025723,18.4411216 L30.4974277,18.4411216 C31.0259004,18.4411216 31.454459,18.017527 31.454459,17.4951757 C31.454459,16.9728243 31.0259004,16.5492297 30.4974277,16.5492297 L18.5025723,16.5492297 C17.9740996,16.5492297 17.545541,16.9728243 17.545541,17.4951757 C17.545541,18.017527 17.9740996,18.4411216 18.5025723,18.4411216 Z" id="Shape"></path>
            </g>
        </g>
    </g>
</svg>