<?xml version="1.0" encoding="UTF-8"?>
<svg width="26px" height="23px" viewBox="0 0 26 23" version="1.1" xmlns="http://www.w3.org/2000/svg" xmlns:xlink="http://www.w3.org/1999/xlink">
    <!-- Generator: Sketch 51.3 (57544) - http://www.bohemiancoding.com/sketch -->
    <title>icon</title>
    <desc>Created with Sketch.</desc>
    <defs></defs>
    <g id="UI" stroke="none" stroke-width="1" fill="none" fill-rule="evenodd">
        <g id="iPad-2-3-1" transform="translate(-27.000000, -356.000000)" fill="#FFFFFF" fill-rule="nonzero">
            <g id="sidebar/menu1" transform="translate(0.000000, 23.000000)">
                <g id="Group">
                    <g id="mess-tab" transform="translate(15.000000, 333.000000)">
                        <g id="icon" transform="translate(12.000000, 0.000000)">
                            <path d="M10.0645161,15 L16.5,15 C17.8807119,15 19,13.8807119 19,12.5 L19,8.51851852 L23.442754,8.51851852 C24.855082,8.51851852 26,9.66343654 26,11.0757645 L26,22.5386261 C26,22.6389214 25.9646301,22.7360039 25.9001129,22.8127937 C25.7486943,22.9930156 25.4798466,23.0163652 25.2996248,22.8649467 L23.0489845,20.9740067 L12.6217621,20.9740067 C11.2094342,20.9740067 10.0645161,19.8290887 10.0645161,18.4167607 L10.0645161,15 Z" id="Combined-Shape" fill-opacity="0.15"></path>
                            <path d="M2.55724598,0 L16.2790558,-8.8817842e-16 C17.6913838,-1.14761886e-15 18.8363018,1.14491802 18.8363018,2.55724598 L18.8363018,12.293745 C18.8363018,13.706073 17.6913838,14.850991 16.2790558,14.850991 L3.48820403,14.850991 L0.679021513,16.9207618 C0.489516101,17.060387 0.222702996,17.0199511 0.0830777617,16.8304457 C0.0291121312,16.7572012 1.5176912e-13,16.6686101 1.50990331e-13,16.5776319 L4.4408921e-16,2.55724598 C-1.22728632e-14,1.14491802 1.14491802,-1.02892064e-14 2.55724598,-2.30926389e-14 Z" id="Rectangle-9" fill-opacity="0.35"></path>
                        </g>
                    </g>
                </g>
            </g>
        </g>
    </g>
</svg>