<?xml version="1.0" encoding="UTF-8"?>
<svg width="14px" height="16px" viewBox="0 0 14 16" version="1.1" xmlns="http://www.w3.org/2000/svg" xmlns:xlink="http://www.w3.org/1999/xlink">
    <!-- Generator: Sketch 51.3 (57544) - http://www.bohemiancoding.com/sketch -->
    <title>notifications_none - material</title>
    <desc>Created with Sketch.</desc>
    <defs></defs>
    <g id="UI" stroke="none" stroke-width="1" fill="none" fill-rule="evenodd">
        <g id="iPad-2-2-Patient-Planning-Weekly" transform="translate(-803.000000, -364.000000)" fill="#797C80">
            <g id="Right-Bar" transform="translate(789.000000, 23.000000)">
                <g id="Alert" transform="translate(0.000000, 319.000000)">
                    <path d="M23.988,33.462 L23.988,28.962 C23.988,28.3379969 23.8680012,27.7680026 23.628,27.252 C23.3879988,26.7359974 23.0460022,26.3340014 22.602,26.046 C22.1459977,25.7339984 21.6120031,25.578 21,25.578 C20.3879969,25.578 19.8540023,25.7339984 19.398,26.046 C18.9539978,26.3340014 18.6120012,26.7359974 18.372,27.252 C18.1319988,27.7680026 18.012,28.3379969 18.012,28.962 L18.012,33.462 L23.988,33.462 Z M25.5,32.688 L27.012,34.2 L27.012,34.938 L14.988,34.938 L14.988,34.2 L16.5,32.688 L16.5,28.962 C16.5,27.7859941 16.7939971,26.7720043 17.382,25.92 C17.982003,25.0439956 18.8159947,24.4740013 19.884,24.21 L19.884,23.688 C19.884,23.3759984 19.9919989,23.1090011 20.208,22.887 C20.4240011,22.6649989 20.6879984,22.554 21,22.554 C21.3120016,22.554 21.5789989,22.6649989 21.801,22.887 C22.0230011,23.1090011 22.134,23.3759984 22.134,23.688 L22.134,24.21 C23.1900053,24.4740013 24.017997,25.0499956 24.618,25.938 C25.2060029,26.7900043 25.5,27.7979942 25.5,28.962 L25.5,32.688 Z M21,37.188 C20.591998,37.188 20.2380015,37.0440014 19.938,36.756 C19.6379985,36.4679986 19.488,36.120002 19.488,35.712 L22.512,35.712 C22.512,36.120002 22.3620015,36.4679986 22.062,36.756 C21.7619985,37.0440014 21.408002,37.188 21,37.188 Z" id="notifications_none---material"></path>
                </g>
            </g>
        </g>
    </g>
</svg>