<?xml version="1.0" encoding="UTF-8"?>
<svg width="26px" height="23px" viewBox="0 0 26 23" version="1.1" xmlns="http://www.w3.org/2000/svg" xmlns:xlink="http://www.w3.org/1999/xlink">
    <!-- Generator: Sketch 51.3 (57544) - http://www.bohemiancoding.com/sketch -->
    <title>icon</title>
    <desc>Created with Sketch.</desc>
    <defs></defs>
    <g id="UI" stroke="none" stroke-width="1" fill="none" fill-rule="evenodd">
        <g id="iPad-2-3-1" transform="translate(-27.000000, -282.000000)" fill="#FFFFFF" fill-rule="nonzero">
            <g id="sidebar/menu1" transform="translate(0.000000, 23.000000)">
                <g id="Group">
                    <g id="pacients-tab" transform="translate(0.000000, 246.000000)">
                        <g id="icon" transform="translate(27.000000, 13.000000)">
                            <path d="M15.5685615,14.7857143 L22.1764706,14.7857143 C24.2881476,14.7857143 26,16.6245448 26,18.8928571 L26,20.9053571 C26,22.0621964 25.1269553,23 24.05,23 L15.2941176,23 C16.1420009,22.9807201 16.8235294,22.2874823 16.8235294,21.435065 L16.8235294,18.0714286 C16.8235294,16.809132 16.3489843,15.6576714 15.5685615,14.7857143 Z M19.2920493,11.3985714 C17.506388,11.3985714 16.0588235,9.95021259 16.0588235,8.16357143 C16.0588235,6.37693026 17.506388,4.92857143 19.2920493,4.92857143 C21.0777106,4.92857143 22.5252751,6.37693026 22.5252751,8.16357143 C22.5252751,9.95021259 21.0777106,11.3985714 19.2920493,11.3985714 Z" id="Combined-Shape" fill-opacity="0.15"></path>
                            <path d="M4.92857143,13.1428571 L11.894958,13.1428571 C14.6169328,13.1428571 16.8235294,15.3494537 16.8235294,18.0714286 L16.8235294,21.435065 C16.8235294,22.2993547 16.1228841,23 15.2585944,23 L1.564935,23 C0.700645265,23 1.05844966e-16,22.2993547 0,21.435065 L0,18.0714286 C-3.33345777e-16,15.3494537 2.20659659,13.1428571 4.92857143,13.1428571 Z M8.6754649,9.7 C5.99581492,9.7 3.82352941,7.52858104 3.82352941,4.85 C3.82352941,2.17141896 5.99581492,2.66453526e-13 8.6754649,2.66453526e-13 C11.3551149,2.66453526e-13 13.5274004,2.17141896 13.5274004,4.85 C13.5274004,7.52858104 11.3551149,9.7 8.6754649,9.7 Z" id="Combined-Shape" fill-opacity="0.35"></path>
                        </g>
                    </g>
                </g>
            </g>
        </g>
    </g>
</svg>