<?xml version="1.0" encoding="UTF-8"?>
<svg width="14px" height="14px" viewBox="0 0 14 14" version="1.1" xmlns="http://www.w3.org/2000/svg" xmlns:xlink="http://www.w3.org/1999/xlink">
    <!-- Generator: Sketch 51.3 (57544) - http://www.bohemiancoding.com/sketch -->
    <title></title>
    <desc>Created with Sketch.</desc>
    <defs></defs>
    <g id="UI" stroke="none" stroke-width="1" fill="none" fill-rule="evenodd">
        <g id="iPad-2-2-Patient-Planning-Weekly" transform="translate(-804.000000, -40.000000)" fill="#797C80">
            <g id="Right-Bar" transform="translate(789.000000, 23.000000)">
                <g id="Top" transform="translate(12.000000, 14.000000)">
                    <g id="Group-3-Copy-+-Group-3-Copy-3-+-Group-3-Copy-4-+-Group-3-Copy-5-+-Group-3-Copy-6-+-Group-3-Copy-+-Group-3-Copy-+-Group-9-+-Jonathan-Anderson-+-UI/Molecules/Arrow-Mask">
                        <path d="M10,10.82 C10.8133374,10.82 11.719995,10.9466654 12.72,11.2 C13.8400056,11.4800014 14.7466632,11.853331 15.44,12.32 C16.2666708,12.8800028 16.68,13.4999966 16.68,14.18 L16.68,16.68 L3.32,16.68 L3.32,14.18 C3.32,13.4999966 3.7333292,12.8800028 4.56,12.32 C5.2533368,11.853331 6.1599944,11.4800014 7.28,11.2 C8.280005,10.9466654 9.1866626,10.82 10,10.82 Z M10,3.32 C10.600003,3.32 11.1533308,3.4699985 11.66,3.77 C12.1666692,4.0700015 12.5699985,4.4799974 12.87,5 C13.1700015,5.5200026 13.32,6.079997 13.32,6.68 C13.32,7.280003 13.1700015,7.8333308 12.87,8.34 C12.5699985,8.8466692 12.1666692,9.2499985 11.66,9.55 C11.1533308,9.8500015 10.600003,10 10,10 C9.399997,10 8.8466692,9.8500015 8.34,9.55 C7.8333308,9.2499985 7.4300015,8.8466692 7.13,8.34 C6.8299985,7.8333308 6.68,7.280003 6.68,6.68 C6.68,6.079997 6.8299985,5.5200026 7.13,5 C7.4300015,4.4799974 7.8333308,4.0700015 8.34,3.77 C8.8466692,3.4699985 9.399997,3.32 10,3.32 Z M10,12.42 C9.2399962,12.42 8.4333376,12.5333322 7.58,12.76 C6.846663,12.960001 6.2200026,13.1999986 5.7,13.48 C5.1799974,13.7600014 4.92,13.9933324 4.92,14.18 L4.92,15.08 L15.08,15.08 L15.08,14.18 C15.08,13.9933324 14.8200026,13.7600014 14.3,13.48 C13.7799974,13.1999986 13.153337,12.960001 12.42,12.76 C11.5666624,12.5333322 10.7600038,12.42 10,12.42 Z M10,4.92 C9.5066642,4.92 9.0900017,5.0899983 8.75,5.43 C8.4099983,5.7700017 8.24,6.1866642 8.24,6.68 C8.24,7.1733358 8.4099983,7.5833317 8.75,7.91 C9.0900017,8.2366683 9.5066642,8.4 10,8.4 C10.4933358,8.4 10.9099983,8.2366683 11.25,7.91 C11.5900017,7.5833317 11.76,7.1733358 11.76,6.68 C11.76,6.1866642 11.5900017,5.7700017 11.25,5.43 C10.9099983,5.0899983 10.4933358,4.92 10,4.92 Z" id=""></path>
                    </g>
                </g>
            </g>
        </g>
    </g>
</svg>