<?xml version="1.0" encoding="UTF-8"?>
<svg width="51px" height="52px" viewBox="0 0 51 52" version="1.1" xmlns="http://www.w3.org/2000/svg" xmlns:xlink="http://www.w3.org/1999/xlink">
    <!-- Generator: Sketch 51.3 (57544) - http://www.bohemiancoding.com/sketch -->
    <title>surgeon</title>
    <desc>Created with Sketch.</desc>
    <defs></defs>
    <g id="UI" stroke="none" stroke-width="1" fill="none" fill-rule="evenodd">
        <g id="iPad-2-3-1-Copy" transform="translate(-15.000000, -690.000000)" fill="#FFFFFF">
            <g id="sidebar/menu1" transform="translate(0.000000, 23.000000)">
                <g id="Group">
                    <g id="surgeon" transform="translate(15.000000, 667.000000)">
                        <path d="M9,44.9429028 C3.49377175,40.2654928 0,33.2907535 0,25.5 C0,11.4167389 11.4167389,0 25.5,0 C39.5832611,0 51,11.4167389 51,25.5 C51,33.2907535 47.5062282,40.2654928 42,44.9429028 L42,41.4607384 C42,39.8037693 40.9790521,38.3092706 38.9371257,36.9771974 C37.2245423,35.8400618 34.9850438,34.9303669 32.2185629,34.2480855 C29.7814249,33.6632729 27.5419264,33.370871 25.5,33.370871 C23.4580736,33.370871 21.2185751,33.6632729 18.7814371,34.2480855 C16.0149562,34.9303669 13.7754577,35.8400618 12.0628743,36.9771974 C10.0209479,38.3092706 9,39.8037693 9,41.4607384 L9,44.9429028 Z M25.5,29.2772031 C26.9820433,29.2772031 28.3487961,28.9117007 29.6002994,28.180685 C30.8518027,27.4496692 31.8480502,26.4668738 32.5890719,25.2322694 C33.3300935,23.997665 33.7005988,22.6493673 33.7005988,21.1873357 C33.7005988,19.7253042 33.3300935,18.3607619 32.5890719,17.0936679 C31.8480502,15.8265739 30.8518027,14.8275339 29.6002994,14.0965182 C28.3487961,13.3655024 26.9820433,13 25.5,13 C24.0179567,13 22.6512039,13.3655024 21.3997006,14.0965182 C20.1481973,14.8275339 19.1519498,15.8265739 18.4109281,17.0936679 C17.6699065,18.3607619 17.2994012,19.7253042 17.2994012,21.1873357 C17.2994012,22.6493673 17.6699065,23.997665 18.4109281,25.2322694 C19.1519498,26.4668738 20.1481973,27.4496692 21.3997006,28.180685 C22.6512039,28.9117007 24.0179567,29.2772031 25.5,29.2772031 Z" id="Combined-Shape" fill-opacity="0.25" fill-rule="nonzero"></path>
                        <path d="M25.5,33.370871 C27.5419264,33.370871 29.7814249,33.6632729 32.2185629,34.2480855 C34.9850438,34.9303669 37.2245423,35.8400618 38.9371257,36.9771974 C40.9790521,38.3092706 42,39.8037693 42,41.4607384 L42,45.5544063 C36.1201074,49.8514688 30.4781499,52 25.0741276,52 C19.6701053,52 14.3120628,49.8514688 9,45.5544063 L9,41.4607384 C9,39.8037693 10.0209479,38.3092706 12.0628743,36.9771974 C13.7754577,35.8400618 16.0149562,34.9303669 18.7814371,34.2480855 C21.2185751,33.6632729 23.4580736,33.370871 25.5,33.370871 Z M25.5,29.2772031 C24.0179567,29.2772031 22.6512039,28.9117007 21.3997006,28.180685 C20.1481973,27.4496692 19.1519498,26.4668738 18.4109281,25.2322694 C17.6699065,23.997665 17.2994012,22.6493673 17.2994012,21.1873357 C17.2994012,19.7253042 17.6699065,18.3607619 18.4109281,17.0936679 C19.1519498,15.8265739 20.1481973,14.8275339 21.3997006,14.0965182 C22.6512039,13.3655024 24.0179567,13 25.5,13 C26.9820433,13 28.3487961,13.3655024 29.6002994,14.0965182 C30.8518027,14.8275339 31.8480502,15.8265739 32.5890719,17.0936679 C33.3300935,18.3607619 33.7005988,19.7253042 33.7005988,21.1873357 C33.7005988,22.6493673 33.3300935,23.997665 32.5890719,25.2322694 C31.8480502,26.4668738 30.8518027,27.4496692 29.6002994,28.180685 C28.3487961,28.9117007 26.9820433,29.2772031 25.5,29.2772031 Z" id="person---material" fill-opacity="0.467108243"></path>
                    </g>
                </g>
            </g>
        </g>
    </g>
</svg>