<?xml version="1.0" encoding="UTF-8"?>
<svg width="22px" height="22px" viewBox="0 0 22 22" version="1.1" xmlns="http://www.w3.org/2000/svg" xmlns:xlink="http://www.w3.org/1999/xlink">
    <!-- Generator: Sketch 51.3 (57544) - http://www.bohemiancoding.com/sketch -->
    <title>refresh - material</title>
    <desc>Created with Sketch.</desc>
    <defs></defs>
    <g id="UI" stroke="none" stroke-width="1" fill="none" fill-rule="evenodd">
        <g id="mobile-messages-Copy" transform="translate(-344.000000, -31.000000)" fill="#FFFFFF">
            <path d="M362.552,34.248 L365.688,31.112 L365.688,40.488 L356.312,40.488 L360.632,36.168 C359.88533,35.4213296 359.026672,34.8400021 358.056,34.424 C357.085328,34.0079979 356.066672,33.8 355,33.8 C353.549326,33.8 352.210673,34.1573298 350.984,34.872 C349.757327,35.5866702 348.78667,36.5573272 348.072,37.784 C347.35733,39.0106728 347,40.3493261 347,41.8 C347,43.2506739 347.35733,44.5893272 348.072,45.816 C348.78667,47.0426728 349.757327,48.0133298 350.984,48.728 C352.210673,49.4426702 353.549326,49.8 355,49.8 C356.728009,49.8 358.285326,49.3093382 359.672,48.328 C361.058674,47.3466618 362.018664,46.0666746 362.552,44.488 L365.304,44.488 C364.919998,46.0240077 364.226672,47.3946606 363.224,48.6 C362.221328,49.8053394 361.026674,50.7493299 359.64,51.432 C358.189326,52.1360035 356.642675,52.488 355,52.488 C353.07999,52.488 351.288008,51.9973382 349.624,51.016 C348.023992,50.0773286 346.754671,48.7973414 345.816,47.176 C344.855995,45.5333251 344.376,43.741343 344.376,41.8 C344.376,39.858657 344.855995,38.0666749 345.816,36.424 C346.754671,34.8026586 348.023992,33.5226714 349.624,32.584 C351.288008,31.6026618 353.07999,31.112 355,31.112 C356.450674,31.112 357.82666,31.3893306 359.128,31.944 C360.42934,32.4986694 361.570662,33.2666618 362.552,34.248 Z" id="refresh---material"></path>
        </g>
    </g>
</svg>