<?xml version="1.0" encoding="UTF-8"?>
<svg width="13px" height="13px" viewBox="0 0 13 13" version="1.1" xmlns="http://www.w3.org/2000/svg" xmlns:xlink="http://www.w3.org/1999/xlink">
    <!-- Generator: Sketch 51.3 (57544) - http://www.bohemiancoding.com/sketch -->
    <title>refresh - material</title>
    <desc>Created with Sketch.</desc>
    <defs></defs>
    <g id="UI" stroke="none" stroke-width="1" fill="none" fill-rule="evenodd">
        <g id="iPad-2-1-2-Add-Task-Free-Mode-Copy" transform="translate(-743.000000, -44.000000)" fill="#4F5FE8">
            <g id="Add-Task" transform="translate(136.000000, 39.000000)">
                <g id="Top">
                    <g id="Group-5" transform="translate(554.000000, 0.000000)">
                        <path d="M64.0870871,6.90718563 L66,5 L66,10.7020958 L60.2807808,10.7020958 L62.9159159,8.0748503 C62.4604582,7.62075621 61.9366896,7.26721683 61.3445946,7.01422156 C60.7524995,6.76122628 60.1311344,6.63473054 59.4804805,6.63473054 C58.5955912,6.63473054 57.7790328,6.85204374 57.0307808,7.28667665 C56.2825288,7.72130956 55.6904426,8.31162302 55.2545045,9.05763473 C54.8185664,9.80364644 54.6006006,10.6177601 54.6006006,11.5 C54.6006006,12.3822399 54.8185664,13.1963536 55.2545045,13.9423653 C55.6904426,14.688377 56.2825288,15.2786904 57.0307808,15.7133234 C57.7790328,16.1479563 58.5955912,16.3652695 59.4804805,16.3652695 C60.5345398,16.3652695 61.4844803,16.0668693 62.3303303,15.4700599 C63.1761804,14.8732505 63.7617601,14.0948152 64.0870871,13.1347305 L65.7657658,13.1347305 C65.5315304,14.0688669 65.1086117,14.9024414 64.496997,15.635479 C63.8853823,16.3685166 63.1566609,16.9426127 62.3108108,17.3577844 C61.4259215,17.7859303 60.4824875,18 59.4804805,18 C58.3093035,18 57.2162213,17.7015998 56.2012012,17.1047904 C55.2252203,16.5339293 54.4509538,15.755494 53.8783784,14.7694611 C53.2927899,13.7704541 53,12.6806446 53,11.5 C53,10.3193554 53.2927899,9.22954591 53.8783784,8.23053892 C54.4509538,7.24450605 55.2252203,6.46607072 56.2012012,5.89520958 C57.2162213,5.29840021 58.3093035,5 59.4804805,5 C60.3653698,5 61.2047007,5.16866099 61.9984985,5.50598802 C62.7922963,5.84331506 63.4884855,6.31037626 64.0870871,6.90718563 Z" id="refresh---material"></path>
                    </g>
                </g>
            </g>
        </g>
    </g>
</svg>