<?xml version="1.0" encoding="UTF-8"?>
<svg width="16px" height="16px" viewBox="0 0 16 16" version="1.1" xmlns="http://www.w3.org/2000/svg" xmlns:xlink="http://www.w3.org/1999/xlink">
    <!-- Generator: Sketch 51.3 (57544) - http://www.bohemiancoding.com/sketch -->
    <title>search - material</title>
    <desc>Created with Sketch.</desc>
    <defs></defs>
    <g id="UI" stroke="none" stroke-width="1" fill="none" fill-rule="evenodd">
        <g id="iPad-messages-Copy" transform="translate(-326.000000, -152.000000)" fill="#4F5FE8">
            <g id="search" transform="translate(21.000000, 139.000000)">
                <path d="M310.94,22.68 C311.620003,22.68 312.246664,22.5100017 312.82,22.17 C313.393336,21.8299983 313.846665,21.3733362 314.18,20.8 C314.513335,20.2266638 314.68,19.6000034 314.68,18.92 C314.68,18.2399966 314.513335,17.6133362 314.18,17.04 C313.846665,16.4666638 313.393336,16.013335 312.82,15.68 C312.246664,15.346665 311.620003,15.18 310.94,15.18 C310.259997,15.18 309.633336,15.346665 309.06,15.68 C308.486664,16.013335 308.030002,16.4666638 307.69,17.04 C307.349998,17.6133362 307.18,18.2399966 307.18,18.92 C307.18,19.6000034 307.349998,20.2266638 307.69,20.8 C308.030002,21.3733362 308.486664,21.8299983 309.06,22.17 C309.633336,22.5100017 310.259997,22.68 310.94,22.68 Z M315.94,22.68 L320.08,26.82 L318.82,28.08 L314.68,23.92 L314.68,23.26 L314.44,23.04 C313.973331,23.4533354 313.43667,23.7699989 312.83,23.99 C312.22333,24.2100011 311.593337,24.32 310.94,24.32 C309.953328,24.32 309.043338,24.0800024 308.21,23.6 C307.376663,23.1199976 306.720002,22.4733374 306.24,21.66 C305.746664,20.8199958 305.5,19.9066716 305.5,18.92 C305.5,17.9333284 305.743331,17.0233375 306.23,16.19 C306.716669,15.3566625 307.376663,14.7000024 308.21,14.22 C309.043338,13.7399976 309.953328,13.5 310.94,13.5 C311.926672,13.5 312.839996,13.7466642 313.68,14.24 C314.493337,14.7200024 315.136664,15.3733292 315.61,16.2 C316.083336,17.0266708 316.32,17.9333284 316.32,18.92 C316.32,19.58667 316.210001,20.2233303 315.99,20.83 C315.769999,21.4366697 315.453335,21.973331 315.04,22.44 L315.26,22.68 L315.94,22.68 Z" id="search---material"></path>
            </g>
        </g>
    </g>
</svg>