<?xml version="1.0" encoding="UTF-8"?>
<svg width="18px" height="15px" viewBox="0 0 18 15" version="1.1" xmlns="http://www.w3.org/2000/svg" xmlns:xlink="http://www.w3.org/1999/xlink">
    <!-- Generator: Sketch 51.3 (57544) - http://www.bohemiancoding.com/sketch -->
    <title>Shape</title>
    <desc>Created with Sketch.</desc>
    <defs></defs>
    <g id="UI" stroke="none" stroke-width="1" fill="none" fill-rule="evenodd">
        <g id="iPad-2-2-Patient-Planning-Weekly" transform="translate(-802.000000, -423.000000)" fill="#797C80" fill-rule="nonzero">
            <g id="Right-Bar" transform="translate(789.000000, 23.000000)">
                <g id="Vital" transform="translate(0.000000, 397.000000)">
                    <path d="M30.2500117,11.2500298 L27.823,11.2500298 L25.72375,3.55203549 C25.6330117,3.2197735 25.3262383,2.99628505 24.9827617,3.00004677 C24.6377734,3.00830849 24.3430234,3.25053525 24.2672617,3.58655895 L21.83125,14.5485324 L18.95575,6.49728781 C18.8462383,6.19054928 18.5545117,5.99254913 18.2260117,6.00003742 C17.8997617,6.01054914 17.6185117,6.23027588 17.5285117,6.54379956 L16.1844883,11.2500298 L13.7499883,11.2500298 C13.33525,11.2500298 13,11.5860184 13,12.0000187 C13,12.414019 13.33525,12.7500076 13.7499883,12.7500076 L16.7499766,12.7500076 C17.0844883,12.7500076 17.3792383,12.5279957 17.4707148,12.2055072 L18.3287031,9.20175478 L21.2942031,17.5020113 C21.4006914,17.8019998 21.6841914,18 21.9999648,18 C22.3794766,17.9775 22.6592148,17.7389998 22.7319883,17.4127495 L25.0735,6.87300295 L26.5262617,12.1972454 C26.6155234,12.5234957 26.91175,12.7500076 27.2500234,12.7500076 L30.2500117,12.7500076 C30.66475,12.7500076 31,12.414019 31,12.0000187 C31,11.5860184 30.66475,11.2500298 30.2500117,11.2500298 Z" id="Shape"></path>
                </g>
            </g>
        </g>
    </g>
</svg>