<?xml version="1.0" encoding="UTF-8"?>
<svg width="155px" height="106px" viewBox="0 0 155 106" version="1.1" xmlns="http://www.w3.org/2000/svg" xmlns:xlink="http://www.w3.org/1999/xlink">
    <!-- Generator: Sketch 51.3 (57544) - http://www.bohemiancoding.com/sketch -->
    <title>Lifeline-Logo</title>
    <desc>Created with Sketch.</desc>
    <defs>
        <linearGradient x1="0.00811333854%" y1="50.0408791%" x2="100.058819%" y2="50.0408791%" id="linearGradient-1">
            <stop stop-color="#7228EA" offset="0%"></stop>
            <stop stop-color="#6E2FEA" offset="12%"></stop>
            <stop stop-color="#6241E9" offset="30%"></stop>
            <stop stop-color="#4E5FE8" offset="50%"></stop>
            <stop stop-color="#3389E7" offset="73%"></stop>
            <stop stop-color="#11BEE5" offset="97%"></stop>
            <stop stop-color="#0CC6E5" offset="100%"></stop>
        </linearGradient>
        <linearGradient x1="19.5354403%" y1="-89.4954675%" x2="80.4578691%" y2="189.476986%" id="linearGradient-2">
            <stop stop-color="#7228EA" offset="0%"></stop>
            <stop stop-color="#6E2FEA" offset="12%"></stop>
            <stop stop-color="#6241E9" offset="30%"></stop>
            <stop stop-color="#4E5FE8" offset="50%"></stop>
            <stop stop-color="#3389E7" offset="73%"></stop>
            <stop stop-color="#11BEE5" offset="97%"></stop>
            <stop stop-color="#0CC6E5" offset="100%"></stop>
        </linearGradient>
        <linearGradient x1="0%" y1="50.0143622%" x2="100%" y2="50.0143622%" id="linearGradient-3">
            <stop stop-color="#7228EA" offset="4%"></stop>
            <stop stop-color="#6E2FEA" offset="16%"></stop>
            <stop stop-color="#6241E9" offset="33%"></stop>
            <stop stop-color="#4E5FE8" offset="52%"></stop>
            <stop stop-color="#3389E7" offset="74%"></stop>
            <stop stop-color="#11BEE5" offset="97%"></stop>
            <stop stop-color="#0CC6E5" offset="100%"></stop>
        </linearGradient>
        <linearGradient x1="16.5253235%" y1="-48.7752133%" x2="83.4770589%" y2="148.712598%" id="linearGradient-4">
            <stop stop-color="#7228EA" offset="4%"></stop>
            <stop stop-color="#6E2FEA" offset="16%"></stop>
            <stop stop-color="#6241E9" offset="33%"></stop>
            <stop stop-color="#4E5FE8" offset="52%"></stop>
            <stop stop-color="#3389E7" offset="74%"></stop>
            <stop stop-color="#11BEE5" offset="97%"></stop>
            <stop stop-color="#0CC6E5" offset="100%"></stop>
        </linearGradient>
        <linearGradient x1="0.0566411781%" y1="50.013725%" x2="100.056641%" y2="50.013725%" id="linearGradient-5">
            <stop stop-color="#7228EA" offset="4%"></stop>
            <stop stop-color="#6E2FEA" offset="16%"></stop>
            <stop stop-color="#6241E9" offset="33%"></stop>
            <stop stop-color="#4E5FE8" offset="52%"></stop>
            <stop stop-color="#3389E7" offset="74%"></stop>
            <stop stop-color="#11BEE5" offset="97%"></stop>
            <stop stop-color="#0CC6E5" offset="100%"></stop>
        </linearGradient>
    </defs>
    <g id="UI" stroke="none" stroke-width="1" fill="none" fill-rule="evenodd">
        <g id="iPad-0-login-Copy" transform="translate(-648.000000, -101.000000)" fill-rule="nonzero">
            <g id="Lifeline-Logo" transform="translate(648.000000, 101.000000)">
                <g id="Group-4">
                    <g id="Group-2" transform="translate(38.000000, 0.000000)">
                        <path d="M23.2287234,0.52876377 C22.8256867,0.514232713 22.4366228,0.676671527 22.1648936,0.972925337 L0.888297872,22.1234761 C0.656878189,22.3828274 0.529964654,22.7180032 0.531914894,23.0646756 C0.510077049,23.4394723 0.651541314,23.8054857 0.920212766,24.0693268 L4.38829787,27.495716 L27.6595745,4.3623011 L24.2553191,0.967637699 C23.988194,0.687516819 23.6170037,0.528831433 23.2287234,0.52876377 Z" id="Shape" fill="url(#linearGradient-1)"></path>
                        <rect id="Rectangle-path" fill="url(#linearGradient-2)" transform="translate(21.852280, 21.728773) rotate(-45.000000) translate(-21.852280, -21.728773) " x="5.38685435" y="18.1543297" width="32.9308511" height="7.14888617"></rect>
                        <path d="M44.4042553,20.9919217 L59.3989362,6.08607099 L55.3617021,2.06746634 C55.101067,1.77763201 54.7260995,1.61540049 54.3351064,1.62330477 C53.9751443,1.61745935 53.6260104,1.74572271 53.356383,1.98286414 L39.3191489,15.9422277 L44.4042553,20.9919217 Z" id="Shape" fill="url(#linearGradient-3)"></path>
                        <rect id="Rectangle-path" fill="url(#linearGradient-4)" transform="translate(57.536602, 19.510615) rotate(-45.000000) translate(-57.536602, -19.510615) " x="46.6692253" y="15.9361721" width="21.7347538" height="7.14888617"></rect>
                        <path d="M60.4255319,36.9235741 L74.4680851,22.9536353 C74.6821991,22.6846522 74.8050983,22.3551602 74.8191489,22.0124357 C74.8048133,21.6469781 74.6638821,21.2976713 74.4202128,21.0236475 L71.037234,17.6607099 L56.037234,32.5718482 L60.4255319,36.9235741 Z" id="Shape" fill="url(#linearGradient-5)"></path>
                        <rect id="Rectangle-path" fill="#7228EA" transform="translate(30.218508, 30.044678) rotate(-45.000000) translate(-30.218508, -30.044678) " x="13.7530822" y="26.4702351" width="32.9308511" height="7.14888617"></rect>
                        <rect id="Rectangle-path" fill="#7228EA" transform="translate(46.592782, 46.320027) rotate(-45.000000) translate(-46.592782, -46.320027) " x="30.1273564" y="43.2426219" width="32.9308511" height="6.15481028"></rect>
                        <rect id="Rectangle-path" fill="#7228EA" transform="translate(38.579416, 38.358393) rotate(-45.000000) translate(-38.579416, -38.358393) " x="22.1139908" y="34.7839502" width="32.9308511" height="7.14888617"></rect>
                    </g>
                    <g id="Group-3" transform="translate(0.000000, 70.325581)" fill="#413E49">
                        <polygon id="Shape" points="0.0662393162 1.33192389 5.87321937 1.33192389 5.87321937 29.4488372 20.4458689 29.4488372 20.4458689 34.5856237 0.0662393162 34.5856237"></polygon>
                        <path d="M24.9236467,3.25433404 C24.940449,1.46968726 26.3766049,0.0277689517 28.1517094,0.0133192389 C29.8868791,0.0778757019 31.2603983,1.51084153 31.2603983,3.25655391 C31.2603983,5.00226629 29.8868791,6.43523212 28.1517094,6.49978858 C26.3749015,6.4853037 24.938054,5.04071486 24.9236467,3.25433404 Z M25.5683761,10.4911205 L30.7792023,10.4911205 L30.7792023,34.5856237 L25.5683761,34.5856237 L25.5683761,10.4911205 Z" id="Shape"></path>
                        <path d="M38.7720798,15.0951374 L34.7977208,15.0951374 L34.7977208,10.4911205 L38.7720798,10.4911205 L38.7720798,9.15919662 C38.7720798,3.76934461 41.947151,0.825792812 46.3586895,0.825792812 C47.8069379,0.785804981 49.2419451,1.11252039 50.5317664,1.77589852 L49.3924501,5.61627907 C48.7500883,5.27331017 48.0308316,5.10208234 47.3037037,5.11902748 C45.2723647,5.11902748 43.982906,6.45095137 43.982906,9.15919662 L43.982906,10.4911205 L48.8404558,10.4911205 L48.8404558,15.0951374 L43.982906,15.0951374 L43.982906,34.5856237 L38.7720798,34.5856237 L38.7720798,15.0951374 Z" id="Shape"></path>
                        <path d="M63.4793447,9.89175476 C70.6773504,9.89175476 75.2876068,15.4281184 75.2876068,23.0112051 L75.2876068,24.2587738 L56.7759259,24.2587738 C57.1733618,27.8993658 59.9068376,30.8917548 64.419943,30.8917548 C66.7559829,30.8917548 69.5336182,29.9460888 71.2205128,28.227907 L73.6007123,31.6731501 C71.2205128,33.9640592 67.6965812,35.1627907 63.8856125,35.1627907 C56.6964387,35.1627907 51.3354701,30.1236786 51.3354701,22.4917548 C51.3222222,15.5391121 56.382906,9.89175476 63.4793447,9.89175476 Z M56.7317664,20.5471459 L70.2136752,20.5471459 C70.1165242,17.7057082 68.1779202,14.1627907 63.4660969,14.1627907 C59.0103989,14.1805497 56.965812,17.6257928 56.7317664,20.5649049 L56.7317664,20.5471459 Z" id="Shape"></path>
                        <polygon id="Shape" points="80.4454416 1.33192389 85.6695157 1.33192389 85.6695157 34.6300211 80.4586895 34.6300211"></polygon>
                        <path d="M91.7635328,3.25433404 C91.7659708,1.46495098 93.2103245,0.0161267538 94.9901194,0.0177603358 C96.7699144,0.0193939178 98.2116344,1.47086712 98.2108229,3.26025167 C98.2100113,5.04963622 96.7669752,6.4997869 94.9871795,6.49978858 C93.2111042,6.48527203 91.7755402,5.0399965 91.7635328,3.25433404 Z M92.4038462,10.4911205 L97.6146724,10.4911205 L97.6146724,34.5856237 L92.4038462,34.5856237 L92.4038462,10.4911205 Z" id="Shape"></path>
                        <path d="M120.555556,19.5348837 C120.555556,15.7921776 118.674359,14.5401691 115.742165,14.5401691 C113.301082,14.5951764 111.02299,15.7838059 109.573077,17.7589852 L109.573077,34.5856237 L104.362251,34.5856237 L104.362251,10.4911205 L109.573077,10.4911205 L109.573077,13.7632135 C111.703505,11.3158111 114.772773,9.9005416 118.00755,9.87399577 C123.169801,9.87399577 125.753134,12.6621564 125.753134,17.6080338 L125.753134,34.5856237 L120.555556,34.5856237 L120.555556,19.5348837 Z" id="Shape"></path>
                        <path d="M143.165242,9.89175476 C150.363248,9.89175476 154.973504,15.4281184 154.973504,23.0112051 L154.973504,24.2587738 L136.452991,24.2587738 C136.846011,27.8993658 139.579487,30.8917548 144.092593,30.8917548 C146.428632,30.8917548 149.206268,29.9460888 150.893162,28.227907 L153.273362,31.6731501 C150.893162,33.9640592 147.369231,35.1627907 143.558262,35.1627907 C136.364672,35.1627907 131.003704,30.1236786 131.003704,22.4917548 C131.00812,15.5391121 136.068803,9.89175476 143.165242,9.89175476 Z M136.417664,20.5471459 L149.912821,20.5471459 C149.81567,17.7057082 147.877066,14.1627907 143.165242,14.1627907 C138.696296,14.1805497 136.660541,17.6257928 136.417664,20.5649049 L136.417664,20.5471459 Z" id="Shape"></path>
                    </g>
                </g>
            </g>
        </g>
    </g>
</svg>