<?xml version="1.0" encoding="UTF-8"?>
<svg width="94px" height="110px" viewBox="0 0 94 110" version="1.1" xmlns="http://www.w3.org/2000/svg" xmlns:xlink="http://www.w3.org/1999/xlink">
    <!-- Generator: Sketch 50.2 (55047) - http://www.bohemiancoding.com/sketch -->
    <title>bitcoin 6</title>
    <desc>Created with Sketch.</desc>
    <defs>
        <path d="M46.2086908,111.516826 C46.5685433,111.531538 46.928538,111.539122 47.2885622,111.539573 L38.8258955,111.528587 C28.5995622,111.517602 18.3988955,105.748377 10.7978955,94.314289 C-3.94943781,72.127215 -3.32427114,37.0285017 12.1875622,15.9125152 C19.7023955,5.68317194 29.3328955,0.613357796 38.9395622,0.626174228 L47.4003955,0.635328822 C37.7918955,0.624343309 28.1632289,5.69415745 20.6483955,15.9235008 C12.8924789,26.4805785 8.85868719,40.5337957 8.60729136,54.7213566 C8.85868719,40.5337957 12.8924789,26.4805785 20.6483955,15.9235008 C36.1602289,-5.1924857 60.6883955,-4.32829203 75.4357289,17.856951 C90.1775622,40.0367013 89.5523955,75.1354146 74.0405622,96.2495701 C66.2447106,106.861926 56.1719667,111.922966 46.2086908,111.516826 Z" id="path-1"></path>
        <path d="M5.962,0.0135081967 C8.78166667,0.0171803279 11.6013333,0.020852459 14.4228333,0.0245245902 C21.4151667,17.2596721 19.5378333,39.7588197 9.01816667,54.1186885 L0.557333333,54.1095082 C11.077,39.7478033 12.9543333,17.2486557 5.962,0.0135081967" id="path-3"></path>
        <path d="M10.8276667,10.1596066 C7.90716667,5.75488525 4.50266667,2.40406557 0.845166667,0.123672131 C3.66483333,0.127344262 6.4845,0.131016393 9.306,0.134688525 C12.9616667,2.41508197 16.3698333,5.76406557 19.2885,10.170623 C20.9751667,12.7154098 22.4106667,15.4750164 23.5895,18.3851803 C20.768,18.3815082 17.9483333,18.3778361 15.1286667,18.3741639 C13.948,15.4658361 12.5143333,12.7062295 10.8276667,10.1596066" id="path-5"></path>
        <path d="M0.349333333,12.178623 C7.96683333,12.1878033 15.6008333,8.15763934 21.5573333,0.0275409836 L30.0181667,0.0367213115 C24.0616667,8.16681967 16.4276667,12.1988197 8.812,12.1878033 C6.27283333,12.1859672 2.8885,12.180459 0.349333333,12.178623" id="path-7"></path>
        <path d="M27.1186667,0.627934426 L35.5795,0.637114754 C25.971,0.626098361 16.3423333,5.71016393 8.8275,15.9682623 L0.366666667,15.9572459 C7.8815,5.69914754 17.512,0.615081967 27.1186667,0.627934426" id="path-9"></path>
        <path d="M47.301,96.1645902 L38.8383333,96.1535738 C28.612,96.1425574 18.4113333,90.3571148 10.8103333,78.8908852 C-3.937,56.6414426 -3.31183333,21.4440656 12.2,0.268721311 L20.6608333,0.279737705 C5.149,21.4532459 4.52566667,56.650623 19.273,78.9019016 C26.8721667,90.3681311 37.0746667,96.1517377 47.301,96.1645902" id="path-11"></path>
    </defs>
    <g id="ICO" stroke="none" stroke-width="1" fill="none" fill-rule="evenodd">
        <g id="01-Ñontract-ICO-hover" transform="translate(-161.000000, -1208.000000)">
            <g id="content">
                <g id="bitcoin-6" transform="translate(208.300254, 1263.544446) rotate(-27.000000) translate(-208.300254, -1263.544446) translate(163.800254, 1207.044446)">
                    <g id="Group-2-Copy">
                        <g id="Group-318" transform="translate(1.012438, 0.000000)">
                            <mask id="mask-2" fill="white">
                                <use xlink:href="#path-1"></use>
                            </mask>
                            <use id="Combined-Shape" fill="#F4B83A" xlink:href="#path-1"></use>
                        </g>
                        <g id="Group-366" transform="translate(0.000000, 14.647350)"></g>
                    </g>
                    <g id="Group-2-Copy" transform="translate(1.000000, 0.000000)">
                        <g id="Group-269" transform="translate(59.500000, 34.049180)">
                            <mask id="mask-4" fill="white">
                                <use xlink:href="#path-3"></use>
                            </mask>
                            <g id="Clip-239"></g>
                            <path d="M9.01816667,54.1186885 L0.557333333,54.1095082 C0.572,54.0874754 0.590333333,54.0636066 0.606833333,54.0397377 L9.06766667,54.0507541 C9.04933333,54.074623 9.03466667,54.0966557 9.01816667,54.1186885" id="Fill-238" fill="#F8C93B" mask="url(#mask-4)"></path>
                            <path d="M9.06766667,54.0507541 L0.606833333,54.0397377 C0.903833333,53.6339672 1.1935,53.2171803 1.4795,52.7985574 L9.94033333,52.8077377 C9.65616667,53.2281967 9.36466667,53.6431475 9.06766667,54.0507541" id="Fill-240" fill="#F8CB3B" mask="url(#mask-4)"></path>
                            <path d="M9.94033333,52.8077377 L1.4795,52.7985574 C1.76183333,52.3762623 2.03866667,51.9502951 2.31,51.5169836 L10.769,51.5261639 C10.4995,51.9613115 10.2226667,52.3872787 9.94033333,52.8077377" id="Fill-241" fill="#F8CD3B" mask="url(#mask-4)"></path>
                            <path d="M10.769,51.5261639 L2.31,51.5169836 C2.596,51.0561311 2.87466667,50.5897705 3.146,50.1160656 L11.6068333,50.1252459 C11.3373333,50.5989508 11.0568333,51.0653115 10.769,51.5261639" id="Fill-242" fill="#F8CF3B" mask="url(#mask-4)"></path>
                            <path d="M11.6068333,50.1252459 L3.146,50.1160656 C3.41733333,49.6423607 3.6795,49.1631475 3.93433333,48.6784262 L12.397,48.6876066 C12.1403333,49.1741639 11.8763333,49.653377 11.6068333,50.1252459" id="Fill-243" fill="#F8D13B" mask="url(#mask-4)"></path>
                            <path d="M12.397,48.6876066 L3.93433333,48.6784262 C4.18,48.2102295 4.42016667,47.7365246 4.65116667,47.2573115 L13.112,47.2683279 C12.881,47.747541 12.6408333,48.2212459 12.397,48.6876066" id="Fill-244" fill="#F8D33B" mask="url(#mask-4)"></path>
                            <path d="M13.112,47.2683279 L4.65116667,47.2573115 C4.88216667,46.7780984 5.10583333,46.2970492 5.32216667,45.8068197 L13.7848333,45.8178361 C13.5666667,46.3062295 13.343,46.7891148 13.112,47.2683279" id="Fill-245" fill="#F8D63C" mask="url(#mask-4)"></path>
                            <path d="M13.7848333,45.8178361 L5.32216667,45.8068197 C5.533,45.3331148 5.7365,44.8575738 5.93083333,44.3746885 L14.3935,44.3857049 C14.1973333,44.8667541 13.9938333,45.3441311 13.7848333,45.8178361" id="Fill-246" fill="#F7D83C" mask="url(#mask-4)"></path>
                            <path d="M14.3935,44.3857049 L5.93083333,44.3746885 C6.12883333,43.8936393 6.31583333,43.4052459 6.49916667,42.9168525 L14.96,42.9278689 C14.7766667,43.4162623 14.5878333,43.9028197 14.3935,44.3857049" id="Fill-247" fill="#F7D93C" mask="url(#mask-4)"></path>
                            <path d="M14.96,42.9278689 L6.49916667,42.9168525 C6.68066667,42.4321311 6.853,41.9455738 7.01983333,41.4535082 L15.4788333,41.4626885 C15.312,41.952918 15.1396667,42.4431475 14.96,42.9278689" id="Fill-248" fill="#F8DB3C" mask="url(#mask-4)"></path>
                            <path d="M15.4788333,41.4626885 L7.01983333,41.4535082 C7.18666667,40.9614426 7.34616667,40.467541 7.49833333,39.9681311 L15.9591667,39.9773115 C15.807,40.4767213 15.6456667,40.970623 15.4788333,41.4626885" id="Fill-249" fill="#F7DE3D" mask="url(#mask-4)"></path>
                            <path d="M15.9591667,39.9773115 L7.49833333,39.9681311 C7.65416667,39.4632131 7.80266667,38.956459 7.94383333,38.4441967 L16.4046667,38.4552131 C16.2635,38.9674754 16.115,39.4742295 15.9591667,39.9773115" id="Fill-250" fill="#F8E03C" mask="url(#mask-4)"></path>
                            <path d="M16.4046667,38.4552131 L7.94383333,38.4441967 C8.085,37.9337705 8.21883333,37.4178361 8.34716667,36.9000656 L16.808,36.9092459 C16.6815,37.4288525 16.5458333,37.9429508 16.4046667,38.4552131" id="Fill-251" fill="#F8E854" mask="url(#mask-4)"></path>
                            <path d="M16.808,36.9092459 L8.34716667,36.9000656 C8.48283333,36.3474098 8.61116667,35.791082 8.734,35.232918 L17.193,35.2420984 C17.072,35.8020984 16.9436667,36.3584262 16.808,36.9092459" id="Fill-252" fill="#F8EB62" mask="url(#mask-4)"></path>
                            <path d="M17.193,35.2420984 L8.734,35.232918 C8.855,34.6655738 8.9705,34.0927213 9.075,33.5217049 L17.5358333,33.5308852 C17.4313333,34.1037377 17.3158333,34.6747541 17.193,35.2420984" id="Fill-253" fill="#F9EC6C" mask="url(#mask-4)"></path>
                            <path d="M17.5358333,33.5308852 L9.075,33.5217049 C9.2015,32.8460328 9.31333333,32.1666885 9.41783333,31.4873443 L17.8768333,31.4965246 C17.7741667,32.1777049 17.6623333,32.8552131 17.5358333,33.5308852" id="Fill-254" fill="#F9EE75" mask="url(#mask-4)"></path>
                            <path d="M17.8768333,31.4965246 L9.41783333,31.4873443 C9.5315,30.7143607 9.63416667,29.9377049 9.72216667,29.1592131 L18.183,29.1683934 C18.095,29.9468852 17.9923333,30.723541 17.8768333,31.4965246" id="Fill-255" fill="#F9F07D" mask="url(#mask-4)"></path>
                            <path d="M18.183,29.1683934 L9.72216667,29.1592131 C9.84866667,28.0153443 9.94583333,26.8659672 10.01,25.712918 L18.4708333,25.7239344 C18.4066667,26.8769836 18.3095,28.0263607 18.183,29.1683934" id="Fill-256" fill="#FBF084" mask="url(#mask-4)"></path>
                            <path d="M18.4708333,25.7239344 L10.01,25.712918 C10.1383333,23.4361967 10.1438333,21.146623 10.0265,18.8662295 L18.4873333,18.8772459 C18.6028333,21.1558033 18.5973333,23.445377 18.4708333,25.7239344" id="Fill-257" fill="#FBF18B" mask="url(#mask-4)"></path>
                            <path d="M18.4873333,18.8772459 L10.0265,18.8662295 C9.966,17.7168525 9.87616667,16.5693115 9.75333333,15.4272787 L18.2141667,15.436459 C18.337,16.5784918 18.4286667,17.7260328 18.4873333,18.8772459" id="Fill-258" fill="#FBF084" mask="url(#mask-4)"></path>
                            <path d="M18.2141667,15.436459 L9.75333333,15.4272787 C9.66533333,14.6157377 9.5645,13.8060328 9.44533333,13.0018361 L17.908,13.0128525 C18.0253333,13.8170492 18.128,14.6267541 18.2141667,15.436459" id="Fill-259" fill="#F9F07D" mask="url(#mask-4)"></path>
                            <path d="M17.908,13.0128525 L9.44533333,13.0018361 C9.35366667,12.3702295 9.251,11.7422951 9.13733333,11.1180328 L17.6,11.1272131 C17.7118333,11.7514754 17.8145,12.3812459 17.908,13.0128525" id="Fill-260" fill="#F9EE75" mask="url(#mask-4)"></path>
                            <path d="M17.6,11.1272131 L9.13733333,11.1180328 C9.031,10.5158033 8.91183333,9.9172459 8.78716667,9.32236066 L17.248,9.33337705 C17.3745,9.9282623 17.4918333,10.5249836 17.6,11.1272131" id="Fill-261" fill="#F9EC6C" mask="url(#mask-4)"></path>
                            <path d="M17.248,9.33337705 L8.78716667,9.32236066 C8.67166667,8.77888525 8.55066667,8.2372459 8.4205,7.69744262 L16.8813333,7.70845902 C17.0096667,8.24642623 17.1343333,8.78806557 17.248,9.33337705" id="Fill-262" fill="#F8EB62" mask="url(#mask-4)"></path>
                            <path d="M16.8813333,7.70845902 L8.4205,7.69744262 C8.29033333,7.16865574 8.1565,6.64170492 8.0135,6.11842623 L16.4743333,6.12944262 C16.6173333,6.65272131 16.753,7.17967213 16.8813333,7.70845902" id="Fill-263" fill="#F8E854" mask="url(#mask-4)"></path>
                            <path d="M16.4743333,6.12944262 L8.0135,6.11842623 C7.87783333,5.6135082 7.73483333,5.1122623 7.58266667,4.61468852 L16.0435,4.62386885 C16.1938333,5.12327869 16.3386667,5.62268852 16.4743333,6.12944262" id="Fill-264" fill="#F8E03C" mask="url(#mask-4)"></path>
                            <path d="M16.0435,4.62386885 L7.58266667,4.61468852 C7.43233333,4.11527869 7.27466667,3.62137705 7.1115,3.12747541 L15.5723333,3.1384918 C15.7355,3.62872131 15.8931667,4.12629508 16.0435,4.62386885" id="Fill-265" fill="#F7DE3D" mask="url(#mask-4)"></path>
                            <path d="M15.5723333,3.1384918 L7.1115,3.12747541 C6.9465,2.63540984 6.77416667,2.14701639 6.59816667,1.66045902 L15.059,1.67147541 C15.235,2.15803279 15.4073333,2.64459016 15.5723333,3.1384918" id="Fill-266" fill="#F8DB3C" mask="url(#mask-4)"></path>
                            <path d="M15.059,1.67147541 L6.59816667,1.66045902 C6.42033333,1.1757377 6.23333333,0.692852459 6.04266667,0.213639344 L14.5035,0.222819672 C14.696,0.702032787 14.8793333,1.18491803 15.059,1.67147541" id="Fill-267" fill="#F7D93C" mask="url(#mask-4)"></path>
                            <path d="M14.5035,0.222819672 L6.04266667,0.213639344 C5.84466667,-0.274754098 5.643,-0.761311475 5.43216667,-1.24419672 L13.893,-1.23318033 C14.1038333,-0.752131148 14.3073333,-0.267409836 14.5035,0.222819672" id="Fill-268" fill="#F7D83C" mask="url(#mask-4)"></path>
                        </g>
                        <g id="Group-285" transform="translate(50.333333, 15.688525)">
                            <mask id="mask-6" fill="white">
                                <use xlink:href="#path-5"></use>
                            </mask>
                            <g id="Clip-271"></g>
                            <path d="M23.6701667,18.5834754 L15.2093333,18.5742951 C15.0113333,18.0859016 14.8096667,17.5993443 14.5988333,17.116459 L23.0596667,17.1274754 C23.2705,17.6085246 23.474,18.0932459 23.6701667,18.5834754" id="Fill-270" fill="#F7D83C" mask="url(#mask-6)"></path>
                            <path d="M23.0596667,17.1274754 L14.5988333,17.116459 C14.388,16.6335738 14.168,16.1580328 13.9443333,15.6861639 L22.4051667,15.6953443 C22.6306667,16.1690492 22.8488333,16.6445902 23.0596667,17.1274754" id="Fill-272" fill="#F8D63C" mask="url(#mask-6)"></path>
                            <path d="M22.4051667,15.6953443 L13.9443333,15.6861639 C13.7096667,15.1959344 13.4713333,14.7130492 13.222,14.2338361 L21.6828333,14.2430164 C21.9321667,14.7222295 22.1723333,15.2051148 22.4051667,15.6953443" id="Fill-273" fill="#F8D33B" mask="url(#mask-6)"></path>
                            <path d="M21.6828333,14.2430164 L13.222,14.2338361 C12.9745,13.756459 12.7178333,13.2845902 12.4556667,12.8182295 L20.9165,12.8292459 C21.1805,13.2956066 21.4335,13.7656393 21.6828333,14.2430164" id="Fill-274" fill="#F8D13B" mask="url(#mask-6)"></path>
                            <path d="M20.9165,12.8292459 L12.4556667,12.8182295 C12.2173333,12.3959344 11.9716667,11.9773115 11.7205,11.5641967 L20.1813333,11.5752131 C20.4325,11.9864918 20.6781667,12.4069508 20.9165,12.8292459" id="Fill-275" fill="#F8CF3B" mask="url(#mask-6)"></path>
                            <path d="M20.1813333,11.5752131 L11.7205,11.5641967 C11.4693333,11.151082 11.209,10.7416393 10.9468333,10.339541 L19.4076667,10.3487213 C19.6698333,10.7508197 19.9283333,11.1602623 20.1813333,11.5752131" id="Fill-276" fill="#F8CD3B" mask="url(#mask-6)"></path>
                            <path d="M19.4076667,10.3487213 L10.9468333,10.339541 C10.9065,10.2807869 10.868,10.2183607 10.8276667,10.1596066 C10.5325,9.71344262 10.2318333,9.27829508 9.92566667,8.85232787 L18.3846667,8.8615082 C18.6908333,9.28747541 18.9933333,9.72445902 19.2885,10.170623 C19.3288333,10.229377 19.3673333,10.2881311 19.4076667,10.3487213" id="Fill-277" fill="#F8CB3B" mask="url(#mask-6)"></path>
                            <path d="M18.3846667,8.8615082 L9.92566667,8.85232787 C9.5645,8.35291803 9.19783333,7.86636066 8.82383333,7.3944918 L17.2865,7.4055082 C17.6586667,7.87554098 18.0253333,8.36209836 18.3846667,8.8615082" id="Fill-278" fill="#F8C93B" mask="url(#mask-6)"></path>
                            <path d="M17.2865,7.4055082 L8.82383333,7.3944918 C8.44433333,6.91527869 8.0575,6.45259016 7.66516667,6.0027541 L16.126,6.01377049 C16.5183333,6.46177049 16.9051667,6.92629508 17.2865,7.4055082" id="Fill-279" fill="#F8C73A" mask="url(#mask-6)"></path>
                            <path d="M16.126,6.01377049 L7.66516667,6.0027541 C7.26183333,5.54190164 6.84933333,5.09940984 6.435,4.67160656 L14.8958333,4.68262295 C15.312,5.10859016 15.7226667,5.55291803 16.126,6.01377049" id="Fill-280" fill="#F7C43A" mask="url(#mask-6)"></path>
                            <path d="M14.8958333,4.68262295 L6.435,4.67160656 C6.00783333,4.23462295 5.57516667,3.81232787 5.137,3.40839344 L13.5978333,3.41940984 C14.036,3.82334426 14.4705,4.24196721 14.8958333,4.68262295" id="Fill-281" fill="#F7C239" mask="url(#mask-6)"></path>
                            <path d="M13.5978333,3.41940984 L5.137,3.40839344 C4.66216667,2.97140984 4.17816667,2.55462295 3.69233333,2.15986885 L12.1531667,2.17088525 C12.639,2.56563934 13.123,2.98242623 13.5978333,3.41940984" id="Fill-282" fill="#F6C039" mask="url(#mask-6)"></path>
                            <path d="M12.1531667,2.17088525 L3.69233333,2.15986885 C3.168,1.7357377 2.64,1.33547541 2.10466667,0.959081967 L10.5673333,0.970098361 C11.1026667,1.3464918 11.6306667,1.7467541 12.1531667,2.17088525" id="Fill-283" fill="#F6BF39" mask="url(#mask-6)"></path>
                            <path d="M10.5673333,0.970098361 L2.10466667,0.959081967 C1.51616667,0.545967213 0.920333333,0.160393443 0.317166667,-0.195803279 L8.778,-0.186622951 C9.38116667,0.171409836 9.977,0.556983607 10.5673333,0.970098361" id="Fill-284" fill="#F5BD39" mask="url(#mask-6)"></path>
                        </g>
                        <g id="Group-297" transform="translate(38.500000, 88.131148)">
                            <mask id="mask-8" fill="white">
                                <use xlink:href="#path-7"></use>
                            </mask>
                            <g id="Clip-287"></g>
                            <path d="M8.812,12.1878033 L0.351166667,12.178623 C2.58416667,12.180459 4.81716667,11.8352787 7.008,11.143082 L15.4688333,11.1540984 C13.278,11.8462951 11.0431667,12.1914754 8.812,12.1878033" id="Fill-286" fill="#F4B63A" mask="url(#mask-8)"></path>
                            <path d="M15.4688333,11.1540984 L7.008,11.143082 C7.943,10.8474754 8.87066667,10.4912787 9.7855,10.0671475 L18.2463333,10.0781639 C17.3315,10.500459 16.4038333,10.8584918 15.4688333,11.1540984" id="Fill-288" fill="#F4B83A" mask="url(#mask-8)"></path>
                            <path d="M18.2463333,10.0781639 L9.7855,10.0671475 C10.5096667,9.73665574 11.2265,9.36393443 11.936,8.95081967 L20.395,8.96 C19.6873333,9.37127869 18.9705,9.74583607 18.2463333,10.0781639" id="Fill-289" fill="#F5BA39" mask="url(#mask-8)"></path>
                            <path d="M20.395,8.96 L11.936,8.95081967 C12.5483333,8.59462295 13.1533333,8.20904918 13.751,7.7922623 L22.2118333,7.80327869 C21.6141667,8.21822951 21.0073333,8.60380328 20.395,8.96" id="Fill-290" fill="#F5BD39" mask="url(#mask-8)"></path>
                            <path d="M22.2118333,7.80327869 L13.751,7.7922623 C14.2863333,7.42137705 14.8143333,7.02662295 15.335,6.60983607 L23.7958333,6.61901639 C23.2751667,7.03763934 22.7471667,7.43239344 22.2118333,7.80327869" id="Fill-291" fill="#F6BF39" mask="url(#mask-8)"></path>
                            <path d="M23.7958333,6.61901639 L15.335,6.60983607 C15.8153333,6.22609836 16.2901667,5.82032787 16.7576667,5.39619672 L25.2203333,5.40537705 C24.751,5.83134426 24.2761667,6.23344262 23.7958333,6.61901639" id="Fill-292" fill="#F6C039" mask="url(#mask-8)"></path>
                            <path d="M25.2203333,5.40537705 L16.7576667,5.39619672 C17.2086667,4.98859016 17.6523333,4.56262295 18.0905,4.11829508 L26.5513333,4.12747541 C26.1131667,4.57180328 25.6695,4.99960656 25.2203333,5.40537705" id="Fill-293" fill="#F7C239" mask="url(#mask-8)"></path>
                            <path d="M26.5513333,4.12747541 L18.0905,4.11829508 C18.5085,3.69416393 18.921,3.25167213 19.328,2.79265574 L27.7888333,2.80367213 C27.3818333,3.26268852 26.9693333,3.70518033 26.5513333,4.12747541" id="Fill-294" fill="#F7C43A" mask="url(#mask-8)"></path>
                            <path d="M27.7888333,2.80367213 L19.328,2.79265574 C19.724,2.34832787 20.1145,1.88563934 20.4976667,1.41009836 L28.9585,1.41744262 C28.5753333,1.89665574 28.1848333,2.3575082 27.7888333,2.80367213" id="Fill-295" fill="#F8C73A" mask="url(#mask-8)"></path>
                            <path d="M28.9585,1.41744262 L20.4976667,1.41009836 C20.857,0.962098361 21.209,0.501245902 21.5573333,0.0275409836 L30.0181667,0.0367213115 C29.6698333,0.51042623 29.316,0.971278689 28.9585,1.41744262" id="Fill-296" fill="#F8C93B" mask="url(#mask-8)"></path>
                        </g>
                        <path d="M26.401,22.6478689 C39.0015,6.2187541 58.6933333,6.3307541 68.718,24.5500328 C78.1028333,41.6034098 76.0935,70.1560656 65.9661667,86.3593443 C55.2851667,103.453115 37.1736667,105.305705 25.3321667,88.6177049 C12.5905,70.6573115 13.014,40.1033443 26.401,22.6478689" id="Fill-298" fill="#E99E34"></path>
                        <polyline id="Fill-299" fill="#BF862F" points="35.5786667 43.4504918 31.4738333 43.7938361 34.2165 40.0500984 38.3213333 39.7067541 35.5786667 43.4504918"></polyline>
                        <polyline id="Fill-300" fill="#BF862F" points="38.3213333 39.7067541 34.1266667 40.0427541 30.2858333 34.2499672 34.4823333 33.9139672 38.3213333 39.7067541"></polyline>
                        <path d="M36.9848333,51.2262295 L41.636,58.2455082 L45.7976667,52.5628852 C47.4696667,50.2806557 48.9546667,47.3723279 46.9453333,44.3409836 C44.9433333,41.3169836 42.9046667,43.1438689 41.1465,45.5454426 L36.9848333,51.2262295 Z M54.5976667,64.5707541 C56.5593333,61.8900984 58.1066667,58.7357377 55.7655,55.2031475 C53.373,51.5952787 51.0116667,53.9362623 48.962,56.7344262 L44.5895,62.7016393 L49.9923333,70.8556066 L54.5976667,64.5707541 Z M51.9283333,47.236459 C54.6838333,45.1488525 57.8335,45.1837377 60.589,49.3405902 C63.4343333,53.6369836 63.5846667,58.7485902 61.909,63.2836721 L66.4391667,70.1156721 L62.261,75.8221639 L58.1598333,69.636459 L55.4171667,73.3820328 L59.5165,79.5659016 L55.3328333,85.2779016 L51.2316667,79.0921967 L48.9931667,82.1474098 L29.1565,52.2158689 L31.3931667,49.1624918 L27.5541667,43.3697049 L31.7378333,37.659541 L35.5786667,43.4504918 L38.3213333,39.7067541 L34.4823333,33.9139672 L38.6623333,28.2093115 L43.0623333,34.8485246 C45.684,33.3154098 48.3826667,33.7101639 50.678,37.1748197 C52.6011667,40.0739672 52.9073333,43.8121967 51.9283333,47.236459 Z" id="Fill-301" fill="#F9CB46"></path>
                        <polyline id="Fill-302" fill="#BF862F" points="34.4823333 33.9139672 30.2858333 34.2499672 34.4676667 28.5471475 38.6623333 28.2093115 34.4823333 33.9139672"></polyline>
                        <polyline id="Fill-303" fill="#BF862F" points="29.1565 52.2158689 24.9545 52.5537049 27.193 49.4984918 31.3931667 49.1624918 29.1565 52.2158689"></polyline>
                        <polyline id="Fill-304" fill="#BF862F" points="48.9931667 82.1474098 44.8186667 82.487082 24.9801667 52.555541 29.1565 52.2158689 48.9931667 82.1474098"></polyline>
                        <polyline id="Fill-305" fill="#BF862F" points="31.3931667 49.1624918 27.1361667 49.4948197 23.2971667 43.7038689 27.5541667 43.3697049 31.3931667 49.1624918"></polyline>
                        <polyline id="Fill-306" fill="#BF862F" points="27.5541667 43.3697049 23.2971667 43.7038689 27.4845 37.9551475 31.7378333 37.659541 27.5541667 43.3697049"></polyline>
                        <g id="Group-318" transform="translate(11.833333, 0.000000)">
                            <mask id="mask-10" fill="white">
                                <use xlink:href="#path-9"></use>
                            </mask>
                            <g id="Clip-308"></g>
                            <path d="M8.8275,15.9682623 L0.366666667,15.9572459 C0.804833333,15.3586885 1.25216667,14.7784918 1.705,14.2148197 L10.1658333,14.224 C9.713,14.7895082 9.2675,15.3697049 8.8275,15.9682623" id="Fill-307" fill="#F8C93B" mask="url(#mask-10)"></path>
                            <path d="M10.1658333,14.224 L1.705,14.2148197 C2.18716667,13.6107541 2.68033333,13.0287213 3.179,12.4650492 L11.6416667,12.4760656 C11.1411667,13.0397377 10.6498333,13.6217705 10.1658333,14.224" id="Fill-309" fill="#F8C73A" mask="url(#mask-10)"></path>
                            <path d="M11.6416667,12.4760656 L3.179,12.4650492 C3.69416667,11.8885246 4.21483333,11.3303607 4.741,10.7942295 L13.2018333,10.8052459 C12.6738333,11.341377 12.155,11.8977049 11.6416667,12.4760656" id="Fill-310" fill="#F7C43A" mask="url(#mask-10)"></path>
                            <path d="M13.2018333,10.8052459 L4.741,10.7942295 C5.29466667,10.2342295 5.85383333,9.6962623 6.42216667,9.18216393 L14.883,9.19134426 C14.3165,9.70544262 13.7555,10.2434098 13.2018333,10.8052459" id="Fill-311" fill="#F7C239" mask="url(#mask-10)"></path>
                            <path d="M14.883,9.19134426 L6.42216667,9.18216393 C7.0125,8.64603279 7.612,8.13744262 8.217,7.65088525 L16.6796667,7.66190164 C16.0746667,8.14845902 15.4733333,8.65704918 14.883,9.19134426" id="Fill-312" fill="#F6C039" mask="url(#mask-10)"></path>
                            <path d="M16.6796667,7.66190164 L8.217,7.65088525 C8.877,7.12393443 9.5425,6.62636066 10.2153333,6.15816393 L18.6761667,6.16918033 C18.0033333,6.63554098 17.336,7.13495082 16.6796667,7.66190164" id="Fill-313" fill="#F6BF39" mask="url(#mask-10)"></path>
                            <path d="M18.6761667,6.16918033 L10.2153333,6.15816393 C10.9706667,5.63304918 11.7351667,5.14832787 12.5088333,4.6984918 L20.9696667,4.70767213 C20.1978333,5.15934426 19.4333333,5.64406557 18.6761667,6.16918033" id="Fill-314" fill="#F5BD39" mask="url(#mask-10)"></path>
                            <path d="M20.9696667,4.70767213 L12.5088333,4.6984918 C13.4016667,4.17704918 14.3073333,3.70885246 15.2203333,3.28655738 L23.6811667,3.29757377 C22.7681667,3.71619672 21.8643333,4.18806557 20.9696667,4.70767213" id="Fill-315" fill="#F5BA39" mask="url(#mask-10)"></path>
                            <path d="M23.6811667,3.29757377 L15.2203333,3.28655738 C16.3753333,2.75593443 17.5431667,2.30242623 18.7238333,1.93154098 L27.1828333,1.94072131 C26.0058333,2.31344262 24.8361667,2.76511475 23.6811667,3.29757377" id="Fill-316" fill="#F4B83A" mask="url(#mask-10)"></path>
                            <path d="M27.1828333,1.94072131 L18.7238333,1.93154098 C21.4885,1.05757377 24.3045,0.624262295 27.1186667,0.627934426 L35.5795,0.637114754 C32.7653333,0.633442623 29.9493333,1.0667541 27.1828333,1.94072131" id="Fill-317" fill="#F4B63A" mask="url(#mask-10)"></path>
                        </g>
                        <g id="Group-366" transform="translate(0.000000, 15.688525)">
                            <mask id="mask-12" fill="white">
                                <use xlink:href="#path-11"></use>
                            </mask>
                            <g id="Clip-320"></g>
                            <path d="M47.301,96.1645902 L38.8383333,96.1535738 C35.9893333,96.1499016 33.1403333,95.6982295 30.35,94.8022295 L38.8108333,94.8114098 C41.6011667,95.7092459 44.4501667,96.160918 47.301,96.1645902" id="Fill-319" fill="#F4B63A" mask="url(#mask-12)"></path>
                            <path d="M38.8108333,94.8114098 L30.35,94.8022295 C29.1418333,94.4129836 27.9465,93.9411148 26.764,93.3847869 L35.2266667,93.3939672 C36.4073333,93.9502951 37.6045,94.4221639 38.8108333,94.8114098" id="Fill-321" fill="#F4B83A" mask="url(#mask-12)"></path>
                            <path d="M35.2266667,93.3939672 L26.764,93.3847869 C25.8583333,92.9588197 24.96,92.4814426 24.0726667,91.9563279 L32.5335,91.9673443 C33.4208333,92.492459 34.3191667,92.968 35.2266667,93.3939672" id="Fill-322" fill="#F5BA39" mask="url(#mask-12)"></path>
                            <path d="M32.5335,91.9673443 L24.0726667,91.9563279 C23.3118333,91.5064918 22.5601667,91.0199344 21.8158333,90.4966557 L30.2766667,90.5076721 C31.021,91.0291148 31.7726667,91.5175082 32.5335,91.9673443" id="Fill-323" fill="#F5BD39" mask="url(#mask-12)"></path>
                            <path d="M30.2766667,90.5076721 L21.8158333,90.4966557 C21.1411667,90.0211148 20.4738333,89.5180328 19.8138333,88.9837377 L28.2765,88.9947541 C28.9346667,89.5290492 29.6001667,90.0321311 30.2766667,90.5076721" id="Fill-324" fill="#F6BF39" mask="url(#mask-12)"></path>
                            <path d="M28.2765,88.9947541 L19.8138333,88.9837377 C19.1996667,88.4843279 18.5891667,87.957377 17.9896667,87.4065574 L26.4523333,87.4157377 C27.0518333,87.9683934 27.6605,88.4935082 28.2765,88.9947541" id="Fill-325" fill="#F6C039" mask="url(#mask-12)"></path>
                            <path d="M26.4523333,87.4157377 L17.9896667,87.4065574 C17.4378333,86.8979672 16.8933333,86.3673443 16.3543333,85.8146885 L24.8151667,85.8238689 C25.3523333,86.3783607 25.8986667,86.9089836 26.4523333,87.4157377" id="Fill-326" fill="#F7C239" mask="url(#mask-12)"></path>
                            <path d="M24.8151667,85.8238689 L16.3543333,85.8146885 C15.83,85.2748852 15.3111667,84.7148852 14.8015,84.1328525 L23.2623333,84.1438689 C23.7738333,84.7240656 24.2908333,85.2859016 24.8151667,85.8238689" id="Fill-327" fill="#F7C43A" mask="url(#mask-12)"></path>
                            <path d="M23.2623333,84.1438689 L14.8015,84.1328525 C14.3065,83.5691803 13.8188333,82.9834754 13.3385,82.3775738 L21.7993333,82.3885902 C22.2796667,82.9926557 22.7673333,83.5783607 23.2623333,84.1438689" id="Fill-328" fill="#F8C73A" mask="url(#mask-12)"></path>
                            <path d="M21.7993333,82.3885902 L13.3385,82.3775738 C12.8673333,81.7845246 12.4053333,81.1731148 11.9506667,80.5396721 L20.4133333,80.5506885 C20.8661667,81.1822951 21.33,81.795541 21.7993333,82.3885902" id="Fill-329" fill="#F8C93B" mask="url(#mask-12)"></path>
                            <path d="M20.4133333,80.5506885 L11.9506667,80.5396721 C11.5638333,80.003541 11.1843333,79.4527213 10.8103333,78.8908852 C10.7608333,78.8156066 10.7131667,78.7403279 10.6618333,78.6668852 L19.1245,78.6742295 C19.174,78.7495082 19.2216667,78.826623 19.273,78.9019016 C19.647,79.4637377 20.0265,80.0145574 20.4133333,80.5506885" id="Fill-330" fill="#F8CB3B" mask="url(#mask-12)"></path>
                            <path d="M19.1245,78.6742295 L10.6618333,78.6668852 C10.33,78.154623 10.0036667,77.6405246 9.68466667,77.1172459 L18.1455,77.1282623 C18.4645,77.6497049 18.7908333,78.1656393 19.1245,78.6742295" id="Fill-331" fill="#F8CD3B" mask="url(#mask-12)"></path>
                            <path d="M18.1455,77.1282623 L9.68466667,77.1172459 C9.3675,76.5958033 9.05583333,76.0670164 8.75516667,75.5327213 L17.216,75.5419016 C17.5185,76.0761967 17.8265,76.6068197 18.1455,77.1282623" id="Fill-332" fill="#F8CF3B" mask="url(#mask-12)"></path>
                            <path d="M17.216,75.5419016 L8.75516667,75.5327213 C8.42333333,74.9433443 8.10066667,74.348459 7.789,73.7462295 L16.2498333,73.7572459 C16.5615,74.3594754 16.8841667,74.9543607 17.216,75.5419016" id="Fill-333" fill="#F8D13B" mask="url(#mask-12)"></path>
                            <path d="M16.2498333,73.7572459 L7.789,73.7462295 C7.47366667,73.1421639 7.17116667,72.5307541 6.876,71.9138361 L15.3368333,71.9230164 C15.6301667,72.5417705 15.9345,73.1531803 16.2498333,73.7572459" id="Fill-334" fill="#F8D33B" mask="url(#mask-12)"></path>
                            <path d="M15.3368333,71.9230164 L6.876,71.9138361 C6.59183333,71.3171148 6.315,70.7148852 6.051,70.1053115 L14.5118333,70.1144918 C14.7758333,70.7222295 15.0526667,71.3281311 15.3368333,71.9230164" id="Fill-335" fill="#F8D63C" mask="url(#mask-12)"></path>
                            <path d="M14.5118333,70.1144918 L6.051,70.1053115 C5.78333333,69.4975738 5.52666667,68.8843279 5.27916667,68.2674098 L13.74,68.2747541 C13.9893333,68.8935082 14.2441667,69.5067541 14.5118333,70.1144918" id="Fill-336" fill="#F7D83C" mask="url(#mask-12)"></path>
                            <path d="M13.74,68.2747541 L5.27916667,68.2674098 C5.03716667,67.6615082 4.8025,67.0519344 4.57883333,66.4386885 L13.0396667,66.4478689 C13.2633333,67.0611148 13.498,67.6706885 13.74,68.2747541" id="Fill-337" fill="#F7D93C" mask="url(#mask-12)"></path>
                            <path d="M13.0396667,66.4478689 L4.57883333,66.4386885 C4.35333333,65.8254426 4.13883333,65.2085246 3.92983333,64.5879344 L12.3925,64.5971148 C12.5996667,65.2177049 12.8141667,65.836459 13.0396667,66.4478689" id="Fill-338" fill="#F8DB3C" mask="url(#mask-12)"></path>
                            <path d="M12.3925,64.5971148 L3.92983333,64.5879344 C3.72266667,63.9636721 3.52283333,63.3357377 3.33216667,62.7041311 L11.793,62.7151475 C11.9836667,63.3467541 12.1835,63.9746885 12.3925,64.5971148" id="Fill-339" fill="#F7DE3D" mask="url(#mask-12)"></path>
                            <path d="M11.793,62.7151475 L3.33216667,62.7041311 C3.1415,62.0725246 2.95816667,61.4372459 2.784,60.796459 L11.2466667,60.8074754 C11.419,61.4464262 11.6023333,62.0817049 11.793,62.7151475" id="Fill-340" fill="#F8E03C" mask="url(#mask-12)"></path>
                            <path d="M11.2466667,60.8074754 L2.784,60.796459 C2.60616667,60.1373115 2.43566667,59.4726557 2.27433333,58.8061639 L10.7351667,58.8153443 C10.8965,59.4818361 11.067,60.1483279 11.2466667,60.8074754" id="Fill-341" fill="#F8E854" mask="url(#mask-12)"></path>
                            <path d="M10.7351667,58.8153443 L2.27433333,58.8061639 C2.11116667,58.1304918 1.95716667,57.4493115 1.81416667,56.7681311 L10.275,56.7773115 C10.418,57.4603279 10.572,58.1396721 10.7351667,58.8153443" id="Fill-342" fill="#F8EB62" mask="url(#mask-12)"></path>
                            <path d="M10.275,56.7773115 L1.81416667,56.7681311 C1.65466667,56.0171803 1.508,55.2643934 1.37233333,54.5060984 L9.83316667,54.5171148 C9.96883333,55.2735738 10.1155,56.0281967 10.275,56.7773115" id="Fill-343" fill="#F9EC6C" mask="url(#mask-12)"></path>
                            <path d="M9.83316667,54.5171148 L1.37233333,54.5060984 C1.23116667,53.7184262 1.101,52.9252459 0.983666667,52.1283934 L9.4445,52.1394098 C9.56366667,52.9344262 9.692,53.7294426 9.83316667,54.5171148" id="Fill-344" fill="#F9EE75" mask="url(#mask-12)"></path>
                            <path d="M9.4445,52.1394098 L0.983666667,52.1283934 C0.835166667,51.1148852 0.706833333,50.0940328 0.596833333,49.0695082 L9.05583333,49.0786885 C9.16583333,50.1032131 9.296,51.1240656 9.4445,52.1394098" id="Fill-345" fill="#F9F07D" mask="url(#mask-12)"></path>
                            <path d="M9.05583333,49.0786885 L0.596833333,49.0695082 C0.441,47.6281967 0.327333333,46.179541 0.254,44.7290492 L8.713,44.7400656 C8.78816667,46.1905574 8.90183333,47.6392131 9.05583333,49.0786885" id="Fill-346" fill="#FBF084" mask="url(#mask-12)"></path>
                            <path d="M8.713,44.7400656 L0.254,44.7290492 C0.103666667,41.8537705 0.109166667,38.9674754 0.272333333,36.0940328 L8.73316667,36.1050492 C8.57183333,38.9766557 8.5645,41.8647869 8.713,44.7400656" id="Fill-347" fill="#FBF18B" mask="url(#mask-12)"></path>
                            <path d="M8.73316667,36.1050492 L0.272333333,36.0940328 C0.353,34.6398689 0.475833333,33.1912131 0.637166667,31.7480656 L9.098,31.759082 C8.93666667,33.2003934 8.81383333,34.6508852 8.73316667,36.1050492" id="Fill-348" fill="#FBF084" mask="url(#mask-12)"></path>
                            <path d="M9.098,31.759082 L0.637166667,31.7480656 C0.745333333,30.7657705 0.873666667,29.7853115 1.02033333,28.8103607 L9.483,28.819541 C9.33633333,29.7944918 9.20616667,30.7749508 9.098,31.759082" id="Fill-349" fill="#F9F07D" mask="url(#mask-12)"></path>
                            <path d="M9.483,28.819541 L1.02033333,28.8103607 C1.1505,27.952918 1.2935,27.0973115 1.45116667,26.245377 L9.912,26.2563934 C9.75433333,27.1064918 9.61133333,27.9602623 9.483,28.819541" id="Fill-350" fill="#F9EE75" mask="url(#mask-12)"></path>
                            <path d="M9.912,26.2563934 L1.45116667,26.245377 C1.585,25.5219672 1.72983333,24.8022295 1.88383333,24.0861639 L10.3446667,24.0953443 C10.1888333,24.8132459 10.0458333,25.5329836 9.912,26.2563934" id="Fill-351" fill="#F9EC6C" mask="url(#mask-12)"></path>
                            <path d="M10.3446667,24.0953443 L1.88383333,24.0861639 C2.036,23.3811148 2.19733333,22.6797377 2.36966667,21.9838689 L10.8305,21.9912131 C10.6581667,22.688918 10.4968333,23.3902951 10.3446667,24.0953443" id="Fill-352" fill="#F8EB62" mask="url(#mask-12)"></path>
                            <path d="M10.8305,21.9912131 L2.36966667,21.9838689 C2.531,21.3283934 2.7015,20.6802623 2.87933333,20.0339672 L11.3401667,20.0431475 C11.1623333,20.6894426 10.9918333,21.3394098 10.8305,21.9912131" id="Fill-353" fill="#F8E854" mask="url(#mask-12)"></path>
                            <path d="M11.3401667,20.0431475 L2.87933333,20.0339672 C3.05716667,19.3876721 3.24416667,18.7487213 3.44033333,18.1116066 L11.9011667,18.122623 C11.7068333,18.7597377 11.518,19.3986885 11.3401667,20.0431475" id="Fill-354" fill="#F8E03C" mask="url(#mask-12)"></path>
                            <path d="M11.9011667,18.122623 L3.44033333,18.1116066 C3.63283333,17.4818361 3.83633333,16.8594098 4.04533333,16.2388197 L12.5061667,16.2498361 C12.2971667,16.8685902 12.0955,17.4928525 11.9011667,18.122623" id="Fill-355" fill="#F7DE3D" mask="url(#mask-12)"></path>
                            <path d="M12.5061667,16.2498361 L4.04533333,16.2388197 C4.25616667,15.6200656 4.47433333,15.0031475 4.70166667,14.3935738 L13.1625,14.4027541 C12.937,15.0141639 12.7151667,15.6292459 12.5061667,16.2498361" id="Fill-356" fill="#F8DB3C" mask="url(#mask-12)"></path>
                            <path d="M13.1625,14.4027541 L4.70166667,14.3935738 C4.93083333,13.7748197 5.16916667,13.1615738 5.41666667,12.5538361 L13.8775,12.5630164 C13.63,13.1707541 13.3935,13.784 13.1625,14.4027541" id="Fill-357" fill="#F7D93C" mask="url(#mask-12)"></path>
                            <path d="M13.8775,12.5630164 L5.41666667,12.5538361 C5.666,11.9460984 5.92083333,11.3420328 6.18483333,10.7453115 L14.6456667,10.7544918 C14.3816667,11.3512131 14.125,11.9552787 13.8775,12.5630164" id="Fill-358" fill="#F7D83C" mask="url(#mask-12)"></path>
                            <path d="M14.6456667,10.7544918 L6.18483333,10.7453115 C6.458,10.1283934 6.74216667,9.51881967 7.03366667,8.9147541 L15.4945,8.92577049 C15.203,9.528 14.9206667,10.1394098 14.6456667,10.7544918" id="Fill-359" fill="#F8D63C" mask="url(#mask-12)"></path>
                            <path d="M15.4945,8.92577049 L7.03366667,8.9147541 C7.32516667,8.31068852 7.62583333,7.71396721 7.9375,7.1227541 L16.3983333,7.13377049 C16.0866667,7.72314754 15.786,8.32170492 15.4945,8.92577049" id="Fill-360" fill="#F8D33B" mask="url(#mask-12)"></path>
                            <path d="M16.3983333,7.13377049 L7.9375,7.1227541 C8.26016667,6.51134426 8.59016667,5.90727869 8.933,5.30872131 L17.392,5.3197377 C17.0528333,5.91645902 16.7191667,6.52236066 16.3983333,7.13377049" id="Fill-361" fill="#F8D13B" mask="url(#mask-12)"></path>
                            <path d="M17.392,5.3197377 L8.933,5.30872131 C9.274,4.712 9.62783333,4.12262295 9.989,3.54242623 L18.4498333,3.54977049 C18.0868333,4.13180328 17.7366667,4.72118033 17.392,5.3197377" id="Fill-362" fill="#F8CF3B" mask="url(#mask-12)"></path>
                            <path d="M18.4498333,3.54977049 L9.989,3.54242623 C10.33,2.99527869 10.6783333,2.45547541 11.0358333,1.92485246 L19.4985,1.93586885 C19.1391667,2.4664918 18.7908333,3.00445902 18.4498333,3.54977049" id="Fill-363" fill="#F8CD3B" mask="url(#mask-12)"></path>
                            <path d="M19.4985,1.93586885 L11.0358333,1.92485246 C11.3951667,1.39422951 11.7618333,0.87095082 12.1376667,0.355016393 L20.5985,0.366032787 C20.2226667,0.880131148 19.856,1.4052459 19.4985,1.93586885" id="Fill-364" fill="#F8CB3B" mask="url(#mask-12)"></path>
                            <path d="M20.5985,0.366032787 L12.1376667,0.355016393 C12.1596667,0.32747541 12.178,0.298098361 12.2,0.268721311 L20.6608333,0.279737705 C20.6406667,0.309114754 20.6186667,0.336655738 20.5985,0.366032787" id="Fill-365" fill="#F8C93B" mask="url(#mask-12)"></path>
                        </g>
                        <path d="M68.5181667,88.1678689 C80.8125,71.3843934 81.3038333,43.4817049 69.6218333,25.8591475 C57.9361667,8.2292459 38.4991667,7.54255738 26.203,24.3278689 C13.9068333,41.1131803 13.4118333,69.0066885 25.0975,86.6365902 C36.7776667,104.259148 56.222,104.95318 68.5181667,88.1678689 Z M20.6608333,15.9682623 C36.1726667,-5.20708197 60.7008333,-4.34045902 75.4481667,17.9071475 C90.19,40.1492459 89.5648333,75.346623 74.053,96.5201311 C58.5411667,117.695475 34.0148333,116.830689 19.273,94.5904262 C4.52566667,72.3391475 5.149,37.1417705 20.6608333,15.9682623 Z" id="Fill-367" fill="#F4B83A"></path>
                    </g>
                </g>
            </g>
        </g>
    </g>
</svg>