<?xml version="1.0" encoding="UTF-8"?>
<svg width="102px" height="102px" viewBox="0 0 102 102" version="1.1" xmlns="http://www.w3.org/2000/svg" xmlns:xlink="http://www.w3.org/1999/xlink">
    <!-- Generator: Sketch 50.2 (55047) - http://www.bohemiancoding.com/sketch -->
    <title>bitcoin 9</title>
    <desc>Created with Sketch.</desc>
    <defs>
        <path d="M103.982427,23.2826169 C109.192459,32.1295878 109.366978,43.9058775 103.269333,56.2908451 C91.54,80.1117606 61.0386667,97.1582394 35.1413333,94.3644366 C10.2459413,91.6787232 -1.3322815,71.6363 8.22783625,48.9277948 C3.48523513,60.1921421 3.9445022,70.8014665 8.65066667,78.9610563 L4.44133333,71.6621127 C-0.646666667,62.840493 -0.772,51.155493 5.27466667,38.8750704 C17.0066667,15.0461268 47.5093333,-2.00035211 73.4066667,0.793450704 C85.952,2.14619718 95.1146667,7.90640845 99.896,16.195493 L103.982424,23.2826127 Z" id="path-1"></path>
        <path d="M49.7653333,0.893802817 C51.1693333,3.32633803 52.5733333,5.76021127 53.976,8.19274648 C42.6786667,22.8321127 22.4413333,32.4552113 4.87866667,30.5605634 L0.668,23.2616197 C18.232,25.1562676 38.468,15.533169 49.7653333,0.893802817" id="path-3"></path>
        <path d="M5.33333333,14.4921831 C7.65733333,9.77295775 8.832,5.1634507 8.96533333,0.871056338 C10.368,3.30492958 11.772,5.73746479 13.1746667,8.17 C13.0413333,12.4623944 11.8666667,17.0719014 9.544,21.7911268 C8.20133333,24.5166901 6.54933333,27.1298592 4.64266667,29.6011972 C3.24,27.168662 1.836,24.7347887 0.432,22.3022535 C2.34,19.8309155 3.992,17.2177465 5.33333333,14.4921831" id="path-5"></path>
        <path d="M1.00666667,0.346549296 C4.796,6.91626761 12.0586667,11.4842958 22.0013333,12.5573944 L26.212,19.856338 C16.268,18.7832394 9.00533333,14.2152113 5.21733333,7.64549296 C3.95333333,5.45514085 2.27066667,2.53556338 1.00666667,0.346549296" id="path-7"></path>
        <path d="M3.632,12.9133099 C3.77333333,8.35330986 2.74,4.15056338 0.662666667,0.547253521 L4.872,7.84619718 C6.95066667,11.449507 7.98266667,15.6522535 7.84133333,20.2122535 C7.69333333,19.9566901 7.49733333,19.615493 7.35066667,19.3612676 C7.19333333,19.0896479 6.98533333,18.7283803 6.828,18.4567606 C6.66666667,18.1757746 6.45066667,17.8011268 6.288,17.5188028 C6.12266667,17.2324648 5.90266667,16.8511268 5.73733333,16.5634507 C5.572,16.2771127 5.352,15.8957746 5.18666667,15.6080986 C5.024,15.3271127 4.80666667,14.9524648 4.644,14.6701408 C4.488,14.3998592 4.28,14.0372535 4.124,13.7669718 C4.048,13.6358451 3.948,13.4619014 3.87333333,13.3334507 C3.80133333,13.2076761 3.66666667,13.0551408 3.632,12.9133099" id="path-9"></path>
        <path d="M26.5626667,16.195493 L30.772,23.4957746 C25.9906667,15.2053521 16.828,9.44647887 4.284,8.09239437 L0.0733333333,0.793450704 C12.6186667,2.14619718 21.7813333,7.90640845 26.5626667,16.195493" id="path-11"></path>
        <path d="M8.65066667,78.9610563 L4.44133333,71.6621127 C-0.646666667,62.840493 -0.772,51.155493 5.27466667,38.8750704 C17.0066667,15.0461268 47.5093333,-2.00035211 73.4066667,0.793450704 L77.6173333,8.09239437 C51.72,5.29859155 21.2173333,22.3450704 9.48533333,46.1740141 C3.43866667,58.4544366 3.56266667,70.1394366 8.65066667,78.9610563" id="path-13"></path>
    </defs>
    <g id="ICO" stroke="none" stroke-width="1" fill="none" fill-rule="evenodd">
        <g id="01-Ñontract-ICO-hover" transform="translate(-1095.000000, -1223.000000)">
            <g id="content">
                <g id="bitcoin-9" transform="translate(1145.453899, 1273.857705) rotate(-15.000000) translate(-1145.453899, -1273.857705) translate(1091.453899, 1226.357705)">
                    <g id="Group-4">
                        <mask id="mask-2" fill="white">
                            <use xlink:href="#path-1"></use>
                        </mask>
                        <use id="Combined-Shape" fill="#F4B83A" xlink:href="#path-1"></use>
                    </g>
                    <g id="Group-4-Copy">
                        <g id="Group-133" transform="translate(34.666667, 54.859155)">
                            <mask id="mask-4" fill="white">
                                <use xlink:href="#path-3"></use>
                            </mask>
                            <g id="Clip-103"></g>
                            <path d="M4.87866667,30.5605634 L0.668,23.2616197 C0.696,23.2642958 0.724,23.2683099 0.752,23.2709859 L4.96266667,30.5699296 C4.93466667,30.5672535 4.90666667,30.5632394 4.87866667,30.5605634" id="Fill-102" fill="#F8C93B" mask="url(#mask-4)"></path>
                            <path d="M4.96266667,30.5699296 L0.752,23.2709859 C1.25066667,23.323169 1.75066667,23.3673239 2.25333333,23.4007746 L6.464,30.6997183 C5.96133333,30.6662676 5.46133333,30.6221127 4.96266667,30.5699296" id="Fill-104" fill="#F8CB3B" mask="url(#mask-4)"></path>
                            <path d="M6.464,30.6997183 L2.25333333,23.4007746 C2.756,23.4355634 3.26,23.4596479 3.76666667,23.4770423 L7.976,30.7759859 C7.47066667,30.7585915 6.96666667,30.734507 6.464,30.6997183" id="Fill-105" fill="#F8CD3B" mask="url(#mask-4)"></path>
                            <path d="M7.976,30.7759859 L3.76666667,23.4770423 C4.304,23.4944366 4.844,23.5011268 5.38666667,23.4984507 L9.596,30.7973944 C9.05466667,30.8000704 8.51466667,30.7933803 7.976,30.7759859" id="Fill-106" fill="#F8CF3B" mask="url(#mask-4)"></path>
                            <path d="M9.596,30.7973944 L5.38666667,23.4984507 C5.92666667,23.4957746 6.46933333,23.4837324 7.012,23.4596479 L11.2213333,30.7585915 C10.6786667,30.7826761 10.136,30.7947183 9.596,30.7973944" id="Fill-107" fill="#F8D13B" mask="url(#mask-4)"></path>
                            <path d="M11.2213333,30.7585915 L7.012,23.4596479 C7.536,23.4395775 8.06133333,23.4074648 8.588,23.368662 L12.7986667,30.6676056 C12.272,30.7064085 11.7466667,30.7385211 11.2213333,30.7585915" id="Fill-108" fill="#F8D33B" mask="url(#mask-4)"></path>
                            <path d="M12.7986667,30.6676056 L8.588,23.368662 C9.11333333,23.3285211 9.64,23.2790141 10.1666667,23.2228169 L14.376,30.5217606 C13.8493333,30.5779577 13.324,30.6274648 12.7986667,30.6676056" id="Fill-109" fill="#F8D63C" mask="url(#mask-4)"></path>
                            <path d="M14.376,30.5217606 L10.1666667,23.2228169 C10.6773333,23.1666197 11.188,23.1037324 11.6986667,23.0314789 L15.9093333,30.3304225 C15.3973333,30.4026761 14.8866667,30.4655634 14.376,30.5217606" id="Fill-110" fill="#F7D83C" mask="url(#mask-4)"></path>
                            <path d="M15.9093333,30.3304225 L11.6986667,23.0314789 C12.2106667,22.9605634 12.7213333,22.8802817 13.2333333,22.7919718 L17.4426667,30.0909155 C16.9306667,30.1792254 16.42,30.258169 15.9093333,30.3304225" id="Fill-111" fill="#F7D93C" mask="url(#mask-4)"></path>
                            <path d="M17.4426667,30.0909155 L13.2333333,22.7919718 C13.7373333,22.706338 14.2426667,22.611338 14.7466667,22.5096479 L18.9573333,29.8085915 C18.452,29.9102817 17.948,30.0052817 17.4426667,30.0909155" id="Fill-112" fill="#F8DB3C" mask="url(#mask-4)"></path>
                            <path d="M18.9573333,29.8085915 L14.7466667,22.5096479 C15.252,22.4079577 15.756,22.2982394 16.26,22.180493 L20.4693333,29.4794366 C19.9666667,29.5971831 19.4626667,29.7069014 18.9573333,29.8085915" id="Fill-113" fill="#F7DE3D" mask="url(#mask-4)"></path>
                            <path d="M20.4693333,29.4794366 L16.26,22.180493 C16.7706667,22.0627465 17.28,21.9356338 17.788,21.803169 L21.9986667,29.1021127 C21.4893333,29.2359155 20.98,29.3616901 20.4693333,29.4794366" id="Fill-114" fill="#F8E03C" mask="url(#mask-4)"></path>
                            <path d="M21.9986667,29.1021127 L17.788,21.803169 C18.2986667,21.6693662 18.8066667,21.5288732 19.3146667,21.3790141 L23.5253333,28.6792958 C23.0173333,28.8278169 22.508,28.9683099 21.9986667,29.1021127" id="Fill-115" fill="#F8E854" mask="url(#mask-4)"></path>
                            <path d="M23.5253333,28.6792958 L19.3146667,21.3790141 C19.8573333,21.2211268 20.3986667,21.0538732 20.9373333,20.8785915 L25.1466667,28.1788732 C24.608,28.3528169 24.068,28.5200704 23.5253333,28.6792958" id="Fill-116" fill="#F8EB62" mask="url(#mask-4)"></path>
                            <path d="M25.1466667,28.1788732 L20.9373333,20.8785915 C21.4853333,20.7006338 22.032,20.5146479 22.5773333,20.3179577 L26.7866667,27.6182394 C26.2426667,27.8122535 25.6946667,27.9995775 25.1466667,28.1788732" id="Fill-117" fill="#F9EC6C" mask="url(#mask-4)"></path>
                            <path d="M26.7866667,27.6182394 L22.5773333,20.3179577 C23.2173333,20.090493 23.8573333,19.8496479 24.4906667,19.5967606 L28.7,26.8970423 C28.0666667,27.1485915 27.428,27.3894366 26.7866667,27.6182394" id="Fill-118" fill="#F9EE75" mask="url(#mask-4)"></path>
                            <path d="M28.7,26.8970423 L24.4906667,19.5967606 C25.212,19.3117606 25.928,19.0107042 26.64,18.6962676 L30.8506667,25.9952113 C30.1386667,26.3096479 29.4213333,26.6107042 28.7,26.8970423" id="Fill-119" fill="#F9F07D" mask="url(#mask-4)"></path>
                            <path d="M30.8506667,25.9952113 L26.64,18.6962676 C27.6853333,18.2346479 28.7186667,17.7449296 29.74,17.2244366 L33.9493333,24.5233803 C32.928,25.0425352 31.8946667,25.5349296 30.8506667,25.9952113" id="Fill-120" fill="#FBF084" mask="url(#mask-4)"></path>
                            <path d="M33.9493333,24.5233803 L29.74,17.2244366 C31.756,16.196831 33.724,15.058169 35.62,13.8178169 L39.8293333,21.1167606 C37.9333333,22.3571127 35.9666667,23.4957746 33.9493333,24.5233803" id="Fill-121" fill="#FBF18B" mask="url(#mask-4)"></path>
                            <path d="M39.8293333,21.1167606 L35.62,13.8178169 C36.5773333,13.1916197 37.516,12.54 38.4346667,11.8629577 L42.6453333,19.1619014 C41.7266667,19.8389437 40.7866667,20.4905634 39.8293333,21.1167606" id="Fill-122" fill="#FBF084" mask="url(#mask-4)"></path>
                            <path d="M42.6453333,19.1619014 L38.4346667,11.8629577 C39.088,11.3839437 39.7306667,10.8915493 40.3613333,10.3871127 L44.572,17.6860563 C43.94,18.190493 43.2986667,18.6828873 42.6453333,19.1619014" id="Fill-123" fill="#F9F07D" mask="url(#mask-4)"></path>
                            <path d="M44.572,17.6860563 L40.3613333,10.3871127 C40.8573333,9.99239437 41.3453333,9.58964789 41.8253333,9.18021127 L46.0346667,16.4778169 C45.5546667,16.8885915 45.0666667,17.291338 44.572,17.6860563" id="Fill-124" fill="#F9EE75" mask="url(#mask-4)"></path>
                            <path d="M46.0346667,16.4778169 L41.8253333,9.18021127 C42.2866667,8.78683099 42.7426667,8.38809859 43.1893333,7.98133803 L47.4,15.2802817 C46.952,15.6870423 46.496,16.0857746 46.0346667,16.4778169" id="Fill-125" fill="#F9EC6C" mask="url(#mask-4)"></path>
                            <path d="M47.4,15.2802817 L43.1893333,7.98133803 C43.5986667,7.6093662 44.0026667,7.23338028 44.4,6.85204225 L48.6093333,14.1523239 C48.212,14.5323239 47.808,14.9096479 47.4,15.2802817" id="Fill-126" fill="#F8EB62" mask="url(#mask-4)"></path>
                            <path d="M48.6093333,14.1523239 L44.4,6.85204225 C44.7906667,6.47873239 45.1746667,6.09873239 45.5533333,5.71338028 L49.7626667,13.013662 C49.384,13.3976761 49,13.7776761 48.6093333,14.1523239" id="Fill-127" fill="#F8E854" mask="url(#mask-4)"></path>
                            <path d="M49.7626667,13.013662 L45.5533333,5.71338028 C45.916,5.34408451 46.276,4.96943662 46.628,4.59077465 L50.8386667,11.8897183 C50.4853333,12.2683803 50.128,12.6430282 49.7626667,13.013662" id="Fill-128" fill="#F8E03C" mask="url(#mask-4)"></path>
                            <path d="M50.8386667,11.8897183 L46.628,4.59077465 C46.98,4.21077465 47.3266667,3.82809859 47.6666667,3.44140845 L51.8773333,10.7390141 C51.536,11.1270423 51.1906667,11.5097183 50.8386667,11.8897183" id="Fill-129" fill="#F7DE3D" mask="url(#mask-4)"></path>
                            <path d="M51.8773333,10.7390141 L47.6666667,3.44140845 C48.008,3.05338028 48.3426667,2.66133803 48.6693333,2.26528169 L52.8786667,9.56422535 C52.552,9.96028169 52.2173333,10.3523239 51.8773333,10.7390141" id="Fill-130" fill="#F8DB3C" mask="url(#mask-4)"></path>
                            <path d="M52.8786667,9.56422535 L48.6693333,2.26528169 C48.9973333,1.86922535 49.3186667,1.46915493 49.6346667,1.06373239 L53.8453333,8.36267606 C53.5293333,8.76809859 53.208,9.16816901 52.8786667,9.56422535" id="Fill-131" fill="#F7D93C" mask="url(#mask-4)"></path>
                            <path d="M53.8453333,8.36267606 L49.6346667,1.06373239 C49.9573333,0.648943662 50.272,0.231478873 50.58,-0.191338028 L54.7906667,7.10760563 C54.4813333,7.53042254 54.1666667,7.94788732 53.8453333,8.36267606" id="Fill-132" fill="#F7D83C" mask="url(#mask-4)"></path>
                        </g>
                        <g id="Group-149" transform="translate(84.000000, 33.450704)">
                            <mask id="mask-6" fill="white">
                                <use xlink:href="#path-5"></use>
                            </mask>
                            <g id="Clip-135"></g>
                            <path d="M4.512,29.7711268 L0.301333333,22.4721831 C0.624,22.0573944 0.938666667,21.6399296 1.24666667,21.2171127 L5.45733333,28.5160563 C5.148,28.9388732 4.83333333,29.356338 4.512,29.7711268" id="Fill-134" fill="#F7D83C" mask="url(#mask-6)"></path>
                            <path d="M5.45733333,28.5160563 L1.24666667,21.2171127 C1.55466667,20.7956338 1.856,20.3701408 2.148,19.9379577 L6.35866667,27.2369014 C6.06533333,27.6690845 5.764,28.0945775 5.45733333,28.5160563" id="Fill-136" fill="#F8D63C" mask="url(#mask-6)"></path>
                            <path d="M6.35866667,27.2369014 L2.148,19.9379577 C2.452,19.4923944 2.74666667,19.0428169 3.03333333,18.5905634 L7.24533333,25.889507 C6.95733333,26.3417606 6.66133333,26.791338 6.35866667,27.2369014" id="Fill-137" fill="#F8D33B" mask="url(#mask-6)"></path>
                            <path d="M7.24533333,25.889507 L3.03333333,18.5905634 C3.31866667,18.1396479 3.596,17.6833803 3.864,17.2244366 L8.07466667,24.5233803 C7.80533333,24.9823239 7.52933333,25.4372535 7.24533333,25.889507" id="Fill-138" fill="#F8D13B" mask="url(#mask-6)"></path>
                            <path d="M8.07466667,24.5233803 L3.864,17.2244366 C4.10933333,16.8056338 4.34533333,16.385493 4.57466667,15.9626761 L8.78533333,23.2616197 C8.55466667,23.6844366 8.31866667,24.1059155 8.07466667,24.5233803" id="Fill-139" fill="#F8CF3B" mask="url(#mask-6)"></path>
                            <path d="M8.78533333,23.2616197 L4.57466667,15.9626761 C4.804,15.5385211 5.02533333,15.1116901 5.24,14.6835211 L9.44933333,21.9824648 C9.236,22.4106338 9.01466667,22.8374648 8.78533333,23.2616197" id="Fill-140" fill="#F8CD3B" mask="url(#mask-6)"></path>
                            <path d="M9.44933333,21.9824648 L5.24,14.6835211 C5.27066667,14.6192958 5.30266667,14.5564085 5.33333333,14.4921831 C5.56933333,14.014507 5.79333333,13.535493 6.00533333,13.060493 L10.216,20.3594366 C10.004,20.8344366 9.78,21.3134507 9.544,21.7911268 C9.51333333,21.8553521 9.48133333,21.9182394 9.44933333,21.9824648" id="Fill-141" fill="#F8CB3B" mask="url(#mask-6)"></path>
                            <path d="M10.216,20.3594366 L6.00533333,13.060493 C6.25466667,12.4998592 6.48933333,11.9405634 6.70666667,11.3839437 L10.916,18.6828873 C10.6986667,19.239507 10.4653333,19.7988028 10.216,20.3594366" id="Fill-142" fill="#F8C93B" mask="url(#mask-6)"></path>
                            <path d="M10.916,18.6828873 L6.70666667,11.3839437 C6.928,10.8166197 7.13333333,10.2506338 7.32133333,9.68866197 L11.5306667,16.9876056 C11.344,17.5495775 11.1373333,18.1155634 10.916,18.6828873" id="Fill-143" fill="#F8C73A" mask="url(#mask-6)"></path>
                            <path d="M11.5306667,16.9876056 L7.32133333,9.68866197 C7.516,9.1106338 7.692,8.53528169 7.852,7.96260563 L12.0613333,15.2615493 C11.9026667,15.8342254 11.7253333,16.4095775 11.5306667,16.9876056" id="Fill-144" fill="#F7C43A" mask="url(#mask-6)"></path>
                            <path d="M12.0613333,15.2615493 L7.852,7.96260563 C8.01466667,7.3765493 8.16,6.79183099 8.288,6.21380282 L12.4973333,13.5127465 C12.3693333,14.0907746 12.2253333,14.675493 12.0613333,15.2615493" id="Fill-145" fill="#F7C239" mask="url(#mask-6)"></path>
                            <path d="M12.4973333,13.5127465 L8.288,6.21380282 C8.42533333,5.58492958 8.54133333,4.96140845 8.63733333,4.34323944 L12.8493333,11.6408451 C12.752,12.2603521 12.636,12.8838732 12.4973333,13.5127465" id="Fill-146" fill="#F6C039" mask="url(#mask-6)"></path>
                            <path d="M12.8493333,11.6408451 L8.63733333,4.34323944 C8.74133333,3.68091549 8.82,3.02528169 8.876,2.375 L13.0853333,9.67394366 C13.0293333,10.3242254 12.952,10.9798592 12.8493333,11.6408451" id="Fill-147" fill="#F6BF39" mask="url(#mask-6)"></path>
                            <path d="M13.0853333,9.67394366 L8.876,2.375 C8.93866667,1.66049296 8.97066667,0.954014085 8.976,0.25556338 L13.188,7.55450704 C13.1813333,8.25295775 13.148,8.95943662 13.0853333,9.67394366" id="Fill-148" fill="#F5BD39" mask="url(#mask-6)"></path>
                        </g>
                        <g id="Group-161" transform="translate(13.333333, 65.563380)">
                            <mask id="mask-8" fill="white">
                                <use xlink:href="#path-7"></use>
                            </mask>
                            <g id="Clip-151"></g>
                            <path d="M5.21866667,7.64683099 L1.008,0.347887324 C2.11866667,2.27197183 3.52666667,4.02612676 5.21333333,5.56887324 L9.42266667,12.8678169 C7.73733333,11.3250704 6.328,9.57091549 5.21866667,7.64683099" id="Fill-150" fill="#F4B63A" mask="url(#mask-8)"></path>
                            <path d="M9.42266667,12.8678169 L5.21333333,5.56887324 C5.932,6.2271831 6.70133333,6.84669014 7.52133333,7.42739437 L11.7306667,14.726338 C10.912,14.1456338 10.1426667,13.5261268 9.42266667,12.8678169" id="Fill-152" fill="#F4B83A" mask="url(#mask-8)"></path>
                            <path d="M11.7306667,14.726338 L7.52133333,7.42739437 C8.16666667,7.885 8.844,8.31584507 9.552,8.72126761 L13.7613333,16.0202113 C13.0546667,15.6147887 12.3773333,15.1826056 11.7306667,14.726338" id="Fill-153" fill="#F5BA39" mask="url(#mask-8)"></path>
                            <path d="M13.7613333,16.0202113 L9.552,8.72126761 C10.1626667,9.06915493 10.796,9.39964789 11.4506667,9.70873239 L15.66,17.0076761 C15.0053333,16.6985915 14.372,16.3680986 13.7613333,16.0202113" id="Fill-154" fill="#F5BD39" mask="url(#mask-8)"></path>
                            <path d="M15.66,17.0076761 L11.4506667,9.70873239 C12.0346667,9.98302817 12.636,10.2412676 13.2546667,10.4834507 L17.4653333,17.7823944 C16.8466667,17.5402113 16.2453333,17.2819718 15.66,17.0076761" id="Fill-155" fill="#F6BF39" mask="url(#mask-8)"></path>
                            <path d="M17.4653333,17.7823944 L13.2546667,10.4834507 C13.824,10.7042254 14.4066667,10.9116197 15.004,11.1029577 L19.2146667,18.4019014 C18.6173333,18.2105634 18.0333333,18.003169 17.4653333,17.7823944" id="Fill-156" fill="#F6C039" mask="url(#mask-8)"></path>
                            <path d="M19.2146667,18.4019014 L15.004,11.1029577 C15.5786667,11.2862676 16.1653333,11.4561972 16.7653333,11.6127465 L20.9746667,18.9116901 C20.3746667,18.7564789 19.788,18.5865493 19.2146667,18.4019014" id="Fill-157" fill="#F7C239" mask="url(#mask-8)"></path>
                            <path d="M20.9746667,18.9116901 L16.7653333,11.6127465 C17.3373333,11.7612676 17.9213333,11.8977465 18.5186667,12.018169 L22.728,19.3171127 C22.132,19.1953521 21.548,19.0602113 20.9746667,18.9116901" id="Fill-158" fill="#F7C43A" mask="url(#mask-8)"></path>
                            <path d="M22.728,19.3171127 L18.5186667,12.018169 C19.0973333,12.1359155 19.688,12.2416197 20.2893333,12.3339437 L24.4986667,19.6328873 C23.8986667,19.5405634 23.308,19.4348592 22.728,19.3171127" id="Fill-159" fill="#F8C73A" mask="url(#mask-8)"></path>
                            <path d="M24.4986667,19.6328873 L20.2893333,12.3339437 C20.852,12.4195775 21.4226667,12.494507 22.0013333,12.5573944 L26.212,19.856338 C25.632,19.7934507 25.0613333,19.7185211 24.4986667,19.6328873" id="Fill-160" fill="#F8C93B" mask="url(#mask-8)"></path>
                        </g>
                        <g id="Group-167" transform="translate(89.333333, 21.408451)">
                            <mask id="mask-10" fill="white">
                                <use xlink:href="#path-9"></use>
                            </mask>
                            <g id="Clip-163"></g>
                            <path d="M7.752,21.7161972 L3.54266667,14.4172535 C3.60533333,13.7027465 3.63733333,12.9962676 3.64266667,12.2978169 L7.85466667,19.5967606 C7.848,20.2952113 7.81466667,21.0016901 7.752,21.7161972" id="Fill-162" fill="#F5BD39" mask="url(#mask-10)"></path>
                            <path d="M7.85466667,19.5967606 L3.64266667,12.2978169 C3.64933333,11.4842958 3.61866667,10.6814789 3.55066667,9.89338028 L7.76,17.1923239 C7.828,17.9804225 7.85866667,18.7832394 7.85466667,19.5967606" id="Fill-164" fill="#F5BA39" mask="url(#mask-10)"></path>
                            <path d="M7.76,17.1923239 L3.55066667,9.89338028 C3.46133333,8.86577465 3.30933333,7.86091549 3.096,6.8828169 L7.30666667,14.1817606 C7.52,15.1598592 7.67066667,16.1647183 7.76,17.1923239" id="Fill-165" fill="#F4B83A" mask="url(#mask-10)"></path>
                            <path d="M7.30666667,14.1817606 L3.096,6.8828169 C2.604,4.62021127 1.78666667,2.49542254 0.662666667,0.547253521 L4.872,7.84619718 C5.996,9.7943662 6.81466667,11.9191549 7.30666667,14.1817606" id="Fill-166" fill="#F4B63A" mask="url(#mask-10)"></path>
                        </g>
                        <path d="M74.748,16.3774648 C95.124,19.0321127 101.62,36.3662676 90.9906667,54.1098592 C81.0426667,70.7201408 58.7746667,82.9497183 39.8266667,82.316831 C19.8386667,81.6478169 9.21733333,66.9616197 17.6293333,48.4152113 C26.6813333,28.4585211 53.1013333,13.5582394 74.748,16.3774648" id="Fill-168" fill="#E99E34"></path>
                        <polyline id="Fill-169" fill="#BF862F" points="61.48 34.6816901 59.1386667 31.3152113 63.7186667 31.8089437 66.06 35.1767606 61.48 34.6816901"></polyline>
                        <polyline id="Fill-170" fill="#BF862F" points="66.06 35.1767606 63.68 31.7273239 66.7333333 25.5242254 69.1146667 28.9723239 66.06 35.1767606"></polyline>
                        <path d="M55.5106667,39.7782394 L51.8093333,47.2952817 L58.7586667,48.0445775 C61.552,48.3469718 64.7866667,48.1730282 66.384,44.9269718 C67.9786667,41.6889437 65.3973333,40.8446479 62.46,40.5288732 L55.5106667,39.7782394 Z M52.8466667,61.6295775 C56.1253333,61.9828169 59.6013333,61.7406338 61.464,57.9566901 C63.3666667,54.0924648 60.1813333,53.2254225 56.7586667,52.8574648 L49.4586667,52.0693662 L45.1613333,60.8 L52.8466667,61.6295775 Z M66.3853333,50.6684507 C69.5493333,52.0011268 71.088,54.7333803 68.8973333,59.185 C66.632,63.7864789 62.3226667,66.4705634 57.596,67.2907746 L53.9933333,74.6097887 L47.016,73.8564789 L50.2773333,67.2319014 L45.6973333,66.738169 L42.4373333,73.3627465 L35.4506667,72.6094366 L38.712,65.9835211 L34.976,65.5821127 L50.7586667,33.5256338 L54.4946667,33.9283803 L57.548,27.7252817 L64.5333333,28.4785915 L61.48,34.6816901 L66.06,35.1767606 L69.1146667,28.9723239 L76.0906667,29.7256338 L72.5893333,36.8372535 C75.212,38.3291549 76.2186667,40.8566901 74.3933333,44.5657042 C72.864,47.6699296 69.8093333,49.8027465 66.3853333,50.6684507 Z" id="Fill-171" fill="#F9CB46"></path>
                        <polyline id="Fill-172" fill="#BF862F" points="69.1146667 28.9723239 66.7333333 25.5242254 73.7106667 26.2775352 76.0906667 29.7256338 69.1146667 28.9723239"></polyline>
                        <polyline id="Fill-173" fill="#BF862F" points="50.7586667 33.5256338 48.376 30.0721831 52.1106667 30.4749296 54.4946667 33.9283803 50.7586667 33.5256338"></polyline>
                        <polyline id="Fill-174" fill="#BF862F" points="34.976 65.5821127 32.604 62.1500704 48.3866667 30.0949296 50.7586667 33.5256338 34.976 65.5821127"></polyline>
                        <polyline id="Fill-175" fill="#BF862F" points="54.4946667 33.9283803 52.0866667 30.4240845 55.14 24.2209859 57.548 27.7252817 54.4946667 33.9283803"></polyline>
                        <polyline id="Fill-176" fill="#BF862F" points="57.548 27.7252817 55.14 24.2209859 62.1586667 24.9595775 64.5333333 28.4785915 57.548 27.7252817"></polyline>
                        <g id="Group-188" transform="translate(73.333333, 0.000000)">
                            <mask id="mask-12" fill="white">
                                <use xlink:href="#path-11"></use>
                            </mask>
                            <g id="Clip-178"></g>
                            <path d="M4.284,8.09239437 L0.0733333333,0.793450704 C0.805333333,0.871056338 1.52533333,0.966056338 2.23466667,1.07577465 L6.44533333,8.37338028 C5.736,8.265 5.016,8.17 4.284,8.09239437" id="Fill-177" fill="#F8C93B" mask="url(#mask-12)"></path>
                            <path d="M6.44533333,8.37338028 L2.23466667,1.07577465 C2.99333333,1.1921831 3.74,1.32330986 4.47066667,1.47450704 L8.68133333,8.7734507 C7.94933333,8.62225352 7.20266667,8.48978873 6.44533333,8.37338028" id="Fill-179" fill="#F8C73A" mask="url(#mask-12)"></path>
                            <path d="M8.68133333,8.7734507 L4.47066667,1.47450704 C5.22266667,1.62704225 5.96,1.79830986 6.68266667,1.98429577 L10.8933333,9.28323944 C10.1706667,9.09725352 9.432,8.92598592 8.68133333,8.7734507" id="Fill-180" fill="#F7C43A" mask="url(#mask-12)"></path>
                            <path d="M10.8933333,9.28323944 L6.68266667,1.98429577 C7.44,2.18098592 8.18133333,2.39640845 8.90533333,2.62922535 L13.1146667,9.92683099 C12.3906667,9.69535211 11.6493333,9.47992958 10.8933333,9.28323944" id="Fill-181" fill="#F7C239" mask="url(#mask-12)"></path>
                            <path d="M13.1146667,9.92683099 L8.90533333,2.62922535 C9.65866667,2.87007042 10.3946667,3.13098592 11.112,3.4106338 L15.3213333,10.7095775 C14.604,10.4299296 13.868,10.1690141 13.1146667,9.92683099" id="Fill-182" fill="#F6C039" mask="url(#mask-12)"></path>
                            <path d="M15.3213333,10.7095775 L11.112,3.4106338 C11.8933333,3.7143662 12.652,4.04084507 13.3893333,4.38873239 L17.5986667,11.6876761 C16.8613333,11.3411268 16.1026667,11.0133099 15.3213333,10.7095775" id="Fill-183" fill="#F6BF39" mask="url(#mask-12)"></path>
                            <path d="M17.5986667,11.6876761 L13.3893333,4.38873239 C14.216,4.77676056 15.0146667,5.19422535 15.7853333,5.63443662 L19.9946667,12.9333803 C19.224,12.493169 18.4253333,12.0757042 17.5986667,11.6876761" id="Fill-184" fill="#F5BD39" mask="url(#mask-12)"></path>
                            <path d="M19.9946667,12.9333803 L15.7853333,5.63443662 C16.6773333,6.14556338 17.5306667,6.69014085 18.348,7.26816901 L22.5573333,14.5657746 C21.7413333,13.9890845 20.8866667,13.444507 19.9946667,12.9333803" id="Fill-185" fill="#F5BA39" mask="url(#mask-12)"></path>
                            <path d="M22.5573333,14.5657746 L18.348,7.26816901 C19.38,7.99739437 20.3506667,8.77880282 21.2573333,9.60971831 L25.468,16.908662 C24.56,16.0790845 23.5893333,15.296338 22.5573333,14.5657746" id="Fill-186" fill="#F4B83A" mask="url(#mask-12)"></path>
                            <path d="M25.468,16.908662 L21.2573333,9.60971831 C23.3853333,11.5565493 25.1613333,13.7669718 26.5626667,16.195493 L30.772,23.4957746 C29.3706667,21.0659155 27.5946667,18.855493 25.468,16.908662" id="Fill-187" fill="#F4B63A" mask="url(#mask-12)"></path>
                        </g>
                        <g id="Group-236">
                            <mask id="mask-14" fill="white">
                                <use xlink:href="#path-13"></use>
                            </mask>
                            <g id="Clip-190"></g>
                            <path d="M8.65066667,78.9610563 L4.44133333,71.6621127 C3.02266667,69.2041549 1.99066667,66.5227465 1.36933333,63.6687324 L5.58,70.966338 C6.2,73.8216901 7.23333333,76.5030986 8.65066667,78.9610563" id="Fill-189" fill="#F4B63A" mask="url(#mask-14)"></path>
                            <path d="M5.58,70.966338 L1.36933333,63.6687324 C1.10133333,62.4337324 0.909333333,61.1666197 0.797333333,59.8700704 L5.00666667,67.1690141 C5.12,68.4655634 5.31066667,69.731338 5.58,70.966338" id="Fill-191" fill="#F4B83A" mask="url(#mask-14)"></path>
                            <path d="M5.00666667,67.1690141 L0.797333333,59.8700704 C0.710666667,58.8745775 0.670666667,57.8630282 0.68,56.8354225 L4.88933333,64.1357042 C4.88133333,65.1619718 4.92,66.1735211 5.00666667,67.1690141" id="Fill-192" fill="#F5BA39" mask="url(#mask-14)"></path>
                            <path d="M4.88933333,64.1357042 L0.68,56.8354225 C0.686666667,55.953662 0.728,55.0625352 0.805333333,54.1593662 L5.016,61.4596479 C4.93866667,62.3614789 4.896,63.2526056 4.88933333,64.1357042" id="Fill-193" fill="#F5BD39" mask="url(#mask-14)"></path>
                            <path d="M5.016,61.4596479 L0.805333333,54.1593662 C0.877333333,53.340493 0.976,52.5135915 1.10666667,51.68 L5.316,58.9776056 C5.18666667,59.8125352 5.08666667,60.6394366 5.016,61.4596479" id="Fill-194" fill="#F6BF39" mask="url(#mask-14)"></path>
                            <path d="M5.316,58.9776056 L1.10666667,51.68 C1.228,50.8985915 1.376,50.111831 1.54933333,49.3183803 L5.76,56.6173239 C5.58533333,57.4107746 5.43866667,58.1975352 5.316,58.9776056" id="Fill-195" fill="#F6C039" mask="url(#mask-14)"></path>
                            <path d="M5.76,56.6173239 L1.54933333,49.3183803 C1.71066667,48.5878169 1.89333333,47.8532394 2.1,47.1133099 L6.30933333,54.4122535 C6.104,55.1521831 5.92,55.8880986 5.76,56.6173239" id="Fill-196" fill="#F7C239" mask="url(#mask-14)"></path>
                            <path d="M6.30933333,54.4122535 L2.1,47.1133099 C2.3,46.3907746 2.52266667,45.6642254 2.768,44.935 L6.97733333,52.2339437 C6.73333333,52.963169 6.51066667,53.6897183 6.30933333,54.4122535" id="Fill-197" fill="#F7C43A" mask="url(#mask-14)"></path>
                            <path d="M6.97733333,52.2339437 L2.768,44.935 C3.00533333,44.2258451 3.264,43.511338 3.544,42.796831 L7.75333333,50.0957746 C7.47333333,50.8116197 7.216,51.5247887 6.97733333,52.2339437" id="Fill-198" fill="#F8C73A" mask="url(#mask-14)"></path>
                            <path d="M7.75333333,50.0957746 L3.544,42.796831 C3.81866667,42.0943662 4.112,41.3905634 4.428,40.6814085 L8.63733333,47.9803521 C8.32266667,48.689507 8.028,49.3933099 7.75333333,50.0957746" id="Fill-199" fill="#F8C93B" mask="url(#mask-14)"></path>
                            <path d="M8.63733333,47.9803521 L4.428,40.6814085 C4.69466667,40.0806338 4.97733333,39.4785211 5.27466667,38.8750704 C5.31466667,38.7947887 5.35466667,38.7158451 5.39466667,38.6342254 L9.604,45.933169 C9.564,46.0147887 9.52533333,46.0937324 9.48533333,46.1740141 C9.188,46.7774648 8.90533333,47.3795775 8.63733333,47.9803521" id="Fill-200" fill="#F8CB3B" mask="url(#mask-14)"></path>
                            <path d="M9.604,45.933169 L5.39466667,38.6342254 C5.664,38.0923239 5.944,37.5530986 6.23466667,37.0192254 L10.444,44.316831 C10.1546667,44.8520423 9.87466667,45.3912676 9.604,45.933169" id="Fill-201" fill="#F8CD3B" mask="url(#mask-14)"></path>
                            <path d="M10.444,44.316831 L6.23466667,37.0192254 C6.524,36.4840141 6.82266667,35.9514789 7.13066667,35.4256338 L11.3413333,42.7245775 C11.032,43.2504225 10.7333333,43.7829577 10.444,44.316831" id="Fill-202" fill="#F8CF3B" mask="url(#mask-14)"></path>
                            <path d="M11.3413333,42.7245775 L7.13066667,35.4256338 C7.46933333,34.8449296 7.82,34.2695775 8.18,33.6982394 L12.3893333,40.9985211 C12.0293333,41.5685211 11.68,42.1438732 11.3413333,42.7245775" id="Fill-203" fill="#F8D13B" mask="url(#mask-14)"></path>
                            <path d="M12.3893333,40.9985211 L8.18,33.6982394 C8.54133333,33.1269014 8.91466667,32.5595775 9.29866667,31.9962676 L13.508,39.2952113 C13.124,39.8585211 12.752,40.4258451 12.3893333,40.9985211" id="Fill-204" fill="#F8D33B" mask="url(#mask-14)"></path>
                            <path d="M13.508,39.2952113 L9.29866667,31.9962676 C9.668,31.4530282 10.048,30.9138028 10.4373333,30.3812676 L14.6466667,37.6802113 C14.2573333,38.2140845 13.8773333,38.7519718 13.508,39.2952113" id="Fill-205" fill="#F8D63C" mask="url(#mask-14)"></path>
                            <path d="M14.6466667,37.6802113 L10.4373333,30.3812676 C10.8253333,29.8487324 11.2226667,29.3202113 11.6306667,28.7970423 L15.84,36.0959859 C15.4333333,36.6191549 15.0346667,37.1476761 14.6466667,37.6802113" id="Fill-206" fill="#F7D83C" mask="url(#mask-14)"></path>
                            <path d="M15.84,36.0959859 L11.6306667,28.7970423 C12.028,28.2872535 12.4333333,27.7814789 12.848,27.2810563 L17.0573333,34.58 C16.644,35.0804225 16.2373333,35.5861972 15.84,36.0959859" id="Fill-207" fill="#F7D93C" mask="url(#mask-14)"></path>
                            <path d="M17.0573333,34.58 L12.848,27.2810563 C13.2613333,26.7819718 13.684,26.2869014 14.1133333,25.7971831 L18.3226667,33.0961268 C17.8933333,33.5871831 17.4706667,34.0809155 17.0573333,34.58" id="Fill-208" fill="#F8DB3C" mask="url(#mask-14)"></path>
                            <path d="M18.3226667,33.0961268 L14.1133333,25.7971831 C14.544,25.3074648 14.9826667,24.8217606 15.4293333,24.3414085 L19.64,31.6403521 C19.192,32.1207042 18.7533333,32.6064085 18.3226667,33.0961268" id="Fill-209" fill="#F7DE3D" mask="url(#mask-14)"></path>
                            <path d="M19.64,31.6403521 L15.4293333,24.3414085 C15.8773333,23.8610563 16.3306667,23.3860563 16.7933333,22.9164085 L21.004,30.2153521 C20.5413333,30.685 20.0866667,31.16 19.64,31.6403521" id="Fill-210" fill="#F8E03C" mask="url(#mask-14)"></path>
                            <path d="M21.004,30.2153521 L16.7933333,22.9164085 C17.2706667,22.4333803 17.7546667,21.9543662 18.2466667,21.4820423 L22.4573333,28.7809859 C21.9653333,29.2533099 21.48,29.7323239 21.004,30.2153521" id="Fill-211" fill="#F8E854" mask="url(#mask-14)"></path>
                            <path d="M22.4573333,28.7809859 L18.2466667,21.4820423 C18.7453333,21.0030282 19.252,20.5320423 19.7666667,20.0664085 L23.976,27.3653521 C23.4626667,27.8309859 22.956,28.3019718 22.4573333,28.7809859" id="Fill-212" fill="#F8EB62" mask="url(#mask-14)"></path>
                            <path d="M23.976,27.3653521 L19.7666667,20.0664085 C20.3306667,19.5539437 20.9026667,19.0508451 21.484,18.5557746 L25.6933333,25.8547183 C25.112,26.3497887 24.54,26.8528873 23.976,27.3653521" id="Fill-213" fill="#F9EC6C" mask="url(#mask-14)"></path>
                            <path d="M25.6933333,25.8547183 L21.484,18.5557746 C22.0906667,18.0392958 22.7066667,17.5321831 23.3306667,17.0330986 L27.54,24.3320423 C26.916,24.8324648 26.3013333,25.3382394 25.6933333,25.8547183" id="Fill-214" fill="#F9EE75" mask="url(#mask-14)"></path>
                            <path d="M27.54,24.3320423 L23.3306667,17.0330986 C24.1266667,16.3975352 24.9373333,15.7766901 25.7613333,15.1705634 L29.9706667,22.469507 C29.1466667,23.0756338 28.336,23.6964789 27.54,24.3320423" id="Fill-215" fill="#F9F07D" mask="url(#mask-14)"></path>
                            <path d="M29.9706667,22.469507 L25.7613333,15.1705634 C26.92,14.3169014 28.1053333,13.4953521 29.312,12.7059155 L33.5226667,20.0048592 C32.3146667,20.7942958 31.1306667,21.6158451 29.9706667,22.469507" id="Fill-216" fill="#FBF084" mask="url(#mask-14)"></path>
                            <path d="M33.5226667,20.0048592 L29.312,12.7059155 C31.7053333,11.1404225 34.1853333,9.70471831 36.7293333,8.40816901 L40.94,15.7071127 C38.3946667,17.003662 35.9146667,18.4393662 33.5226667,20.0048592" id="Fill-217" fill="#FBF18B" mask="url(#mask-14)"></path>
                            <path d="M40.94,15.7071127 L36.7293333,8.40816901 C38.0173333,7.75253521 39.3213333,7.13302817 40.6386667,6.55098592 L44.8493333,13.8512676 C43.532,14.4319718 42.228,15.0514789 40.94,15.7071127" id="Fill-218" fill="#FBF084" mask="url(#mask-14)"></path>
                            <path d="M44.8493333,13.8512676 L40.6386667,6.55098592 C41.5373333,6.15492958 42.4413333,5.77492958 43.3506667,5.415 L47.5613333,12.7139437 C46.652,13.0738732 45.7466667,13.4538732 44.8493333,13.8512676" id="Fill-219" fill="#F9F07D" mask="url(#mask-14)"></path>
                            <path d="M47.5613333,12.7139437 L43.3506667,5.415 C44.152,5.09788732 44.9573333,4.79415493 45.7653333,4.50380282 L49.9746667,11.8027465 C49.1666667,12.0917606 48.3613333,12.396831 47.5613333,12.7139437" id="Fill-220" fill="#F9EE75" mask="url(#mask-14)"></path>
                            <path d="M49.9746667,11.8027465 L45.7653333,4.50380282 C46.452,4.25894366 47.1413333,4.0234507 47.8333333,3.79866197 L52.044,11.0976056 C51.352,11.3223944 50.6626667,11.5578873 49.9746667,11.8027465" id="Fill-221" fill="#F9EC6C" mask="url(#mask-14)"></path>
                            <path d="M52.044,11.0976056 L47.8333333,3.79866197 C48.5146667,3.57788732 49.196,3.3678169 49.88,3.16711268 L54.0893333,10.4660563 C53.4066667,10.6667606 52.724,10.876831 52.044,11.0976056" id="Fill-222" fill="#F8EB62" mask="url(#mask-14)"></path>
                            <path d="M54.0893333,10.4660563 L49.88,3.16711268 C50.5213333,2.97978873 51.1626667,2.80183099 51.8053333,2.63323944 L56.016,9.9321831 C55.372,10.1007746 54.7306667,10.2787324 54.0893333,10.4660563" id="Fill-223" fill="#F8E854" mask="url(#mask-14)"></path>
                            <path d="M56.016,9.9321831 L51.8053333,2.63323944 C52.448,2.46464789 53.0906667,2.30542254 53.7346667,2.15556338 L57.944,9.45450704 C57.3013333,9.6043662 56.6573333,9.76359155 56.016,9.9321831" id="Fill-224" fill="#F8E03C" mask="url(#mask-14)"></path>
                            <path d="M57.944,9.45450704 L53.7346667,2.15556338 C54.3693333,2.00838028 55.0053333,1.86922535 55.6413333,1.74211268 L59.8533333,9.04105634 C59.216,9.16816901 58.58,9.30732394 57.944,9.45450704" id="Fill-225" fill="#F7DE3D" mask="url(#mask-14)"></path>
                            <path d="M59.8533333,9.04105634 L55.6413333,1.74211268 C56.2786667,1.61232394 56.916,1.49323944 57.5533333,1.38485915 L61.7626667,8.68380282 C61.1266667,8.7921831 60.4893333,8.91126761 59.8533333,9.04105634" id="Fill-226" fill="#F8DB3C" mask="url(#mask-14)"></path>
                            <path d="M61.7626667,8.68380282 L57.5533333,1.38485915 C58.1973333,1.27380282 58.844,1.1734507 59.488,1.08380282 L63.6973333,8.38274648 C63.0533333,8.47239437 62.4093333,8.57274648 61.7626667,8.68380282" id="Fill-227" fill="#F7D93C" mask="url(#mask-14)"></path>
                            <path d="M63.6973333,8.38274648 L59.488,1.08380282 C60.1333333,0.991478873 60.7773333,0.912535211 61.4213333,0.841619718 L65.632,8.14056338 C64.9866667,8.21147887 64.3426667,8.29042254 63.6973333,8.38274648" id="Fill-228" fill="#F7D83C" mask="url(#mask-14)"></path>
                            <path d="M65.632,8.14056338 L61.4213333,0.841619718 C62.0853333,0.769366197 62.7493333,0.707816901 63.4133333,0.658309859 L67.624,7.95725352 C66.96,8.00676056 66.296,8.06830986 65.632,8.14056338" id="Fill-229" fill="#F8D63C" mask="url(#mask-14)"></path>
                            <path d="M67.624,7.95725352 L63.4133333,0.658309859 C64.0773333,0.608802817 64.7413333,0.57 65.4026667,0.541901408 L69.612,7.84084507 C68.9506667,7.86894366 68.288,7.90640845 67.624,7.95725352" id="Fill-230" fill="#F8D33B" mask="url(#mask-14)"></path>
                            <path d="M69.612,7.84084507 L65.4026667,0.541901408 C66.0866667,0.513802817 66.772,0.497746479 67.4533333,0.493732394 L71.664,7.79267606 C70.9813333,7.79669014 70.2973333,7.81274648 69.612,7.84084507" id="Fill-231" fill="#F8D13B" mask="url(#mask-14)"></path>
                            <path d="M71.664,7.79267606 L67.4533333,0.493732394 C68.136,0.491056338 68.8186667,0.499084507 69.4973333,0.521830986 L73.708,7.82077465 C73.028,7.79802817 72.348,7.78866197 71.664,7.79267606" id="Fill-232" fill="#F8CF3B" mask="url(#mask-14)"></path>
                            <path d="M73.708,7.82077465 L69.4973333,0.521830986 C70.136,0.541901408 70.772,0.574014085 71.4066667,0.616830986 L75.6173333,7.91577465 C74.9826667,7.87295775 74.3466667,7.84084507 73.708,7.82077465" id="Fill-233" fill="#F8CD3B" mask="url(#mask-14)"></path>
                            <path d="M75.6173333,7.91577465 L71.4066667,0.616830986 C72.04,0.660985915 72.672,0.71584507 73.3013333,0.781408451 L77.5106667,8.08035211 C76.8813333,8.0134507 76.2493333,7.95859155 75.6173333,7.91577465" id="Fill-234" fill="#F8CB3B" mask="url(#mask-14)"></path>
                            <path d="M77.5106667,8.08035211 L73.3013333,0.781408451 C73.336,0.785422535 73.3706667,0.78943662 73.4066667,0.793450704 L77.6173333,8.09239437 C77.5813333,8.08838028 77.5466667,8.0843662 77.5106667,8.08035211" id="Fill-235" fill="#F8C93B" mask="url(#mask-14)"></path>
                        </g>
                        <path d="M39.5453333,85.4197183 C60.0733333,87.6341549 84.2506667,74.1160563 93.544,55.241831 C102.84,36.3609155 93.736,19.2595775 73.208,17.0451408 C52.6813333,14.8307042 28.5066667,28.3421127 19.2106667,47.2230282 C9.91733333,66.0959155 19.0186667,83.2052817 39.5453333,85.4197183 Z M77.6173333,8.09239437 C103.514667,10.8861972 115.001333,32.4619014 103.269333,56.2908451 C91.54,80.1117606 61.0386667,97.1582394 35.1413333,94.3644366 C9.244,91.5706338 -2.24266667,69.9949296 9.48533333,46.1740141 C21.2173333,22.3450704 51.72,5.29859155 77.6173333,8.09239437 Z" id="Fill-237" fill="#F4B83A"></path>
                    </g>
                </g>
            </g>
        </g>
    </g>
</svg>