<?xml version="1.0" encoding="UTF-8"?>
<svg width="96px" height="91px" viewBox="0 0 96 91" version="1.1" xmlns="http://www.w3.org/2000/svg" xmlns:xlink="http://www.w3.org/1999/xlink">
    <!-- Generator: Sketch 50.2 (55047) - http://www.bohemiancoding.com/sketch -->
    <title>bitcoin 7</title>
    <desc>Created with Sketch.</desc>
    <defs>
        <path d="M85.2060504,4.24267544 L92.4310588,11.9257895 C101.362286,21.4233158 91.6033613,45.1104561 70.0533782,65.6580965 C47.9725714,86.7126228 21.8718655,96.4895351 11.7539496,87.4925088 C11.5078992,87.2729912 11.2731429,87.044693 11.0496807,86.807614 L3.82467227,79.1245 C4.04894118,79.3623772 4.28369748,79.5906754 4.5297479,79.810193 C14.6476639,88.8072193 40.747563,79.0295088 62.8283697,57.9749825 C84.3783529,37.4273421 94.1372773,13.7402018 85.2060504,4.24267544" id="path-1"></path>
        <path d="M7.9456,38.8059123 C5.5568,36.2451404 3.1688,33.6843684 0.7816,31.1235965 C3.9864,26.3612632 8.084,21.4807895 12.9464,16.8054649 C20.7032,9.34745614 29.0904,3.67512281 36.7056,0.3185 C39.0936,2.87927193 41.4816,5.44004386 43.8704,8.00081579 C36.2552,11.3582368 27.8672,17.0297719 20.1112,24.4885789 C15.248,29.1631053 11.1504,34.0443772 7.9456,38.8059123" id="path-3"></path>
        <path d="M15.9456,8.47257895 C7.9912,20.2874123 5.5328,31.3662632 10.5328,36.7288772 L3.3688,29.0465614 C-1.6312,23.6839474 0.8272,12.6050965 8.7816,0.790263158 C11.1688,3.35103509 13.5568,5.91180702 15.9456,8.47257895" id="path-5"></path>
        <path d="M7.8704,11.1937982 C5.4816,8.63302632 3.0936,6.07225439 0.7056,3.51148246 C10.1304,-0.643385965 18.3712,-1.25085088 22.7664,2.69008772 C22.96,2.86410526 23.1456,3.04530702 23.32,3.23289474 L30.4848,10.9160088 C30.3096,10.7276228 30.1248,10.5464211 29.9304,10.3732018 C25.5352,6.43146491 17.2944,7.03972807 7.8704,11.1937982" id="path-7"></path>
        <path d="M81.296,0.251447368 L88.4608,7.9345614 C97.3176,17.4320877 87.64,41.1192281 66.2696,61.6668684 C44.3728,82.7213947 18.4896,92.498307 8.456,83.5012807 C8.212,83.2817632 7.9792,83.0534649 7.7576,82.816386 L0.5928,75.1332719 C0.8152,75.3711491 1.048,75.5994474 1.292,75.8189649 C11.3256,84.8159912 37.208,75.0382807 59.1048,53.9837544 C80.4752,33.436114 90.1528,9.74897368 81.296,0.251447368" id="path-9"></path>
    </defs>
    <g id="ICO" stroke="none" stroke-width="1" fill="none" fill-rule="evenodd">
        <g id="01-Ñontract-ICO-hover" transform="translate(-349.000000, -1349.000000)">
            <g id="content">
                <g id="bitcoin-7" transform="translate(349.000000, 1349.000000)">
                    <g id="Group-Copy-2">
                        <path d="M64.5378151,59.4692982 C39.9327731,82.6184211 14.6476639,88.8072193 4.5297479,79.810193 C-5.58413445,70.8163596 4.11670588,46.4562982 26.1983193,25.4017719 C48.2863866,4.34085965 74.3870924,-5.43685088 84.5009748,3.55698246 C94.6188908,12.5540088 89.1428571,36.3201754 64.5378151,59.4692982 Z" id="Fill-1715" fill="#F8CB3B"></path>
                        <mask id="mask-2" fill="white">
                            <use xlink:href="#path-1"></use>
                        </mask>
                        <use id="Clip-1663" fill="#F8CB3B" xlink:href="#path-1"></use>
                    </g>
                    <g id="Group-Copy">
                        <g id="Group-1619" transform="translate(16.800000, 11.973684)">
                            <mask id="mask-4" fill="white">
                                <use xlink:href="#path-3"></use>
                            </mask>
                            <g id="Clip-1595"></g>
                            <path d="M37.8576,-0.174017544 L45.0224,7.50829825 C44.4888,7.72941228 43.9512,7.9625 43.4104,8.20596491 L36.2464,0.523649123 C36.7872,0.279385965 37.3248,0.0470964912 37.8576,-0.174017544" id="Fill-1594" fill="#F8CE3B" mask="url(#mask-4)"></path>
                            <path d="M36.2464,0.523649123 L43.4104,8.20596491 C42.9344,8.42069298 42.4552,8.645 41.9744,8.87728947 L34.8104,1.19417544 C35.2912,0.961885965 35.7704,0.738377193 36.2464,0.523649123" id="Fill-1596" fill="#F8CF3B" mask="url(#mask-4)"></path>
                            <path d="M34.8104,1.19417544 L41.9744,8.87728947 C41.484,9.11357018 40.9912,9.35942982 40.4968,9.61407018 L33.332,1.93175439 C33.8272,1.67711404 34.32,1.43125439 34.8104,1.19417544" id="Fill-1597" fill="#F8D03B" mask="url(#mask-4)"></path>
                            <path d="M33.332,1.93175439 L40.4968,9.61407018 C39.9968,9.87190351 39.4936,10.1385175 38.9896,10.4139123 L31.8248,2.73159649 C32.3296,2.45540351 32.832,2.18958772 33.332,1.93175439" id="Fill-1598" fill="#F8D13B" mask="url(#mask-4)"></path>
                            <path d="M31.8248,2.73159649 L38.9896,10.4139123 C38.516,10.6725439 38.0424,10.9391579 37.5656,11.2129561 L30.4016,3.53064035 C30.8776,3.25604386 31.352,2.99022807 31.8248,2.73159649" id="Fill-1599" fill="#F8D23B" mask="url(#mask-4)"></path>
                            <path d="M30.4016,3.53064035 L37.5656,11.2129561 C37.0936,11.4851579 36.62,11.7645439 36.1464,12.0519123 L28.9816,4.36879825 C29.456,4.08142982 29.9296,3.80204386 30.4016,3.53064035" id="Fill-1600" fill="#F8D33B" mask="url(#mask-4)"></path>
                            <path d="M28.9816,4.36879825 L36.1464,12.0519123 C35.7056,12.3185263 35.264,12.5915263 34.8208,12.8717105 L27.6568,5.18859649 C28.0992,4.90921053 28.5416,4.63541228 28.9816,4.36879825" id="Fill-1601" fill="#F8D43B" mask="url(#mask-4)"></path>
                            <path d="M27.6568,5.18859649 L34.8208,12.8717105 C34.3792,13.1510965 33.936,13.4368684 33.492,13.7298246 L26.3272,6.04750877 C26.7712,5.75455263 27.2152,5.4687807 27.6568,5.18859649" id="Fill-1602" fill="#F8D63C" mask="url(#mask-4)"></path>
                            <path d="M26.3272,6.04750877 L33.492,13.7298246 C33.0744,14.0052193 32.6552,14.287 32.2368,14.5735702 L25.0728,6.89125439 C25.4912,6.60388596 25.9096,6.32290351 26.3272,6.04750877" id="Fill-1603" fill="#F8D73C" mask="url(#mask-4)"></path>
                            <path d="M25.0728,6.89125439 L32.2368,14.5735702 C31.8184,14.8609386 31.4,15.1530965 30.9816,15.4508421 L23.816,7.76772807 C24.2352,7.46998246 24.6536,7.17782456 25.0728,6.89125439" id="Fill-1604" fill="#F7D83C" mask="url(#mask-4)"></path>
                            <path d="M23.816,7.76772807 L30.9816,15.4508421 C30.5696,15.7437982 30.1576,16.0415439 29.7464,16.3456754 L22.5816,8.6625614 C22.9936,8.35922807 23.4056,8.06148246 23.816,7.76772807" id="Fill-1605" fill="#F7D93C" mask="url(#mask-4)"></path>
                            <path d="M22.5816,8.6625614 L29.7464,16.3456754 C29.336,16.6474123 28.9256,16.9555351 28.516,17.2676491 L21.352,9.58533333 C21.7616,9.27242105 22.172,8.96509649 22.5816,8.6625614" id="Fill-1606" fill="#F7DA3C" mask="url(#mask-4)"></path>
                            <path d="M21.352,9.58533333 L28.516,17.2676491 C28.0928,17.5909386 27.6704,17.9198158 27.248,18.2534825 L20.0832,10.5711667 C20.5064,10.2367018 20.9288,9.90862281 21.352,9.58533333" id="Fill-1607" fill="#F8DB3C" mask="url(#mask-4)"></path>
                            <path d="M20.0832,10.5711667 L27.248,18.2534825 C26.8184,18.5935351 26.3888,18.9391754 25.9608,19.2896053 L18.7968,11.6072895 C19.2248,11.2560614 19.6536,10.9104211 20.0832,10.5711667" id="Fill-1608" fill="#F8DD3D" mask="url(#mask-4)"></path>
                            <path d="M18.7968,11.6072895 L25.9608,19.2896053 C25.4848,19.6799474 25.0112,20.0758772 24.5376,20.4789912 L17.3736,12.7966754 C17.8472,12.3935614 18.3208,11.9968333 18.7968,11.6072895" id="Fill-1609" fill="#F7DE3D" mask="url(#mask-4)"></path>
                            <path d="M17.3736,12.7966754 L24.5376,20.4789912 C24.0272,20.9140351 23.5184,21.3562632 23.0128,21.8064737 L15.848,14.1233596 C16.3544,13.6739474 16.8632,13.2317193 17.3736,12.7966754" id="Fill-1610" fill="#F7DF3C" mask="url(#mask-4)"></path>
                            <path d="M15.848,14.1233596 L23.0128,21.8064737 C22.3032,22.4362895 21.5976,23.0812719 20.8968,23.7406228 L13.7328,16.0575088 C14.4336,15.3981579 15.1392,14.7531754 15.848,14.1233596" id="Fill-1611" fill="#F8E03C" mask="url(#mask-4)"></path>
                            <path d="M13.7328,16.0575088 L20.8968,23.7406228 C20.6344,23.9872807 20.372,24.2371316 20.1112,24.4885789 C18.0392,26.4802018 16.1056,28.5101404 14.3208,30.5520526 L7.156,22.8697368 C8.9416,20.8278246 10.8744,18.797886 12.9464,16.8054649 C13.208,16.5540175 13.4696,16.3049649 13.7328,16.0575088" id="Fill-1612" fill="#F8E853" mask="url(#mask-4)"></path>
                            <path d="M7.156,22.8697368 L14.3208,30.5520526 C13.6816,31.2840439 13.0608,32.0168333 12.46,32.7512193 L5.296,25.0681053 C5.8968,24.3345175 6.5168,23.6009298 7.156,22.8697368" id="Fill-1613" fill="#F8E03C" mask="url(#mask-4)"></path>
                            <path d="M5.296,25.0681053 L12.46,32.7512193 C11.996,33.3179737 11.544,33.8855263 11.1024,34.4522807 L3.9384,26.7691667 C4.3792,26.2024123 4.832,25.6348596 5.296,25.0681053" id="Fill-1614" fill="#F7DF3C" mask="url(#mask-4)"></path>
                            <path d="M3.9384,26.7691667 L11.1024,34.4522807 C10.7152,34.9511842 10.336,35.4500877 9.9664,35.948193 L2.8024,28.2658772 C3.172,27.7677719 3.5496,27.2688684 3.9384,26.7691667" id="Fill-1615" fill="#F7DE3D" mask="url(#mask-4)"></path>
                            <path d="M2.8024,28.2658772 L9.9664,35.948193 C9.6072,36.4335263 9.256,36.9172632 8.9152,37.401 L1.7504,29.717886 C2.092,29.2349474 2.4432,28.7504123 2.8024,28.2658772" id="Fill-1616" fill="#F8DD3D" mask="url(#mask-4)"></path>
                            <path d="M1.7504,29.717886 L8.9152,37.401 C8.5872,37.8647807 8.268,38.3277632 7.9568,38.7891491 L0.792,31.1060351 C1.1032,30.6446491 1.4224,30.1816667 1.7504,29.717886" id="Fill-1617" fill="#F8DB3C" mask="url(#mask-4)"></path>
                            <path d="M0.792,31.1060351 L7.9568,38.7891491 C7.644,39.2529298 7.34,39.7159123 7.0448,40.1772982 L-0.12,32.4949825 C0.176,32.0335965 0.48,31.570614 0.792,31.1060351" id="Fill-1618" fill="#F7DA3C" mask="url(#mask-4)"></path>
                        </g>
                        <g id="Group-1641" transform="translate(8.800000, 42.307018)">
                            <mask id="mask-6" fill="white">
                                <use xlink:href="#path-5"></use>
                            </mask>
                            <g id="Clip-1621"></g>
                            <path d="M8.792,0.772701754 L15.9568,8.45581579 C15.644,8.91959649 15.34,9.38257895 15.0448,9.84396491 L7.88,2.16164912 C8.176,1.70026316 8.48,1.2372807 8.792,0.772701754" id="Fill-1620" fill="#F7DA3C" mask="url(#mask-6)"></path>
                            <path d="M7.88,2.16164912 L15.0448,9.84396491 C14.7448,10.3133333 14.4528,10.780307 14.1712,11.2456842 L7.0064,3.56257018 C7.2888,3.09719298 7.58,2.6302193 7.88,2.16164912" id="Fill-1622" fill="#F7D93C" mask="url(#mask-6)"></path>
                            <path d="M7.0064,3.56257018 L14.1712,11.2456842 C13.8824,11.7198421 13.6048,12.1924035 13.336,12.6625702 L6.1712,4.98025439 C6.4408,4.51008772 6.7184,4.03752632 7.0064,3.56257018" id="Fill-1623" fill="#F7D83C" mask="url(#mask-6)"></path>
                            <path d="M6.1712,4.98025439 L13.336,12.6625702 C13.0608,13.1439123 12.7952,13.6228596 12.5408,14.0994123 L5.376,6.41709649 C5.6312,5.94054386 5.896,5.46159649 6.1712,4.98025439" id="Fill-1624" fill="#F8D73C" mask="url(#mask-6)"></path>
                            <path d="M5.376,6.41709649 L12.5408,14.0994123 C12.2776,14.5895351 12.0256,15.0772632 11.784,15.561 L4.62,7.87868421 C4.8608,7.39414912 5.1136,6.90642105 5.376,6.41709649" id="Fill-1625" fill="#F8D63C" mask="url(#mask-6)"></path>
                            <path d="M4.62,7.87868421 L11.784,15.561 C11.5432,16.0463333 11.312,16.5284737 11.0912,17.0074211 L3.9272,9.32510526 C4.1472,8.84615789 4.3784,8.36401754 4.62,7.87868421" id="Fill-1626" fill="#F8D43B" mask="url(#mask-6)"></path>
                            <path d="M3.9272,9.32510526 L11.0912,17.0074211 C10.8952,17.4352807 10.7072,17.8607456 10.528,18.2830175 L3.364,10.5999035 C3.5432,10.1784298 3.7304,9.75296491 3.9272,9.32510526" id="Fill-1627" fill="#F8D33B" mask="url(#mask-6)"></path>
                            <path d="M3.364,10.5999035 L10.528,18.2830175 C10.3392,18.7292368 10.1592,19.1714649 9.9904,19.6105 L2.8256,11.927386 C2.9952,11.4891491 3.1744,11.0461228 3.364,10.5999035" id="Fill-1628" fill="#F8D23B" mask="url(#mask-6)"></path>
                            <path d="M2.8256,11.927386 L9.9904,19.6105 C9.7832,20.1477193 9.5912,20.6793509 9.4152,21.2037982 L2.2504,13.5214825 C2.4272,12.9962368 2.6184,12.4654035 2.8256,11.927386" id="Fill-1629" fill="#F8D13B" mask="url(#mask-6)"></path>
                            <path d="M2.2504,13.5214825 L9.4152,21.2037982 C9.2408,21.7218596 9.0816,22.2327368 8.9384,22.7364298 L1.7736,15.054114 C1.9168,14.5496228 2.0768,14.0387456 2.2504,13.5214825" id="Fill-1630" fill="#F8D03B" mask="url(#mask-6)"></path>
                            <path d="M1.7736,15.054114 L8.9384,22.7364298 C8.7944,23.2385263 8.6672,23.7334386 8.5536,24.2219649 L1.3896,16.5388509 C1.5024,16.0511228 1.6304,15.5562105 1.7736,15.054114" id="Fill-1631" fill="#F8CF3B" mask="url(#mask-6)"></path>
                            <path d="M1.3896,16.5388509 L8.5536,24.2219649 C8.4416,24.709693 8.344,25.1910351 8.2608,25.6635965 L1.0968,17.9804825 C1.1792,17.5079211 1.2768,17.0273772 1.3896,16.5388509" id="Fill-1632" fill="#F8CE3B" mask="url(#mask-6)"></path>
                            <path d="M1.0968,17.9804825 L8.2608,25.6635965 C8.1776,26.1457368 8.1104,26.6190965 8.0584,27.0836754 L0.8944,19.4013596 C0.9456,18.9367807 1.0136,18.4626228 1.0968,17.9804825" id="Fill-1633" fill="#F8CD3B" mask="url(#mask-6)"></path>
                            <path d="M0.8944,19.4013596 L8.0584,27.0836754 C8.0064,27.5594298 7.9712,28.024807 7.9528,28.4814035 L0.7888,20.7990877 C0.8072,20.3424912 0.8424,19.8763158 0.8944,19.4013596" id="Fill-1634" fill="#F8CB3B" mask="url(#mask-6)"></path>
                            <path d="M0.7888,20.7990877 L7.9528,28.4814035 C7.9352,28.9515702 7.9352,29.4113596 7.9536,29.8599737 L0.7896,22.1768596 C0.7712,21.7290439 0.7704,21.2684561 0.7888,20.7990877" id="Fill-1635" fill="#F8CA3B" mask="url(#mask-6)"></path>
                            <path d="M0.7896,22.1768596 L7.9536,29.8599737 C7.9744,30.3445088 8.016,30.8154737 8.0816,31.2728684 L0.916,23.5897544 C0.852,23.1323596 0.8104,22.6613947 0.7896,22.1768596" id="Fill-1636" fill="#F8C93B" mask="url(#mask-6)"></path>
                            <path d="M0.916,23.5897544 L8.0816,31.2728684 C8.1504,31.7701754 8.248,32.2507193 8.3712,32.7137018 L1.2064,25.031386 C1.0832,24.5684035 0.9864,24.0870614 0.916,23.5897544" id="Fill-1637" fill="#F8C83B" mask="url(#mask-6)"></path>
                            <path d="M1.2064,25.031386 L8.3712,32.7137018 C8.512,33.2421404 8.6864,33.7466316 8.8976,34.2263772 L1.7328,26.5432632 C1.5224,26.0635175 1.3472,25.5590263 1.2064,25.031386" id="Fill-1638" fill="#F8C73A" mask="url(#mask-6)"></path>
                            <path d="M1.7328,26.5432632 L8.8976,34.2263772 C9.16,34.8234649 9.4776,35.3822368 9.8504,35.8995 L2.6864,28.216386 C2.3128,27.6999211 1.9952,27.1403509 1.7328,26.5432632" id="Fill-1639" fill="#F8C63A" mask="url(#mask-6)"></path>
                            <path d="M2.6864,28.216386 L9.8504,35.8995 C10.06,36.1892632 10.288,36.4662544 10.5336,36.7296754 L3.3688,29.0465614 C3.1232,28.7839386 2.896,28.5061491 2.6864,28.216386" id="Fill-1640" fill="#F7C43A" mask="url(#mask-6)"></path>
                        </g>
                        <g id="Group-1652" transform="translate(52.800000, 8.780702)">
                            <mask id="mask-8" fill="white">
                                <use xlink:href="#path-7"></use>
                            </mask>
                            <g id="Clip-1643"></g>
                            <path d="M23.32,3.23289474 L30.4848,10.9160088 C30.3096,10.7276228 30.1248,10.5464211 29.9304,10.3732018 C28.1496,8.77591228 25.7384,7.9257807 22.8728,7.75575439 L15.7088,0.0734385965 C18.5744,0.243464912 20.9856,1.09359649 22.7664,2.69008772 C22.96,2.86410526 23.1456,3.04530702 23.32,3.23289474" id="Fill-1642" fill="#F7C43A" mask="url(#mask-8)"></path>
                            <path d="M15.7088,0.0734385965 L22.8728,7.75575439 C22.0584,7.70785965 21.2088,7.71424561 20.3248,7.77411404 L13.1608,0.091 C14.044,0.0319298246 14.8944,0.024745614 15.7088,0.0734385965" id="Fill-1644" fill="#F8C63A" mask="url(#mask-8)"></path>
                            <path d="M13.1608,0.091 L20.3248,7.77411404 C19.628,7.82121053 18.9112,7.90183333 18.176,8.01438596 L11.0112,0.332070175 C11.7472,0.218719298 12.464,0.138894737 13.1608,0.091" id="Fill-1645" fill="#F8C73A" mask="url(#mask-8)"></path>
                            <path d="M11.0112,0.332070175 L18.176,8.01438596 C17.5344,8.11336842 16.88,8.2355 16.2128,8.38317544 L9.048,0.700061404 C9.7152,0.553184211 10.3704,0.430254386 11.0112,0.332070175" id="Fill-1646" fill="#F8C83B" mask="url(#mask-8)"></path>
                            <path d="M9.048,0.700061404 L16.2128,8.38317544 C15.6,8.51807895 14.9776,8.67373684 14.3456,8.84855263 L7.1816,1.1654386 C7.8136,0.990622807 8.436,0.834964912 9.048,0.700061404" id="Fill-1647" fill="#F8C93B" mask="url(#mask-8)"></path>
                            <path d="M7.1816,1.1654386 L14.3456,8.84855263 C13.7488,9.01378947 13.1456,9.19658772 12.5328,9.39694737 L5.3688,1.71383333 C5.9808,1.51347368 6.5848,1.33067544 7.1816,1.1654386" id="Fill-1648" fill="#F8CA3B" mask="url(#mask-8)"></path>
                            <path d="M5.3688,1.71383333 L12.5328,9.39694737 C11.9496,9.58772807 11.36,9.79367544 10.7632,10.016386 L3.5992,2.33327193 C4.1952,2.11135965 4.7848,1.90461404 5.3688,1.71383333" id="Fill-1649" fill="#F8CB3B" mask="url(#mask-8)"></path>
                            <path d="M3.5992,2.33327193 L10.7632,10.016386 C10.1888,10.2303158 9.6088,10.458614 9.0224,10.7012807 L1.8576,3.01896491 C2.444,2.7755 3.024,2.54720175 3.5992,2.33327193" id="Fill-1650" fill="#F8CD3B" mask="url(#mask-8)"></path>
                            <path d="M1.8576,3.01896491 L9.0224,10.7012807 C8.4888,10.9223947 7.9512,11.1554825 7.4104,11.3989474 L0.2464,3.71663158 C0.7872,3.47236842 1.3248,3.24007895 1.8576,3.01896491" id="Fill-1651" fill="#F8CE3B" mask="url(#mask-8)"></path>
                        </g>
                        <path d="M76.156,12.005614 C68.96,7.9257807 52.568,14.3309035 37.276,27.3957895 C19.7784,42.3437368 7.4776,62.6726579 12.8136,71.6808596 C18.9152,81.9838158 43.2848,71.5547368 62.9152,50.6830088 C79.5376,33.0098509 84.128,16.5260789 76.156,12.005614" id="Fill-1653" fill="#E5AC34"></path>
                        <polyline id="Fill-1654" fill="#BF862F" points="63.6608 20.8437895 70.8248 28.5261053 65.1152 34.0164386 57.9512 26.3333246 63.6608 20.8437895"></polyline>
                        <polyline id="Fill-1655" fill="#BF862F" points="28.484 54.6662544 31.1592 57.5351491 25.3008 63.6441228 22.3952 60.521386 28.484 54.6662544"></polyline>
                        <polyline id="Fill-1656" fill="#F6BE43" points="22.3952 60.521386 25.3008 63.6441228 22.5952 61.2174561 19.6896 58.0955175 22.3952 60.521386"></polyline>
                        <path d="M52.9656,49.227807 C53.0496,48.6546667 53.0464,48.0663596 52.9016,47.502 L49.1576,43.5195526 C49.7416,45.7929561 48.2704,48.1733246 46.9424,49.8895526 C45.0432,52.3441579 42.5632,54.6614649 39.8672,56.2332105 C38.0784,57.3770965 35.7616,58.3094474 33.5984,58.0667807 L37.3424,62.0492281 C40.8272,62.4403684 44.2752,60.0336579 46.7776,57.8967544 C49.3248,55.7207368 52.4472,52.7177368 52.9656,49.227807" id="Fill-1657" fill="#BF862F"></path>
                        <polyline id="Fill-1658" fill="#BF862F" points="68.1368 24.8573684 71.9472 28.986693 65.4024 35.2800614 61.592 31.1499386 68.1368 24.8573684"></polyline>
                        <polyline id="Fill-1659" fill="#BF862F" points="33.5984 58.0667807 37.3424 62.0492281 30.6152 68.5174123 26.8712 64.5349649 33.5984 58.0667807"></polyline>
                        <polyline id="Fill-1660" fill="#F6BE43" points="26.8712 64.5349649 30.6152 68.5174123 27.9096 66.0915439 24.1656 62.1090965 26.8712 64.5349649"></polyline>
                        <path d="M65.4248,36.1429649 C65.4504,35.8611842 65.4568,35.5682281 65.4336,35.2872456 L61.592,31.1499386 C61.8624,34.4099737 59.06,37.4632632 56.8816,39.5099649 C54.836,41.4305439 52.0848,43.449307 49.1576,43.5195526 L52.9992,47.6560614 C55.8408,47.589807 58.5176,45.6676316 60.5232,43.8300702 C62.6696,41.8639912 65.1416,39.1914649 65.4248,36.1429649" id="Fill-1661" fill="#BF862F"></path>
                        <g id="Group-1714" transform="translate(3.200000, 3.991228)">
                            <mask id="mask-10" fill="white">
                                <use xlink:href="#path-9"></use>
                            </mask>
                            <g id="Clip-1663"></g>
                            <path d="M81.296,0.251447368 L88.4608,7.9345614 C88.7704,8.26663158 89.0576,8.61626316 89.3224,8.98265789 L82.1584,1.29954386 C81.8936,0.933149123 81.6064,0.583517544 81.296,0.251447368" id="Fill-1662" fill="#F7C43A" mask="url(#mask-10)"></path>
                            <path d="M82.1584,1.29954386 L89.3224,8.98265789 C89.7944,9.63482456 90.1952,10.3404737 90.5264,11.0948158 L83.3616,3.41170175 C83.0304,2.65815789 82.6296,1.95250877 82.1584,1.29954386" id="Fill-1664" fill="#F8C63A" mask="url(#mask-10)"></path>
                            <path d="M83.3616,3.41170175 L90.5264,11.0948158 C90.792,11.7006842 91.0144,12.3376842 91.1912,13.0034211 L84.0264,5.32030702 C83.8488,4.65457018 83.628,4.01757018 83.3616,3.41170175" id="Fill-1665" fill="#F8C73A" mask="url(#mask-10)"></path>
                            <path d="M84.0264,5.32030702 L91.1912,13.0034211 C91.3472,13.5877368 91.4688,14.1952018 91.5568,14.8226228 L84.392,7.14030702 C84.304,6.51208772 84.1816,5.90542105 84.0264,5.32030702" id="Fill-1666" fill="#F8C83B" mask="url(#mask-10)"></path>
                            <path d="M84.392,7.14030702 L91.5568,14.8226228 C91.6384,15.3989561 91.6912,15.9944474 91.7168,16.6051053 L84.5528,8.92278947 C84.5272,8.31133333 84.4736,7.71664035 84.392,7.14030702" id="Fill-1667" fill="#F8C93B" mask="url(#mask-10)"></path>
                            <path d="M84.5528,8.92278947 L91.7168,16.6051053 C91.7408,17.1710614 91.7408,17.7505877 91.7176,18.3436842 L84.5528,10.6613684 C84.5768,10.0682719 84.5768,9.48794737 84.5528,8.92278947" id="Fill-1668" fill="#F8CA3B" mask="url(#mask-10)"></path>
                            <path d="M84.5528,10.6613684 L91.7176,18.3436842 C91.6952,18.9192193 91.6504,19.5075263 91.5848,20.1070088 L84.42,12.4238947 C84.4864,11.8244123 84.5312,11.2369035 84.5528,10.6613684" id="Fill-1669" fill="#F8CB3B" mask="url(#mask-10)"></path>
                            <path d="M84.42,12.4238947 L91.5848,20.1070088 C91.52,20.6929211 91.4352,21.2900088 91.3296,21.8982719 L84.1656,14.2151579 C84.2712,13.607693 84.356,13.009807 84.42,12.4238947" id="Fill-1670" fill="#F8CD3B" mask="url(#mask-10)"></path>
                            <path d="M84.1656,14.2151579 L91.3296,21.8982719 C91.2256,22.4945614 91.1032,23.1012281 90.96,23.7158772 L83.796,16.0335614 C83.9384,15.418114 84.0616,14.8114474 84.1656,14.2151579" id="Fill-1671" fill="#F8CE3B" mask="url(#mask-10)"></path>
                            <path d="M83.796,16.0335614 L90.96,23.7158772 C90.8176,24.3313246 90.656,24.9555526 90.476,25.5885614 L83.312,17.9062456 C83.492,17.2732368 83.6536,16.6490088 83.796,16.0335614" id="Fill-1672" fill="#F8CF3B" mask="url(#mask-10)"></path>
                            <path d="M83.312,17.9062456 L90.476,25.5885614 C90.2944,26.2247632 90.0944,26.8689474 89.8752,27.521114 L82.7104,19.8387982 C82.9296,19.1866316 83.1304,18.5424474 83.312,17.9062456" id="Fill-1673" fill="#F8D03B" mask="url(#mask-10)"></path>
                            <path d="M82.7104,19.8387982 L89.8752,27.521114 C89.652,28.1836579 89.4104,28.853386 89.1488,29.5318947 L81.984,21.8487807 C82.2464,21.1710702 82.4872,20.5013421 82.7104,19.8387982" id="Fill-1674" fill="#F8D13B" mask="url(#mask-10)"></path>
                            <path d="M81.984,21.8487807 L89.1488,29.5318947 C88.9352,30.0850789 88.7096,30.6430526 88.4704,31.2058158 L81.3064,23.5235 C81.5456,22.9607368 81.7712,22.4019649 81.984,21.8487807" id="Fill-1675" fill="#F8D23B" mask="url(#mask-10)"></path>
                            <path d="M81.3064,23.5235 L88.4704,31.2058158 C88.2456,31.7382456 88.0088,32.2738684 87.7608,32.8134825 L80.596,25.1303684 C80.844,24.5915526 81.0808,24.0551316 81.3064,23.5235" id="Fill-1676" fill="#F8D33B" mask="url(#mask-10)"></path>
                            <path d="M80.596,25.1303684 L87.7608,32.8134825 C87.4824,33.4177544 87.1912,34.0260175 86.8856,34.6390702 L79.7216,26.9567544 C80.0272,26.3429035 80.3184,25.7346404 80.596,25.1303684" id="Fill-1677" fill="#F8D43B" mask="url(#mask-10)"></path>
                            <path d="M79.7216,26.9567544 L86.8856,34.6390702 C86.5816,35.2497281 86.264,35.8651754 85.932,36.4838158 L78.768,28.8007018 C79.0992,28.1820614 79.4168,27.5674123 79.7216,26.9567544" id="Fill-1678" fill="#F8D63C" mask="url(#mask-10)"></path>
                            <path d="M78.768,28.8007018 L85.932,36.4838158 C85.6112,37.0832982 85.2776,37.6851754 84.9312,38.2910439 L77.7672,30.6087281 C78.1136,30.0028596 78.4472,29.4001842 78.768,28.8007018" id="Fill-1679" fill="#F8D73C" mask="url(#mask-10)"></path>
                            <path d="M77.7672,30.6087281 L84.9312,38.2910439 C84.592,38.8833421 84.2424,39.4788333 83.8792,40.0767193 L76.7152,32.3944035 C77.0776,31.7965175 77.428,31.2010263 77.7672,30.6087281" id="Fill-1680" fill="#F7D83C" mask="url(#mask-10)"></path>
                            <path d="M76.7152,32.3944035 L83.8792,40.0767193 C83.5232,40.6634298 83.1568,41.2525351 82.7792,41.8424386 L75.6144,34.1601228 C75.992,33.5694211 76.3592,32.9803158 76.7152,32.3944035" id="Fill-1681" fill="#F7D93C" mask="url(#mask-10)"></path>
                            <path d="M75.6144,34.1601228 L82.7792,41.8424386 C82.4048,42.4267544 82.0192,43.0134649 81.6232,43.6009737 L74.4592,35.9186579 C74.8552,35.3303509 75.24,34.7444386 75.6144,34.1601228" id="Fill-1682" fill="#F7DA3C" mask="url(#mask-10)"></path>
                            <path d="M74.4592,35.9186579 L81.6232,43.6009737 C81.2296,44.1860877 80.8248,44.7727982 80.4096,45.360307 L73.2456,37.6779912 C73.66,37.0904825 74.0648,36.5029737 74.4592,35.9186579" id="Fill-1683" fill="#F8DB3C" mask="url(#mask-10)"></path>
                            <path d="M73.2456,37.6779912 L80.4096,45.360307 C79.9784,45.9709649 79.5352,46.5824211 79.0808,47.1954737 L71.916,39.5123596 C72.3704,38.9001053 72.8136,38.2886491 73.2456,37.6779912" id="Fill-1684" fill="#F8DD3D" mask="url(#mask-10)"></path>
                            <path d="M71.916,39.5123596 L79.0808,47.1954737 C78.6144,47.8244912 78.136,48.454307 77.6464,49.0841228 L70.4816,41.401807 C70.972,40.7719912 71.4496,40.1421754 71.916,39.5123596" id="Fill-1685" fill="#F7DE3D" mask="url(#mask-10)"></path>
                            <path d="M70.4816,41.401807 L77.6464,49.0841228 C77.0888,49.8009474 76.5168,50.5169737 75.9304,51.233 L68.7664,43.5506842 C69.3528,42.8346579 69.9248,42.1178333 70.4816,41.401807" id="Fill-1686" fill="#F7DF3C" mask="url(#mask-10)"></path>
                            <path d="M68.7664,43.5506842 L75.9304,51.233 C75.172,52.1597632 74.388,53.0857281 73.5808,54.0100965 L66.416,46.3269825 C67.224,45.402614 68.008,44.4766491 68.7664,43.5506842" id="Fill-1687" fill="#F8E03C" mask="url(#mask-10)"></path>
                            <path d="M66.416,46.3269825 L73.5808,54.0100965 C71.3272,56.5884298 68.8856,59.1507982 66.2696,61.6668684 C65.9392,61.9837719 65.6088,62.2990789 65.2768,62.6103947 L58.1128,54.9280789 C58.4448,54.6159649 58.7752,54.3014561 59.1048,53.9837544 C61.7216,51.4684825 64.1632,48.9053158 66.416,46.3269825" id="Fill-1688" fill="#F8E853" mask="url(#mask-10)"></path>
                            <path d="M58.1128,54.9280789 L65.2768,62.6103947 C64.3928,63.4429649 63.5024,64.2563772 62.608,65.0514298 L55.444,57.3683158 C56.3384,56.5740614 57.228,55.7598509 58.1128,54.9280789" id="Fill-1689" fill="#F8E03C" mask="url(#mask-10)"></path>
                            <path d="M55.444,57.3683158 L62.608,65.0514298 C61.9688,65.6189825 61.3264,66.1777544 60.6824,66.7261491 L53.5184,59.0430351 C54.1624,58.4946404 54.804,57.9366667 55.444,57.3683158" id="Fill-1690" fill="#F7DF3C" mask="url(#mask-10)"></path>
                            <path d="M53.5184,59.0430351 L60.6824,66.7261491 C60.0856,67.2346316 59.4864,67.7351316 58.8872,68.2268509 L51.7224,60.5437368 C52.3224,60.0520175 52.9208,59.5515175 53.5184,59.0430351" id="Fill-1691" fill="#F7DE3D" mask="url(#mask-10)"></path>
                            <path d="M51.7224,60.5437368 L58.8872,68.2268509 C58.3472,68.6690789 57.8056,69.1057193 57.2632,69.5343772 L50.0984,61.8512632 C50.6408,61.4226053 51.1816,60.9867632 51.7224,60.5437368" id="Fill-1692" fill="#F8DD3D" mask="url(#mask-10)"></path>
                            <path d="M50.0984,61.8512632 L57.2632,69.5343772 C56.7304,69.9558509 56.1968,70.3701404 55.6624,70.7780439 L48.4984,63.0949298 C49.032,62.6878246 49.5656,62.2735351 50.0984,61.8512632" id="Fill-1693" fill="#F8DB3C" mask="url(#mask-10)"></path>
                            <path d="M48.4984,63.0949298 L55.6624,70.7780439 C55.1464,71.1731754 54.628,71.5603246 54.1112,71.941886 L46.9472,64.2595702 C47.464,63.8780088 47.9816,63.4900614 48.4984,63.0949298" id="Fill-1694" fill="#F7DA3C" mask="url(#mask-10)"></path>
                            <path d="M46.9472,64.2595702 L54.1112,71.941886 C53.5912,72.3250439 53.072,72.7018158 52.552,73.0714035 L45.3872,65.3882895 C45.9072,65.0195 46.4272,64.6427281 46.9472,64.2595702" id="Fill-1695" fill="#F7D93C" mask="url(#mask-10)"></path>
                            <path d="M45.3872,65.3882895 L52.552,73.0714035 C52.0224,73.4481754 51.4928,73.8185614 50.9632,74.1809649 L43.7992,66.4978509 C44.328,66.1354474 44.8576,65.7658596 45.3872,65.3882895" id="Fill-1696" fill="#F7D83C" mask="url(#mask-10)"></path>
                            <path d="M43.7992,66.4978509 L50.9632,74.1809649 C50.4336,74.5441667 49.904,74.9001842 49.3752,75.2490175 L42.2104,67.5667018 C42.7392,67.2170702 43.2688,66.8610526 43.7992,66.4978509" id="Fill-1697" fill="#F8D73C" mask="url(#mask-10)"></path>
                            <path d="M42.2104,67.5667018 L49.3752,75.2490175 C48.816,75.6170088 48.2592,75.9770175 47.7024,76.3290439 L40.5384,68.6459298 C41.0944,68.2939035 41.652,67.9338947 42.2104,67.5667018" id="Fill-1698" fill="#F8D63C" mask="url(#mask-10)"></path>
                            <path d="M40.5384,68.6459298 L47.7024,76.3290439 C47.1464,76.6802719 46.5904,77.0243158 46.036,77.3595789 L38.872,69.6772632 C39.4256,69.342 39.9816,68.9979561 40.5384,68.6459298" id="Fill-1699" fill="#F8D43B" mask="url(#mask-10)"></path>
                            <path d="M38.872,69.6772632 L46.036,77.3595789 C45.4376,77.7219825 44.8408,78.074807 44.2456,78.4172544 L37.0808,70.7349386 C37.676,70.3924912 38.2736,70.0396667 38.872,69.6772632" id="Fill-1700" fill="#F8D33B" mask="url(#mask-10)"></path>
                            <path d="M37.0808,70.7349386 L44.2456,78.4172544 C43.6448,78.763693 43.0456,79.0997544 42.448,79.4254386 L35.284,71.7431228 C35.8816,71.4174386 36.48,71.0805789 37.0808,70.7349386" id="Fill-1701" fill="#F8D23B" mask="url(#mask-10)"></path>
                            <path d="M35.284,71.7431228 L42.448,79.4254386 C41.812,79.7734737 41.1784,80.1103333 40.5472,80.4352193 L33.3816,72.7529035 C34.0136,72.4272193 34.648,72.0911579 35.284,71.7431228" id="Fill-1702" fill="#F8D13B" mask="url(#mask-10)"></path>
                            <path d="M33.3816,72.7529035 L40.5472,80.4352193 C39.9216,80.756114 39.3008,81.0666316 38.6816,81.3651754 L31.5176,73.6828596 C32.136,73.3843158 32.7576,73.0737982 33.3816,72.7529035" id="Fill-1703" fill="#F8D03B" mask="url(#mask-10)"></path>
                            <path d="M31.5176,73.6828596 L38.6816,81.3651754 C38.076,81.6581316 37.472,81.9399123 36.872,82.2105175 L29.708,74.5282018 C30.308,74.2575965 30.9112,73.9758158 31.5176,73.6828596" id="Fill-1704" fill="#F8CF3B" mask="url(#mask-10)"></path>
                            <path d="M29.708,74.5282018 L36.872,82.2105175 C36.1896,82.5186404 35.512,82.8123947 34.8392,83.0909825 L27.6752,75.4078684 C28.3472,75.1300789 29.0248,74.8363246 29.708,74.5282018" id="Fill-1705" fill="#F8CE3B" mask="url(#mask-10)"></path>
                            <path d="M27.6752,75.4078684 L34.8392,83.0909825 C34.1,83.3967105 33.368,83.6848772 32.6432,83.9546842 L25.4792,76.2723684 C26.204,76.0025614 26.936,75.7143947 27.6752,75.4078684" id="Fill-1706" fill="#F8CD3B" mask="url(#mask-10)"></path>
                            <path d="M25.4792,76.2723684 L32.6432,83.9546842 C31.8912,84.2348684 31.1472,84.4958947 30.412,84.7361667 L23.2472,77.0538509 C23.9824,76.8127807 24.7264,76.5525526 25.4792,76.2723684" id="Fill-1707" fill="#F8CB3B" mask="url(#mask-10)"></path>
                            <path d="M23.2472,77.0538509 L30.412,84.7361667 C29.64,84.9892105 28.8776,85.2191053 28.1256,85.4274474 L20.9608,77.7451316 C21.7128,77.5367895 22.4752,77.3060965 23.2472,77.0538509" id="Fill-1708" fill="#F8CA3B" mask="url(#mask-10)"></path>
                            <path d="M20.9608,77.7451316 L28.1256,85.4274474 C27.328,85.6485614 26.5432,85.8441316 25.7704,86.0149561 L18.6064,78.3318421 C19.3784,78.1618158 20.164,77.9662456 20.9608,77.7451316" id="Fill-1709" fill="#F8C93B" mask="url(#mask-10)"></path>
                            <path d="M18.6064,78.3318421 L25.7704,86.0149561 C24.9288,86.2001491 24.1032,86.355807 23.2944,86.4795351 L16.1296,78.7972193 C16.9384,78.6734912 17.7648,78.5178333 18.6064,78.3318421" id="Fill-1710" fill="#F8C83B" mask="url(#mask-10)"></path>
                            <path d="M16.1296,78.7972193 L23.2944,86.4795351 C22.3664,86.6224211 21.4616,86.7237982 20.5824,86.7828684 L13.4176,79.1005526 C14.2976,79.0414825 15.2024,78.939307 16.1296,78.7972193" id="Fill-1711" fill="#F8C73A" mask="url(#mask-10)"></path>
                            <path d="M13.4176,79.1005526 L20.5824,86.7828684 C19.468,86.8587018 18.3952,86.8666842 17.368,86.8060175 L10.204,79.1237018 C11.2304,79.1843684 12.304,79.1755877 13.4176,79.1005526" id="Fill-1712" fill="#F8C63A" mask="url(#mask-10)"></path>
                            <path d="M10.204,79.1237018 L17.368,86.8060175 C13.7496,86.5912895 10.7056,85.5176491 8.456,83.5012807 C8.212,83.2817632 7.9792,83.0534649 7.7576,82.816386 L0.5928,75.1332719 C0.8152,75.3711491 1.048,75.5994474 1.292,75.8189649 C3.5408,77.8353333 6.5856,78.9081754 10.204,79.1237018" id="Fill-1713" fill="#F7C43A" mask="url(#mask-10)"></path>
                        </g>
                        <path d="M12.7224,71.896386 C20.6728,79.0255175 41.1856,71.2761491 58.5352,54.5952105 C75.892,37.9062895 83.516,18.5999211 75.5664,11.4707895 C67.6192,4.34485088 47.1032,12.0902281 29.7464,28.7791491 C12.3968,45.460886 4.776,64.7704474 12.7224,71.896386 Z M83.7968,3.55698246 C93.8304,12.5540088 84.2096,36.9140702 62.3048,57.9749825 C40.408,79.0295088 14.5256,88.8072193 4.492,79.810193 C-5.5376,70.8163596 4.0824,46.4562982 25.98,25.4017719 C47.884,4.34085965 73.7672,-5.43685088 83.7968,3.55698246 Z" id="Fill-1715" fill="#F8CB3B"></path>
                        <path d="M51.6752,30.0028596 L44.7576,36.6538421 L47.4496,39.0677368 C48.5312,40.0376053 50.1416,40.634693 53.1256,37.7657982 C56.1016,34.9040877 55.504,33.4369123 54.3672,32.4167544 L51.6752,30.0028596 Z M35.3208,51.2593421 C36.5904,52.3976404 38.3608,52.9835526 41.8384,49.6397018 C45.3912,46.2232105 44.5216,44.5971842 43.1936,43.4054035 L40.3696,40.8733684 L32.3448,48.5900088 L35.3208,51.2593421 Z M49.1576,43.5195526 C49.6936,45.6085614 48.5176,48.7161316 44.4256,52.6514825 C40.1968,56.7177456 36.3488,58.3749035 33.5984,58.0667807 L26.8712,64.5349649 L24.1656,62.1090965 L30.2544,56.2539649 L28.484,54.6662544 L22.3952,60.521386 L19.6896,58.0955175 L25.7792,52.240386 L24.3288,50.9392456 L53.7952,22.607114 L55.2456,23.9074561 L60.9552,18.4171228 L63.6608,20.8437895 L57.9512,26.3333246 L59.7216,27.9210351 L65.4312,22.4307018 L68.1368,24.8573684 L61.592,31.1499386 C61.768,33.2692807 60.488,36.0439825 57.0792,39.3215789 C54.224,42.0667456 51.3352,43.4684649 49.1576,43.5195526 Z" id="Fill-1716" fill="#F8C646"></path>
                    </g>
                </g>
            </g>
        </g>
    </g>
</svg>