<?xml version="1.0" encoding="UTF-8"?>
<svg width="88px" height="94px" viewBox="0 0 88 94" version="1.1" xmlns="http://www.w3.org/2000/svg" xmlns:xlink="http://www.w3.org/1999/xlink">
    <!-- Generator: Sketch 50.2 (55047) - http://www.bohemiancoding.com/sketch -->
    <title>bitcoin 8</title>
    <desc>Created with Sketch.</desc>
    <defs>
        <path d="M41.016703,98.5729087 C41.3361227,98.5859132 41.6556686,98.5926166 41.9752406,98.5930154 L34.4634354,98.583305 C25.3861282,98.5735946 16.3316039,93.4740117 9.58464883,83.3670947 C-3.50568075,63.7553061 -2.95075753,32.7305506 10.8181732,14.0655269 C17.4886432,5.02351805 26.0370646,0.542164481 34.5643305,0.553493291 L42.0745084,0.561585298 C33.5456151,0.551874889 24.9988211,5.03322846 18.3283511,14.0752373 C11.4438857,23.40694 7.86332908,35.8289802 7.64017997,48.3697706 C7.86332908,35.8289802 11.4438857,23.40694 18.3283511,14.0752373 C32.0972818,-4.58978647 53.8694747,-3.82590099 66.9598043,15.7842692 C80.0452518,35.3895842 79.4903286,66.4143397 65.7213979,85.077745 C58.8014847,94.4583096 49.8605097,98.9319076 41.016703,98.5729087 Z" id="path-1"></path>
        <path d="M5.27671264,0.0119541564 C7.77227969,0.01520383 10.2678467,0.0184535036 12.7650364,0.0217031771 C18.9536533,15.2740461 17.2921054,35.1847962 7.98159579,47.8926447 L0.493272031,47.8845205 C9.80378161,35.1750471 11.4653295,15.2642971 5.27671264,0.0119541564" id="path-3"></path>
        <path d="M9.58310728,8.99080226 C6.99829693,5.0928188 3.98511877,2.12749166 0.748021073,0.109444364 C3.24358812,0.112694037 5.73915517,0.115943711 8.23634483,0.119193385 C11.4718199,2.13724068 14.4882433,5.10094299 17.071431,9.00055128 C18.564228,11.2525751 19.834728,13.6947048 20.8780632,16.2700711 C18.3808736,16.2668214 15.8853065,16.2635717 13.3897395,16.2603221 C12.3447816,13.6865806 11.0759042,11.2444509 9.58310728,8.99080226" id="path-5"></path>
        <path d="M0.309180077,10.7775424 C7.05110536,10.7856666 13.8076341,7.21914986 19.0794789,0.0243725519 L26.5678027,0.0324967358 C21.2959579,7.22727405 14.5394291,10.7954156 7.79912644,10.7856666 C5.55181801,10.7840418 2.55648851,10.7791673 0.309180077,10.7775424" id="path-7"></path>
        <path d="M24.0015785,0.555694183 L31.4899023,0.563818366 C22.9858276,0.554069346 14.4639042,5.05324242 7.81284483,14.1312056 L0.324521073,14.1214566 C6.97558046,5.0434934 15.4991264,0.544320325 24.0015785,0.555694183" id="path-9"></path>
        <path d="M41.8641034,85.1014072 L34.3741571,85.0916582 C25.3232644,85.0819092 16.2950881,79.9620485 9.56776628,69.8149427 C-3.48447126,50.1251705 -2.93116284,18.9770492 10.7977011,0.23780647 L18.2860249,0.247555491 C4.55716092,18.9851734 4.0054751,50.1332946 17.0577126,69.8246917 C23.7834119,79.9717975 32.8132107,85.0900334 41.8641034,85.1014072" id="path-11"></path>
    </defs>
    <g id="ICO" stroke="none" stroke-width="1" fill="none" fill-rule="evenodd">
        <g id="01-Ñontract-ICO-hover" transform="translate(-630.000000, -1377.000000)">
            <g id="content">
                <g id="bitcoin-8" transform="translate(674.066987, 1424.250000) rotate(-40.000000) translate(-674.066987, -1424.250000) translate(635.066987, 1374.250000)">
                    <g id="Group-2-Copy">
                        <g id="Group-318" transform="translate(0.898681, 0.000000)">
                            <mask id="mask-2" fill="white">
                                <use xlink:href="#path-1"></use>
                            </mask>
                            <use id="Combined-Shape" fill="#F4B83A" xlink:href="#path-1"></use>
                        </g>
                        <g id="Group-366" transform="translate(0.000000, 12.947211)"></g>
                    </g>
                    <g id="Group-2-Copy" transform="translate(1.000000, 0.000000)">
                        <g id="Group-269" transform="translate(52.660920, 30.132018)">
                            <mask id="mask-4" fill="white">
                                <use xlink:href="#path-3"></use>
                            </mask>
                            <g id="Clip-239"></g>
                            <path d="M7.98159579,47.8926447 L0.493272031,47.8845205 C0.506252874,47.8650225 0.522478927,47.8438996 0.537082375,47.8227767 L8.02540613,47.8325258 C8.00918008,47.8536486 7.99619923,47.8731467 7.98159579,47.8926447" id="Fill-238" fill="#F8C93B" mask="url(#mask-4)"></path>
                            <path d="M8.02540613,47.8325258 L0.537082375,47.8227767 C0.799944444,47.4636878 1.05631609,47.0948498 1.30944253,46.7243871 L8.79776628,46.7325112 C8.54626245,47.1045989 8.2882682,47.471812 8.02540613,47.8325258" id="Fill-240" fill="#F8CB3B" mask="url(#mask-4)"></path>
                            <path d="M8.79776628,46.7325112 L1.30944253,46.7243871 C1.55932375,46.3506746 1.80433716,45.9737125 2.04448276,45.590251 L9.53118391,45.5983752 C9.29266092,45.9834615 9.04764751,46.3604236 8.79776628,46.7325112" id="Fill-241" fill="#F8CD3B" mask="url(#mask-4)"></path>
                            <path d="M9.53118391,45.5983752 L2.04448276,45.590251 C2.2976092,45.1824169 2.54424521,44.7697084 2.7843908,44.3505005 L10.2727146,44.3586247 C10.0341916,44.7778326 9.78593295,45.1905411 9.53118391,45.5983752" id="Fill-242" fill="#F8CF3B" mask="url(#mask-4)"></path>
                            <path d="M10.2727146,44.3586247 L2.7843908,44.3505005 C3.0245364,43.9312926 3.25656897,43.5072102 3.48211111,43.0782533 L10.9720575,43.0863775 C10.7448927,43.5169592 10.5112375,43.9410416 10.2727146,44.3586247" id="Fill-243" fill="#F8D13B" mask="url(#mask-4)"></path>
                            <path d="M10.9720575,43.0863775 L3.48211111,43.0782533 C3.69954023,42.6639199 3.91210153,42.244712 4.11654981,41.8206296 L11.6048736,41.8303786 C11.4004253,42.254461 11.187864,42.6736689 10.9720575,43.0863775" id="Fill-244" fill="#F8D33B" mask="url(#mask-4)"></path>
                            <path d="M11.6048736,41.8303786 L4.11654981,41.8206296 C4.32099808,41.3965472 4.51895594,40.97084 4.71042337,40.5370086 L12.2003697,40.5467576 C12.0072797,40.9789642 11.8093218,41.4062962 11.6048736,41.8303786" id="Fill-245" fill="#F8D63C" mask="url(#mask-4)"></path>
                            <path d="M12.2003697,40.5467576 L4.71042337,40.5370086 C4.89702299,40.1178007 5.07713218,39.6969679 5.24912835,39.2696359 L12.7390747,39.2793849 C12.5654559,39.7050921 12.3853467,40.1275497 12.2003697,40.5467576" id="Fill-246" fill="#F7D83C" mask="url(#mask-4)"></path>
                            <path d="M12.7390747,39.2793849 L5.24912835,39.2696359 C5.42436973,38.8439286 5.58987548,38.411722 5.75213602,37.9795155 L13.2404598,37.9892645 C13.0781992,38.4214711 12.9110709,38.8520528 12.7390747,39.2793849" id="Fill-247" fill="#F7D93C" mask="url(#mask-4)"></path>
                            <path d="M13.2404598,37.9892645 L5.75213602,37.9795155 C5.91277395,37.5505585 6.06529885,37.1199768 6.21295594,36.6845205 L13.6996571,36.6926447 C13.552,37.1264761 13.3994751,37.5603076 13.2404598,37.9892645" id="Fill-248" fill="#F8DB3C" mask="url(#mask-4)"></path>
                            <path d="M13.6996571,36.6926447 L6.21295594,36.6845205 C6.36061303,36.2490643 6.50177969,35.8119832 6.63645594,35.3700276 L14.1247797,35.3781517 C13.9901034,35.8201074 13.8473142,36.2571885 13.6996571,36.6926447" id="Fill-249" fill="#F7DE3D" mask="url(#mask-4)"></path>
                            <path d="M14.1247797,35.3781517 L6.63645594,35.3700276 C6.77437739,34.9231974 6.90580843,34.4747425 7.03074904,34.021413 L14.5190728,34.031162 C14.3941322,34.4844915 14.2627011,34.9329465 14.1247797,35.3781517" id="Fill-250" fill="#F8E03C" mask="url(#mask-4)"></path>
                            <path d="M14.5190728,34.031162 L7.03074904,34.021413 C7.15568966,33.5697084 7.27413985,33.1131293 7.38772222,32.6549253 L14.876046,32.6630495 C14.7640862,33.1228783 14.6440134,33.5778326 14.5190728,34.031162" id="Fill-251" fill="#F8E854" mask="url(#mask-4)"></path>
                            <path d="M14.876046,32.6630495 L7.38772222,32.6549253 C7.50779502,32.1658494 7.62137739,31.6735239 7.73009195,31.1795735 L15.2167931,31.1876977 C15.1097011,31.6832729 14.9961188,32.1755984 14.876046,32.6630495" id="Fill-252" fill="#F8EB62" mask="url(#mask-4)"></path>
                            <path d="M15.2167931,31.1876977 L7.73009195,31.1795735 C7.83718391,30.6774989 7.93940805,30.1705498 8.03189655,29.6652256 L15.5202203,29.6733498 C15.4277318,30.1802989 15.3255077,30.6856231 15.2167931,31.1876977" id="Fill-253" fill="#F9EC6C" mask="url(#mask-4)"></path>
                            <path d="M15.5202203,29.6733498 L8.03189655,29.6652256 C8.14385632,29.0672857 8.24283525,28.466096 8.33532375,27.8649064 L15.8220249,27.8730306 C15.731159,28.4758451 15.6321801,29.0754098 15.5202203,29.6733498" id="Fill-254" fill="#F9EE75" mask="url(#mask-4)"></path>
                            <path d="M15.8220249,27.8730306 L8.33532375,27.8649064 C8.43592529,27.1808501 8.52679119,26.4935442 8.60467625,25.8046134 L16.093,25.8127376 C16.0151149,26.5016684 15.924249,27.1889743 15.8220249,27.8730306" id="Fill-255" fill="#F9F07D" mask="url(#mask-4)"></path>
                            <path d="M16.093,25.8127376 L8.60467625,25.8046134 C8.71663602,24.7923401 8.8026341,23.7751922 8.85942529,22.7547947 L16.347749,22.7645437 C16.2909579,23.7849412 16.2049598,24.8020891 16.093,25.8127376" id="Fill-256" fill="#FBF084" mask="url(#mask-4)"></path>
                            <path d="M16.347749,22.7645437 L8.85942529,22.7547947 C8.97300766,20.7399971 8.97787548,18.7138256 8.87402874,16.6957783 L16.3623525,16.7055273 C16.4645766,18.7219498 16.4597088,20.7481213 16.347749,22.7645437" id="Fill-257" fill="#FBF18B" mask="url(#mask-4)"></path>
                            <path d="M16.3623525,16.7055273 L8.87402874,16.6957783 C8.82048276,15.6786305 8.7409751,14.6631075 8.63226054,13.652459 L16.1205843,13.6605832 C16.2292989,14.6712317 16.3104291,15.6867547 16.3623525,16.7055273" id="Fill-258" fill="#FBF084" mask="url(#mask-4)"></path>
                            <path d="M16.1205843,13.6605832 L8.63226054,13.652459 C8.55437548,12.9342812 8.46513218,12.2177281 8.35966284,11.5060496 L15.8496092,11.5157986 C15.9534559,12.2274772 16.0443218,12.9440302 16.1205843,13.6605832" id="Fill-259" fill="#F9F07D" mask="url(#mask-4)"></path>
                            <path d="M15.8496092,11.5157986 L8.35966284,11.5060496 C8.27853257,10.9471058 8.18766667,10.3914116 8.08706513,9.83896707 L15.5770115,9.84709125 C15.6759904,10.3995358 15.7668563,10.9568548 15.8496092,11.5157986" id="Fill-260" fill="#F9EE75" mask="url(#mask-4)"></path>
                            <path d="M15.5770115,9.84709125 L8.08706513,9.83896707 C7.99295402,9.3060206 7.88748467,8.77632381 7.77714751,8.24987669 L15.2654713,8.25962571 C15.377431,8.78607283 15.4812778,9.31414478 15.5770115,9.84709125" id="Fill-261" fill="#F9EC6C" mask="url(#mask-4)"></path>
                            <path d="M15.2654713,8.25962571 L7.77714751,8.24987669 C7.67492337,7.768925 7.56783142,7.28959814 7.45262644,6.81189613 L14.9409502,6.82164515 C15.0545326,7.29772233 15.1648697,7.77704918 15.2654713,8.25962571" id="Fill-262" fill="#F8EB62" mask="url(#mask-4)"></path>
                            <path d="M14.9409502,6.82164515 L7.45262644,6.81189613 C7.33742146,6.34394313 7.21897126,5.87761497 7.09240805,5.41453649 L14.5807318,5.42428551 C14.707295,5.88736399 14.8273678,6.35369215 14.9409502,6.82164515" id="Fill-263" fill="#F8E854" mask="url(#mask-4)"></path>
                            <path d="M14.5807318,5.42428551 L7.09240805,5.41453649 C6.97233525,4.96770637 6.84577203,4.52412592 6.71109579,4.08379515 L14.1994195,4.09191934 C14.3324732,4.53387495 14.460659,4.97583055 14.5807318,5.42428551" id="Fill-264" fill="#F8E03C" mask="url(#mask-4)"></path>
                            <path d="M14.1994195,4.09191934 L6.71109579,4.08379515 C6.57804215,3.64183955 6.43849808,3.20475845 6.29408621,2.76767735 L13.78241,2.77742637 C13.9268218,3.2112578 14.0663659,3.65158857 14.1994195,4.09191934" id="Fill-265" fill="#F7DE3D" mask="url(#mask-4)"></path>
                            <path d="M13.78241,2.77742637 L6.29408621,2.76767735 C6.14805172,2.33222109 5.99552682,1.90001451 5.8397567,1.46943276 L13.3280805,1.47918178 C13.4838506,1.90976353 13.6363755,2.34034528 13.78241,2.77742637" id="Fill-266" fill="#F8DB3C" mask="url(#mask-4)"></path>
                            <path d="M13.3280805,1.47918178 L5.8397567,1.46943276 C5.68236398,1.04047585 5.51685824,0.613143769 5.34810728,0.189061367 L12.836431,0.197185551 C13.0068046,0.621267953 13.1690651,1.04860003 13.3280805,1.47918178" id="Fill-267" fill="#F7D93C" mask="url(#mask-4)"></path>
                            <path d="M12.836431,0.197185551 L5.34810728,0.189061367 C5.1728659,-0.24314522 4.99437931,-0.673726969 4.80777969,-1.10105905 L12.2961034,-1.09131002 C12.4827031,-0.665602785 12.6628123,-0.236645873 12.836431,0.197185551" id="Fill-268" fill="#F7D83C" mask="url(#mask-4)"></path>
                        </g>
                        <g id="Group-285" transform="translate(44.547893, 13.883650)">
                            <mask id="mask-6" fill="white">
                                <use xlink:href="#path-5"></use>
                            </mask>
                            <g id="Clip-271"></g>
                            <path d="M20.9494579,16.4455535 L13.4611341,16.4374293 C13.2858927,16.0052227 13.1074061,15.5746409 12.9208065,15.1473089 L20.4091303,15.1570579 C20.5957299,15.5827651 20.7758391,16.011722 20.9494579,16.4455535" id="Fill-270" fill="#F7D83C" mask="url(#mask-6)"></path>
                            <path d="M20.4091303,15.1570579 L12.9208065,15.1473089 C12.7342069,14.7199768 12.5394943,14.2991441 12.3415364,13.881561 L19.8298602,13.8896852 C20.0294406,14.3088931 20.2225307,14.7297258 20.4091303,15.1570579" id="Fill-272" fill="#F8D63C" mask="url(#mask-6)"></path>
                            <path d="M19.8298602,13.8896852 L12.3415364,13.881561 C12.1338429,13.4477296 11.9229042,13.0203975 11.7022299,12.5963151 L19.1905536,12.6044393 C19.411228,13.0285217 19.6237893,13.4558538 19.8298602,13.8896852" id="Fill-273" fill="#F8D33B" mask="url(#mask-6)"></path>
                            <path d="M19.1905536,12.6044393 L11.7022299,12.5963151 C11.4831782,12.1738575 11.2560134,11.7562745 11.0239808,11.3435659 L18.5123046,11.353315 C18.7459598,11.7660235 18.9698793,12.1819817 19.1905536,12.6044393" id="Fill-274" fill="#F8D13B" mask="url(#mask-6)"></path>
                            <path d="M18.5123046,11.353315 L11.0239808,11.3435659 C10.8130421,10.9698535 10.595613,10.5993907 10.3733161,10.2338024 L17.8616398,10.2435514 C18.0839368,10.6075149 18.3013659,10.9796025 18.5123046,11.353315" id="Fill-275" fill="#F8CF3B" mask="url(#mask-6)"></path>
                            <path d="M17.8616398,10.2435514 L10.3733161,10.2338024 C10.1510192,9.86821413 9.9206092,9.50587553 9.68857663,9.15003627 L17.1769004,9.15816045 C17.408933,9.51399971 17.6377203,9.87633831 17.8616398,10.2435514" id="Fill-276" fill="#F8CD3B" mask="url(#mask-6)"></path>
                            <path d="M17.1769004,9.15816045 L9.68857663,9.15003627 C9.65287931,9.09804149 9.6188046,9.04279704 9.58310728,8.99080226 C9.32186782,8.59596692 9.05576054,8.2108806 8.78478544,7.83391847 L16.2714866,7.84204265 C16.5424617,8.21900479 16.8101916,8.60571594 17.071431,9.00055128 C17.1071284,9.05254606 17.1412031,9.10454084 17.1769004,9.15816045" id="Fill-277" fill="#F8CB3B" mask="url(#mask-6)"></path>
                            <path d="M16.2714866,7.84204265 L8.78478544,7.83391847 C8.46513218,7.39196286 8.14061111,6.96138111 7.80959962,6.54379806 L15.299546,6.55354708 C15.6289349,6.9695053 15.9534559,7.40008704 16.2714866,7.84204265" id="Fill-278" fill="#F8C93B" mask="url(#mask-6)"></path>
                            <path d="M15.299546,6.55354708 L7.80959962,6.54379806 C7.47372031,6.11971565 7.13135057,5.71025678 6.78411303,5.31217177 L14.2724368,5.32192079 C14.6196743,5.71838097 14.9620441,6.12946467 15.299546,6.55354708" id="Fill-279" fill="#F8C73A" mask="url(#mask-6)"></path>
                            <path d="M14.2724368,5.32192079 L6.78411303,5.31217177 C6.42713985,4.90433773 6.06205364,4.51275207 5.69534483,4.1341651 L13.1836686,4.14391412 C13.552,4.52087625 13.9154636,4.91408675 14.2724368,5.32192079" id="Fill-280" fill="#F7C43A" mask="url(#mask-6)"></path>
                            <path d="M13.1836686,4.14391412 L5.69534483,4.1341651 C5.31727778,3.74745394 4.93434291,3.37374148 4.54654023,3.01627738 L12.034864,3.0260264 C12.4226667,3.3834905 12.8072241,3.75395329 13.1836686,4.14391412" id="Fill-281" fill="#F7C239" mask="url(#mask-6)"></path>
                            <path d="M12.034864,3.0260264 L4.54654023,3.01627738 C4.12628544,2.62956623 3.69791762,2.26072828 3.2679272,1.91138837 L10.756251,1.92113739 C11.1862414,2.2704773 11.6146092,2.63931525 12.034864,3.0260264" id="Fill-282" fill="#F6C039" mask="url(#mask-6)"></path>
                            <path d="M10.756251,1.92113739 L3.2679272,1.91138837 C2.80386207,1.53605107 2.33655172,1.18183665 1.86275096,0.848745104 L9.35269732,0.858494124 C9.82649808,1.19158567 10.2938084,1.54580009 10.756251,1.92113739" id="Fill-283" fill="#F6BF39" mask="url(#mask-6)"></path>
                            <path d="M9.35269732,0.858494124 L1.86275096,0.848745104 C1.34189464,0.483156826 0.814547893,0.1419411 0.280710728,-0.173277238 L7.76903448,-0.165153054 C8.30287165,0.15169012 8.83021839,0.492905847 9.35269732,0.858494124" id="Fill-284" fill="#F5BD39" mask="url(#mask-6)"></path>
                        </g>
                        <g id="Group-297" transform="translate(34.074713, 77.992166)">
                            <mask id="mask-8" fill="white">
                                <use xlink:href="#path-7"></use>
                            </mask>
                            <g id="Clip-287"></g>
                            <path d="M7.79912644,10.7856666 L0.310802682,10.7775424 C2.28713602,10.7791673 4.26346935,10.473698 6.20248276,9.86113448 L13.6908065,9.87088351 C11.7517931,10.483447 9.77383716,10.7889163 7.79912644,10.7856666" id="Fill-286" fill="#F4B63A" mask="url(#mask-8)"></path>
                            <path d="M13.6908065,9.87088351 L6.20248276,9.86113448 C7.03001149,9.59953576 7.85104981,9.28431742 8.66072989,8.90898012 L16.1490536,8.91872915 C15.3393736,9.29244161 14.5183352,9.60928478 13.6908065,9.87088351" id="Fill-288" fill="#F4B83A" mask="url(#mask-8)"></path>
                            <path d="M16.1490536,8.91872915 L8.66072989,8.90898012 C9.301659,8.6165095 9.9360977,8.28666763 10.564046,7.92107936 L18.0507471,7.92920354 C17.4244215,8.29316698 16.7899828,8.62463369 16.1490536,8.91872915" id="Fill-289" fill="#F5BA39" mask="url(#mask-8)"></path>
                            <path d="M18.0507471,7.92920354 L10.564046,7.92107936 C11.1059962,7.60586102 11.6414559,7.26464529 12.1704253,6.89580734 L19.658749,6.90555636 C19.1297797,7.27276948 18.5926973,7.6139852 18.0507471,7.92920354" id="Fill-290" fill="#F5BD39" mask="url(#mask-8)"></path>
                            <path d="M19.658749,6.90555636 L12.1704253,6.89580734 C12.6442261,6.56759031 13.1115364,6.2182504 13.5723563,5.84941245 L21.0606801,5.85753663 C20.5998602,6.22799942 20.1325498,6.57733933 19.658749,6.90555636" id="Fill-291" fill="#F6BF39" mask="url(#mask-8)"></path>
                            <path d="M21.0606801,5.85753663 L13.5723563,5.84941245 C13.9974789,5.50982156 14.4177337,5.15073263 14.8314981,4.77539533 L22.3214444,4.78351951 C21.9060575,5.16048165 21.4858027,5.51632091 21.0606801,5.85753663" id="Fill-292" fill="#F6C039" mask="url(#mask-8)"></path>
                            <path d="M22.3214444,4.78351951 L14.8314981,4.77539533 C15.230659,4.41468156 15.6233295,4.03771943 16.0111322,3.64450892 L23.4994559,3.65263311 C23.1116533,4.04584361 22.7189828,4.42443058 22.3214444,4.78351951" id="Fill-293" fill="#F7C239" mask="url(#mask-8)"></path>
                            <path d="M23.4994559,3.65263311 L16.0111322,3.64450892 C16.3810862,3.26917162 16.7461724,2.87758596 17.1063908,2.47137676 L24.5947146,2.48112578 C24.2344962,2.88733498 23.86941,3.27892064 23.4994559,3.65263311" id="Fill-294" fill="#F7C43A" mask="url(#mask-8)"></path>
                            <path d="M24.5947146,2.48112578 L17.1063908,2.47137676 C17.4568736,2.07816626 17.8024885,1.66870738 18.141613,1.24787466 L25.6299368,1.254374 C25.2908123,1.67845641 24.9451973,2.08629044 24.5947146,2.48112578" id="Fill-295" fill="#F8C73A" mask="url(#mask-8)"></path>
                            <path d="M25.6299368,1.254374 L18.141613,1.24787466 C18.4596437,0.851414478 18.7711839,0.443580444 19.0794789,0.0243725519 L26.5678027,0.0324967358 C26.2595077,0.451704628 25.9463448,0.859538662 25.6299368,1.254374" id="Fill-296" fill="#F8C93B" mask="url(#mask-8)"></path>
                        </g>
                        <path d="M23.3664023,20.0423618 C34.518569,5.50332221 51.9469732,5.60243726 60.8193793,21.7256927 C69.1254962,36.8171768 67.3471207,62.0850138 58.3838487,76.4241985 C48.9305498,91.551429 32.9008314,93.1908893 22.4204234,78.4227477 C11.1433161,62.5285942 11.5181379,35.4896852 23.3664023,20.0423618" id="Fill-298" fill="#E99E34"></path>
                        <polyline id="Fill-299" fill="#BF862F" points="31.4891648 38.4517627 27.8561513 38.7556071 30.283569 35.4425649 33.9165824 35.1387204 31.4891648 38.4517627"></polyline>
                        <polyline id="Fill-300" fill="#BF862F" points="33.9165824 35.1387204 30.2040613 35.4360656 26.8047031 30.3097055 30.5188467 30.0123604 33.9165824 35.1387204"></polyline>
                        <path d="M32.7337031,45.3329465 L36.8502529,51.5446975 L40.533567,46.5158277 C42.0133831,44.4961555 43.3276935,41.922414 41.549318,39.2398085 C39.777433,36.5637023 37.9730958,38.1804149 36.4170172,40.3057014 L32.7337031,45.3329465 Z M48.3220728,57.1422603 C50.0582605,54.7699985 51.4277395,51.9785289 49.3556724,48.852343 C47.2381724,45.6595387 45.1482567,47.7312056 43.3341839,50.2074568 L39.4642701,55.4881764 L44.2460881,62.7040766 L48.3220728,57.1422603 Z M45.9595594,41.8021761 C48.3983352,39.9547367 51.1859713,39.9856086 53.6247471,43.6642391 C56.1430307,47.4663572 56.2760843,51.9899028 54.793023,56.0032497 L58.8024808,62.0492674 L55.1045632,67.0992601 L51.474795,61.625185 L49.0473774,64.939852 L52.675523,70.4123023 L48.9727375,75.4671696 L45.3429693,69.9930944 L43.3617682,72.6968229 L25.8051782,46.2087335 L27.7847567,43.5066299 L24.3870211,38.3802698 L28.0898065,33.3270274 L31.4891648,38.4517627 L33.9165824,35.1387204 L30.5188467,30.0123604 L34.218387,24.9639925 L38.1126398,30.8394023 C40.4329655,29.4826636 42.8214406,29.8320035 44.8529425,32.8980705 C46.5550556,35.4636878 46.8260307,38.7718555 45.9595594,41.8021761 Z" id="Fill-301" fill="#F9CB46"></path>
                        <polyline id="Fill-302" fill="#BF862F" points="30.5188467 30.0123604 26.8047031 30.3097055 30.5058659 25.2629624 34.218387 24.9639925 30.5188467 30.0123604"></polyline>
                        <polyline id="Fill-303" fill="#BF862F" points="25.8051782 46.2087335 22.0861667 46.5077035 24.0673678 43.803975 27.7847567 43.5066299 25.8051782 46.2087335"></polyline>
                        <polyline id="Fill-304" fill="#BF862F" points="43.3617682 72.6968229 39.6670958 72.9974177 22.1088831 46.5093283 25.8051782 46.2087335 43.3617682 72.6968229"></polyline>
                        <polyline id="Fill-305" fill="#BF862F" points="27.7847567 43.5066299 24.017067 43.8007254 20.6193314 38.6759901 24.3870211 38.3802698 27.7847567 43.5066299"></polyline>
                        <polyline id="Fill-306" fill="#BF862F" points="24.3870211 38.3802698 20.6193314 38.6759901 24.3253621 33.5886261 28.0898065 33.3270274 24.3870211 38.3802698"></polyline>
                        <g id="Group-318" transform="translate(10.473180, 0.000000)">
                            <mask id="mask-10" fill="white">
                                <use xlink:href="#path-9"></use>
                            </mask>
                            <g id="Clip-308"></g>
                            <path d="M7.81284483,14.1312056 L0.324521073,14.1214566 C0.712323755,13.5917598 1.10823946,13.0783113 1.50902299,12.5794864 L8.99734674,12.5876106 C8.59656322,13.0880604 8.20227011,13.6015088 7.81284483,14.1312056" id="Fill-307" fill="#F8C93B" mask="url(#mask-10)"></path>
                            <path d="M8.99734674,12.5876106 L1.50902299,12.5794864 C1.9357682,12.0449151 2.37224904,11.5298419 2.8135977,11.031017 L10.3035441,11.040766 C9.8605728,11.5395909 9.42571456,12.0546642 8.99734674,12.5876106" id="Fill-309" fill="#F8C73A" mask="url(#mask-10)"></path>
                            <path d="M10.3035441,11.040766 L2.8135977,11.031017 C3.26954981,10.5208182 3.73036973,10.0268678 4.19605747,9.55241549 L11.6843812,9.56216451 C11.2170709,10.0366169 10.7578736,10.5289424 10.3035441,11.040766" id="Fill-310" fill="#F7C43A" mask="url(#mask-10)"></path>
                            <path d="M11.6843812,9.56216451 L4.19605747,9.55241549 C4.68608429,9.05684027 5.18097893,8.58076309 5.68398659,8.12580879 L13.1723103,8.13393298 C12.6709253,8.58888728 12.174408,9.06496446 11.6843812,9.56216451" id="Fill-311" fill="#F7C239" mask="url(#mask-10)"></path>
                            <path d="M13.1723103,8.13393298 L5.68398659,8.12580879 C6.20646552,7.65135645 6.73705747,7.20127666 7.27251724,6.77069491 L14.7624636,6.78044393 C14.2270038,7.21102568 13.6947893,7.66110547 13.1723103,8.13393298" id="Fill-312" fill="#F6C039" mask="url(#mask-10)"></path>
                            <path d="M14.7624636,6.78044393 L7.27251724,6.77069491 C7.85665517,6.30436675 8.44566092,5.86403598 9.04115709,5.4497026 L16.5294808,5.45945162 C15.9339847,5.87216016 15.3433563,6.31411577 14.7624636,6.78044393" id="Fill-313" fill="#F6BF39" mask="url(#mask-10)"></path>
                            <path d="M16.5294808,5.45945162 L9.04115709,5.4497026 C9.7096705,4.98499927 10.3862969,4.55604236 11.0710364,4.15795735 L18.5593602,4.16608153 C17.8762433,4.56579138 17.1996169,4.9947483 16.5294808,5.45945162" id="Fill-314" fill="#F5BD39" mask="url(#mask-10)"></path>
                            <path d="M18.5593602,4.16608153 L11.0710364,4.15795735 C11.8612452,3.6965037 12.6628123,3.28217032 13.4708697,2.90845786 L20.9591935,2.91820688 C20.151136,3.28866966 19.3511916,3.70625272 18.5593602,4.16608153" id="Fill-315" fill="#F5BA39" mask="url(#mask-10)"></path>
                            <path d="M20.9591935,2.91820688 L13.4708697,2.90845786 C14.4931111,2.43888002 15.5267107,2.03754534 16.5716686,1.7093283 L24.0583697,1.71745249 C23.0166571,2.04729436 21.9814349,2.44700421 20.9591935,2.91820688" id="Fill-316" fill="#F4B83A" mask="url(#mask-10)"></path>
                            <path d="M24.0583697,1.71745249 L16.5716686,1.7093283 C19.0185575,0.935905992 21.5108793,0.552444509 24.0015785,0.555694183 L31.4899023,0.563818366 C28.9992031,0.560568693 26.5068812,0.944030176 24.0583697,1.71745249" id="Fill-317" fill="#F4B63A" mask="url(#mask-10)"></path>
                        </g>
                        <g id="Group-366" transform="translate(0.000000, 13.883650)">
                            <mask id="mask-12" fill="white">
                                <use xlink:href="#path-11"></use>
                            </mask>
                            <g id="Clip-320"></g>
                            <path d="M41.8641034,85.1014072 L34.3741571,85.0916582 C31.8526284,85.0884085 29.3310996,84.6886987 26.8614943,83.8957783 L34.349818,83.9039025 C36.8194234,84.6984477 39.3409521,85.0981576 41.8641034,85.1014072" id="Fill-319" fill="#F4B63A" mask="url(#mask-12)"></path>
                            <path d="M34.349818,83.9039025 L26.8614943,83.8957783 C25.7921973,83.5513129 24.7342586,83.1337299 23.6876782,82.6414043 L31.1776245,82.6495285 C32.2225824,83.1418541 33.2821437,83.5594371 34.349818,83.9039025" id="Fill-321" fill="#F4B83A" mask="url(#mask-12)"></path>
                            <path d="M31.1776245,82.6495285 L23.6876782,82.6414043 C22.8861111,82.2644422 22.0910345,81.8419846 21.3056935,81.3772813 L28.7940172,81.3870303 C29.5793582,81.8517336 30.3744349,82.2725664 31.1776245,82.6495285" id="Fill-322" fill="#F5BA39" mask="url(#mask-12)"></path>
                            <path d="M28.7940172,81.3870303 L21.3056935,81.3772813 C20.6323123,80.9791963 19.9670441,80.5486145 19.3082663,80.0855361 L26.79659,80.0952851 C27.4553678,80.5567387 28.120636,80.9889453 28.7940172,81.3870303" id="Fill-323" fill="#F5BD39" mask="url(#mask-12)"></path>
                            <path d="M26.79659,80.0952851 L19.3082663,80.0855361 C18.7111475,79.6647033 18.1205192,79.219498 17.5363812,78.7466705 L25.0263276,78.7564196 C25.6088429,79.2292471 26.1978487,79.6744523 26.79659,80.0952851" id="Fill-324" fill="#F6BF39" mask="url(#mask-12)"></path>
                            <path d="M25.0263276,78.7564196 L17.5363812,78.7466705 C16.9928084,78.3047149 16.4524808,77.8383868 15.9218889,77.3509357 L23.4118352,77.3590599 C23.9424272,77.8481358 24.4811322,78.3128391 25.0263276,78.7564196" id="Fill-325" fill="#F6C039" mask="url(#mask-12)"></path>
                            <path d="M23.4118352,77.3590599 L15.9218889,77.3509357 C15.4334847,76.9008559 14.9515709,76.4312781 14.4745249,75.9422022 L21.9628487,75.9503264 C22.438272,76.4410271 22.9218084,76.910605 23.4118352,77.3590599" id="Fill-326" fill="#F7C239" mask="url(#mask-12)"></path>
                            <path d="M21.9628487,75.9503264 L14.4745249,75.9422022 C14.0104598,75.4645002 13.5512625,74.968925 13.1001782,74.4538517 L20.5885019,74.4636008 C21.0412088,74.9770492 21.4987835,75.4742492 21.9628487,75.9503264" id="Fill-327" fill="#F7C43A" mask="url(#mask-12)"></path>
                            <path d="M20.5885019,74.4636008 L13.1001782,74.4538517 C12.6620747,73.9550268 12.2304617,73.4367039 11.8053391,72.9005078 L19.2936628,72.9102568 C19.7187854,73.4448281 20.1503985,73.963151 20.5885019,74.4636008" id="Fill-328" fill="#F8C73A" mask="url(#mask-12)"></path>
                            <path d="M19.2936628,72.9102568 L11.8053391,72.9005078 C11.3883295,72.3756855 10.979433,71.8346148 10.5770268,71.2740461 L18.0669732,71.2837952 C18.4677567,71.842739 18.8782759,72.3854345 19.2936628,72.9102568" id="Fill-329" fill="#F8C93B" mask="url(#mask-12)"></path>
                            <path d="M18.0669732,71.2837952 L10.5770268,71.2740461 C10.2346571,70.7995938 9.89877778,70.3121428 9.56776628,69.8149427 C9.52395594,69.7483244 9.4817682,69.6817061 9.43633525,69.6167126 L16.9262816,69.623212 C16.970092,69.6898303 17.0122797,69.7580734 17.0577126,69.8246917 C17.3887241,70.3218918 17.7246034,70.8093428 18.0669732,71.2837952" id="Fill-330" fill="#F8CB3B" mask="url(#mask-12)"></path>
                            <path d="M16.9262816,69.623212 L9.43633525,69.6167126 C9.14264368,69.1633831 8.85381992,68.7084288 8.57148659,68.2453504 L16.0598103,68.2550994 C16.3421437,68.716553 16.6309674,69.1731322 16.9262816,69.623212" id="Fill-331" fill="#F8CD3B" mask="url(#mask-12)"></path>
                            <path d="M16.0598103,68.2550994 L8.57148659,68.2453504 C8.29077586,67.7838967 8.01493295,67.3159437 7.74882567,66.8431162 L15.2371494,66.8512404 C15.5048793,67.3240679 15.777477,67.7936457 16.0598103,68.2550994" id="Fill-332" fill="#F8CF3B" mask="url(#mask-12)"></path>
                            <path d="M15.2371494,66.8512404 L7.74882567,66.8431162 C7.4551341,66.3215436 7.16955556,65.7950965 6.89371264,65.26215 L14.3820364,65.271899 C14.6578793,65.8048455 14.9434579,66.3312926 15.2371494,66.8512404" id="Fill-333" fill="#F8D13B" mask="url(#mask-12)"></path>
                            <path d="M14.3820364,65.271899 L6.89371264,65.26215 C6.61462452,64.7275787 6.34689464,64.1865081 6.08565517,63.6405629 L13.5739789,63.6486871 C13.8335958,64.1962571 14.1029483,64.7373277 14.3820364,65.271899" id="Fill-334" fill="#F8D33B" mask="url(#mask-12)"></path>
                            <path d="M13.5739789,63.6486871 L6.08565517,63.6405629 C5.83415134,63.1124909 5.58913793,62.5795445 5.35548276,62.0400987 L12.8438065,62.0482228 C13.0774617,62.5860438 13.3224751,63.12224 13.5739789,63.6486871" id="Fill-335" fill="#F8D63C" mask="url(#mask-12)"></path>
                            <path d="M12.8438065,62.0482228 L5.35548276,62.0400987 C5.11858238,61.5022777 4.89141762,60.9595822 4.6723659,60.413637 L12.1606897,60.4201364 C12.381364,60.9677064 12.6069061,61.5104019 12.8438065,62.0482228" id="Fill-336" fill="#F7D83C" mask="url(#mask-12)"></path>
                            <path d="M12.1606897,60.4201364 L4.6723659,60.413637 C4.45818199,59.8774409 4.25048851,59.3379951 4.05253065,58.7952996 L11.5408544,58.8034238 C11.7388123,59.3461193 11.9465057,59.8855651 12.1606897,60.4201364" id="Fill-337" fill="#F7D93C" mask="url(#mask-12)"></path>
                            <path d="M11.5408544,58.8034238 L4.05253065,58.7952996 C3.85295019,58.2526041 3.66310536,57.7066589 3.47812835,57.1574641 L10.9680747,57.1655883 C11.1514291,57.7147831 11.3412739,58.2623531 11.5408544,58.8034238" id="Fill-338" fill="#F8DB3C" mask="url(#mask-12)"></path>
                            <path d="M10.9680747,57.1655883 L3.47812835,57.1574641 C3.29477395,56.6050196 3.11790996,56.0493254 2.949159,55.4903815 L10.4374828,55.5001306 C10.6062337,56.0590744 10.7830977,56.6147686 10.9680747,57.1655883" id="Fill-339" fill="#F7DE3D" mask="url(#mask-12)"></path>
                            <path d="M10.4374828,55.5001306 L2.949159,55.4903815 C2.78040805,54.9314377 2.61814751,54.3692442 2.464,53.8021761 L9.95394636,53.8119251 C10.1064713,54.3773683 10.2687318,54.9395619 10.4374828,55.5001306" id="Fill-340" fill="#F8E03C" mask="url(#mask-12)"></path>
                            <path d="M9.95394636,53.8119251 L2.464,53.8021761 C2.30660728,53.2188597 2.15570498,52.6306688 2.01291571,52.040853 L9.50123946,52.0489772 C9.64402874,52.638793 9.79493103,53.2286087 9.95394636,53.8119251" id="Fill-341" fill="#F8E854" mask="url(#mask-12)"></path>
                            <path d="M9.50123946,52.0489772 L2.01291571,52.040853 C1.86850383,51.4429131 1.73220498,50.8400987 1.60564176,50.2372842 L9.09396552,50.2454084 C9.22052874,50.8498477 9.35682759,51.4510373 9.50123946,52.0489772" id="Fill-342" fill="#F8EB62" mask="url(#mask-12)"></path>
                            <path d="M9.09396552,50.2454084 L1.60564176,50.2372842 C1.4644751,49.572726 1.33466667,48.9065429 1.21459387,48.2354853 L8.70291762,48.2452343 C8.82299042,48.9146671 8.95279885,49.582475 9.09396552,50.2454084" id="Fill-343" fill="#F9EC6C" mask="url(#mask-12)"></path>
                            <path d="M8.70291762,48.2452343 L1.21459387,48.2354853 C1.08965326,47.5384303 0.974448276,46.8365008 0.870601533,46.1313216 L8.35892529,46.1410707 C8.46439464,46.844625 8.57797701,47.5481793 8.70291762,48.2452343" id="Fill-344" fill="#F9EE75" mask="url(#mask-12)"></path>
                            <path d="M8.35892529,46.1410707 L0.870601533,46.1313216 C0.739170498,45.2344117 0.625588123,44.3310025 0.528231801,43.4243435 L8.01493295,43.4324677 C8.11228927,44.3391267 8.22749425,45.2425359 8.35892529,46.1410707" id="Fill-345" fill="#F9F07D" mask="url(#mask-12)"></path>
                            <path d="M8.01493295,43.4324677 L0.528231801,43.4243435 C0.390310345,42.1488467 0.289708812,40.8668504 0.224804598,39.5832294 L7.71150575,39.5929784 C7.77803257,40.8765994 7.8786341,42.1585957 8.01493295,43.4324677" id="Fill-346" fill="#FBF084" mask="url(#mask-12)"></path>
                            <path d="M7.71150575,39.5929784 L0.224804598,39.5832294 C0.0917509579,37.0387349 0.0966187739,34.4844915 0.241030651,31.9416219 L7.72935441,31.951371 C7.58656513,34.4926157 7.58007471,37.048484 7.71150575,39.5929784" id="Fill-347" fill="#FBF18B" mask="url(#mask-12)"></path>
                            <path d="M7.72935441,31.951371 L0.241030651,31.9416219 C0.312425287,30.6547512 0.421139847,29.372755 0.563929119,28.0956333 L8.05225287,28.1053823 C7.9094636,29.3808792 7.80074904,30.6645002 7.72935441,31.951371" id="Fill-348" fill="#FBF084" mask="url(#mask-12)"></path>
                            <path d="M8.05225287,28.1053823 L0.563929119,28.0956333 C0.659662835,27.2263456 0.773245211,26.3586827 0.90305364,25.4958944 L8.393,25.5040186 C8.26319157,26.3668069 8.14798659,27.2344698 8.05225287,28.1053823" id="Fill-349" fill="#F9F07D" mask="url(#mask-12)"></path>
                            <path d="M8.393,25.5040186 L0.90305364,25.4958944 C1.01825862,24.7370956 1.14482184,23.9799217 1.2843659,23.2259974 L8.77268966,23.2357464 C8.63314559,23.9880458 8.50658238,24.743595 8.393,25.5040186" id="Fill-350" fill="#F9EE75" mask="url(#mask-12)"></path>
                            <path d="M8.77268966,23.2357464 L1.2843659,23.2259974 C1.40281609,22.5858117 1.53100192,21.9488757 1.66730077,21.3151893 L9.15562452,21.3233135 C9.01770307,21.9586247 8.89113985,22.5955607 8.77268966,23.2357464" id="Fill-351" fill="#F9EC6C" mask="url(#mask-12)"></path>
                            <path d="M9.15562452,21.3233135 L1.66730077,21.3151893 C1.80197701,20.691252 1.94476628,20.0705643 2.09729119,19.4547512 L9.58561494,19.4612505 C9.43309004,20.0786885 9.29030077,20.6993762 9.15562452,21.3233135" id="Fill-352" fill="#F8EB62" mask="url(#mask-12)"></path>
                            <path d="M9.58561494,19.4612505 L2.09729119,19.4547512 C2.24008046,18.8746845 2.39098276,18.3011171 2.54837548,17.7291745 L10.0366992,17.7372987 C9.87930651,18.3092413 9.72840421,18.8844335 9.58561494,19.4612505" id="Fill-353" fill="#F8E854" mask="url(#mask-12)"></path>
                            <path d="M10.0366992,17.7372987 L2.54837548,17.7291745 C2.7057682,17.157232 2.87127395,16.5917888 3.04489272,16.0279704 L10.5332165,16.0377194 C10.3612203,16.6015378 10.194092,17.166981 10.0366992,17.7372987" id="Fill-354" fill="#F8E03C" mask="url(#mask-12)"></path>
                            <path d="M10.5332165,16.0377194 L3.04489272,16.0279704 C3.21526628,15.4706514 3.39537548,14.9198317 3.58035249,14.3706369 L11.0686762,14.3803859 C10.8836992,14.9279559 10.7052126,15.4804004 10.5332165,16.0377194" id="Fill-355" fill="#F7DE3D" mask="url(#mask-12)"></path>
                            <path d="M11.0686762,14.3803859 L3.58035249,14.3706369 C3.76695211,13.8230669 3.96004215,13.2771217 4.16124521,12.7376759 L11.649569,12.7458001 C11.4499885,13.2868707 11.2536533,13.8311911 11.0686762,14.3803859" id="Fill-356" fill="#F8DB3C" mask="url(#mask-12)"></path>
                            <path d="M11.649569,12.7458001 L4.16124521,12.7376759 C4.36407088,12.1901059 4.57500958,11.6474104 4.7940613,11.1095894 L12.2823851,11.1177136 C12.0633333,11.6555346 11.8540172,12.1982301 11.649569,12.7458001" id="Fill-357" fill="#F7D93C" mask="url(#mask-12)"></path>
                            <path d="M12.2823851,11.1177136 L4.7940613,11.1095894 C5.01473563,10.5717685 5.24027778,10.0371972 5.47393295,9.5091252 L12.9622567,9.51724938 C12.7286015,10.0453213 12.5014368,10.5798926 12.2823851,11.1177136" id="Fill-358" fill="#F7D83C" mask="url(#mask-12)"></path>
                            <path d="M12.9622567,9.51724938 L5.47393295,9.5091252 C5.71570115,8.96318004 5.96720498,8.42373422 6.22519923,7.88916292 L13.713523,7.89891194 C13.4555287,8.43185841 13.2056475,8.97292906 12.9622567,9.51724938" id="Fill-359" fill="#F8D63C" mask="url(#mask-12)"></path>
                            <path d="M13.713523,7.89891194 L6.22519923,7.88916292 C6.48319349,7.35459161 6.74930077,6.82651966 7.02514368,6.30332221 L14.5134674,6.31307123 C14.2376245,6.83464384 13.9715172,7.36434064 13.713523,7.89891194" id="Fill-360" fill="#F8D33B" mask="url(#mask-12)"></path>
                            <path d="M14.5134674,6.31307123 L7.02514368,6.30332221 C7.31072222,5.76225156 7.60279119,5.22768026 7.90621839,4.69798346 L15.3929195,4.70773248 C15.0927375,5.23580444 14.7974234,5.77200058 14.5134674,6.31307123" id="Fill-361" fill="#F8D13B" mask="url(#mask-12)"></path>
                            <path d="M15.3929195,4.70773248 L7.90621839,4.69798346 C8.20802299,4.1699115 8.52118582,3.64833889 8.84083908,3.13489047 L16.3291628,3.14138982 C16.007887,3.65646308 15.6979693,4.17803569 15.3929195,4.70773248" id="Fill-362" fill="#F8CF3B" mask="url(#mask-12)"></path>
                            <path d="M16.3291628,3.14138982 L8.84083908,3.13489047 C9.14264368,2.6506891 9.4509387,2.17298709 9.76734674,1.70340926 L17.2572931,1.71315828 C16.9392625,2.18273611 16.6309674,2.65881329 16.3291628,3.14138982" id="Fill-363" fill="#F8CD3B" mask="url(#mask-12)"></path>
                            <path d="M17.2572931,1.71315828 L9.76734674,1.70340926 C10.0853774,1.23383142 10.4098985,0.770752938 10.7425326,0.3141738 L18.2308563,0.32392282 C17.8982222,0.778877122 17.5737011,1.24358044 17.2572931,1.71315828" id="Fill-364" fill="#F8CB3B" mask="url(#mask-12)"></path>
                            <path d="M18.2308563,0.32392282 L10.7425326,0.3141738 C10.7620038,0.289801248 10.7782299,0.263803859 10.7977011,0.23780647 L18.2860249,0.247555491 C18.2681762,0.27355288 18.248705,0.297925432 18.2308563,0.32392282" id="Fill-365" fill="#F8C93B" mask="url(#mask-12)"></path>
                        </g>
                        <path d="M60.6425153,78.0246627 C71.5237069,63.1720296 71.9585651,38.4793849 61.6193238,22.8842014 C51.2768372,7.2825185 34.0739751,6.67482954 23.1911609,21.5290875 C12.3083467,36.3833454 11.8702433,61.067866 22.2127299,76.6695488 C32.5503487,92.2647323 49.7597011,92.8789206 60.6425153,78.0246627 Z M18.2860249,14.1312056 C32.0148889,-4.60803714 53.7237261,-3.84111417 66.7759636,15.8470332 C79.8233333,35.5303061 79.2700249,66.6784274 65.5411609,85.4160453 C51.8122969,104.155288 30.1050824,103.38999 17.0577126,83.7083418 C4.0054751,64.0169447 4.55716092,32.8688234 18.2860249,14.1312056 Z" id="Fill-367" fill="#F4B83A"></path>
                    </g>
                </g>
            </g>
        </g>
    </g>
</svg>