<?xml version="1.0" encoding="UTF-8"?>
<svg width="75px" height="96px" viewBox="0 0 75 96" version="1.1" xmlns="http://www.w3.org/2000/svg" xmlns:xlink="http://www.w3.org/1999/xlink">
    <!-- Generator: Sketch 50.2 (55047) - http://www.bohemiancoding.com/sketch -->
    <title>bitcoin 10</title>
    <desc>Created with Sketch.</desc>
    <defs>
        <path d="M14.5916014,8.73480363 C23.1902093,-1.45349882 37.5561407,-3.16595663 51.6808065,5.91816023 C70.8504604,18.2451602 82.3105245,45.7951602 77.2788322,67.4531602 C72.3606303,88.6216837 53.5044387,96.3248212 34.7566562,85.1499819 C44.2127227,90.7870094 53.6965151,91.6203658 61.4048963,88.3461602 L54.7354732,91.1791602 C46.6734219,94.6041602 36.6718193,93.5361602 26.7887168,87.1801602 C7.612986,74.8481602 -3.84707811,47.2981602 1.1846142,25.6411602 C3.62247318,15.1501602 9.48265266,7.96616023 17.0575373,4.74816023 L23.7269604,1.91516023 C20.2705898,3.38351268 17.1714382,5.6776012 14.5915399,8.73472446 Z" id="path-1"></path>
        <path d="M4.667,0.641 L10.326,5.409 C9.34,4.578 7.628,5.344 5.681,6.991 L0.021,2.224 C1.969,0.575 3.681,-0.19 4.667,0.641" id="path-3"></path>
        <path d="M4.067,0.536 L9.727,5.305 C8.865,4.578 7.244,6.179 5.712,7.968 L0.053,3.2 C1.585,1.41 3.206,-0.19 4.067,0.536" id="path-5"></path>
        <path d="M7.757,5.331 C8.613,6.123 7.17,8.083 5.696,9.805 L0.037,5.037 C1.51,3.314 2.954,1.355 2.098,0.562 C3.795,1.993 6.093,3.861 7.757,5.331" id="path-7"></path>
        <path d="M5.727,5.304 C5.737,5.312 5.747,5.321 5.757,5.331 L0.098,0.562 C0.088,0.554 0.078,0.545 0.067,0.536 C1.765,1.967 4.029,3.874 5.727,5.304" id="path-9"></path>
        <path d="M1.667,0.641 L7.326,5.409 C7.344,5.424 7.362,5.439 7.379,5.456 C8.198,6.214 7.804,7.964 6.616,10 L0.956,5.232 C2.145,3.196 2.539,1.446 1.72,0.687 C1.703,0.672 1.685,0.656 1.667,0.641" id="path-11"></path>
        <path d="M6.051,5.787 C4.165,4.198 2.278,2.608 0.392,1.02 C2.655,0.713 4.559,1.088 5.922,2.236 L11.582,7.005 C10.218,5.855 8.314,5.48 6.051,5.787" id="path-13"></path>
        <path d="M5.205,0.8 L10.864,5.567 C9.834,4.7 7.921,6.667 6.132,8.758 L0.473,3.99 C2.262,1.899 4.175,-0.068 5.205,0.8" id="path-15"></path>
        <path d="M6.316,1.171 L11.976,5.938 C10.792,4.941 8.738,6.032 6.616,8 L0.956,3.232 C3.079,1.264 5.133,0.173 6.316,1.171" id="path-17"></path>
        <path d="M3.205,0.8 L8.864,5.567 C8.876,5.578 8.888,5.589 8.9,5.6 C9.897,6.522 8.374,8.627 6.644,10.647 L0.985,5.88 C2.715,3.858 4.238,1.755 3.241,0.831 C3.229,0.82 3.217,0.81 3.205,0.8" id="path-19"></path>
        <path d="M0.42,3.382 C2.616,2.438 4.81,1.493 7.006,0.549 C18.225,11.59 24.308,29.698 20.938,44.386 L14.353,47.219 C17.723,32.531 11.639,14.423 0.42,3.382" id="path-21"></path>
        <path d="M11.321,7.446 C7.571,5.004 3.799,3.546 0.189,3.002 C2.385,2.058 4.58,1.113 6.775,0.169 C10.385,0.713 14.157,2.17 17.907,4.612 C20.072,6.023 22.112,7.685 24.006,9.549 C21.81,10.493 19.616,11.438 17.42,12.382 C15.527,10.519 13.487,8.856 11.321,7.446" id="path-23"></path>
        <path d="M0.93,19.777 C6.858,17.227 11.445,11.535 13.353,3.219 L19.938,0.386 C18.031,8.701 13.443,14.394 7.515,16.944 C5.54,17.795 2.905,18.928 0.93,19.777" id="path-25"></path>
        <path d="M16.587,3.31 L23.172,0.477 C15.693,3.695 9.908,10.879 7.501,21.369 L0.915,24.203 C3.322,13.712 9.108,6.528 16.587,3.31" id="path-27"></path>
        <path d="M61.373,65.908 L54.788,68.741 C46.828,72.166 36.953,71.098 27.195,64.742 C8.262,52.41 -3.053,24.86 1.915,3.203 L8.501,0.369 C3.533,22.026 14.848,49.577 33.781,61.908 C43.538,68.264 53.414,69.332 61.373,65.908" id="path-29"></path>
    </defs>
    <g id="ICO" stroke="none" stroke-width="1" fill="none" fill-rule="evenodd">
        <g id="01-Ñontract-ICO-hover" transform="translate(-1214.000000, -1354.000000)">
            <g id="content">
                <g id="bitcoin-10" transform="translate(1198.000000, 1344.000000)">
                    <g id="Group-4-Copy-3" transform="translate(53.500000, 59.000000) rotate(19.000000) translate(-53.500000, -59.000000) translate(14.000000, 12.000000)">
                        <g id="Group-550" transform="translate(0.000000, 0.000000)">
                            <mask id="mask-2" fill="white">
                                <use xlink:href="#path-1"></use>
                            </mask>
                            <use id="Combined-Shape" fill="#E99E34" xlink:href="#path-1"></use>
                        </g>
                    </g>
                    <g id="Group-4-Copy-3" transform="translate(53.500000, 58.000000) rotate(19.000000) translate(-53.500000, -58.000000) translate(14.000000, 11.000000)">
                        <g id="Group-398" transform="translate(5.000000, 44.000000)">
                            <mask id="mask-4" fill="white">
                                <use xlink:href="#path-3"></use>
                            </mask>
                            <g id="Clip-391"></g>
                            <path d="M4.667,0.641 L10.326,5.409 C10.063,5.187 9.749,5.079 9.393,5.071 L3.733,0.303 C4.09,0.311 4.404,0.42 4.667,0.641" id="Fill-390" fill="#E7A934" mask="url(#mask-4)"></path>
                            <path d="M3.733,0.303 L9.393,5.071 C9.22,5.067 9.038,5.087 8.847,5.128 L3.188,0.359 C3.379,0.318 3.561,0.299 3.733,0.303" id="Fill-392" fill="#E5AB34" mask="url(#mask-4)"></path>
                            <path d="M3.188,0.359 L8.847,5.128 C8.688,5.162 8.523,5.211 8.352,5.274 L2.693,0.507 C2.864,0.443 3.029,0.394 3.188,0.359" id="Fill-393" fill="#E5AD34" mask="url(#mask-4)"></path>
                            <path d="M2.693,0.507 L8.352,5.274 C8.187,5.336 8.016,5.411 7.841,5.499 L2.182,0.731 C2.357,0.644 2.528,0.568 2.693,0.507" id="Fill-394" fill="#E6AF35" mask="url(#mask-4)"></path>
                            <path d="M2.182,0.731 L7.841,5.499 C7.652,5.594 7.457,5.703 7.259,5.825 L1.599,1.058 C1.798,0.935 1.993,0.825 2.182,0.731" id="Fill-395" fill="#E6B235" mask="url(#mask-4)"></path>
                            <path d="M1.599,1.058 L7.259,5.825 C7.02,5.972 6.775,6.139 6.525,6.322 L0.866,1.555 C1.116,1.37 1.361,1.204 1.599,1.058" id="Fill-396" fill="#E6B335" mask="url(#mask-4)"></path>
                            <path d="M0.866,1.555 L6.525,6.322 C6.25,6.524 5.968,6.748 5.681,6.991 L0.021,2.224 C0.309,1.98 0.591,1.757 0.866,1.555" id="Fill-397" fill="#E6B735" mask="url(#mask-4)"></path>
                        </g>
                        <g id="Group-410" transform="translate(2.000000, 49.000000)">
                            <mask id="mask-6" fill="white">
                                <use xlink:href="#path-5"></use>
                            </mask>
                            <g id="Clip-400"></g>
                            <path d="M4.067,0.536 L9.727,5.304 C9.588,5.186 9.429,5.131 9.253,5.125 L3.594,0.357 C3.769,0.362 3.928,0.419 4.067,0.536" id="Fill-399" fill="#F7C144" mask="url(#mask-6)"></path>
                            <path d="M3.594,0.357 L9.253,5.125 C9.173,5.123 9.089,5.132 9.003,5.15 L3.343,0.383 C3.43,0.364 3.514,0.355 3.594,0.357" id="Fill-401" fill="#F7C445" mask="url(#mask-6)"></path>
                            <path d="M3.343,0.383 L9.003,5.15 C8.933,5.165 8.861,5.186 8.788,5.214 L3.129,0.446 C3.202,0.419 3.274,0.397 3.343,0.383" id="Fill-402" fill="#F9C846" mask="url(#mask-6)"></path>
                            <path d="M3.129,0.446 L8.788,5.214 C8.718,5.24 8.646,5.271 8.573,5.309 L2.914,0.54 C2.987,0.504 3.059,0.473 3.129,0.446" id="Fill-403" fill="#F9CA46" mask="url(#mask-6)"></path>
                            <path d="M2.914,0.54 L8.573,5.309 C8.495,5.348 8.414,5.393 8.332,5.443 L2.673,0.676 C2.754,0.625 2.835,0.58 2.914,0.54" id="Fill-404" fill="#FACE47" mask="url(#mask-6)"></path>
                            <path d="M2.673,0.676 L8.332,5.443 C8.234,5.504 8.133,5.572 8.031,5.648 L2.372,0.88 C2.474,0.805 2.574,0.736 2.673,0.676" id="Fill-405" fill="#F9D047" mask="url(#mask-6)"></path>
                            <path d="M2.372,0.88 L8.031,5.648 C7.883,5.757 7.731,5.88 7.576,6.016 L1.917,1.247 C2.072,1.112 2.224,0.989 2.372,0.88" id="Fill-406" fill="#F9D347" mask="url(#mask-6)"></path>
                        </g>
                        <g id="Group-420" transform="translate(4.000000, 49.000000)">
                            <mask id="mask-8" fill="white">
                                <use xlink:href="#path-7"></use>
                            </mask>
                            <g id="Clip-412"></g>
                            <path d="M2.098,0.562 L7.757,5.331 C7.924,5.485 8.004,5.685 8.012,5.919 L2.353,1.15 C2.344,0.917 2.265,0.718 2.098,0.562" id="Fill-411" fill="#E7A934" mask="url(#mask-8)"></path>
                            <path d="M2.353,1.15 L8.012,5.919 C8.015,6.002 8.009,6.088 7.996,6.179 L2.336,1.411 C2.35,1.32 2.356,1.233 2.353,1.15" id="Fill-413" fill="#E5AB34" mask="url(#mask-8)"></path>
                            <path d="M2.336,1.411 L7.996,6.179 C7.984,6.256 7.966,6.335 7.943,6.417 L2.284,1.648 C2.307,1.567 2.324,1.487 2.336,1.411" id="Fill-414" fill="#E5AD34" mask="url(#mask-8)"></path>
                            <path d="M2.284,1.648 L7.943,6.417 C7.921,6.497 7.893,6.579 7.861,6.664 L2.201,1.895 C2.234,1.811 2.261,1.728 2.284,1.648" id="Fill-415" fill="#E6AF35" mask="url(#mask-8)"></path>
                            <path d="M2.201,1.895 L7.861,6.664 C7.826,6.756 7.785,6.851 7.739,6.947 L2.08,2.179 C2.125,2.082 2.166,1.988 2.201,1.895" id="Fill-416" fill="#E6B235" mask="url(#mask-8)"></path>
                            <path d="M2.08,2.179 L7.739,6.947 C7.682,7.068 7.616,7.192 7.544,7.32 L1.885,2.552 C1.957,2.425 2.022,2.301 2.08,2.179" id="Fill-417" fill="#E6B335" mask="url(#mask-8)"></path>
                            <path d="M1.885,2.552 L7.544,7.32 C7.439,7.504 7.321,7.693 7.192,7.886 L1.532,3.118 C1.662,2.925 1.78,2.735 1.885,2.552" id="Fill-418" fill="#E6B735" mask="url(#mask-8)"></path>
                            <path d="M1.532,3.118 L7.192,7.886 C6.771,8.512 6.236,9.174 5.696,9.805 L0.037,5.037 C0.576,4.406 1.112,3.743 1.532,3.118" id="Fill-419" fill="#E6B935" mask="url(#mask-8)"></path>
                        </g>
                        <g id="Group-423" transform="translate(6.000000, 49.000000)">
                            <mask id="mask-10" fill="white">
                                <use xlink:href="#path-9"></use>
                            </mask>
                            <g id="Clip-422"></g>
                            <path d="M0.067,0.536 L5.727,5.304 C5.737,5.312 5.747,5.321 5.757,5.331 L0.098,0.562 C0.088,0.554 0.078,0.545 0.067,0.536" id="Fill-421" fill="#E7A934" mask="url(#mask-10)"></path>
                        </g>
                        <g id="Group-434" transform="translate(8.000000, 44.000000)">
                            <mask id="mask-12" fill="white">
                                <use xlink:href="#path-11"></use>
                            </mask>
                            <g id="Clip-427"></g>
                            <path d="M1.667,0.641 L7.326,5.409 C7.344,5.424 7.362,5.439 7.379,5.456 C7.656,5.712 7.794,6.081 7.81,6.535 L2.15,1.768 C2.134,1.312 1.996,0.943 1.72,0.687 C1.703,0.672 1.685,0.656 1.667,0.641" id="Fill-426" fill="#F7C144" mask="url(#mask-12)"></path>
                            <path d="M2.15,1.768 L7.81,6.535 C7.816,6.721 7.803,6.921 7.77,7.133 L2.11,2.365 C2.144,2.152 2.157,1.953 2.15,1.768" id="Fill-428" fill="#F7C445" mask="url(#mask-12)"></path>
                            <path d="M2.11,2.365 L7.77,7.133 C7.742,7.315 7.699,7.508 7.643,7.707 L1.983,2.939 C2.04,2.739 2.082,2.548 2.11,2.365" id="Fill-429" fill="#F9C846" mask="url(#mask-12)"></path>
                            <path d="M1.983,2.939 L7.643,7.707 C7.588,7.902 7.52,8.104 7.441,8.313 L1.782,3.546 C1.861,3.337 1.929,3.134 1.983,2.939" id="Fill-430" fill="#F9CA46" mask="url(#mask-12)"></path>
                            <path d="M1.782,3.546 L7.441,8.313 C7.356,8.535 7.258,8.765 7.146,9 L1.487,4.232 C1.599,3.997 1.697,3.768 1.782,3.546" id="Fill-431" fill="#FACE47" mask="url(#mask-12)"></path>
                            <path d="M1.487,4.232 L7.146,9 C7.019,9.27 6.873,9.548 6.712,9.832 L1.053,5.064 C1.214,4.78 1.359,4.502 1.487,4.232" id="Fill-432" fill="#F9D047" mask="url(#mask-12)"></path>
                            <path d="M1.053,5.064 L6.712,9.832 C6.681,9.888 6.649,9.944 6.616,10 L0.956,5.232 C0.989,5.176 1.021,5.12 1.053,5.064" id="Fill-433" fill="#F9D347" mask="url(#mask-12)"></path>
                        </g>
                        <g id="Group-438" transform="translate(18.000000, 30.000000)">
                            <mask id="mask-14" fill="white">
                                <use xlink:href="#path-13"></use>
                            </mask>
                            <g id="Clip-436"></g>
                            <path d="M5.922,2.236 L11.581,7.005 C10.565,6.148 9.249,5.722 7.707,5.687 L2.048,0.919 C3.589,0.954 4.906,1.38 5.922,2.236" id="Fill-435" fill="#F8C73A" mask="url(#mask-14)"></path>
                            <path d="M2.048,0.919 L7.707,5.687 C6.872,5.668 5.971,5.765 5.015,5.97 L-0.644,1.202 C0.311,0.996 1.213,0.9 2.048,0.919" id="Fill-437" fill="#F8C93B" mask="url(#mask-14)"></path>
                        </g>
                        <g id="Group-457" transform="translate(5.000000, 51.000000)">
                            <mask id="mask-16" fill="white">
                                <use xlink:href="#path-15"></use>
                            </mask>
                            <g id="Clip-447"></g>
                            <path d="M5.205,0.8 L10.864,5.567 C10.701,5.43 10.515,5.363 10.311,5.357 L4.652,0.59 C4.855,0.596 5.041,0.662 5.205,0.8" id="Fill-446" fill="#F7C144" mask="url(#mask-16)"></path>
                            <path d="M4.652,0.59 L10.311,5.357 C10.219,5.355 10.123,5.365 10.023,5.387 L4.364,0.618 C4.463,0.597 4.56,0.587 4.652,0.59" id="Fill-448" fill="#F7C445" mask="url(#mask-16)"></path>
                            <path d="M4.364,0.618 L10.023,5.387 C9.943,5.403 9.861,5.428 9.777,5.459 L4.118,0.691 C4.202,0.66 4.284,0.636 4.364,0.618" id="Fill-449" fill="#F9C846" mask="url(#mask-16)"></path>
                            <path d="M4.118,0.691 L9.777,5.459 C9.697,5.489 9.616,5.524 9.533,5.566 L3.874,0.798 C3.957,0.757 4.038,0.721 4.118,0.691" id="Fill-450" fill="#F9CA46" mask="url(#mask-16)"></path>
                            <path d="M3.874,0.798 L9.533,5.566 C9.444,5.61 9.353,5.662 9.26,5.719 L3.601,0.951 C3.693,0.894 3.785,0.843 3.874,0.798" id="Fill-451" fill="#FACE47" mask="url(#mask-16)"></path>
                            <path d="M3.601,0.951 L9.26,5.719 C9.147,5.789 9.032,5.867 8.915,5.953 L3.255,1.185 C3.373,1.1 3.488,1.02 3.601,0.951" id="Fill-452" fill="#F9D047" mask="url(#mask-16)"></path>
                            <path d="M3.255,1.185 L8.915,5.953 C8.746,6.078 8.573,6.219 8.397,6.372 L2.738,1.604 C2.914,1.45 3.087,1.31 3.255,1.185" id="Fill-453" fill="#F9D347" mask="url(#mask-16)"></path>
                            <path d="M2.738,1.604 L8.397,6.372 C7.831,6.868 7.232,7.502 6.636,8.178 L0.977,3.409 C1.573,2.734 2.172,2.1 2.738,1.604" id="Fill-454" fill="#F9D547" mask="url(#mask-16)"></path>
                            <path d="M0.977,3.409 L6.636,8.178 C6.518,8.311 6.4,8.446 6.283,8.583 L0.623,3.814 C0.741,3.679 0.859,3.543 0.977,3.409" id="Fill-455" fill="#F9D948" mask="url(#mask-16)"></path>
                            <path d="M0.623,3.814 L6.283,8.583 C6.232,8.641 6.182,8.699 6.132,8.758 L0.473,3.99 C0.523,3.932 0.573,3.873 0.623,3.814" id="Fill-456" fill="#F9D547" mask="url(#mask-16)"></path>
                        </g>
                        <g id="Group-467" transform="translate(8.000000, 46.000000)">
                            <mask id="mask-18" fill="white">
                                <use xlink:href="#path-17"></use>
                            </mask>
                            <g id="Clip-459"></g>
                            <path d="M6.316,1.171 L11.976,5.938 C11.682,5.691 11.335,5.572 10.946,5.563 L5.287,0.795 C5.675,0.804 6.023,0.923 6.316,1.171" id="Fill-458" fill="#E7A934" mask="url(#mask-18)"></path>
                            <path d="M5.287,0.795 L10.946,5.563 C10.762,5.559 10.569,5.58 10.368,5.623 L4.708,0.854 C4.91,0.811 5.103,0.791 5.287,0.795" id="Fill-460" fill="#E5AB34" mask="url(#mask-18)"></path>
                            <path d="M4.708,0.854 L10.368,5.623 C10.201,5.658 10.028,5.71 9.851,5.776 L4.192,1.008 C4.369,0.942 4.541,0.891 4.708,0.854" id="Fill-461" fill="#E5AD34" mask="url(#mask-18)"></path>
                            <path d="M4.192,1.008 L9.851,5.776 C9.682,5.839 9.507,5.916 9.329,6.005 L3.67,1.236 C3.848,1.147 4.022,1.071 4.192,1.008" id="Fill-462" fill="#E6AF35" mask="url(#mask-18)"></path>
                            <path d="M3.67,1.236 L9.329,6.005 C9.141,6.1 8.947,6.207 8.751,6.328 L3.092,1.56 C3.288,1.439 3.481,1.331 3.67,1.236" id="Fill-463" fill="#E6B235" mask="url(#mask-18)"></path>
                            <path d="M3.092,1.56 L8.751,6.328 C8.519,6.472 8.281,6.633 8.04,6.81 L2.381,2.042 C2.622,1.865 2.859,1.704 3.092,1.56" id="Fill-464" fill="#E6B335" mask="url(#mask-18)"></path>
                            <path d="M2.381,2.042 L8.04,6.81 C7.715,7.05 7.384,7.317 7.049,7.61 L1.39,2.842 C1.725,2.55 2.056,2.281 2.381,2.042" id="Fill-465" fill="#E6B735" mask="url(#mask-18)"></path>
                            <path d="M1.39,2.842 L7.049,7.61 C6.905,7.735 6.761,7.866 6.616,8 L0.956,3.232 C1.102,3.098 1.246,2.968 1.39,2.842" id="Fill-466" fill="#E6B935" mask="url(#mask-18)"></path>
                        </g>
                        <g id="Group-476" transform="translate(7.000000, 51.000000)">
                            <mask id="mask-20" fill="white">
                                <use xlink:href="#path-19"></use>
                            </mask>
                            <g id="Clip-471"></g>
                            <path d="M3.205,0.8 L8.864,5.567 C8.876,5.578 8.888,5.589 8.9,5.6 C9.107,5.791 9.206,6.033 9.216,6.315 L3.557,1.548 C3.546,1.266 3.448,1.023 3.241,0.831 C3.229,0.82 3.217,0.81 3.205,0.8" id="Fill-470" fill="#E7A934" mask="url(#mask-20)"></path>
                            <path d="M3.557,1.548 L9.216,6.315 C9.22,6.412 9.213,6.514 9.197,6.619 L3.538,1.851 C3.554,1.745 3.56,1.644 3.557,1.548" id="Fill-472" fill="#E5AB34" mask="url(#mask-20)"></path>
                            <path d="M3.538,1.851 L9.197,6.619 C9.183,6.707 9.163,6.798 9.137,6.892 L3.477,2.123 C3.504,2.029 3.524,1.938 3.538,1.851" id="Fill-473" fill="#E5AD34" mask="url(#mask-20)"></path>
                            <path d="M3.477,2.123 L9.137,6.892 C9.112,6.981 9.081,7.074 9.044,7.169 L3.385,2.4 C3.421,2.306 3.452,2.213 3.477,2.123" id="Fill-474" fill="#E6AF35" mask="url(#mask-20)"></path>
                            <path d="M3.385,2.4 L9.044,7.169 C9.005,7.272 8.959,7.378 8.908,7.486 L3.249,2.718 C3.3,2.609 3.346,2.504 3.385,2.4" id="Fill-475" fill="#E6B235" mask="url(#mask-20)"></path>
                        </g>
                        <path d="M14.316,47.171 C16.162,48.724 13.928,52.301 12.99,53.765 L16.901,57.067 C17.839,55.614 20.01,52.129 18.167,50.578 L14.316,47.171" id="Fill-477" fill="#BF862F"></path>
                        <polyline id="Fill-479" fill="#BF862F" points="9.546 58.138 12.029 60.444 9.616 63.263 7.134 60.956 9.546 58.138"></polyline>
                        <polyline id="Fill-481" fill="#D89431" points="14.978 55.444 16.935 57.02 13.133 61.491 11.29 59.753 14.978 55.444"></polyline>
                        <g id="Group-550" transform="translate(49.000000, 19.000000)">
                            <mask id="mask-22" fill="white">
                                <use xlink:href="#path-21"></use>
                            </mask>
                            <g id="Clip-520"></g>
                            <path d="M20.938,44.386 L14.353,47.219 C14.358,47.195 14.364,47.172 14.369,47.148 L20.955,44.315 C20.949,44.339 20.944,44.362 20.938,44.386" id="Fill-519" fill="#F8C93B" mask="url(#mask-22)"></path>
                            <path d="M20.955,44.315 L14.369,47.148 C14.464,46.732 14.551,46.312 14.63,45.891 L21.216,43.057 C21.137,43.479 21.049,43.898 20.955,44.315" id="Fill-521" fill="#F8CB3B" mask="url(#mask-22)"></path>
                            <path d="M21.216,43.057 L14.63,45.891 C14.71,45.468 14.782,45.044 14.847,44.617 L21.433,41.783 C21.368,42.21 21.296,42.635 21.216,43.057" id="Fill-522" fill="#F8CD3B" mask="url(#mask-22)"></path>
                            <path d="M21.433,41.783 L14.847,44.617 C14.916,44.162 14.976,43.706 15.028,43.247 L21.614,40.413 C21.562,40.873 21.501,41.329 21.433,41.783" id="Fill-523" fill="#F8CF3B" mask="url(#mask-22)"></path>
                            <path d="M21.614,40.413 L15.028,43.247 C15.081,42.789 15.124,42.328 15.16,41.866 L21.746,39.032 C21.71,39.495 21.666,39.955 21.614,40.413" id="Fill-524" fill="#F8D13B" mask="url(#mask-22)"></path>
                            <path d="M21.746,39.032 L15.16,41.866 C15.195,41.419 15.222,40.971 15.241,40.521 L21.827,37.688 C21.808,38.138 21.78,38.586 21.746,39.032" id="Fill-525" fill="#F8D33B" mask="url(#mask-22)"></path>
                            <path d="M21.827,37.688 L15.241,40.521 C15.261,40.072 15.273,39.621 15.278,39.17 L21.863,36.336 C21.858,36.788 21.846,37.239 21.827,37.688" id="Fill-526" fill="#F8D63C" mask="url(#mask-22)"></path>
                            <path d="M21.863,36.336 L15.278,39.17 C15.282,38.731 15.28,38.292 15.271,37.852 L21.856,35.019 C21.866,35.459 21.868,35.898 21.863,36.336" id="Fill-527" fill="#F7D83C" mask="url(#mask-22)"></path>
                            <path d="M21.856,35.019 L15.271,37.852 C15.262,37.412 15.246,36.971 15.224,36.529 L21.809,33.695 C21.831,34.138 21.847,34.579 21.856,35.019" id="Fill-528" fill="#F7D93C" mask="url(#mask-22)"></path>
                            <path d="M21.809,33.695 L15.224,36.529 C15.201,36.093 15.172,35.655 15.137,35.218 L21.723,32.384 C21.758,32.822 21.787,33.259 21.809,33.695" id="Fill-529" fill="#F8DB3C" mask="url(#mask-22)"></path>
                            <path d="M21.723,32.384 L15.137,35.218 C15.102,34.779 15.06,34.342 15.013,33.903 L21.598,31.07 C21.646,31.509 21.687,31.946 21.723,32.384" id="Fill-530" fill="#F7DE3D" mask="url(#mask-22)"></path>
                            <path d="M21.598,31.07 L15.013,33.903 C14.964,33.459 14.909,33.015 14.848,32.57 L21.433,29.737 C21.495,30.182 21.55,30.626 21.598,31.07" id="Fill-531" fill="#F8E03C" mask="url(#mask-22)"></path>
                            <path d="M21.433,29.737 L14.848,32.57 C14.786,32.125 14.718,31.68 14.644,31.234 L21.229,28.401 C21.304,28.847 21.372,29.292 21.433,29.737" id="Fill-532" fill="#F8E854" mask="url(#mask-22)"></path>
                            <path d="M21.229,28.401 L14.644,31.234 C14.564,30.76 14.478,30.284 14.384,29.81 L20.97,26.977 C21.063,27.451 21.15,27.927 21.229,28.401" id="Fill-533" fill="#F8EB62" mask="url(#mask-22)"></path>
                            <path d="M20.97,26.977 L14.384,29.81 C14.289,29.328 14.187,28.846 14.077,28.365 L20.663,25.531 C20.772,26.013 20.875,26.494 20.97,26.977" id="Fill-534" fill="#F9EC6C" mask="url(#mask-22)"></path>
                            <path d="M20.663,25.531 L14.077,28.365 C13.948,27.799 13.81,27.234 13.661,26.671 L20.246,23.838 C20.395,24.401 20.534,24.966 20.663,25.531" id="Fill-535" fill="#F9EE75" mask="url(#mask-22)"></path>
                            <path d="M20.246,23.838 L13.661,26.671 C13.492,26.031 13.31,25.394 13.117,24.76 L19.703,21.927 C19.896,22.56 20.078,23.198 20.246,23.838" id="Fill-536" fill="#F9F07D" mask="url(#mask-22)"></path>
                            <path d="M19.703,21.927 L13.117,24.76 C12.833,23.828 12.522,22.903 12.186,21.986 L18.772,19.153 C19.108,20.07 19.418,20.995 19.703,21.927" id="Fill-537" fill="#FBF084" mask="url(#mask-22)"></path>
                            <path d="M18.772,19.153 L12.186,21.986 C11.522,20.175 10.759,18.394 9.903,16.663 L16.489,13.83 C17.345,15.561 18.108,17.342 18.772,19.153" id="Fill-538" fill="#FBF18B" mask="url(#mask-22)"></path>
                            <path d="M16.489,13.83 L9.903,16.663 C9.472,15.79 9.016,14.929 8.538,14.082 L15.123,11.249 C15.602,12.096 16.057,12.957 16.489,13.83" id="Fill-539" fill="#FBF084" mask="url(#mask-22)"></path>
                            <path d="M15.123,11.249 L8.538,14.082 C8.199,13.481 7.848,12.888 7.485,12.302 L14.071,9.469 C14.433,10.055 14.784,10.647 15.123,11.249" id="Fill-540" fill="#F9F07D" mask="url(#mask-22)"></path>
                            <path d="M14.071,9.469 L7.485,12.302 C7.202,11.843 6.911,11.39 6.614,10.941 L13.2,8.107 C13.497,8.556 13.788,9.01 14.071,9.469" id="Fill-541" fill="#F9EE75" mask="url(#mask-22)"></path>
                            <path d="M13.2,8.107 L6.614,10.941 C6.329,10.511 6.038,10.085 5.74,9.665 L12.326,6.832 C12.623,7.252 12.915,7.678 13.2,8.107" id="Fill-542" fill="#F9EC6C" mask="url(#mask-22)"></path>
                            <path d="M12.326,6.832 L5.74,9.665 C5.468,9.281 5.191,8.901 4.909,8.526 L11.495,5.693 C11.777,6.068 12.054,6.448 12.326,6.832" id="Fill-543" fill="#F8EB62" mask="url(#mask-22)"></path>
                            <path d="M11.495,5.693 L4.909,8.526 C4.632,8.158 4.351,7.794 4.064,7.435 L10.65,4.602 C10.936,4.961 11.218,5.325 11.495,5.693" id="Fill-544" fill="#F8E854" mask="url(#mask-22)"></path>
                            <path d="M10.65,4.602 L4.064,7.435 C3.789,7.09 3.508,6.748 3.224,6.411 L9.81,3.578 C10.094,3.915 10.374,4.256 10.65,4.602" id="Fill-545" fill="#F8E03C" mask="url(#mask-22)"></path>
                            <path d="M9.81,3.578 L3.224,6.411 C2.94,6.075 2.651,5.743 2.358,5.416 L8.944,2.583 C9.237,2.91 9.525,3.242 9.81,3.578" id="Fill-546" fill="#F7DE3D" mask="url(#mask-22)"></path>
                            <path d="M8.944,2.583 L2.358,5.416 C2.066,5.089 1.769,4.767 1.468,4.449 L8.053,1.615 C8.354,1.933 8.651,2.255 8.944,2.583" id="Fill-547" fill="#F8DB3C" mask="url(#mask-22)"></path>
                            <path d="M8.053,1.615 L1.468,4.449 C1.166,4.131 0.86,3.818 0.55,3.511 L7.136,0.678 C7.446,0.984 7.751,1.298 8.053,1.615" id="Fill-548" fill="#F7D93C" mask="url(#mask-22)"></path>
                            <path d="M7.136,0.678 L0.55,3.511 C0.233,3.196 -0.088,2.887 -0.413,2.584 L6.172,-0.25 C6.498,0.054 6.819,0.362 7.136,0.678" id="Fill-549" fill="#F7D83C" mask="url(#mask-22)"></path>
                        </g>
                        <g id="Group-566" transform="translate(32.000000, 10.000000)">
                            <mask id="mask-24" fill="white">
                                <use xlink:href="#path-23"></use>
                            </mask>
                            <g id="Clip-552"></g>
                            <path d="M24.136,9.678 L17.55,12.511 C17.233,12.196 16.912,11.887 16.587,11.584 L23.172,8.75 C23.498,9.054 23.819,9.362 24.136,9.678" id="Fill-551" fill="#F7D83C" mask="url(#mask-24)"></path>
                            <path d="M23.172,8.75 L16.587,11.584 C16.261,11.28 15.932,10.982 15.598,10.691 L22.183,7.857 C22.517,8.149 22.847,8.447 23.172,8.75" id="Fill-553" fill="#F8D63C" mask="url(#mask-24)"></path>
                            <path d="M22.183,7.857 L15.598,10.691 C15.252,10.39 14.902,10.094 14.548,9.806 L21.134,6.973 C21.488,7.261 21.838,7.556 22.183,7.857" id="Fill-554" fill="#F8D33B" mask="url(#mask-24)"></path>
                            <path d="M21.134,6.973 L14.548,9.806 C14.196,9.519 13.84,9.238 13.479,8.965 L20.064,6.132 C20.425,6.405 20.782,6.685 21.134,6.973" id="Fill-555" fill="#F8D13B" mask="url(#mask-24)"></path>
                            <path d="M20.064,6.132 L13.479,8.965 C13.151,8.716 12.82,8.474 12.485,8.236 L19.071,5.403 C19.405,5.641 19.737,5.883 20.064,6.132" id="Fill-556" fill="#F8CF3B" mask="url(#mask-24)"></path>
                            <path d="M19.071,5.403 L12.485,8.236 C12.151,8 11.813,7.77 11.472,7.545 L18.058,4.712 C18.399,4.936 18.736,5.167 19.071,5.403" id="Fill-557" fill="#F8CD3B" mask="url(#mask-24)"></path>
                            <path d="M18.058,4.712 L11.472,7.545 C11.422,7.512 11.372,7.478 11.321,7.446 C10.941,7.198 10.56,6.961 10.18,6.733 L16.766,3.9 C17.146,4.127 17.526,4.365 17.907,4.612 C17.957,4.645 18.008,4.679 18.058,4.712" id="Fill-558" fill="#F8CB3B" mask="url(#mask-24)"></path>
                            <path d="M16.766,3.9 L10.18,6.733 C9.731,6.465 9.283,6.211 8.835,5.971 L15.421,3.138 C15.869,3.378 16.317,3.632 16.766,3.9" id="Fill-559" fill="#F8C93B" mask="url(#mask-24)"></path>
                            <path d="M15.421,3.138 L8.835,5.971 C8.379,5.727 7.922,5.496 7.467,5.279 L14.052,2.446 C14.508,2.662 14.964,2.893 15.421,3.138" id="Fill-560" fill="#F8C73A" mask="url(#mask-24)"></path>
                            <path d="M14.052,2.446 L7.467,5.279 C6.998,5.058 6.53,4.85 6.062,4.657 L12.648,1.824 C13.115,2.017 13.583,2.224 14.052,2.446" id="Fill-561" fill="#F7C43A" mask="url(#mask-24)"></path>
                            <path d="M12.648,1.824 L6.062,4.657 C5.584,4.46 5.106,4.278 4.63,4.113 L11.216,1.279 C11.692,1.445 12.169,1.627 12.648,1.824" id="Fill-562" fill="#F7C239" mask="url(#mask-24)"></path>
                            <path d="M11.216,1.279 L4.63,4.113 C4.114,3.933 3.599,3.771 3.086,3.627 L9.672,0.794 C10.185,0.938 10.699,1.1 11.216,1.279" id="Fill-563" fill="#F6C039" mask="url(#mask-24)"></path>
                            <path d="M9.672,0.794 L3.086,3.627 C2.539,3.474 1.993,3.341 1.451,3.228 L8.036,0.395 C8.579,0.508 9.124,0.641 9.672,0.794" id="Fill-564" fill="#F6BF39" mask="url(#mask-24)"></path>
                            <path d="M8.036,0.395 L1.451,3.228 C0.853,3.104 0.26,3.005 -0.329,2.93 L6.256,0.097 C6.845,0.172 7.439,0.27 8.036,0.395" id="Fill-565" fill="#F5BD39" mask="url(#mask-24)"></path>
                        </g>
                        <g id="Group-578" transform="translate(50.000000, 63.000000)">
                            <mask id="mask-26" fill="white">
                                <use xlink:href="#path-25"></use>
                            </mask>
                            <g id="Clip-568"></g>
                            <path d="M7.517,16.944 L0.931,19.777 C2.667,19.03 4.29,18.013 5.763,16.739 L12.348,13.905 C10.875,15.18 9.253,16.196 7.517,16.944" id="Fill-567" fill="#F4B63A" mask="url(#mask-26)"></path>
                            <path d="M12.348,13.905 L5.763,16.739 C6.391,16.196 6.991,15.606 7.562,14.971 L14.148,12.138 C13.577,12.773 12.976,13.363 12.348,13.905" id="Fill-569" fill="#F4B83A" mask="url(#mask-26)"></path>
                            <path d="M14.148,12.138 L7.562,14.971 C8.014,14.47 8.446,13.939 8.859,13.381 L15.445,10.548 C15.032,11.105 14.599,11.636 14.148,12.138" id="Fill-570" fill="#F5BA39" mask="url(#mask-26)"></path>
                            <path d="M15.445,10.548 L8.859,13.381 C9.216,12.898 9.558,12.395 9.884,11.871 L16.47,9.038 C16.144,9.562 15.802,10.065 15.445,10.548" id="Fill-571" fill="#F5BD39" mask="url(#mask-26)"></path>
                            <path d="M16.47,9.038 L9.884,11.871 C10.176,11.404 10.455,10.92 10.721,10.42 L17.306,7.587 C17.04,8.087 16.761,8.57 16.47,9.038" id="Fill-572" fill="#F6BF39" mask="url(#mask-26)"></path>
                            <path d="M17.306,7.587 L10.721,10.42 C10.965,9.961 11.198,9.487 11.42,9.001 L18.006,6.168 C17.784,6.654 17.55,7.128 17.306,7.587" id="Fill-573" fill="#F6C039" mask="url(#mask-26)"></path>
                            <path d="M18.006,6.168 L11.42,9.001 C11.634,8.533 11.836,8.053 12.028,7.56 L18.614,4.727 C18.422,5.22 18.219,5.7 18.006,6.168" id="Fill-574" fill="#F7C239" mask="url(#mask-26)"></path>
                            <path d="M18.614,4.727 L12.028,7.56 C12.211,7.09 12.384,6.608 12.547,6.116 L19.132,3.283 C18.97,3.775 18.797,4.257 18.614,4.727" id="Fill-575" fill="#F7C43A" mask="url(#mask-26)"></path>
                            <path d="M19.132,3.283 L12.547,6.116 C12.705,5.637 12.854,5.147 12.992,4.647 L19.578,1.814 C19.439,2.314 19.291,2.804 19.132,3.283" id="Fill-576" fill="#F8C73A" mask="url(#mask-26)"></path>
                            <path d="M19.578,1.814 L12.992,4.647 C13.122,4.181 13.242,3.704 13.353,3.219 L19.938,0.386 C19.827,0.871 19.707,1.347 19.578,1.814" id="Fill-577" fill="#F8C93B" mask="url(#mask-26)"></path>
                        </g>
                        <path d="M15.206,26.631 C19.499,9.638 34.857,3.114 48.766,13.9 C61.784,23.995 69.792,46.849 67.348,62.836 C64.769,79.7 51.301,87.224 36.493,78.235 C20.559,68.562 10.644,44.685 15.206,26.631" id="Fill-579" fill="#E99E34"></path>
                        <polyline id="Fill-580" fill="#BF862F" points="29.32 39.709 26.242 41.354 27.121 37.525 30.199 35.879 29.32 39.709"></polyline>
                        <polyline id="Fill-581" fill="#BF862F" points="30.199 35.879 27.048 37.55 22.119 34.34 25.27 32.669 30.199 35.879"></polyline>
                        <path d="M33.021,45.278 L38.993,49.168 L40.326,43.355 C40.862,41.02 41.041,38.264 38.463,36.584 C35.89,34.908 34.917,37.011 34.354,39.466 L33.021,45.278 Z M51.197,49.728 C51.826,46.987 51.971,44.019 48.966,42.06 C45.894,40.06 44.843,42.673 44.186,45.533 L42.786,51.639 L49.722,56.156 L51.197,49.728 Z M43.309,37.159 C44.753,34.612 47.214,33.583 50.751,35.887 C54.407,38.268 56.238,42.188 56.455,46.273 L62.269,50.06 L60.931,55.895 L55.667,52.468 L54.789,56.298 L60.052,59.726 L58.712,65.568 L53.449,62.14 L52.732,65.264 L27.263,48.676 L27.98,45.552 L23.051,42.342 L24.392,36.499 L29.32,39.709 L30.199,35.879 L25.27,32.669 L26.609,26.834 L32.259,30.515 C33.783,28.443 36.017,27.844 38.964,29.763 C41.431,31.37 42.923,34.172 43.309,37.159 Z" id="Fill-582" fill="#F9CB46"></path>
                        <polyline id="Fill-583" fill="#BF862F" points="25.27 32.669 22.119 34.34 23.458 28.505 26.609 26.834 25.27 32.669"></polyline>
                        <polyline id="Fill-584" fill="#BF862F" points="27.263 48.676 24.108 50.348 24.824 47.224 27.98 45.552 27.263 48.676"></polyline>
                        <polyline id="Fill-585" fill="#BF862F" points="52.732 65.264 49.597 66.929 24.128 50.341 27.263 48.676 52.732 65.264"></polyline>
                        <polyline id="Fill-586" fill="#BF862F" points="27.98 45.552 24.779 47.239 19.85 44.028 23.051 42.342 27.98 45.552"></polyline>
                        <polyline id="Fill-587" fill="#BF862F" points="23.051 42.342 19.85 44.028 21.181 38.158 24.392 36.499 23.051 42.342"></polyline>
                        <g id="Group-599" transform="translate(1.000000, 2.000000)">
                            <mask id="mask-28" fill="white">
                                <use xlink:href="#path-27"></use>
                            </mask>
                            <g id="Clip-589"></g>
                            <path d="M7.501,21.369 L0.915,24.203 C1.056,23.591 1.207,22.989 1.371,22.4 L7.956,19.566 C7.793,20.156 7.641,20.758 7.501,21.369" id="Fill-588" fill="#F8C93B" mask="url(#mask-28)"></path>
                            <path d="M7.956,19.566 L1.371,22.4 C1.545,21.769 1.733,21.15 1.933,20.546 L8.518,17.713 C8.318,18.317 8.131,18.935 7.956,19.566" id="Fill-590" fill="#F8C73A" mask="url(#mask-28)"></path>
                            <path d="M8.518,17.713 L1.933,20.546 C2.138,19.925 2.356,19.316 2.587,18.724 L9.173,15.891 C8.942,16.483 8.724,17.091 8.518,17.713" id="Fill-591" fill="#F7C43A" mask="url(#mask-28)"></path>
                            <path d="M9.173,15.891 L2.587,18.724 C2.83,18.102 3.085,17.496 3.354,16.906 L9.94,14.072 C9.671,14.663 9.415,15.269 9.173,15.891" id="Fill-592" fill="#F7C239" mask="url(#mask-28)"></path>
                            <path d="M9.94,14.072 L3.354,16.906 C3.634,16.292 3.929,15.694 4.237,15.114 L10.823,12.281 C10.515,12.861 10.22,13.459 9.94,14.072" id="Fill-593" fill="#F6C039" mask="url(#mask-28)"></path>
                            <path d="M10.823,12.281 L4.237,15.114 C4.573,14.484 4.925,13.873 5.292,13.284 L11.878,10.45 C11.51,11.04 11.158,11.65 10.823,12.281" id="Fill-594" fill="#F6BF39" mask="url(#mask-28)"></path>
                            <path d="M11.878,10.45 L5.292,13.284 C5.704,12.623 6.136,11.988 6.586,11.379 L13.171,8.546 C12.721,9.154 12.29,9.79 11.878,10.45" id="Fill-595" fill="#F5BD39" mask="url(#mask-28)"></path>
                            <path d="M13.171,8.546 L6.586,11.379 C7.106,10.675 7.652,10.006 8.222,9.373 L14.807,6.54 C14.238,7.173 13.692,7.842 13.171,8.546" id="Fill-596" fill="#F5BA39" mask="url(#mask-28)"></path>
                            <path d="M14.807,6.54 L8.222,9.373 C8.942,8.572 9.7,7.828 10.492,7.144 L17.078,4.31 C16.286,4.995 15.528,5.738 14.807,6.54" id="Fill-597" fill="#F4B83A" mask="url(#mask-28)"></path>
                            <path d="M17.078,4.31 L10.492,7.144 C12.35,5.536 14.396,4.253 16.587,3.31 L23.172,0.477 C20.981,1.42 18.935,2.703 17.078,4.31" id="Fill-598" fill="#F4B63A" mask="url(#mask-28)"></path>
                        </g>
                        <g id="Group-647" transform="translate(0.000000, 23.000000)">
                            <mask id="mask-30" fill="white">
                                <use xlink:href="#path-29"></use>
                            </mask>
                            <g id="Clip-601"></g>
                            <path d="M61.373,65.908 L54.788,68.741 C52.569,69.695 50.202,70.301 47.73,70.54 L54.315,67.707 C56.788,67.468 59.155,66.862 61.373,65.908" id="Fill-600" fill="#F4B63A" mask="url(#mask-30)"></path>
                            <path d="M54.315,67.707 L47.73,70.54 C46.661,70.644 45.572,70.679 44.466,70.644 L51.052,67.81 C52.157,67.846 53.246,67.81 54.315,67.707" id="Fill-602" fill="#F4B83A" mask="url(#mask-30)"></path>
                            <path d="M51.052,67.81 L44.466,70.644 C43.618,70.617 42.759,70.549 41.893,70.438 L48.478,67.605 C49.345,67.716 50.203,67.783 51.052,67.81" id="Fill-603" fill="#F5BA39" mask="url(#mask-30)"></path>
                            <path d="M48.478,67.605 L41.893,70.438 C41.15,70.345 40.401,70.219 39.647,70.062 L46.233,67.229 C46.987,67.386 47.735,67.511 48.478,67.605" id="Fill-604" fill="#F5BD39" mask="url(#mask-30)"></path>
                            <path d="M46.233,67.229 L39.647,70.062 C38.963,69.921 38.275,69.753 37.583,69.559 L44.169,66.726 C44.86,66.92 45.549,67.088 46.233,67.229" id="Fill-605" fill="#F6BF39" mask="url(#mask-30)"></path>
                            <path d="M44.169,66.726 L37.583,69.559 C36.937,69.378 36.288,69.174 35.636,68.946 L42.222,66.113 C42.873,66.341 43.522,66.545 44.169,66.726" id="Fill-606" fill="#F6C039" mask="url(#mask-30)"></path>
                            <path d="M42.222,66.113 L35.636,68.946 C35.035,68.737 34.433,68.508 33.829,68.26 L40.414,65.427 C41.018,65.675 41.621,65.904 42.222,66.113" id="Fill-607" fill="#F7C239" mask="url(#mask-30)"></path>
                            <path d="M40.414,65.427 L33.829,68.26 C33.239,68.017 32.649,67.755 32.058,67.475 L38.643,64.642 C39.234,64.922 39.825,65.184 40.414,65.427" id="Fill-608" fill="#F7C43A" mask="url(#mask-30)"></path>
                            <path d="M38.643,64.642 L32.058,67.475 C31.482,67.202 30.907,66.911 30.331,66.602 L36.916,63.769 C37.493,64.078 38.068,64.369 38.643,64.642" id="Fill-609" fill="#F8C73A" mask="url(#mask-30)"></path>
                            <path d="M36.916,63.769 L30.331,66.602 C29.766,66.3 29.2,65.979 28.635,65.641 L35.221,62.808 C35.786,63.145 36.352,63.466 36.916,63.769" id="Fill-610" fill="#F8C93B" mask="url(#mask-30)"></path>
                            <path d="M35.221,62.808 L28.635,65.641 C28.155,65.354 27.675,65.055 27.195,64.742 C27.131,64.7 27.068,64.659 27.004,64.617 L33.59,61.783 C33.653,61.825 33.717,61.867 33.781,61.908 C34.26,62.221 34.74,62.52 35.221,62.808" id="Fill-611" fill="#F8CB3B" mask="url(#mask-30)"></path>
                            <path d="M33.59,61.783 L27.004,64.617 C26.574,64.333 26.147,64.042 25.725,63.743 L32.31,60.91 C32.733,61.209 33.159,61.5 33.59,61.783" id="Fill-612" fill="#F8CD3B" mask="url(#mask-30)"></path>
                            <path d="M32.31,60.91 L25.725,63.743 C25.302,63.444 24.884,63.138 24.47,62.823 L31.055,59.99 C31.469,60.304 31.888,60.61 32.31,60.91" id="Fill-613" fill="#F8CF3B" mask="url(#mask-30)"></path>
                            <path d="M31.055,59.99 L24.47,62.823 C24.014,62.478 23.564,62.124 23.119,61.762 L29.705,58.929 C30.149,59.291 30.6,59.644 31.055,59.99" id="Fill-614" fill="#F8D13B" mask="url(#mask-30)"></path>
                            <path d="M29.705,58.929 L23.119,61.762 C22.672,61.397 22.23,61.024 21.794,60.644 L28.379,57.81 C28.816,58.191 29.258,58.564 29.705,58.929" id="Fill-615" fill="#F8D33B" mask="url(#mask-30)"></path>
                            <path d="M28.379,57.81 L21.794,60.644 C21.373,60.275 20.956,59.899 20.545,59.517 L27.131,56.684 C27.542,57.066 27.958,57.442 28.379,57.81" id="Fill-616" fill="#F8D63C" mask="url(#mask-30)"></path>
                            <path d="M27.131,56.684 L20.545,59.517 C20.135,59.134 19.729,58.744 19.329,58.347 L25.915,55.514 C26.315,55.91 26.72,56.301 27.131,56.684" id="Fill-617" fill="#F7D83C" mask="url(#mask-30)"></path>
                            <path d="M25.915,55.514 L19.329,58.347 C18.938,57.959 18.552,57.563 18.171,57.162 L24.757,54.329 C25.138,54.73 25.524,55.125 25.915,55.514" id="Fill-618" fill="#F7D93C" mask="url(#mask-30)"></path>
                            <path d="M24.757,54.329 L18.171,57.162 C17.791,56.762 17.416,56.355 17.047,55.942 L23.632,53.108 C24.002,53.521 24.377,53.929 24.757,54.329" id="Fill-619" fill="#F8DB3C" mask="url(#mask-30)"></path>
                            <path d="M23.632,53.108 L17.047,55.942 C16.676,55.527 16.31,55.107 15.95,54.681 L22.536,51.847 C22.896,52.273 23.262,52.694 23.632,53.108" id="Fill-620" fill="#F7DE3D" mask="url(#mask-30)"></path>
                            <path d="M22.536,51.847 L15.95,54.681 C15.59,54.253 15.234,53.82 14.885,53.382 L21.47,50.549 C21.82,50.987 22.175,51.42 22.536,51.847" id="Fill-621" fill="#F8E03C" mask="url(#mask-30)"></path>
                            <path d="M21.47,50.549 L14.885,53.382 C14.524,52.93 14.169,52.471 13.82,52.007 L20.406,49.174 C20.755,49.638 21.11,50.096 21.47,50.549" id="Fill-622" fill="#F8E854" mask="url(#mask-30)"></path>
                            <path d="M20.406,49.174 L13.82,52.007 C13.467,51.536 13.119,51.06 12.778,50.578 L19.364,47.744 C19.705,48.227 20.052,48.703 20.406,49.174" id="Fill-623" fill="#F8EB62" mask="url(#mask-30)"></path>
                            <path d="M19.364,47.744 L12.778,50.578 C12.403,50.049 12.036,49.513 11.677,48.971 L18.263,46.138 C18.622,46.68 18.989,47.216 19.364,47.744" id="Fill-624" fill="#F9EC6C" mask="url(#mask-30)"></path>
                            <path d="M18.263,46.138 L11.677,48.971 C11.302,48.405 10.935,47.833 10.578,47.254 L17.163,44.421 C17.521,44.999 17.888,45.571 18.263,46.138" id="Fill-625" fill="#F9EE75" mask="url(#mask-30)"></path>
                            <path d="M17.163,44.421 L10.578,47.254 C10.121,46.515 9.678,45.766 9.249,45.008 L15.835,42.175 C16.264,42.933 16.706,43.682 17.163,44.421" id="Fill-626" fill="#F9F07D" mask="url(#mask-30)"></path>
                            <path d="M15.835,42.175 L9.249,45.008 C8.646,43.939 8.072,42.853 7.527,41.751 L14.113,38.918 C14.658,40.02 15.232,41.106 15.835,42.175" id="Fill-627" fill="#FBF084" mask="url(#mask-30)"></path>
                            <path d="M14.113,38.918 L7.527,41.751 C6.448,39.567 5.484,37.322 4.647,35.037 L11.233,32.204 C12.07,34.489 13.033,36.734 14.113,38.918" id="Fill-628" fill="#FBF18B" mask="url(#mask-30)"></path>
                            <path d="M11.233,32.204 L4.647,35.037 C4.224,33.88 3.832,32.713 3.474,31.539 L10.059,28.705 C10.417,29.88 10.809,31.047 11.233,32.204" id="Fill-629" fill="#FBF084" mask="url(#mask-30)"></path>
                            <path d="M10.059,28.705 L3.474,31.539 C3.229,30.738 3,29.934 2.788,29.127 L9.373,26.294 C9.586,27.101 9.815,27.904 10.059,28.705" id="Fill-630" fill="#F9F07D" mask="url(#mask-30)"></path>
                            <path d="M9.373,26.294 L2.788,29.127 C2.6,28.417 2.425,27.704 2.262,26.99 L8.848,24.157 C9.011,24.871 9.185,25.584 9.373,26.294" id="Fill-631" fill="#F9EE75" mask="url(#mask-30)"></path>
                            <path d="M8.848,24.157 L2.262,26.99 C2.124,26.384 1.995,25.776 1.875,25.168 L8.46,22.335 C8.581,22.942 8.709,23.551 8.848,24.157" id="Fill-632" fill="#F9EC6C" mask="url(#mask-30)"></path>
                            <path d="M8.46,22.335 L1.875,25.168 C1.757,24.569 1.648,23.97 1.548,23.37 L8.133,20.537 C8.233,21.137 8.342,21.736 8.46,22.335" id="Fill-633" fill="#F8EB62" mask="url(#mask-30)"></path>
                            <path d="M8.133,20.537 L1.548,23.37 C1.454,22.809 1.368,22.247 1.291,21.685 L7.876,18.852 C7.954,19.414 8.04,19.976 8.133,20.537" id="Fill-634" fill="#F8E854" mask="url(#mask-30)"></path>
                            <path d="M7.876,18.852 L1.291,21.685 C1.213,21.125 1.144,20.564 1.082,20.004 L7.668,17.171 C7.729,17.731 7.799,18.292 7.876,18.852" id="Fill-635" fill="#F8E03C" mask="url(#mask-30)"></path>
                            <path d="M7.668,17.171 L1.082,20.004 C1.022,19.451 0.97,18.898 0.925,18.347 L7.511,15.514 C7.555,16.065 7.608,16.618 7.668,17.171" id="Fill-636" fill="#F7DE3D" mask="url(#mask-30)"></path>
                            <path d="M7.511,15.514 L0.925,18.347 C0.881,17.794 0.845,17.242 0.817,16.691 L7.402,13.858 C7.43,14.409 7.467,14.961 7.511,15.514" id="Fill-637" fill="#F8DB3C" mask="url(#mask-30)"></path>
                            <path d="M7.402,13.858 L0.817,16.691 C0.788,16.135 0.768,15.578 0.757,15.022 L7.342,12.189 C7.354,12.744 7.374,13.301 7.402,13.858" id="Fill-638" fill="#F7D93C" mask="url(#mask-30)"></path>
                            <path d="M7.342,12.189 L0.757,15.022 C0.746,14.467 0.743,13.913 0.748,13.36 L7.334,10.527 C7.328,11.08 7.331,11.634 7.342,12.189" id="Fill-639" fill="#F7D83C" mask="url(#mask-30)"></path>
                            <path d="M7.334,10.527 L0.748,13.36 C0.754,12.79 0.769,12.222 0.794,11.654 L7.38,8.821 C7.355,9.389 7.34,9.957 7.334,10.527" id="Fill-640" fill="#F8D63C" mask="url(#mask-30)"></path>
                            <path d="M7.38,8.821 L0.794,11.654 C0.819,11.087 0.853,10.521 0.896,9.958 L7.482,7.125 C7.438,7.688 7.404,8.254 7.38,8.821" id="Fill-641" fill="#F8D33B" mask="url(#mask-30)"></path>
                            <path d="M7.482,7.125 L0.896,9.958 C0.942,9.375 0.997,8.794 1.063,8.216 L7.648,5.383 C7.582,5.961 7.527,6.542 7.482,7.125" id="Fill-642" fill="#F8D13B" mask="url(#mask-30)"></path>
                            <path d="M7.648,5.383 L1.063,8.216 C1.129,7.637 1.205,7.06 1.292,6.486 L7.877,3.653 C7.79,4.227 7.714,4.803 7.648,5.383" id="Fill-643" fill="#F8CF3B" mask="url(#mask-30)"></path>
                            <path d="M7.877,3.653 L1.292,6.486 C1.373,5.948 1.465,5.412 1.565,4.88 L8.151,2.046 C8.05,2.579 7.959,3.115 7.877,3.653" id="Fill-644" fill="#F8CD3B" mask="url(#mask-30)"></path>
                            <path d="M8.151,2.046 L1.565,4.88 C1.665,4.347 1.775,3.817 1.895,3.291 L8.48,0.458 C8.361,0.984 8.251,1.514 8.151,2.046" id="Fill-645" fill="#F8CB3B" mask="url(#mask-30)"></path>
                            <path d="M8.48,0.458 L1.895,3.291 C1.902,3.262 1.909,3.232 1.915,3.203 L8.501,0.369 C8.494,0.399 8.487,0.429 8.48,0.458" id="Fill-646" fill="#F8C93B" mask="url(#mask-30)"></path>
                        </g>
                        <path d="M69.938,63.386 C73.877,46.219 64.902,24.38 49.907,14.612 C34.905,4.842 19.553,10.836 15.614,28.003 C11.676,45.17 20.644,67.005 35.646,76.775 C50.642,86.543 66,80.553 69.938,63.386 Z M8.501,23.369 C13.469,1.713 32.84,-5.852 51.772,6.48 C70.699,18.807 82.014,46.357 77.046,68.015 C72.078,89.672 52.706,97.235 33.781,84.908 C14.848,72.577 3.533,45.026 8.501,23.369 Z" id="Fill-648" fill="#F4B83A"></path>
                    </g>
                </g>
            </g>
        </g>
    </g>
</svg>