<?xml version="1.0" encoding="UTF-8"?>
<svg width="212px" height="50px" viewBox="0 0 212 50" version="1.1" xmlns="http://www.w3.org/2000/svg" xmlns:xlink="http://www.w3.org/1999/xlink">
    <!-- Generator: Sketch 50.2 (55047) - http://www.bohemiancoding.com/sketch -->
    <title>logo</title>
    <desc>Created with Sketch.</desc>
    <defs>
        <circle id="path-1" cx="25" cy="25" r="25"></circle>
        <filter x="-14.0%" y="-9.7%" width="126.0%" height="125.8%" filterUnits="objectBoundingBox" id="filter-3">
            <feOffset dx="-1" dy="4" in="SourceAlpha" result="shadowOffsetOuter1"></feOffset>
            <feColorMatrix values="0 0 0 0 0   0 0 0 0 0   0 0 0 0 0  0 0 0 0.2 0" type="matrix" in="shadowOffsetOuter1" result="shadowMatrixOuter1"></feColorMatrix>
            <feMerge>
                <feMergeNode in="shadowMatrixOuter1"></feMergeNode>
                <feMergeNode in="SourceGraphic"></feMergeNode>
            </feMerge>
        </filter>
    </defs>
    <g id="ICO" stroke="none" stroke-width="1" fill="none" fill-rule="evenodd">
        <g id="01-Ñontract-ICO-hover" transform="translate(-119.000000, -24.000000)">
            <g id="header" transform="translate(119.000000, 24.000000)">
                <g id="logo">
                    <path d="M78.95,16.6 L78.95,32 L75.386,32 L75.386,25.686 L68.39,25.686 L68.39,32 L64.826,32 L64.826,16.6 L68.39,16.6 L68.39,22.672 L75.386,22.672 L75.386,16.6 L78.95,16.6 Z M94.372,20.164 L94.372,32 L91.094,32 L91.094,30.636 C90.2433291,31.6626718 89.0113414,32.176 87.398,32.176 C86.2833278,32.176 85.2750045,31.9266692 84.373,31.428 C83.4709955,30.9293308 82.7633359,30.2180046 82.25,29.294 C81.7366641,28.3699954 81.48,27.2993394 81.48,26.082 C81.48,24.8646606 81.7366641,23.7940046 82.25,22.87 C82.7633359,21.9459954 83.4709955,21.2346692 84.373,20.736 C85.2750045,20.2373308 86.2833278,19.988 87.398,19.988 C88.9086742,19.988 90.0893291,20.4646619 90.94,21.418 L90.94,20.164 L94.372,20.164 Z M87.992,29.36 C88.8573377,29.36 89.5759971,29.063003 90.148,28.469 C90.7200029,27.874997 91.006,27.0793383 91.006,26.082 C91.006,25.0846617 90.7200029,24.289003 90.148,23.695 C89.5759971,23.100997 88.8573377,22.804 87.992,22.804 C87.1119956,22.804 86.3860029,23.100997 85.814,23.695 C85.2419971,24.289003 84.956,25.0846617 84.956,26.082 C84.956,27.0793383 85.2419971,27.874997 85.814,28.469 C86.3860029,29.063003 87.1119956,29.36 87.992,29.36 Z M101.522,32.176 C100.539328,32.176 99.5786714,32.0550012 98.64,31.813 C97.7013286,31.5709988 96.9533361,31.2666685 96.396,30.9 L97.54,28.436 C98.0680026,28.773335 98.7059963,29.0483323 99.454,29.261 C100.202004,29.4736677 100.93533,29.58 101.654,29.58 C103.106007,29.58 103.832,29.2206703 103.832,28.502 C103.832,28.164665 103.634002,27.9226674 103.238,27.776 C102.841998,27.6293326 102.233337,27.5046672 101.412,27.402 C100.443995,27.2553326 99.6446698,27.0866676 99.014,26.896 C98.3833302,26.7053324 97.8370023,26.3680024 97.375,25.884 C96.9129977,25.3999976 96.682,24.7106711 96.682,23.816 C96.682,23.0679963 96.8983312,22.4043362 97.331,21.825 C97.7636688,21.2456638 98.3943292,20.7946683 99.223,20.472 C100.051671,20.1493317 101.030661,19.988 102.16,19.988 C102.996004,19.988 103.828329,20.0796658 104.657,20.263 C105.485671,20.4463342 106.171331,20.6993317 106.714,21.022 L105.57,23.464 C104.528661,22.8773304 103.392006,22.584 102.16,22.584 C101.426663,22.584 100.876668,22.6866656 100.51,22.892 C100.143332,23.0973344 99.96,23.3613317 99.96,23.684 C99.96,24.0506685 100.157998,24.3073326 100.554,24.454 C100.950002,24.6006674 101.580662,24.7399993 102.446,24.872 C103.414005,25.0333341 104.205997,25.2056658 104.822,25.389 C105.438003,25.5723343 105.973331,25.9059976 106.428,26.39 C106.882669,26.8740024 107.11,27.5486623 107.11,28.414 C107.11,29.147337 106.890002,29.7999971 106.45,30.372 C106.009998,30.9440029 105.368338,31.3876651 104.525,31.703 C103.681662,32.0183349 102.680672,32.176 101.522,32.176 Z M116.416,19.988 C117.882674,19.988 119.066995,20.4279956 119.969,21.308 C120.871005,22.1880044 121.322,23.4933247 121.322,25.224 L121.322,32 L117.89,32 L117.89,25.752 C117.89,24.8133286 117.684669,24.1130023 117.274,23.651 C116.863331,23.1889977 116.269337,22.958 115.492,22.958 C114.626662,22.958 113.937336,23.225664 113.424,23.761 C112.910664,24.296336 112.654,25.0919947 112.654,26.148 L112.654,32 L109.222,32 L109.222,15.676 L112.654,15.676 L112.654,21.396 C113.108669,20.9413311 113.658663,20.5930012 114.304,20.351 C114.949337,20.1089988 115.65333,19.988 116.416,19.988 Z M130.892,16.6 L134.456,16.6 L134.456,29.096 L142.178,29.096 L142.178,32 L130.892,32 L130.892,16.6 Z M149.57,32.176 C148.323327,32.176 147.205005,31.9156693 146.215,31.395 C145.224995,30.8743307 144.451336,30.1520046 143.894,29.228 C143.336664,28.3039954 143.058,27.2553392 143.058,26.082 C143.058,24.9086608 143.336664,23.8600046 143.894,22.936 C144.451336,22.0119954 145.224995,21.2896693 146.215,20.769 C147.205005,20.2483307 148.323327,19.988 149.57,19.988 C150.816673,19.988 151.931328,20.2483307 152.914,20.769 C153.896672,21.2896693 154.666664,22.0119954 155.224,22.936 C155.781336,23.8600046 156.06,24.9086608 156.06,26.082 C156.06,27.2553392 155.781336,28.3039954 155.224,29.228 C154.666664,30.1520046 153.896672,30.8743307 152.914,31.395 C151.931328,31.9156693 150.816673,32.176 149.57,32.176 Z M149.57,29.36 C150.450004,29.36 151.172331,29.063003 151.737,28.469 C152.301669,27.874997 152.584,27.0793383 152.584,26.082 C152.584,25.0846617 152.301669,24.289003 151.737,23.695 C151.172331,23.100997 150.450004,22.804 149.57,22.804 C148.689996,22.804 147.964003,23.100997 147.392,23.695 C146.819997,24.289003 146.534,25.0846617 146.534,26.082 C146.534,27.0793383 146.819997,27.874997 147.392,28.469 C147.964003,29.063003 148.689996,29.36 149.57,29.36 Z M165.476,31.428 C165.138665,31.6773346 164.724336,31.8643327 164.233,31.989 C163.741664,32.1136673 163.232003,32.176 162.704,32.176 C161.281326,32.176 160.18867,31.8166703 159.426,31.098 C158.66333,30.3793297 158.282,29.3233403 158.282,27.93 L158.282,17.546 L161.714,17.546 L161.714,20.428 L164.64,20.428 L164.64,23.068 L161.714,23.068 L161.714,27.886 C161.714,28.3846692 161.838665,28.7696653 162.088,29.041 C162.337335,29.3123347 162.696664,29.448 163.166,29.448 C163.694003,29.448 164.163331,29.3013348 164.574,29.008 L165.476,31.428 Z M174.54,31.428 C174.202665,31.6773346 173.788336,31.8643327 173.297,31.989 C172.805664,32.1136673 172.296003,32.176 171.768,32.176 C170.345326,32.176 169.25267,31.8166703 168.49,31.098 C167.72733,30.3793297 167.346,29.3233403 167.346,27.93 L167.346,17.546 L170.778,17.546 L170.778,20.428 L173.704,20.428 L173.704,23.068 L170.778,23.068 L170.778,27.886 C170.778,28.3846692 170.902665,28.7696653 171.152,29.041 C171.401335,29.3123347 171.760664,29.448 172.23,29.448 C172.758003,29.448 173.227331,29.3013348 173.638,29.008 L174.54,31.428 Z M182.438,29.426 C183.054003,29.426 183.600331,29.3343342 184.077,29.151 C184.553669,28.9676658 184.997331,28.678002 185.408,28.282 L187.234,30.262 C186.119328,31.5380064 184.491344,32.176 182.35,32.176 C181.015327,32.176 179.834672,31.9156693 178.808,31.395 C177.781328,30.8743307 176.989336,30.1520046 176.432,29.228 C175.874664,28.3039954 175.596,27.2553392 175.596,26.082 C175.596,24.9233275 175.870997,23.878338 176.421,22.947 C176.971003,22.015662 177.726329,21.2896693 178.687,20.769 C179.647671,20.2483307 180.729327,19.988 181.932,19.988 C183.061339,19.988 184.087995,20.226331 185.012,20.703 C185.936005,21.1796691 186.672997,21.8689955 187.223,22.771 C187.773003,23.6730045 188.048,24.7399938 188.048,25.972 L179.292,27.666 C179.541335,28.2526696 179.933664,28.6926652 180.469,28.986 C181.004336,29.2793348 181.660663,29.426 182.438,29.426 Z M181.932,22.584 C181.066662,22.584 180.362669,22.8626639 179.82,23.42 C179.277331,23.9773361 178.991333,24.7473284 178.962,25.73 L184.726,24.608 C184.564666,23.9919969 184.234669,23.5006685 183.736,23.134 C183.237331,22.7673315 182.636004,22.584 181.932,22.584 Z M193.636,21.726 C194.046669,21.1539971 194.60033,20.7213348 195.297,20.428 C195.99367,20.1346652 196.796662,19.988 197.706,19.988 L197.706,23.156 C197.324665,23.1266665 197.068001,23.112 196.936,23.112 C195.953328,23.112 195.183336,23.3869973 194.626,23.937 C194.068664,24.4870028 193.79,25.3119945 193.79,26.412 L193.79,32 L190.358,32 L190.358,20.164 L193.636,20.164 L193.636,21.726 Z M211.764,20.164 L211.764,30.02 C211.764,32.1906775 211.214006,33.8039947 210.114,34.86 C209.013994,35.9160053 207.415344,36.444 205.318,36.444 C204.203328,36.444 203.151005,36.3046681 202.161,36.026 C201.170995,35.7473319 200.33867,35.3440026 199.664,34.816 L201.028,32.352 C201.526669,32.7626687 202.13533,33.0853322 202.854,33.32 C203.57267,33.5546678 204.298663,33.672 205.032,33.672 C206.176006,33.672 207.011997,33.4080026 207.54,32.88 C208.068003,32.3519974 208.332,31.5453388 208.332,30.46 L208.332,30.064 C207.891998,30.5040022 207.371336,30.8413322 206.77,31.076 C206.168664,31.3106678 205.523337,31.428 204.834,31.428 C203.279326,31.428 202.047338,30.9843378 201.138,30.097 C200.228662,29.2096622 199.774,27.8786755 199.774,26.104 L199.774,20.164 L203.206,20.164 L203.206,25.598 C203.206,27.5193429 204.005325,28.48 205.604,28.48 C206.425337,28.48 207.085331,28.212336 207.584,27.677 C208.082669,27.141664 208.332,26.3460053 208.332,25.29 L208.332,20.164 L211.764,20.164 Z" id="Hash-Lottery" fill="#FFFFFF"></path>
                    <mask id="mask-2" fill="white">
                        <use xlink:href="#path-1"></use>
                    </mask>
                    <use id="Mask" fill="#FFFFFF" xlink:href="#path-1"></use>
                    <g id="icon" filter="url(#filter-3)" mask="url(#mask-2)" fill="#E60041" fill-rule="nonzero">
                        <g transform="translate(27.234694, 28.907234) rotate(-30.000000) translate(-27.234694, -28.907234) translate(2.234694, -2.092766)">
                            <path d="M34.3593867,34.2363908 L49.0365712,31.3362161 C51.2038057,30.907976 53.3078536,32.3177096 53.7360937,34.4849441 C54.1643338,36.6521786 52.7546002,38.7562265 50.5873657,39.1844666 L30.1753324,43.217833 C27.4156884,43.7631317 24.9701335,41.3649013 25.4614089,38.5951298 L32.4114339,-0.58855319 C32.7972478,-2.76374117 34.8733501,-4.21431544 37.048538,-3.82850151 C39.223726,-3.44268758 40.6743003,-1.36658533 40.2884864,0.808602643 L34.3593867,34.2363908 Z" id="Path-2-Copy"></path>
                            <path d="M11.5517516,9.46793178 C11.8974701,7.28601201 13.9465257,5.79747672 16.1284455,6.14319517 C18.3103653,6.48891361 19.7989005,8.53796923 19.4531821,10.719889 L11.2754258,62.331854 C10.9297074,64.5137737 8.88065175,66.002309 6.69873198,65.6565906 C4.51681222,65.3108721 3.02827693,63.2618165 3.37399537,61.0798967 L11.5517516,9.46793178 Z" id="Path-2" transform="translate(11.413589, 35.899893) rotate(1.000000) translate(-11.413589, -35.899893) "></path>
                            <path d="M1.46740247,34.5504388 C-0.70009783,34.9773318 -2.80326909,33.5662907 -3.23016202,31.3987904 C-3.65705495,29.2312901 -2.24601388,27.1281188 -0.0785135801,26.7012259 L39.4428163,18.9174317 C41.6103166,18.4905388 43.7134879,19.9015798 44.1403808,22.0690801 C44.5672738,24.2365804 43.1562327,26.3397517 40.9887324,26.7666446 L1.46740247,34.5504388 Z" id="Line"></path>
                        </g>
                    </g>
                </g>
            </g>
        </g>
    </g>
</svg>