<?xml version="1.0" encoding="UTF-8"?>
<svg width="172px" height="40px" viewBox="0 0 172 40" version="1.1" xmlns="http://www.w3.org/2000/svg" xmlns:xlink="http://www.w3.org/1999/xlink">
    <!-- Generator: Sketch 50.2 (55047) - http://www.bohemiancoding.com/sketch -->
    <title>logo</title>
    <desc>Created with Sketch.</desc>
    <defs>
        <circle id="path-1" cx="20" cy="20" r="20"></circle>
        <filter x="-15.0%" y="-12.0%" width="130.0%" height="130.0%" filterUnits="objectBoundingBox" id="filter-3">
            <feOffset dx="-1" dy="4" in="SourceAlpha" result="shadowOffsetOuter1"></feOffset>
            <feColorMatrix values="0 0 0 0 0   0 0 0 0 0   0 0 0 0 0  0 0 0 0.2 0" type="matrix" in="shadowOffsetOuter1" result="shadowMatrixOuter1"></feColorMatrix>
            <feMerge>
                <feMergeNode in="shadowMatrixOuter1"></feMergeNode>
                <feMergeNode in="SourceGraphic"></feMergeNode>
            </feMerge>
        </filter>
    </defs>
    <g id="shareholder's-cabinet" stroke="none" stroke-width="1" fill="none" fill-rule="evenodd">
        <g id="02-2-main-page" transform="translate(-119.000000, -15.000000)">
            <g id="header">
                <g id="logo" transform="translate(119.000000, 15.000000)">
                    <path d="M63.05,13.4 L63.05,26 L60.134,26 L60.134,20.834 L54.41,20.834 L54.41,26 L51.494,26 L51.494,13.4 L54.41,13.4 L54.41,18.368 L60.134,18.368 L60.134,13.4 L63.05,13.4 Z M75.668,16.316 L75.668,26 L72.986,26 L72.986,24.884 C72.2899965,25.7240042 71.2820066,26.144 69.962,26.144 C69.0499954,26.144 68.2250037,25.940002 67.487,25.532 C66.7489963,25.123998 66.1700021,24.5420038 65.75,23.786 C65.3299979,23.0299962 65.12,22.154005 65.12,21.158 C65.12,20.161995 65.3299979,19.2860038 65.75,18.53 C66.1700021,17.7739962 66.7489963,17.192002 67.487,16.784 C68.2250037,16.375998 69.0499954,16.172 69.962,16.172 C71.1980062,16.172 72.1639965,16.5619961 72.86,17.342 L72.86,16.316 L75.668,16.316 Z M70.448,23.84 C71.1560035,23.84 71.7439977,23.5970024 72.212,23.111 C72.6800023,22.6249976 72.914,21.9740041 72.914,21.158 C72.914,20.3419959 72.6800023,19.6910024 72.212,19.205 C71.7439977,18.7189976 71.1560035,18.476 70.448,18.476 C69.7279964,18.476 69.1340023,18.7189976 68.666,19.205 C68.1979977,19.6910024 67.964,20.3419959 67.964,21.158 C67.964,21.9740041 68.1979977,22.6249976 68.666,23.111 C69.1340023,23.5970024 69.7279964,23.84 70.448,23.84 Z M81.518,26.144 C80.713996,26.144 79.9280038,26.045001 79.16,25.847 C78.3919962,25.648999 77.7800023,25.4000015 77.324,25.1 L78.26,23.084 C78.6920022,23.3600014 79.2139969,23.5849991 79.826,23.759 C80.4380031,23.9330009 81.0379971,24.02 81.626,24.02 C82.8140059,24.02 83.408,23.7260029 83.408,23.138 C83.408,22.8619986 83.2460016,22.6640006 82.922,22.544 C82.5979984,22.4239994 82.1000034,22.3220004 81.428,22.238 C80.635996,22.1179994 79.9820026,21.9800008 79.466,21.824 C78.9499974,21.6679992 78.5030019,21.392002 78.125,20.996 C77.7469981,20.599998 77.558,20.0360037 77.558,19.304 C77.558,18.6919969 77.7349982,18.1490024 78.089,17.675 C78.4430018,17.2009976 78.9589966,16.8320013 79.637,16.568 C80.3150034,16.3039987 81.1159954,16.172 82.04,16.172 C82.7240034,16.172 83.4049966,16.2469992 84.083,16.397 C84.7610034,16.5470007 85.3219978,16.7539987 85.766,17.018 L84.83,19.016 C83.9779957,18.5359976 83.048005,18.296 82.04,18.296 C81.439997,18.296 80.9900015,18.3799992 80.69,18.548 C80.3899985,18.7160008 80.24,18.9319987 80.24,19.196 C80.24,19.4960015 80.4019984,19.7059994 80.726,19.826 C81.0500016,19.9460006 81.5659965,20.0599995 82.274,20.168 C83.066004,20.3000007 83.7139975,20.4409992 84.218,20.591 C84.7220025,20.7410007 85.1599981,21.013998 85.532,21.41 C85.9040019,21.806002 86.09,22.3579965 86.09,23.066 C86.09,23.666003 85.9100018,24.1999977 85.55,24.668 C85.1899982,25.1360023 84.6650035,25.4989987 83.975,25.757 C83.2849966,26.0150013 82.4660047,26.144 81.518,26.144 Z M93.704,16.172 C94.904006,16.172 95.8729963,16.5319964 96.611,17.252 C97.3490037,17.9720036 97.718,19.0399929 97.718,20.456 L97.718,26 L94.91,26 L94.91,20.888 C94.91,20.1199962 94.7420017,19.5470019 94.406,19.169 C94.0699983,18.7909981 93.5840032,18.602 92.948,18.602 C92.2399965,18.602 91.6760021,18.8209978 91.256,19.259 C90.8359979,19.6970022 90.626,20.3479957 90.626,21.212 L90.626,26 L87.818,26 L87.818,12.644 L90.626,12.644 L90.626,17.324 C90.9980019,16.9519981 91.4479974,16.667001 91.976,16.469 C92.5040026,16.270999 93.0799969,16.172 93.704,16.172 Z M105.548,13.4 L108.464,13.4 L108.464,23.624 L114.782,23.624 L114.782,26 L105.548,26 L105.548,13.4 Z M120.83,26.144 C119.809995,26.144 118.895004,25.9310021 118.085,25.505 C117.274996,25.0789979 116.642002,24.4880038 116.186,23.732 C115.729998,22.9759962 115.502,22.1180048 115.502,21.158 C115.502,20.1979952 115.729998,19.3400038 116.186,18.584 C116.642002,17.8279962 117.274996,17.2370021 118.085,16.811 C118.895004,16.3849979 119.809995,16.172 120.83,16.172 C121.850005,16.172 122.761996,16.3849979 123.566,16.811 C124.370004,17.2370021 124.999998,17.8279962 125.456,18.584 C125.912002,19.3400038 126.14,20.1979952 126.14,21.158 C126.14,22.1180048 125.912002,22.9759962 125.456,23.732 C124.999998,24.4880038 124.370004,25.0789979 123.566,25.505 C122.761996,25.9310021 121.850005,26.144 120.83,26.144 Z M120.83,23.84 C121.550004,23.84 122.140998,23.5970024 122.603,23.111 C123.065002,22.6249976 123.296,21.9740041 123.296,21.158 C123.296,20.3419959 123.065002,19.6910024 122.603,19.205 C122.140998,18.7189976 121.550004,18.476 120.83,18.476 C120.109996,18.476 119.516002,18.7189976 119.048,19.205 C118.579998,19.6910024 118.346,20.3419959 118.346,21.158 C118.346,21.9740041 118.579998,22.6249976 119.048,23.111 C119.516002,23.5970024 120.109996,23.84 120.83,23.84 Z M133.844,25.532 C133.567999,25.736001 133.229002,25.8889995 132.827,25.991 C132.424998,26.0930005 132.008002,26.144 131.576,26.144 C130.411994,26.144 129.518003,25.8500029 128.894,25.262 C128.269997,24.6739971 127.958,23.8100057 127.958,22.67 L127.958,14.174 L130.766,14.174 L130.766,16.532 L133.16,16.532 L133.16,18.692 L130.766,18.692 L130.766,22.634 C130.766,23.042002 130.867999,23.3569989 131.072,23.579 C131.276001,23.8010011 131.569998,23.912 131.954,23.912 C132.386002,23.912 132.769998,23.7920012 133.106,23.552 L133.844,25.532 Z M141.26,25.532 C140.983999,25.736001 140.645002,25.8889995 140.243,25.991 C139.840998,26.0930005 139.424002,26.144 138.992,26.144 C137.827994,26.144 136.934003,25.8500029 136.31,25.262 C135.685997,24.6739971 135.374,23.8100057 135.374,22.67 L135.374,14.174 L138.182,14.174 L138.182,16.532 L140.576,16.532 L140.576,18.692 L138.182,18.692 L138.182,22.634 C138.182,23.042002 138.283999,23.3569989 138.488,23.579 C138.692001,23.8010011 138.985998,23.912 139.37,23.912 C139.802002,23.912 140.185998,23.7920012 140.522,23.552 L141.26,25.532 Z M147.722,23.894 C148.226003,23.894 148.672998,23.8190008 149.063,23.669 C149.453002,23.5189993 149.815998,23.2820016 150.152,22.958 L151.646,24.578 C150.733995,25.6220052 149.402009,26.144 147.65,26.144 C146.557995,26.144 145.592004,25.9310021 144.752,25.505 C143.911996,25.0789979 143.264002,24.4880038 142.808,23.732 C142.351998,22.9759962 142.124,22.1180048 142.124,21.158 C142.124,20.2099953 142.348998,19.3550038 142.799,18.593 C143.249002,17.8309962 143.866996,17.2370021 144.653,16.811 C145.439004,16.3849979 146.323995,16.172 147.308,16.172 C148.232005,16.172 149.071996,16.366998 149.828,16.757 C150.584004,17.1470019 151.186998,17.7109963 151.637,18.449 C152.087002,19.1870037 152.312,20.059995 152.312,21.068 L145.148,22.454 C145.352001,22.9340024 145.672998,23.2939988 146.111,23.534 C146.549002,23.7740012 147.085997,23.894 147.722,23.894 Z M147.308,18.296 C146.599996,18.296 146.024002,18.5239977 145.58,18.98 C145.135998,19.4360023 144.902,20.065996 144.878,20.87 L149.594,19.952 C149.461999,19.4479975 149.192002,19.0460015 148.784,18.746 C148.375998,18.4459985 147.884003,18.296 147.308,18.296 Z M156.884,17.594 C157.220002,17.1259977 157.672997,16.7720012 158.243,16.532 C158.813003,16.2919988 159.469996,16.172 160.214,16.172 L160.214,18.764 C159.901998,18.7399999 159.692001,18.728 159.584,18.728 C158.779996,18.728 158.150002,18.9529977 157.694,19.403 C157.237998,19.8530022 157.01,20.5279955 157.01,21.428 L157.01,26 L154.202,26 L154.202,16.316 L156.884,16.316 L156.884,17.594 Z M171.716,16.316 L171.716,24.38 C171.716,26.1560089 171.266005,27.4759957 170.366,28.34 C169.465996,29.2040043 168.158009,29.636 166.442,29.636 C165.529995,29.636 164.669004,29.5220011 163.859,29.294 C163.048996,29.0659989 162.368003,28.7360022 161.816,28.304 L162.932,26.288 C163.340002,26.6240017 163.837997,26.887999 164.426,27.08 C165.014003,27.272001 165.607997,27.368 166.208,27.368 C167.144005,27.368 167.827998,27.1520022 168.26,26.72 C168.692002,26.2879978 168.908,25.6280044 168.908,24.74 L168.908,24.416 C168.547998,24.7760018 168.122002,25.051999 167.63,25.244 C167.137998,25.436001 166.610003,25.532 166.046,25.532 C164.773994,25.532 163.766004,25.1690036 163.022,24.443 C162.277996,23.7169964 161.906,22.6280073 161.906,21.176 L161.906,16.316 L164.714,16.316 L164.714,20.762 C164.714,22.3340079 165.367993,23.12 166.676,23.12 C167.348003,23.12 167.887998,22.9010022 168.296,22.463 C168.704002,22.0249978 168.908,21.3740043 168.908,20.51 L168.908,16.316 L171.716,16.316 Z" id="Hash-Lottery" fill="#FFFFFF"></path>
                    <g id="Group">
                        <mask id="mask-2" fill="white">
                            <use xlink:href="#path-1"></use>
                        </mask>
                        <use id="Mask" fill="#E60041" xlink:href="#path-1"></use>
                        <g id="icon" filter="url(#filter-3)" mask="url(#mask-2)" fill="#FFFFFF" fill-rule="nonzero">
                            <g transform="translate(22.000000, 23.000000) rotate(-30.000000) translate(-22.000000, -23.000000) translate(2.000000, -2.000000)">
                                <path d="M27.8594682,27.0098139 L39.1711021,24.7746635 C41.0674324,24.3999534 42.9084743,25.6334703 43.2831843,27.5298005 C43.6578944,29.4261307 42.4243776,31.2671726 40.5280473,31.6418827 L24.1984207,34.8685758 C21.7837322,35.3457121 19.6438717,33.2472606 20.0737377,30.8237105 L25.6337576,-0.523235895 C25.9713448,-2.42652537 27.7879343,-3.69577786 29.6912238,-3.35819067 C31.5945133,-3.02060348 32.8637657,-1.20401402 32.5261786,0.699275458 L27.8594682,27.0098139 Z" id="Path-2-Copy"></path>
                                <path d="M8.94509767,7.52739703 C9.24760131,5.61821723 11.040525,4.31574885 12.9497048,4.61825249 C14.8588846,4.92075613 16.161353,6.7136798 15.8588493,8.6228596 L9.3166443,49.9124316 C9.01414066,51.8216114 7.22121699,53.1240797 5.31203719,52.8215761 C3.40285739,52.5190725 2.10038902,50.7261488 2.40289266,48.816969 L8.94509767,7.52739703 Z" id="Path-2" transform="translate(9.130871, 28.719914) rotate(1.000000) translate(-9.130871, -28.719914) "></path>
                                <path d="M1.23189383,27.9346966 C-0.664668934,28.3082279 -2.50494379,27.0735669 -2.8784751,25.1770042 C-3.25200641,23.2804414 -2.01734548,21.4401666 -0.120782716,21.0666352 L31.4962812,14.8395999 C33.392844,14.4660686 35.2331188,15.7007295 35.6066501,17.5972923 C35.9801815,19.493855 34.7455205,21.3341299 32.8489578,21.7076612 L1.23189383,27.9346966 Z" id="Line"></path>
                            </g>
                        </g>
                    </g>
                </g>
            </g>
        </g>
    </g>
</svg>