<svg width="75" height="96" viewBox="0 0 75 96" xmlns="http://www.w3.org/2000/svg" xmlns:xlink="http://www.w3.org/1999/xlink"><title>bitcoin 10</title><defs><path d="M14.592 8.735C23.19-1.453 37.556-3.166 51.68 5.918c19.17 12.327 30.63 39.877 25.598 61.535C72.36 88.622 53.504 96.325 34.757 85.15c9.456 5.637 18.94 6.47 26.648 3.196l-6.67 2.833c-8.062 3.425-18.063 2.357-27.946-3.999C7.613 74.848-3.847 47.298 1.185 25.641 3.622 15.151 9.483 7.966 17.058 4.748l6.669-2.833c-3.456 1.469-6.556 3.763-9.135 6.82z" id="a"/><path d="M4.667.641l5.659 4.768c-.986-.831-2.698-.065-4.645 1.582L.021 2.224C1.969.575 3.681-.19 4.667.641" id="b"/><path d="M4.067.536l5.66 4.769c-.862-.727-2.483.874-4.015 2.663L.053 3.2C1.585 1.41 3.206-.19 4.067.536" id="d"/><path d="M7.757 5.331c.856.792-.587 2.752-2.061 4.474L.037 5.037C1.51 3.314 2.954 1.355 2.098.562c1.697 1.431 3.995 3.299 5.659 4.769" id="f"/><path d="M5.727 5.304l.03.027L.098.562.067.536l5.66 4.768" id="h"/><path d="M1.667.641l5.659 4.768c.018.015.036.03.053.047.819.758.425 2.508-.763 4.544L.956 5.232C2.145 3.196 2.539 1.446 1.72.687L1.667.641" id="j"/><path d="M6.051 5.787L.392 1.02c2.263-.307 4.167.068 5.53 1.216l5.66 4.769c-1.364-1.15-3.268-1.525-5.531-1.218" id="l"/><path d="M5.205.8l5.659 4.767c-1.03-.867-2.943 1.1-4.732 3.191L.473 3.99C2.262 1.899 4.175-.068 5.205.8" id="n"/><path d="M6.316 1.171l5.66 4.767c-1.184-.997-3.238.094-5.36 2.062L.956 3.232C3.079 1.264 5.133.173 6.316 1.171" id="p"/><path d="M3.205.8l5.659 4.767.036.033c.997.922-.526 3.027-2.256 5.047L.985 5.88C2.715 3.858 4.238 1.755 3.241.831L3.205.8" id="r"/><path d="M.42 3.382L7.006.549C18.225 11.59 24.308 29.698 20.938 44.386l-6.585 2.833C17.723 32.531 11.639 14.423.42 3.382" id="t"/><path d="M11.321 7.446C7.571 5.004 3.799 3.546.189 3.002L6.775.169c3.61.544 7.382 2.001 11.132 4.443a39.368 39.368 0 0 1 6.099 4.937l-6.586 2.833a39.267 39.267 0 0 0-6.099-4.936" id="v"/><path d="M.93 19.777c5.928-2.55 10.515-8.242 12.423-16.558L19.938.386c-1.907 8.315-6.495 14.008-12.423 16.558-1.975.851-4.61 1.984-6.585 2.833" id="x"/><path d="M16.587 3.31L23.172.477C15.693 3.695 9.908 10.879 7.501 21.369L.915 24.203C3.322 13.712 9.108 6.528 16.587 3.31" id="z"/><path d="M61.373 65.908l-6.585 2.833c-7.96 3.425-17.835 2.357-27.593-3.999C8.262 52.41-3.053 24.86 1.915 3.203L8.501.369c-4.968 21.657 6.347 49.208 25.28 61.539 9.757 6.356 19.633 7.424 27.592 4" id="B"/></defs><g fill="none" fill-rule="evenodd"><use fill="#E99E34" xlink:href="#a" transform="rotate(19 32.524 42.024)"/><g transform="rotate(19 -98.455 34.464)"><mask id="c" fill="#fff"><use xlink:href="#b"/></mask><path d="M4.667.641l5.659 4.768a1.453 1.453 0 0 0-.933-.338L3.733.303c.357.008.671.117.934.338" fill="#E7A934" mask="url(#c)"/><path d="M3.733.303l5.66 4.768a2.348 2.348 0 0 0-.546.057L3.188.359c.191-.041.373-.06.545-.056" fill="#E5AB34" mask="url(#c)"/><path d="M3.188.359l5.659 4.769a3.637 3.637 0 0 0-.495.146L2.693.507c.171-.064.336-.113.495-.148" fill="#E5AD34" mask="url(#c)"/><path d="M2.693.507l5.659 4.767a5.257 5.257 0 0 0-.511.225L2.182.731c.175-.087.346-.163.511-.224" fill="#E6AF35" mask="url(#c)"/><path d="M2.182.731l5.659 4.768a7.742 7.742 0 0 0-.582.326l-5.66-4.767a7.3 7.3 0 0 1 .583-.327" fill="#E6B235" mask="url(#c)"/><path d="M1.599 1.058l5.66 4.767c-.239.147-.484.314-.734.497L.866 1.555c.25-.185.495-.351.733-.497" fill="#E6B335" mask="url(#c)"/><path d="M.866 1.555l5.659 4.767c-.275.202-.557.426-.844.669L.021 2.224c.288-.244.57-.467.845-.669" fill="#E6B735" mask="url(#c)"/></g><g transform="rotate(19 -111.894 23)"><mask id="e" fill="#fff"><use xlink:href="#d"/></mask><path d="M4.067.536l5.66 4.768a.748.748 0 0 0-.474-.179L3.594.357a.748.748 0 0 1 .473.179" fill="#F7C144" mask="url(#e)"/><path d="M3.594.357l5.659 4.768a1.093 1.093 0 0 0-.25.025L3.343.383c.087-.019.171-.028.251-.026" fill="#F7C445" mask="url(#e)"/><path d="M3.343.383l5.66 4.767c-.07.015-.142.036-.215.064L3.129.446c.073-.027.145-.049.214-.063" fill="#F9C846" mask="url(#e)"/><path d="M3.129.446l5.659 4.768c-.07.026-.142.057-.215.095L2.914.54c.073-.036.145-.067.215-.094" fill="#F9CA46" mask="url(#e)"/><path d="M2.914.54l5.659 4.769a3.304 3.304 0 0 0-.241.134L2.673.676A2.97 2.97 0 0 1 2.914.54" fill="#FACE47" mask="url(#e)"/><path d="M2.673.676l5.659 4.767a4.357 4.357 0 0 0-.301.205L2.372.88c.102-.075.202-.144.301-.204" fill="#F9D047" mask="url(#e)"/><path d="M2.372.88l5.659 4.768c-.148.109-.3.232-.455.368L1.917 1.247c.155-.135.307-.258.455-.367" fill="#F9D347" mask="url(#e)"/></g><g transform="rotate(19 -112.894 28.976)"><mask id="g" fill="#fff"><use xlink:href="#f"/></mask><path d="M2.098.562l5.659 4.769a.804.804 0 0 1 .255.588L2.353 1.15a.813.813 0 0 0-.255-.588" fill="#E7A934" mask="url(#g)"/><path d="M2.353 1.15l5.659 4.769c.003.083-.003.169-.016.26l-5.66-4.768c.014-.091.02-.178.017-.261" fill="#E5AB34" mask="url(#g)"/><path d="M2.336 1.411l5.66 4.768c-.012.077-.03.156-.053.238L2.284 1.648a2.03 2.03 0 0 0 .052-.237" fill="#E5AD34" mask="url(#g)"/><path d="M2.284 1.648l5.659 4.769c-.022.08-.05.162-.082.247l-5.66-4.769c.033-.084.06-.167.083-.247" fill="#E6AF35" mask="url(#g)"/><path d="M2.201 1.895l5.66 4.769a3.717 3.717 0 0 1-.122.283L2.08 2.179c.045-.097.086-.191.121-.284" fill="#E6B235" mask="url(#g)"/><path d="M2.08 2.179l5.659 4.768a5.874 5.874 0 0 1-.195.373L1.885 2.552c.072-.127.137-.251.195-.373" fill="#E6B335" mask="url(#g)"/><path d="M1.885 2.552L7.544 7.32a9.474 9.474 0 0 1-.352.566l-5.66-4.768c.13-.193.248-.383.353-.566" fill="#E6B735" mask="url(#g)"/><path d="M1.532 3.118l5.66 4.768c-.421.626-.956 1.288-1.496 1.919L.037 5.037c.539-.631 1.075-1.294 1.495-1.919" fill="#E6B935" mask="url(#g)"/></g><g transform="rotate(19 -113.894 34.952)"><mask id="i" fill="#fff"><use xlink:href="#h"/></mask><path d="M.067.536l5.66 4.768.03.027L.098.562.067.536" fill="#E7A934" mask="url(#i)"/></g><g transform="rotate(19 -99.955 43.427)"><mask id="k" fill="#fff"><use xlink:href="#j"/></mask><path d="M1.667.641l5.659 4.768c.018.015.036.03.053.047.277.256.415.625.431 1.079L2.15 1.768c-.016-.456-.154-.825-.43-1.081L1.667.641" fill="#F7C144" mask="url(#k)"/><path d="M2.15 1.768l5.66 4.767c.006.186-.007.386-.04.598L2.11 2.365a3.06 3.06 0 0 0 .04-.597" fill="#F7C445" mask="url(#k)"/><path d="M2.11 2.365l5.66 4.768a4.868 4.868 0 0 1-.127.574l-5.66-4.768c.057-.2.099-.391.127-.574" fill="#F9C846" mask="url(#k)"/><path d="M1.983 2.939l5.66 4.768a7.415 7.415 0 0 1-.202.606L1.782 3.546c.079-.209.147-.412.201-.607" fill="#F9CA46" mask="url(#k)"/><path d="M1.782 3.546l5.659 4.767A9.467 9.467 0 0 1 7.146 9L1.487 4.232a9.45 9.45 0 0 0 .295-.686" fill="#FACE47" mask="url(#k)"/><path d="M1.487 4.232L7.146 9c-.127.27-.273.548-.434.832L1.053 5.064c.161-.284.306-.562.434-.832" fill="#F9D047" mask="url(#k)"/><path d="M1.053 5.064l5.659 4.768a7.187 7.187 0 0 1-.096.168L.956 5.232l.097-.168" fill="#F9D347" mask="url(#k)"/></g><g transform="rotate(19 -63.124 80.306)"><mask id="m" fill="#fff"><use xlink:href="#l"/></mask><path d="M5.922 2.236l5.659 4.769c-1.016-.857-2.332-1.283-3.874-1.318L2.048.919c1.541.035 2.858.461 3.874 1.317" fill="#F8C73A" mask="url(#m)"/><path d="M2.048.919l5.659 4.768c-.835-.019-1.736.078-2.692.283L-.644 1.202C.311.996 1.213.9 2.048.919" fill="#F8C93B" mask="url(#m)"/></g><g transform="rotate(19 -119.37 30.964)"><mask id="o" fill="#fff"><use xlink:href="#n"/></mask><path d="M5.205.8l5.659 4.767a.877.877 0 0 0-.553-.21L4.652.59a.875.875 0 0 1 .553.21" fill="#F7C144" mask="url(#o)"/><path d="M4.652.59l5.659 4.767a1.216 1.216 0 0 0-.288.03L4.364.618c.099-.021.196-.031.288-.028" fill="#F7C445" mask="url(#o)"/><path d="M4.364.618l5.659 4.769c-.08.016-.162.041-.246.072L4.118.691a1.94 1.94 0 0 1 .246-.073" fill="#F9C846" mask="url(#o)"/><path d="M4.118.691l5.659 4.768c-.08.03-.161.065-.244.107L3.874.798c.083-.041.164-.077.244-.107" fill="#F9CA46" mask="url(#o)"/><path d="M3.874.798l5.659 4.768c-.089.044-.18.096-.273.153L3.601.951c.092-.057.184-.108.273-.153" fill="#FACE47" mask="url(#o)"/><path d="M3.601.951L9.26 5.719c-.113.07-.228.148-.345.234l-5.66-4.768c.118-.085.233-.165.346-.234" fill="#F9D047" mask="url(#o)"/><path d="M3.255 1.185l5.66 4.768a8.517 8.517 0 0 0-.518.419L2.738 1.604c.176-.154.349-.294.517-.419" fill="#F9D347" mask="url(#o)"/><path d="M2.738 1.604l5.659 4.768c-.566.496-1.165 1.13-1.761 1.806L.977 3.409c.596-.675 1.195-1.309 1.761-1.805" fill="#F9D547" mask="url(#o)"/><path d="M.977 3.409l5.659 4.769c-.118.133-.236.268-.353.405L.623 3.814l.354-.405" fill="#F9D948" mask="url(#o)"/><path d="M.623 3.814l5.66 4.769-.151.175L.473 3.99l.15-.176" fill="#F9D547" mask="url(#o)"/></g><g transform="rotate(19 -105.93 42.427)"><mask id="q" fill="#fff"><use xlink:href="#p"/></mask><path d="M6.316 1.171l5.66 4.767a1.612 1.612 0 0 0-1.03-.375L5.287.795c.388.009.736.128 1.029.376" fill="#E7A934" mask="url(#q)"/><path d="M5.287.795l5.659 4.768a2.508 2.508 0 0 0-.578.06L4.708.854a2.52 2.52 0 0 1 .579-.059" fill="#E5AB34" mask="url(#q)"/><path d="M4.708.854l5.66 4.769c-.167.035-.34.087-.517.153L4.192 1.008a3.88 3.88 0 0 1 .516-.154" fill="#E5AD34" mask="url(#q)"/><path d="M4.192 1.008l5.659 4.768c-.169.063-.344.14-.522.229L3.67 1.236c.178-.089.352-.165.522-.228" fill="#E6AF35" mask="url(#q)"/><path d="M3.67 1.236l5.659 4.769a7.775 7.775 0 0 0-.578.323L3.092 1.56a7.6 7.6 0 0 1 .578-.324" fill="#E6B235" mask="url(#q)"/><path d="M3.092 1.56l5.659 4.768c-.232.144-.47.305-.711.482L2.381 2.042c.241-.177.478-.338.711-.482" fill="#E6B335" mask="url(#q)"/><path d="M2.381 2.042L8.04 6.81c-.325.24-.656.507-.991.8L1.39 2.842c.335-.292.666-.561.991-.8" fill="#E6B735" mask="url(#q)"/><path d="M1.39 2.842L7.049 7.61c-.144.125-.288.256-.433.39L.956 3.232c.146-.134.29-.264.434-.39" fill="#E6B935" mask="url(#q)"/></g><g transform="rotate(19 -120.37 36.94)"><mask id="s" fill="#fff"><use xlink:href="#r"/></mask><path d="M3.205.8l5.659 4.767.036.033a.98.98 0 0 1 .316.715L3.557 1.548a.99.99 0 0 0-.316-.717L3.205.8" fill="#E7A934" mask="url(#s)"/><path d="M3.557 1.548l5.659 4.767c.004.097-.003.199-.019.304L3.538 1.851c.016-.106.022-.207.019-.303" fill="#E5AB34" mask="url(#s)"/><path d="M3.538 1.851l5.659 4.768a2.497 2.497 0 0 1-.06.273l-5.66-4.769c.027-.094.047-.185.061-.272" fill="#E5AD34" mask="url(#s)"/><path d="M3.477 2.123l5.66 4.769a3.006 3.006 0 0 1-.093.277L3.385 2.4c.036-.094.067-.187.092-.277" fill="#E6AF35" mask="url(#s)"/><path d="M3.385 2.4l5.659 4.769a4.38 4.38 0 0 1-.136.317L3.249 2.718c.051-.109.097-.214.136-.318" fill="#E6B235" mask="url(#s)"/></g><path d="M13.632 39.963c1.24 2.069-2.037 4.724-3.4 5.803l2.623 4.395c1.36-1.068 4.547-3.657 3.31-5.723l-2.533-4.475m-8.08 8.817l1.597 2.988-3.2 1.88-1.595-2.99 3.198-1.879" fill="#BF862F"/><path fill="#D89431" d="M11.565 48l1.337 2.128-5.05 2.99-1.177-2.244L11.565 48"/><g transform="rotate(19 -45.758 178.43)"><mask id="u" fill="#fff"><use xlink:href="#t"/></mask><path d="M20.938 44.386l-6.585 2.833.016-.071 6.586-2.833-.017.071" fill="#F8C93B" mask="url(#u)"/><path d="M20.955 44.315l-6.586 2.833c.095-.416.182-.836.261-1.257l6.586-2.834c-.079.422-.167.841-.261 1.258" fill="#F8CB3B" mask="url(#u)"/><path d="M21.216 43.057l-6.586 2.834c.08-.423.152-.847.217-1.274l6.586-2.834a35.63 35.63 0 0 1-.217 1.274" fill="#F8CD3B" mask="url(#u)"/><path d="M21.433 41.783l-6.586 2.834c.069-.455.129-.911.181-1.37l6.586-2.834c-.052.46-.113.916-.181 1.37" fill="#F8CF3B" mask="url(#u)"/><path d="M21.614 40.413l-6.586 2.834c.053-.458.096-.919.132-1.381l6.586-2.834c-.036.463-.08.923-.132 1.381" fill="#F8D13B" mask="url(#u)"/><path d="M21.746 39.032l-6.586 2.834c.035-.447.062-.895.081-1.345l6.586-2.833c-.019.45-.047.898-.081 1.344" fill="#F8D33B" mask="url(#u)"/><path d="M21.827 37.688l-6.586 2.833c.02-.449.032-.9.037-1.351l6.585-2.834c-.005.452-.017.903-.036 1.352" fill="#F8D63C" mask="url(#u)"/><path d="M21.863 36.336l-6.585 2.834c.004-.439.002-.878-.007-1.318l6.585-2.833c.01.44.012.879.007 1.317" fill="#F7D83C" mask="url(#u)"/><path d="M21.856 35.019l-6.585 2.833c-.009-.44-.025-.881-.047-1.323l6.585-2.834c.022.443.038.884.047 1.324" fill="#F7D93C" mask="url(#u)"/><path d="M21.809 33.695l-6.585 2.834a48.327 48.327 0 0 0-.087-1.311l6.586-2.834c.035.438.064.875.086 1.311" fill="#F8DB3C" mask="url(#u)"/><path d="M21.723 32.384l-6.586 2.834a48.678 48.678 0 0 0-.124-1.315l6.585-2.833c.048.439.089.876.125 1.314" fill="#F7DE3D" mask="url(#u)"/><path d="M21.598 31.07l-6.585 2.833a51.025 51.025 0 0 0-.165-1.333l6.585-2.833c.062.445.117.889.165 1.333" fill="#F8E03C" mask="url(#u)"/><path d="M21.433 29.737l-6.585 2.833c-.062-.445-.13-.89-.204-1.336l6.585-2.833c.075.446.143.891.204 1.336" fill="#F8E854" mask="url(#u)"/><path d="M21.229 28.401l-6.585 2.833c-.08-.474-.166-.95-.26-1.424l6.586-2.833c.093.474.18.95.259 1.424" fill="#F8EB62" mask="url(#u)"/><path d="M20.97 26.977l-6.586 2.833a48.888 48.888 0 0 0-.307-1.445l6.586-2.834c.109.482.212.963.307 1.446" fill="#F9EC6C" mask="url(#u)"/><path d="M20.663 25.531l-6.586 2.834a50.367 50.367 0 0 0-.416-1.694l6.585-2.833c.149.563.288 1.128.417 1.693" fill="#F9EE75" mask="url(#u)"/><path d="M20.246 23.838l-6.585 2.833a53.227 53.227 0 0 0-.544-1.911l6.586-2.833c.193.633.375 1.271.543 1.911" fill="#F9F07D" mask="url(#u)"/><path d="M19.703 21.927l-6.586 2.833a52.792 52.792 0 0 0-.931-2.774l6.586-2.833c.336.917.646 1.842.931 2.774" fill="#FBF084" mask="url(#u)"/><path d="M18.772 19.153l-6.586 2.833a53.802 53.802 0 0 0-2.283-5.323l6.586-2.833a53.802 53.802 0 0 1 2.283 5.323" fill="#FBF18B" mask="url(#u)"/><path d="M16.489 13.83l-6.586 2.833a52.924 52.924 0 0 0-1.365-2.581l6.585-2.833a52.94 52.94 0 0 1 1.366 2.581" fill="#FBF084" mask="url(#u)"/><path d="M15.123 11.249l-6.585 2.833a50.396 50.396 0 0 0-1.053-1.78l6.586-2.833c.362.586.713 1.178 1.052 1.78" fill="#F9F07D" mask="url(#u)"/><path d="M14.071 9.469l-6.586 2.833a50.655 50.655 0 0 0-.871-1.361L13.2 8.107c.297.449.588.903.871 1.362" fill="#F9EE75" mask="url(#u)"/><path d="M13.2 8.107l-6.586 2.834c-.285-.43-.576-.856-.874-1.276l6.586-2.833c.297.42.589.846.874 1.275" fill="#F9EC6C" mask="url(#u)"/><path d="M12.326 6.832L5.74 9.665a49.515 49.515 0 0 0-.831-1.139l6.586-2.833c.282.375.559.755.831 1.139" fill="#F8EB62" mask="url(#u)"/><path d="M11.495 5.693L4.909 8.526a47.313 47.313 0 0 0-.845-1.091l6.586-2.833c.286.359.568.723.845 1.091" fill="#F8E854" mask="url(#u)"/><path d="M10.65 4.602L4.064 7.435a48.6 48.6 0 0 0-.84-1.024L9.81 3.578c.284.337.564.678.84 1.024" fill="#F8E03C" mask="url(#u)"/><path d="M9.81 3.578L3.224 6.411a45.68 45.68 0 0 0-.866-.995l6.586-2.833c.293.327.581.659.866.995" fill="#F7DE3D" mask="url(#u)"/><path d="M8.944 2.583L2.358 5.416a45.275 45.275 0 0 0-.89-.967l6.585-2.834c.301.318.598.64.891.968" fill="#F8DB3C" mask="url(#u)"/><path d="M8.053 1.615L1.468 4.449a42.816 42.816 0 0 0-.918-.938L7.136.678c.31.306.615.62.917.937" fill="#F7D93C" mask="url(#u)"/><path d="M7.136.678L.55 3.511a41.963 41.963 0 0 0-.963-.927L6.172-.25c.326.304.647.612.964.928" fill="#F7D83C" mask="url(#u)"/></g><g transform="rotate(19 -10.367 132.136)"><mask id="w" fill="#fff"><use xlink:href="#v"/></mask><path d="M24.136 9.678l-6.586 2.833a41.963 41.963 0 0 0-.963-.927l6.585-2.834c.326.304.647.612.964.928" fill="#F7D83C" mask="url(#w)"/><path d="M23.172 8.75l-6.585 2.834a39.433 39.433 0 0 0-.989-.893l6.585-2.834c.334.292.664.59.989.893" fill="#F8D63C" mask="url(#w)"/><path d="M22.183 7.857l-6.585 2.834a41.641 41.641 0 0 0-1.05-.885l6.586-2.833c.354.288.704.583 1.049.884" fill="#F8D33B" mask="url(#w)"/><path d="M21.134 6.973l-6.586 2.833a37.225 37.225 0 0 0-1.069-.841l6.585-2.833c.361.273.718.553 1.07.841" fill="#F8D13B" mask="url(#w)"/><path d="M20.064 6.132l-6.585 2.833a38.934 38.934 0 0 0-.994-.729l6.586-2.833c.334.238.666.48.993.729" fill="#F8CF3B" mask="url(#w)"/><path d="M19.071 5.403l-6.586 2.833a38.464 38.464 0 0 0-1.013-.691l6.586-2.833c.341.224.678.455 1.013.691" fill="#F8CD3B" mask="url(#w)"/><path d="M18.058 4.712l-6.586 2.833c-.05-.033-.1-.067-.151-.099a35.58 35.58 0 0 0-1.141-.713L16.766 3.9c.38.227.76.465 1.141.712l.151.1" fill="#F8CB3B" mask="url(#w)"/><path d="M16.766 3.9L10.18 6.733a33.375 33.375 0 0 0-1.345-.762l6.586-2.833c.448.24.896.494 1.345.762" fill="#F8C93B" mask="url(#w)"/><path d="M15.421 3.138L8.835 5.971a33.14 33.14 0 0 0-1.368-.692l6.585-2.833c.456.216.912.447 1.369.692" fill="#F8C73A" mask="url(#w)"/><path d="M14.052 2.446L7.467 5.279a31.235 31.235 0 0 0-1.405-.622l6.586-2.833c.467.193.935.4 1.404.622" fill="#F7C43A" mask="url(#w)"/><path d="M12.648 1.824L6.062 4.657a26.788 26.788 0 0 0-1.432-.544l6.586-2.834c.476.166.953.348 1.432.545" fill="#F7C239" mask="url(#w)"/><path d="M11.216 1.279L4.63 4.113a26.124 26.124 0 0 0-1.544-.486L9.672.794c.513.144 1.027.306 1.544.485" fill="#F6C039" mask="url(#w)"/><path d="M9.672.794L3.086 3.627a25.067 25.067 0 0 0-1.635-.399L8.036.395c.543.113 1.088.246 1.636.399" fill="#F6BF39" mask="url(#w)"/><path d="M8.036.395L1.451 3.228a23.187 23.187 0 0 0-1.78-.298L6.256.097a22.63 22.63 0 0 1 1.78.298" fill="#F5BD39" mask="url(#w)"/></g><g transform="rotate(19 -177.724 159.418)"><mask id="y" fill="#fff"><use xlink:href="#x"/></mask><path d="M7.517 16.944L.931 19.777a18.636 18.636 0 0 0 4.832-3.038l6.585-2.834a18.634 18.634 0 0 1-4.831 3.039" fill="#F4B63A" mask="url(#y)"/><path d="M12.348 13.905l-6.585 2.834a20.107 20.107 0 0 0 1.799-1.768l6.586-2.833a19.97 19.97 0 0 1-1.8 1.767" fill="#F4B83A" mask="url(#y)"/><path d="M14.148 12.138l-6.586 2.833c.452-.501.884-1.032 1.297-1.59l6.586-2.833a21.868 21.868 0 0 1-1.297 1.59" fill="#F5BA39" mask="url(#y)"/><path d="M15.445 10.548l-6.586 2.833c.357-.483.699-.986 1.025-1.51l6.586-2.833a22.817 22.817 0 0 1-1.025 1.51" fill="#F5BD39" mask="url(#y)"/><path d="M16.47 9.038l-6.586 2.833c.292-.467.571-.951.837-1.451l6.585-2.833c-.266.5-.545.983-.836 1.451" fill="#F6BF39" mask="url(#y)"/><path d="M17.306 7.587l-6.585 2.833c.244-.459.477-.933.699-1.419l6.586-2.833c-.222.486-.456.96-.7 1.419" fill="#F6C039" mask="url(#y)"/><path d="M18.006 6.168L11.42 9.001c.214-.468.416-.948.608-1.441l6.586-2.833c-.192.493-.395.973-.608 1.441" fill="#F7C239" mask="url(#y)"/><path d="M18.614 4.727L12.028 7.56c.183-.47.356-.952.519-1.444l6.585-2.833a28.85 28.85 0 0 1-.518 1.444" fill="#F7C43A" mask="url(#y)"/><path d="M19.132 3.283l-6.585 2.833c.158-.479.307-.969.445-1.469l6.586-2.833c-.139.5-.287.99-.446 1.469" fill="#F8C73A" mask="url(#y)"/><path d="M19.578 1.814l-6.586 2.833c.13-.466.25-.943.361-1.428L19.938.386c-.111.485-.231.961-.36 1.428" fill="#F8C93B" mask="url(#y)"/></g><path d="M21.161 20.831c9.592-14.67 26.237-15.838 35.876-1.111 9.023 13.783 9.154 38 1.638 52.32-7.929 15.105-23.113 17.835-34.187 4.514C12.57 62.221 10.97 36.417 21.16 20.831" fill="#E99E34"/><path fill="#BF862F" d="M30.248 37.792l-3.446.553 2.078-3.334 3.446-.554-2.078 3.335"/><path fill="#BF862F" d="M32.326 34.457l-3.523.554-3.615-4.64 3.523-.554 3.615 4.64"/><path d="M31.935 44.262l4.38 5.623 3.153-5.062c1.267-2.034 2.333-4.581.443-7.01-1.888-2.422-3.492-.75-4.824 1.388l-3.152 5.061zm15.737 10.126c1.487-2.387 2.59-5.146.387-7.977-2.254-2.891-4.098-.763-5.65 1.728l-3.312 5.317 5.087 6.53 3.488-5.598zm-3.367-14.453c2.195-1.938 4.857-2.11 7.451 1.22 2.682 3.442 3.137 7.745 2.012 11.678l4.264 5.473-3.165 5.082-3.861-4.954-2.077 3.335 3.86 4.955-3.169 5.087-3.86-4.954-1.695 2.72L25.384 45.6l1.695-2.72-3.615-4.64 3.17-5.089 3.614 4.64 2.078-3.335-3.615-4.64 3.166-5.081 4.143 5.32c2.116-1.463 4.423-1.302 6.585 1.472 1.81 2.322 2.308 5.457 1.7 8.407z" fill="#F9CB46"/><path fill="#BF862F" d="M28.711 29.817l-3.523.554 3.165-5.081 3.524-.554-3.166 5.08M25.384 45.6l-3.527.554 1.694-2.72 3.528-.554-1.695 2.72m18.681 23.977l-3.506.554-18.681-23.977 3.506-.553 18.68 23.976"/><path fill="#BF862F" d="M27.079 42.88l-3.576.553-3.615-4.64 3.576-.552 3.615 4.64"/><path fill="#BF862F" d="M23.464 38.24l-3.576.553 3.17-5.117 3.576-.524-3.17 5.089"/><g transform="rotate(19 29.036 43.512)"><mask id="A" fill="#fff"><use xlink:href="#z"/></mask><path d="M7.501 21.369L.915 24.203c.141-.612.292-1.214.456-1.803l6.585-2.834a42.01 42.01 0 0 0-.455 1.803" fill="#F8C93B" mask="url(#A)"/><path d="M7.956 19.566L1.371 22.4c.174-.631.362-1.25.562-1.854l6.585-2.833c-.2.604-.387 1.222-.562 1.853" fill="#F8C73A" mask="url(#A)"/><path d="M8.518 17.713l-6.585 2.833c.205-.621.423-1.23.654-1.822l6.586-2.833c-.231.592-.449 1.2-.655 1.822" fill="#F7C43A" mask="url(#A)"/><path d="M9.173 15.891l-6.586 2.833c.243-.622.498-1.228.767-1.818l6.586-2.834a35.187 35.187 0 0 0-.767 1.819" fill="#F7C239" mask="url(#A)"/><path d="M9.94 14.072l-6.586 2.834c.28-.614.575-1.212.883-1.792l6.586-2.833a33.48 33.48 0 0 0-.883 1.791" fill="#F6C039" mask="url(#A)"/><path d="M10.823 12.281l-6.586 2.833c.336-.63.688-1.241 1.055-1.83l6.586-2.834c-.368.59-.72 1.2-1.055 1.831" fill="#F6BF39" mask="url(#A)"/><path d="M11.878 10.45l-6.586 2.834c.412-.661.844-1.296 1.294-1.905l6.585-2.833c-.45.608-.881 1.244-1.293 1.904" fill="#F5BD39" mask="url(#A)"/><path d="M13.171 8.546l-6.585 2.833a26.724 26.724 0 0 1 1.636-2.006l6.585-2.833a27.228 27.228 0 0 0-1.636 2.006" fill="#F5BA39" mask="url(#A)"/><path d="M14.807 6.54L8.222 9.373a25.215 25.215 0 0 1 2.27-2.229l6.586-2.834a25.37 25.37 0 0 0-2.271 2.23" fill="#F4B83A" mask="url(#A)"/><path d="M17.078 4.31l-6.586 2.834a23.486 23.486 0 0 1 6.095-3.834L23.172.477a23.487 23.487 0 0 0-6.094 3.833" fill="#F4B63A" mask="url(#A)"/></g><g transform="rotate(19 -33.21 30.024)"><mask id="C" fill="#fff"><use xlink:href="#B"/></mask><path d="M61.373 65.908l-6.585 2.833a23.552 23.552 0 0 1-7.058 1.799l6.585-2.833a23.537 23.537 0 0 0 7.058-1.799" fill="#F4B63A" mask="url(#C)"/><path d="M54.315 67.707L47.73 70.54c-1.069.104-2.158.139-3.264.104l6.586-2.834c1.105.036 2.194 0 3.263-.103" fill="#F4B83A" mask="url(#C)"/><path d="M51.052 67.81l-6.586 2.834a27.001 27.001 0 0 1-2.573-.206l6.585-2.833c.867.111 1.725.178 2.574.205" fill="#F5BA39" mask="url(#C)"/><path d="M48.478 67.605l-6.585 2.833a28.207 28.207 0 0 1-2.246-.376l6.586-2.833c.754.157 1.502.282 2.245.376" fill="#F5BD39" mask="url(#C)"/><path d="M46.233 67.229l-6.586 2.833a30.338 30.338 0 0 1-2.064-.503l6.586-2.833c.691.194 1.38.362 2.064.503" fill="#F6BF39" mask="url(#C)"/><path d="M44.169 66.726l-6.586 2.833a32.284 32.284 0 0 1-1.947-.613l6.586-2.833c.651.228 1.3.432 1.947.613" fill="#F6C039" mask="url(#C)"/><path d="M42.222 66.113l-6.586 2.833a35.186 35.186 0 0 1-1.807-.686l6.585-2.833c.604.248 1.207.477 1.808.686" fill="#F7C239" mask="url(#C)"/><path d="M40.414 65.427l-6.585 2.833c-.59-.243-1.18-.505-1.771-.785l6.585-2.833c.591.28 1.182.542 1.771.785" fill="#F7C43A" mask="url(#C)"/><path d="M38.643 64.642l-6.585 2.833a38.855 38.855 0 0 1-1.727-.873l6.585-2.833c.577.309 1.152.6 1.727.873" fill="#F8C73A" mask="url(#C)"/><path d="M36.916 63.769l-6.585 2.833a40.444 40.444 0 0 1-1.696-.961l6.586-2.833c.565.337 1.131.658 1.695.961" fill="#F8C93B" mask="url(#C)"/><path d="M35.221 62.808l-6.586 2.833c-.48-.287-.96-.586-1.44-.899l-.191-.125 6.586-2.834.191.125c.479.313.959.612 1.44.9" fill="#F8CB3B" mask="url(#C)"/><path d="M33.59 61.783l-6.586 2.834a47.34 47.34 0 0 1-1.279-.874l6.585-2.833c.423.299.849.59 1.28.873" fill="#F8CD3B" mask="url(#C)"/><path d="M32.31 60.91l-6.585 2.833a44.29 44.29 0 0 1-1.255-.92l6.585-2.833c.414.314.833.62 1.255.92" fill="#F8CF3B" mask="url(#C)"/><path d="M31.055 59.99l-6.585 2.833a48.786 48.786 0 0 1-1.351-1.061l6.586-2.833c.444.362.895.715 1.35 1.061" fill="#F8D13B" mask="url(#C)"/><path d="M29.705 58.929l-6.586 2.833a53.988 53.988 0 0 1-1.325-1.118l6.585-2.834c.437.381.879.754 1.326 1.119" fill="#F8D33B" mask="url(#C)"/><path d="M28.379 57.81l-6.585 2.834a57.699 57.699 0 0 1-1.249-1.127l6.586-2.833a55.1 55.1 0 0 0 1.248 1.126" fill="#F8D63C" mask="url(#C)"/><path d="M27.131 56.684l-6.586 2.833c-.41-.383-.816-.773-1.216-1.17l6.586-2.833c.4.396.805.787 1.216 1.17" fill="#F7D83C" mask="url(#C)"/><path d="M25.915 55.514l-6.586 2.833a56.356 56.356 0 0 1-1.158-1.185l6.586-2.833c.381.401.767.796 1.158 1.185" fill="#F7D93C" mask="url(#C)"/><path d="M24.757 54.329l-6.586 2.833c-.38-.4-.755-.807-1.124-1.22l6.585-2.834c.37.413.745.821 1.125 1.221" fill="#F8DB3C" mask="url(#C)"/><path d="M23.632 53.108l-6.585 2.834a60.006 60.006 0 0 1-1.097-1.261l6.586-2.834c.36.426.726.847 1.096 1.261" fill="#F7DE3D" mask="url(#C)"/><path d="M22.536 51.847l-6.586 2.834c-.36-.428-.716-.861-1.065-1.299l6.585-2.833c.35.438.705.871 1.066 1.298" fill="#F8E03C" mask="url(#C)"/><path d="M21.47 50.549l-6.585 2.833a59.894 59.894 0 0 1-1.065-1.375l6.586-2.833c.349.464.704.922 1.064 1.375" fill="#F8E854" mask="url(#C)"/><path d="M20.406 49.174l-6.586 2.833a64.453 64.453 0 0 1-1.042-1.429l6.586-2.834c.341.483.688.959 1.042 1.43" fill="#F8EB62" mask="url(#C)"/><path d="M19.364 47.744l-6.586 2.834a61.565 61.565 0 0 1-1.101-1.607l6.586-2.833c.359.542.726 1.078 1.101 1.606" fill="#F9EC6C" mask="url(#C)"/><path d="M18.263 46.138l-6.586 2.833a62.493 62.493 0 0 1-1.099-1.717l6.585-2.833c.358.578.725 1.15 1.1 1.717" fill="#F9EE75" mask="url(#C)"/><path d="M17.163 44.421l-6.585 2.833c-.457-.739-.9-1.488-1.329-2.246l6.586-2.833c.429.758.871 1.507 1.328 2.246" fill="#F9F07D" mask="url(#C)"/><path d="M15.835 42.175l-6.586 2.833a67.846 67.846 0 0 1-1.722-3.257l6.586-2.833a67.846 67.846 0 0 0 1.722 3.257" fill="#FBF084" mask="url(#C)"/><path d="M14.113 38.918l-6.586 2.833a67.896 67.896 0 0 1-2.88-6.714l6.586-2.833a67.66 67.66 0 0 0 2.88 6.714" fill="#FBF18B" mask="url(#C)"/><path d="M11.233 32.204l-6.586 2.833a67.701 67.701 0 0 1-1.173-3.498l6.585-2.834c.358 1.175.75 2.342 1.174 3.499" fill="#FBF084" mask="url(#C)"/><path d="M10.059 28.705l-6.585 2.834a62.797 62.797 0 0 1-.686-2.412l6.585-2.833c.213.807.442 1.61.686 2.411" fill="#F9F07D" mask="url(#C)"/><path d="M9.373 26.294l-6.585 2.833a63.992 63.992 0 0 1-.526-2.137l6.586-2.833c.163.714.337 1.427.525 2.137" fill="#F9EE75" mask="url(#C)"/><path d="M8.848 24.157L2.262 26.99a64.171 64.171 0 0 1-.387-1.822l6.585-2.833c.121.607.249 1.216.388 1.822" fill="#F9EC6C" mask="url(#C)"/><path d="M8.46 22.335l-6.585 2.833a62.236 62.236 0 0 1-.327-1.798l6.585-2.833c.1.6.209 1.199.327 1.798" fill="#F8EB62" mask="url(#C)"/><path d="M8.133 20.537L1.548 23.37a57.116 57.116 0 0 1-.257-1.685l6.585-2.833c.078.562.164 1.124.257 1.685" fill="#F8E854" mask="url(#C)"/><path d="M7.876 18.852l-6.585 2.833a60.243 60.243 0 0 1-.209-1.681l6.586-2.833c.061.56.131 1.121.208 1.681" fill="#F8E03C" mask="url(#C)"/><path d="M7.668 17.171l-6.586 2.833a62.632 62.632 0 0 1-.157-1.657l6.586-2.833c.044.551.097 1.104.157 1.657" fill="#F7DE3D" mask="url(#C)"/><path d="M7.511 15.514L.925 18.347a57.972 57.972 0 0 1-.108-1.656l6.585-2.833c.028.551.065 1.103.109 1.656" fill="#F8DB3C" mask="url(#C)"/><path d="M7.402 13.858L.817 16.691a51.688 51.688 0 0 1-.06-1.669l6.585-2.833c.012.555.032 1.112.06 1.669" fill="#F7D93C" mask="url(#C)"/><path d="M7.342 12.189L.757 15.022a57.591 57.591 0 0 1-.009-1.662l6.586-2.833c-.006.553-.003 1.107.008 1.662" fill="#F7D83C" mask="url(#C)"/><path d="M7.334 10.527L.748 13.36c.006-.57.021-1.138.046-1.706L7.38 8.821c-.025.568-.04 1.136-.046 1.706" fill="#F8D63C" mask="url(#C)"/><path d="M7.38 8.821L.794 11.654c.025-.567.059-1.133.102-1.696l6.586-2.833a47.631 47.631 0 0 0-.102 1.696" fill="#F8D33B" mask="url(#C)"/><path d="M7.482 7.125L.896 9.958c.046-.583.101-1.164.167-1.742l6.585-2.833a47.746 47.746 0 0 0-.166 1.742" fill="#F8D13B" mask="url(#C)"/><path d="M7.648 5.383L1.063 8.216c.066-.579.142-1.156.229-1.73l6.585-2.833c-.087.574-.163 1.15-.229 1.73" fill="#F8CF3B" mask="url(#C)"/><path d="M7.877 3.653L1.292 6.486c.081-.538.173-1.074.273-1.606l6.586-2.834a45.269 45.269 0 0 0-.274 1.607" fill="#F8CD3B" mask="url(#C)"/><path d="M8.151 2.046L1.565 4.88c.1-.533.21-1.063.33-1.589L8.48.458a44.23 44.23 0 0 0-.329 1.588" fill="#F8CB3B" mask="url(#C)"/><path d="M8.48.458L1.895 3.291l.02-.088L8.501.369 8.48.458" fill="#F8C93B" mask="url(#C)"/></g><path d="M60.945 73.403c9.313-14.95 7.937-38.52-3.06-52.638C46.88 6.643 30.414 7.312 21.1 22.26c-9.312 14.95-7.942 38.515 3.062 52.637 10.999 14.118 27.47 13.455 36.783-1.495zM15.883 15.564C27.631-3.295 48.41-4.14 62.295 13.683c13.883 17.817 15.612 47.55 3.864 66.41-11.749 18.86-32.527 19.705-46.408 1.888C5.864 64.158 4.135 34.424 15.883 15.564z" fill="#F4B83A"/></g></svg>