<svg width="88" height="94" viewBox="0 0 88 94" xmlns="http://www.w3.org/2000/svg" xmlns:xlink="http://www.w3.org/1999/xlink"><title>bitcoin 8</title><defs><path d="M41.017 98.573c.32.013.639.02.958.02l-7.512-.01c-9.077-.01-18.131-5.109-24.878-15.216-13.09-19.612-12.536-50.636 1.233-69.301C17.488 5.024 26.038.542 34.564.553l7.51.009C33.547.552 25 5.033 18.329 14.075 11.444 23.407 7.863 35.83 7.64 48.37c.223-12.541 3.804-24.963 10.688-34.295 13.77-18.665 35.541-17.9 48.632 1.71 13.085 19.605 12.53 50.63-1.239 69.293-6.92 9.38-15.86 13.854-24.704 13.495z" id="a"/><path d="M5.277.012l7.488.01c6.189 15.252 4.527 35.163-4.783 47.87l-7.489-.007c9.31-12.71 10.972-32.62 4.784-47.873" id="b"/><path d="M9.583 8.99C6.998 5.094 3.985 2.128.748.11l7.488.01C11.472 2.136 14.488 5.1 17.071 9a41.047 41.047 0 0 1 3.807 7.27l-7.488-.01a41.268 41.268 0 0 0-3.807-7.27" id="d"/><path d="M.31 10.778c6.74.008 13.497-3.559 18.77-10.754l7.488.008C21.296 7.227 14.539 10.795 7.799 10.786c-2.247-.002-5.243-.007-7.49-.008" id="f"/><path d="M24.002.556l7.488.008C22.986.554 14.464 5.054 7.813 14.13l-7.488-.01C6.975 5.043 15.499.544 24.002.556" id="h"/><path d="M41.864 85.101l-7.49-.01c-9.05-.01-18.079-5.129-24.806-15.276-13.052-19.69-12.5-50.838 1.23-69.577l7.488.01C4.557 18.985 4.006 50.133 17.058 69.825 23.783 79.972 32.813 85.09 41.864 85.1" id="j"/></defs><g fill="none" fill-rule="evenodd"><use fill="#F4B83A" xlink:href="#a" transform="rotate(-40 37.306 40.43)"/><g transform="rotate(-40 52.319 -47.118)"><mask id="c" fill="#fff"><use xlink:href="#b"/></mask><path d="M7.982 47.893l-7.489-.008.044-.062 7.488.01c-.016.02-.029.04-.043.06" fill="#F8C93B" mask="url(#c)"/><path d="M8.025 47.833l-7.488-.01c.263-.36.52-.728.772-1.099l7.489.009c-.252.372-.51.739-.773 1.1" fill="#F8CB3B" mask="url(#c)"/><path d="M8.798 46.733l-7.489-.009c.25-.373.495-.75.735-1.134l7.487.008a36.64 36.64 0 0 1-.733 1.135" fill="#F8CD3B" mask="url(#c)"/><path d="M9.531 45.598l-7.487-.008c.254-.408.5-.82.74-1.24l7.489.009a35.2 35.2 0 0 1-.742 1.24" fill="#F8CF3B" mask="url(#c)"/><path d="M10.273 44.359l-7.489-.008c.24-.42.473-.844.698-1.273l7.49.008c-.227.431-.46.855-.7 1.273" fill="#F8D13B" mask="url(#c)"/><path d="M10.972 43.086l-7.49-.008c.218-.414.43-.833.635-1.257l7.488.01c-.205.423-.417.843-.633 1.255" fill="#F8D33B" mask="url(#c)"/><path d="M11.605 41.83l-7.488-.01c.204-.423.402-.85.593-1.283l7.49.01c-.193.432-.39.86-.595 1.283" fill="#F8D63C" mask="url(#c)"/><path d="M12.2 40.547l-7.49-.01c.187-.42.367-.84.54-1.267l7.49.01c-.175.425-.355.848-.54 1.267" fill="#F7D83C" mask="url(#c)"/><path d="M12.74 39.28l-7.49-.01c.174-.426.34-.858.502-1.29l7.488.01c-.162.431-.329.862-.5 1.29" fill="#F7D93C" mask="url(#c)"/><path d="M13.24 37.99l-7.488-.01c.16-.43.313-.86.461-1.295l7.487.008c-.148.433-.3.867-.46 1.296" fill="#F8DB3C" mask="url(#c)"/><path d="M13.7 36.693l-7.487-.008c.148-.436.289-.873.423-1.315l7.489.008c-.135.442-.278.88-.425 1.315" fill="#F7DE3D" mask="url(#c)"/><path d="M14.125 35.378l-7.489-.008c.138-.447.27-.895.395-1.349l7.488.01c-.125.453-.256.902-.394 1.347" fill="#F8E03C" mask="url(#c)"/><path d="M14.52 34.031l-7.49-.01c.126-.451.244-.908.358-1.366l7.488.008c-.112.46-.232.915-.357 1.368" fill="#F8E854" mask="url(#c)"/><path d="M14.876 32.663l-7.488-.008c.12-.49.233-.981.342-1.475l7.487.008c-.107.495-.22.988-.341 1.475" fill="#F8EB62" mask="url(#c)"/><path d="M15.217 31.188L7.73 31.18c.107-.503.21-1.01.302-1.515l7.488.008a47.141 47.141 0 0 1-.303 1.515" fill="#F9EC6C" mask="url(#c)"/><path d="M15.52 29.673l-7.488-.008c.112-.598.21-1.199.303-1.8l7.487.008c-.09.603-.19 1.202-.302 1.8" fill="#F9EE75" mask="url(#c)"/><path d="M15.822 27.873l-7.487-.008c.1-.684.192-1.371.27-2.06l7.488.008a58.123 58.123 0 0 1-.271 2.06" fill="#F9F07D" mask="url(#c)"/><path d="M16.093 25.813l-7.488-.008a56.11 56.11 0 0 0 .254-3.05l7.489.01a55.914 55.914 0 0 1-.255 3.048" fill="#FBF084" mask="url(#c)"/><path d="M16.348 22.765l-7.489-.01a56.32 56.32 0 0 0 .015-6.06l7.488.01a57.175 57.175 0 0 1-.014 6.06" fill="#FBF18B" mask="url(#c)"/><path d="M16.362 16.706l-7.488-.01a55.978 55.978 0 0 0-.242-3.044l7.489.009c.108 1.01.19 2.026.241 3.045" fill="#FBF084" mask="url(#c)"/><path d="M16.12 13.66l-7.488-.008a55.373 55.373 0 0 0-.272-2.146l7.49.01c.103.711.194 1.428.27 2.145" fill="#F9F07D" mask="url(#c)"/><path d="M15.85 11.516l-7.49-.01a46.94 46.94 0 0 0-.273-1.667l7.49.008c.099.553.19 1.11.273 1.669" fill="#F9EE75" mask="url(#c)"/><path d="M15.577 9.847l-7.49-.008c-.094-.533-.2-1.063-.31-1.59l7.488.01a50.8 50.8 0 0 1 .312 1.588" fill="#F9EC6C" mask="url(#c)"/><path d="M15.265 8.26l-7.488-.01a54.15 54.15 0 0 0-.324-1.438l7.488.01c.114.476.224.955.324 1.438" fill="#F8EB62" mask="url(#c)"/><path d="M14.941 6.822l-7.488-.01a56.826 56.826 0 0 0-.36-1.397l7.488.01c.126.462.246.929.36 1.397" fill="#F8E854" mask="url(#c)"/><path d="M14.58 5.424l-7.488-.01c-.12-.446-.246-.89-.38-1.33l7.487.008c.133.442.262.884.382 1.332" fill="#F8E03C" mask="url(#c)"/><path d="M14.2 4.092l-7.49-.008a51.657 51.657 0 0 0-.417-1.316l7.488.01c.145.433.284.874.417 1.314" fill="#F7DE3D" mask="url(#c)"/><path d="M13.782 2.777l-7.488-.01A58.396 58.396 0 0 0 5.84 1.47l7.488.01c.156.43.308.861.454 1.298" fill="#F8DB3C" mask="url(#c)"/><path d="M13.328 1.48L5.84 1.47A50.77 50.77 0 0 0 5.348.19l7.488.007c.17.424.333.852.492 1.282" fill="#F7D93C" mask="url(#c)"/><path d="M12.836.197L5.348.19a52.765 52.765 0 0 0-.54-1.29l7.488.01c.187.425.367.854.54 1.288" fill="#F7D83C" mask="url(#c)"/></g><g transform="rotate(-40 34.054 -27.848)"><mask id="e" fill="#fff"><use xlink:href="#d"/></mask><path d="M20.95 16.446l-7.489-.009a52.765 52.765 0 0 0-.54-1.29l7.488.01c.187.426.367.855.54 1.289" fill="#F7D83C" mask="url(#e)"/><path d="M20.41 15.157l-7.49-.01a44.903 44.903 0 0 0-.578-1.265l7.488.008c.2.419.393.84.58 1.267" fill="#F8D63C" mask="url(#e)"/><path d="M19.83 13.89l-7.488-.008a43.028 43.028 0 0 0-.64-1.286l7.489.008c.22.425.433.852.639 1.286" fill="#F8D33B" mask="url(#e)"/><path d="M19.19 12.604l-7.488-.008c-.219-.422-.446-.84-.678-1.252l7.488.01c.234.412.458.828.679 1.25" fill="#F8D13B" mask="url(#e)"/><path d="M18.512 11.353l-7.488-.01a42.332 42.332 0 0 0-.65-1.11l7.488.01c.222.365.44.737.65 1.11" fill="#F8CF3B" mask="url(#e)"/><path d="M17.862 10.244l-7.489-.01A40.768 40.768 0 0 0 9.69 9.15l7.488.008c.232.356.46.718.685 1.086" fill="#F8CD3B" mask="url(#e)"/><path d="M17.177 9.158L9.689 9.15c-.036-.052-.07-.107-.106-.16a35.64 35.64 0 0 0-.798-1.156l7.486.008c.271.377.54.764.8 1.159l.106.157" fill="#F8CB3B" mask="url(#e)"/><path d="M16.271 7.842l-7.486-.008c-.32-.442-.644-.873-.975-1.29l7.49.01c.329.416.653.846.971 1.288" fill="#F8C93B" mask="url(#e)"/><path d="M15.3 6.554l-7.49-.01a33.76 33.76 0 0 0-1.026-1.232l7.488.01c.348.396.69.807 1.028 1.232" fill="#F8C73A" mask="url(#e)"/><path d="M14.272 5.322l-7.488-.01a31.77 31.77 0 0 0-1.089-1.178l7.489.01c.368.377.731.77 1.088 1.178" fill="#F7C43A" mask="url(#e)"/><path d="M13.184 4.144l-7.489-.01c-.378-.387-.76-.76-1.148-1.118l7.488.01c.388.357.772.728 1.149 1.118" fill="#F7C239" mask="url(#e)"/><path d="M12.035 3.026l-7.488-.01c-.42-.386-.85-.755-1.28-1.105l7.49.01c.43.35.858.718 1.278 1.105" fill="#F6C039" mask="url(#e)"/><path d="M10.756 1.921l-7.488-.01c-.464-.375-.931-.73-1.405-1.062l7.49.01c.473.333.94.687 1.403 1.062" fill="#F6BF39" mask="url(#e)"/><path d="M9.353.858l-7.49-.01A23.967 23.967 0 0 0 .28-.172l7.488.008A24.87 24.87 0 0 1 9.353.858" fill="#F5BD39" mask="url(#e)"/></g><g transform="rotate(-40 127.36 -45.515)"><mask id="g" fill="#fff"><use xlink:href="#f"/></mask><path d="M7.8 10.786l-7.49-.008a19.458 19.458 0 0 0 5.892-.917l7.489.01a19.413 19.413 0 0 1-5.892.915" fill="#F4B63A" mask="url(#g)"/><path d="M13.69 9.87l-7.488-.009a20.61 20.61 0 0 0 2.459-.952l7.488.01c-.81.373-1.63.69-2.458.952" fill="#F4B83A" mask="url(#g)"/><path d="M16.15 8.919l-7.49-.01a21.276 21.276 0 0 0 1.904-.988l7.487.008c-.627.364-1.261.696-1.902.99" fill="#F5BA39" mask="url(#g)"/><path d="M18.05 7.93l-7.486-.009a23.207 23.207 0 0 0 1.606-1.025l7.489.01c-.53.367-1.066.708-1.608 1.023" fill="#F5BD39" mask="url(#g)"/><path d="M19.659 6.906l-7.489-.01c.474-.328.942-.678 1.402-1.047l7.489.009c-.461.37-.928.72-1.402 1.048" fill="#F6BF39" mask="url(#g)"/><path d="M21.06 5.858l-7.488-.009c.425-.34.846-.698 1.26-1.074l7.49.009c-.416.376-.836.732-1.261 1.074" fill="#F6C039" mask="url(#g)"/><path d="M22.321 4.784l-7.49-.009c.4-.36.792-.737 1.18-1.13l7.488.008c-.387.393-.78.771-1.178 1.13" fill="#F7C239" mask="url(#g)"/><path d="M23.5 3.653l-7.489-.008c.37-.376.735-.767 1.095-1.174l7.489.01c-.36.406-.726.798-1.096 1.172" fill="#F7C43A" mask="url(#g)"/><path d="M24.595 2.481l-7.489-.01c.35-.393.696-.802 1.036-1.223l7.488.006c-.34.424-.685.832-1.035 1.227" fill="#F8C73A" mask="url(#g)"/><path d="M25.63 1.254l-7.488-.006c.318-.397.63-.804.937-1.224l7.489.008c-.308.42-.622.828-.938 1.222" fill="#F8C93B" mask="url(#g)"/></g><path d="M13.6 33.707c-.802-18.306 12.613-29.432 29.773-22.784 16.064 6.221 30.943 26.72 33.294 43.467 2.482 17.664-8.744 29.224-26.265 24.647-18.855-4.926-35.948-25.88-36.801-45.33" fill="#E99E34"/><path fill="#BF862F" d="M31.656 42.589l-2.587 2.568-.27-4.099 2.587-2.568.27 4.099"/><path fill="#BF862F" d="M31.386 38.49l-2.653 2.615-5.899-1.742 2.654-2.616 5.898 1.743"/><path d="M37.033 47.06l7.146 2.112-.41-6.22c-.165-2.498-.813-5.314-3.9-6.226-3.077-.911-3.42 1.487-3.246 4.115l.41 6.219zm19.532-.974c-.195-2.933-.94-5.952-4.537-7.014-3.674-1.085-3.943 1.845-3.741 4.908l.43 6.533 8.3 2.454-.452-6.88zm-11.67-10.232c.68-2.983 2.836-4.751 7.069-3.5 4.373 1.293 7.382 4.673 8.826 8.7l6.958 2.055.413 6.245-6.3-1.86.272 4.1 6.297 1.86.413 6.252-6.3-1.86.22 3.344-30.475-9.006-.22-3.342-5.898-1.743-.412-6.251 5.898 1.74-.27-4.098-5.898-1.743-.41-6.245 6.76 1.998c.904-2.531 2.959-3.799 6.486-2.756 2.953.871 5.287 3.231 6.57 6.11z" fill="#F9CB46"/><path fill="#BF862F" d="M25.488 36.747l-2.654 2.616-.409-6.246 2.652-2.615.411 6.245m6.8 15.437l-2.657 2.62-.22-3.345 2.657-2.617.22 3.342m30.476 9.006l-2.637 2.605-30.477-9.004 2.638-2.607 30.476 9.006"/><path fill="#BF862F" d="M32.068 48.842l-2.697 2.647-5.897-1.742L26.17 47.1l5.898 1.743m-5.898-1.744l-2.696 2.648-.431-6.279 2.715-2.62.412 6.251"/><g transform="rotate(-40 32.02 25.903)"><mask id="i" fill="#fff"><use xlink:href="#h"/></mask><path d="M7.813 14.131l-7.488-.01a43.31 43.31 0 0 1 1.184-1.542l7.488.009c-.4.5-.795 1.014-1.184 1.543" fill="#F8C93B" mask="url(#i)"/><path d="M8.997 12.588l-7.488-.009c.427-.534.863-1.05 1.305-1.548l7.49.01a41.193 41.193 0 0 0-1.307 1.547" fill="#F8C73A" mask="url(#i)"/><path d="M10.304 11.04l-7.49-.009c.456-.51.916-1.004 1.382-1.479l7.488.01c-.467.475-.926.967-1.38 1.479" fill="#F7C43A" mask="url(#i)"/><path d="M11.684 9.562l-7.488-.01c.49-.495.985-.971 1.488-1.426l7.488.008c-.501.455-.998.931-1.488 1.428" fill="#F7C239" mask="url(#i)"/><path d="M13.172 8.134l-7.488-.008A34.772 34.772 0 0 1 7.273 6.77l7.49.01c-.536.43-1.068.88-1.59 1.353" fill="#F6C039" mask="url(#i)"/><path d="M14.762 6.78l-7.49-.01a33.53 33.53 0 0 1 1.77-1.32l7.487.01a31.41 31.41 0 0 0-1.767 1.32" fill="#F6BF39" mask="url(#i)"/><path d="M16.53 5.46l-7.49-.01a29.737 29.737 0 0 1 2.03-1.292l7.488.008c-.683.4-1.36.829-2.03 1.293" fill="#F5BD39" mask="url(#i)"/><path d="M18.56 4.166l-7.489-.008a28.57 28.57 0 0 1 2.4-1.25l7.488.01a28.12 28.12 0 0 0-2.4 1.248" fill="#F5BA39" mask="url(#i)"/><path d="M20.96 2.918l-7.49-.01c1.023-.47 2.057-.87 3.102-1.199l7.486.008a26.64 26.64 0 0 0-3.099 1.201" fill="#F4B83A" mask="url(#i)"/><path d="M24.058 1.717l-7.486-.008a24.485 24.485 0 0 1 7.43-1.153l7.488.008a24.5 24.5 0 0 0-7.432 1.153" fill="#F4B63A" mask="url(#i)"/></g><g transform="rotate(-40 56.328 33.349)"><mask id="k" fill="#fff"><use xlink:href="#j"/></mask><path d="M41.864 85.101l-7.49-.01a24.626 24.626 0 0 1-7.513-1.195l7.489.008a24.58 24.58 0 0 0 7.514 1.197" fill="#F4B63A" mask="url(#k)"/><path d="M34.35 83.904l-7.489-.008a26.642 26.642 0 0 1-3.173-1.255l7.49.009a26.62 26.62 0 0 0 3.172 1.254" fill="#F4B83A" mask="url(#k)"/><path d="M31.178 82.65l-7.49-.009a28.297 28.297 0 0 1-2.382-1.264l7.488.01c.785.465 1.58.886 2.384 1.263" fill="#F5BA39" mask="url(#k)"/><path d="M28.794 81.387l-7.488-.01a30.185 30.185 0 0 1-1.998-1.291l7.489.01c.658.46 1.324.893 1.997 1.291" fill="#F5BD39" mask="url(#k)"/><path d="M26.797 80.095l-7.489-.01a33.35 33.35 0 0 1-1.772-1.338l7.49.01c.583.472 1.172.917 1.77 1.338" fill="#F6BF39" mask="url(#k)"/><path d="M25.026 78.756l-7.49-.01a35.39 35.39 0 0 1-1.614-1.395l7.49.008c.53.49 1.07.954 1.614 1.397" fill="#F6C039" mask="url(#k)"/><path d="M23.412 77.36l-7.49-.01c-.489-.45-.97-.919-1.447-1.408l7.488.008c.475.491.959.96 1.449 1.41" fill="#F7C239" mask="url(#k)"/><path d="M21.963 75.95l-7.488-.008a39.214 39.214 0 0 1-1.375-1.488l7.489.01c.452.513.91 1.01 1.374 1.486" fill="#F7C43A" mask="url(#k)"/><path d="M20.589 74.464l-7.489-.01a40.216 40.216 0 0 1-1.295-1.553l7.489.01c.425.534.856 1.052 1.295 1.553" fill="#F8C73A" mask="url(#k)"/><path d="M19.294 72.91l-7.489-.01a41.717 41.717 0 0 1-1.228-1.626l7.49.01a41.6 41.6 0 0 0 1.227 1.626" fill="#F8C93B" mask="url(#k)"/><path d="M18.067 71.284l-7.49-.01a47.09 47.09 0 0 1-1.01-1.46c-.043-.066-.085-.132-.13-.197l7.49.006c.043.067.085.135.13.202a50.6 50.6 0 0 0 1.01 1.459" fill="#F8CB3B" mask="url(#k)"/><path d="M16.926 69.623l-7.49-.006a59.175 59.175 0 0 1-.865-1.372l7.489.01c.282.462.571.918.866 1.368" fill="#F8CD3B" mask="url(#k)"/><path d="M16.06 68.255l-7.489-.01c-.28-.461-.556-.93-.822-1.402l7.488.008c.268.473.54.943.823 1.404" fill="#F8CF3B" mask="url(#k)"/><path d="M15.237 66.851l-7.488-.008a51.016 51.016 0 0 1-.855-1.58l7.488.009c.276.533.561 1.06.855 1.58" fill="#F8D13B" mask="url(#k)"/><path d="M14.382 65.272l-7.488-.01a51.989 51.989 0 0 1-.808-1.621l7.488.008c.26.547.529 1.088.808 1.623" fill="#F8D33B" mask="url(#k)"/><path d="M13.574 63.649l-7.488-.008a49.22 49.22 0 0 1-.73-1.6l7.488.007c.233.538.478 1.074.73 1.6" fill="#F8D63C" mask="url(#k)"/><path d="M12.844 62.048l-7.489-.008a52.924 52.924 0 0 1-.683-1.626l7.489.006c.22.548.446 1.09.683 1.628" fill="#F7D83C" mask="url(#k)"/><path d="M12.16 60.42l-7.488-.006a57.282 57.282 0 0 1-.62-1.619l7.489.008c.198.543.406 1.083.62 1.617" fill="#F7D93C" mask="url(#k)"/><path d="M11.54 58.803l-7.487-.008c-.2-.542-.39-1.088-.575-1.638l7.49.009c.183.549.373 1.096.573 1.637" fill="#F8DB3C" mask="url(#k)"/><path d="M10.968 57.166l-7.49-.009a64.192 64.192 0 0 1-.529-1.667l7.488.01c.17.56.346 1.115.531 1.666" fill="#F7DE3D" mask="url(#k)"/><path d="M10.437 55.5l-7.488-.01a63.18 63.18 0 0 1-.485-1.688l7.49.01c.152.565.315 1.128.483 1.688" fill="#F8E03C" mask="url(#k)"/><path d="M9.954 53.812l-7.49-.01a69.924 69.924 0 0 1-.451-1.761l7.488.008c.143.59.294 1.18.453 1.763" fill="#F8E854" mask="url(#k)"/><path d="M9.501 52.049l-7.488-.008c-.144-.598-.28-1.2-.407-1.804l7.488.008c.127.605.263 1.206.407 1.804" fill="#F8EB62" mask="url(#k)"/><path d="M9.094 50.245l-7.488-.008a63.184 63.184 0 0 1-.391-2.002l7.488.01c.12.67.25 1.337.391 2" fill="#F9EC6C" mask="url(#k)"/><path d="M8.703 48.245l-7.488-.01a68.481 68.481 0 0 1-.344-2.104l7.488.01c.105.704.219 1.407.344 2.104" fill="#F9EE75" mask="url(#k)"/><path d="M8.359 46.141l-7.488-.01c-.132-.897-.245-1.8-.343-2.707l7.487.008c.097.907.212 1.81.344 2.71" fill="#F9F07D" mask="url(#k)"/><path d="M8.015 43.432l-7.487-.008a67.408 67.408 0 0 1-.303-3.84l7.487.009c.066 1.284.167 2.566.303 3.84" fill="#FBF084" mask="url(#k)"/><path d="M7.712 39.593l-7.487-.01a70.203 70.203 0 0 1 .016-7.641l7.488.01a71.032 71.032 0 0 0-.017 7.641" fill="#FBF18B" mask="url(#k)"/><path d="M7.73 31.951l-7.489-.01c.071-1.286.18-2.568.323-3.845l7.488.01a68.884 68.884 0 0 0-.323 3.845" fill="#FBF084" mask="url(#k)"/><path d="M8.052 28.105l-7.488-.01c.096-.869.21-1.736.34-2.6l7.489.009a65.86 65.86 0 0 0-.34 2.601" fill="#F9F07D" mask="url(#k)"/><path d="M8.393 25.504l-7.49-.008c.115-.759.242-1.516.381-2.27l7.489.01c-.14.752-.266 1.508-.38 2.268" fill="#F9EE75" mask="url(#k)"/><path d="M8.773 23.236l-7.489-.01c.119-.64.247-1.277.383-1.91l7.489.007a63.248 63.248 0 0 0-.383 1.913" fill="#F9EC6C" mask="url(#k)"/><path d="M9.156 21.323l-7.489-.008a63.24 63.24 0 0 1 .43-1.86l7.489.006a64.575 64.575 0 0 0-.43 1.862" fill="#F8EB62" mask="url(#k)"/><path d="M9.586 19.461l-7.489-.006c.143-.58.294-1.154.451-1.726l7.489.008a68.908 68.908 0 0 0-.451 1.724" fill="#F8E854" mask="url(#k)"/><path d="M10.037 17.737l-7.489-.008c.158-.572.323-1.137.497-1.701l7.488.01a63.898 63.898 0 0 0-.496 1.7" fill="#F8E03C" mask="url(#k)"/><path d="M10.533 16.038l-7.488-.01c.17-.557.35-1.108.535-1.657l7.489.01c-.185.547-.364 1.1-.536 1.657" fill="#F7DE3D" mask="url(#k)"/><path d="M11.069 14.38l-7.489-.01c.187-.547.38-1.093.581-1.632l7.489.008c-.2.54-.396 1.085-.581 1.634" fill="#F8DB3C" mask="url(#k)"/><path d="M11.65 12.746l-7.489-.008c.203-.548.414-1.09.633-1.628l7.488.008c-.219.538-.428 1.08-.632 1.628" fill="#F7D93C" mask="url(#k)"/><path d="M12.282 11.118l-7.488-.008c.22-.538.446-1.073.68-1.6l7.488.007c-.233.528-.46 1.063-.68 1.6" fill="#F7D83C" mask="url(#k)"/><path d="M12.962 9.517L5.474 9.51c.242-.546.493-1.085.751-1.62l7.489.01a58.841 58.841 0 0 0-.752 1.618" fill="#F8D63C" mask="url(#k)"/><path d="M13.714 7.899l-7.489-.01c.258-.534.524-1.062.8-1.586l7.488.01a48.264 48.264 0 0 0-.8 1.586" fill="#F8D33B" mask="url(#k)"/><path d="M14.513 6.313l-7.488-.01c.286-.54.578-1.075.881-1.605l7.487.01c-.3.528-.596 1.064-.88 1.605" fill="#F8D13B" mask="url(#k)"/><path d="M15.393 4.708l-7.487-.01c.302-.528.615-1.05.935-1.563l7.488.006a51.8 51.8 0 0 0-.936 1.567" fill="#F8CF3B" mask="url(#k)"/><path d="M16.33 3.141l-7.49-.006c.303-.484.61-.962.927-1.432l7.49.01c-.318.47-.626.946-.928 1.428" fill="#F8CD3B" mask="url(#k)"/><path d="M17.257 1.713l-7.49-.01c.318-.47.643-.932.976-1.389l7.488.01c-.333.455-.657.92-.974 1.39" fill="#F8CB3B" mask="url(#k)"/><path d="M18.23.324l-7.487-.01c.019-.024.035-.05.055-.076l7.488.01-.055.076" fill="#F8C93B" mask="url(#k)"/></g><path d="M79.426 54.164c-1.212-18.372-16.75-37.567-34.695-42.868-17.952-5.304-31.52 5.289-30.309 23.663 1.211 18.374 16.743 37.565 34.694 42.869 17.944 5.302 31.521-5.29 30.31-23.664zM5.91 32.444C4.381 9.266 21.504-4.101 44.158 2.59 66.805 9.282 86.402 33.5 87.93 56.677c1.528 23.18-15.592 36.547-38.238 29.857-22.656-6.695-42.255-30.91-43.783-54.09z" fill="#F4B83A"/></g></svg>