<svg width="96" height="91" viewBox="0 0 96 91" xmlns="http://www.w3.org/2000/svg" xmlns:xlink="http://www.w3.org/1999/xlink"><title>bitcoin 7</title><defs><path d="M85.206 4.243l7.225 7.683c8.931 9.497-.828 33.184-22.378 53.732-22.08 21.055-48.181 30.832-58.3 21.835a11.67 11.67 0 0 1-.703-.685l-7.225-7.684c.224.238.459.467.705.686 10.118 8.997 36.218-.78 58.298-21.835 21.55-20.548 31.31-44.235 22.378-53.732" id="a"/><path d="M7.946 38.806c-2.39-2.56-4.777-5.122-7.164-7.682 3.204-4.763 7.302-9.643 12.164-14.319C20.703 9.347 29.09 3.675 36.706.32L43.87 8c-7.615 3.357-16.003 9.029-23.759 16.488-4.863 4.674-8.96 9.555-12.165 14.317" id="b"/><path d="M15.946 8.473C7.99 20.287 5.533 31.366 10.533 36.729l-7.164-7.682C-1.631 23.684.827 12.605 8.782.79l7.164 7.683" id="d"/><path d="M7.87 11.194L.706 3.51c9.424-4.154 17.665-4.762 22.06-.82.194.173.38.354.554.542l7.165 7.683a8.273 8.273 0 0 0-.555-.543c-4.395-3.942-12.636-3.333-22.06.82" id="f"/><path d="M81.296.251l7.165 7.684c8.857 9.497-.821 33.184-22.191 53.732C44.373 82.72 18.49 92.498 8.456 83.5c-.244-.22-.477-.448-.698-.685L.593 75.133c.222.238.455.466.699.686 10.034 8.997 35.916-.78 57.813-21.835C80.475 33.436 90.153 9.749 81.296.25" id="h"/></defs><g fill="none" fill-rule="evenodd"><g fill="#F8CB3B"><path d="M64.538 59.47C39.933 82.617 14.648 88.806 4.53 79.81c-10.114-8.994-.413-33.354 21.668-54.408C48.286 4.34 74.388-5.437 84.501 3.557c10.118 8.997 4.642 32.763-19.963 55.912z"/><use xlink:href="#a"/></g><g transform="translate(16.8 11.974)"><mask id="c" fill="#fff"><use xlink:href="#b"/></mask><path d="M37.858-.174l7.164 7.682a58.26 58.26 0 0 0-1.612.698L36.246.524a54.581 54.581 0 0 1 1.612-.698" fill="#F8CE3B" mask="url(#c)"/><path d="M36.246.524l7.164 7.682c-.476.215-.955.439-1.436.671L34.81 1.194c.481-.232.96-.456 1.436-.67" fill="#F8CF3B" mask="url(#c)"/><path d="M34.81 1.194l7.164 7.683c-.49.237-.983.482-1.477.737l-7.165-7.682c.495-.255.988-.5 1.478-.738" fill="#F8D03B" mask="url(#c)"/><path d="M33.332 1.932l7.165 7.682c-.5.258-1.003.525-1.507.8l-7.165-7.682a69.48 69.48 0 0 1 1.507-.8" fill="#F8D13B" mask="url(#c)"/><path d="M31.825 2.732l7.165 7.682c-.474.259-.948.525-1.424.799l-7.164-7.682c.476-.275.95-.54 1.423-.8" fill="#F8D23B" mask="url(#c)"/><path d="M30.402 3.53l7.164 7.683a74.01 74.01 0 0 0-1.42.839l-7.164-7.683a72.34 72.34 0 0 1 1.42-.838" fill="#F8D33B" mask="url(#c)"/><path d="M28.982 4.369l7.164 7.683c-.44.267-.882.54-1.325.82l-7.164-7.683c.442-.28.885-.554 1.325-.82" fill="#F8D43B" mask="url(#c)"/><path d="M27.657 5.189l7.164 7.683c-.442.28-.885.565-1.329.858l-7.165-7.682c.444-.293.888-.58 1.33-.86" fill="#F8D63C" mask="url(#c)"/><path d="M26.327 6.048l7.165 7.682a76.57 76.57 0 0 0-1.255.844L25.073 6.89c.418-.287.837-.568 1.254-.843" fill="#F8D73C" mask="url(#c)"/><path d="M25.073 6.891l7.164 7.683c-.419.287-.837.58-1.255.877l-7.166-7.683c.42-.298.838-.59 1.257-.877" fill="#F7D83C" mask="url(#c)"/><path d="M23.816 7.768l7.166 7.683c-.412.293-.824.59-1.236.895l-7.164-7.683c.412-.304.824-.602 1.234-.895" fill="#F7D93C" mask="url(#c)"/><path d="M22.582 8.663l7.164 7.683c-.41.301-.82.61-1.23.922l-7.164-7.683c.41-.313.82-.62 1.23-.922" fill="#F7DA3C" mask="url(#c)"/><path d="M21.352 9.585l7.164 7.683c-.423.323-.846.652-1.268.985l-7.165-7.682c.423-.334.846-.662 1.269-.986" fill="#F8DB3C" mask="url(#c)"/><path d="M20.083 10.571l7.165 7.682c-.43.34-.86.686-1.287 1.037l-7.164-7.683c.428-.35.857-.697 1.286-1.036" fill="#F8DD3D" mask="url(#c)"/><path d="M18.797 11.607l7.164 7.683c-.476.39-.95.786-1.423 1.189l-7.164-7.682c.473-.403.947-.8 1.423-1.19" fill="#F7DE3D" mask="url(#c)"/><path d="M17.374 12.797l7.164 7.682c-.51.435-1.02.877-1.525 1.327l-7.165-7.683c.506-.45 1.015-.891 1.526-1.326" fill="#F7DF3C" mask="url(#c)"/><path d="M15.848 14.123l7.165 7.683c-.71.63-1.415 1.275-2.116 1.935l-7.164-7.683c.7-.66 1.406-1.305 2.115-1.935" fill="#F8E03C" mask="url(#c)"/><path d="M13.733 16.058l7.164 7.683a96.675 96.675 0 0 0-6.576 6.811L7.156 22.87a97.137 97.137 0 0 1 6.577-6.812" fill="#F8E853" mask="url(#c)"/><path d="M7.156 22.87l7.165 7.682a89.64 89.64 0 0 0-1.861 2.2l-7.164-7.684c.6-.733 1.22-1.467 1.86-2.198" fill="#F8E03C" mask="url(#c)"/><path d="M5.296 25.068l7.164 7.683a90.184 90.184 0 0 0-1.358 1.701L3.938 26.77c.441-.567.894-1.134 1.358-1.7" fill="#F7DF3C" mask="url(#c)"/><path d="M3.938 26.77l7.164 7.682a86.9 86.9 0 0 0-1.136 1.496l-7.164-7.682c.37-.498.748-.997 1.136-1.497" fill="#F7DE3D" mask="url(#c)"/><path d="M2.802 28.266l7.164 7.682c-.359.486-.71.97-1.05 1.453L1.75 29.718c.342-.483.693-.968 1.052-1.452" fill="#F8DD3D" mask="url(#c)"/><path d="M1.75 29.718L8.915 37.4c-.328.464-.647.927-.958 1.388L.792 31.106c.311-.461.63-.924.958-1.388" fill="#F8DB3C" mask="url(#c)"/><path d="M.792 31.106l7.165 7.683c-.313.464-.617.927-.912 1.388L-.12 32.495c.296-.461.6-.924.912-1.389" fill="#F7DA3C" mask="url(#c)"/></g><g transform="translate(8.8 42.307)"><mask id="e" fill="#fff"><use xlink:href="#d"/></mask><path d="M8.792.773l7.165 7.683c-.313.464-.617.927-.912 1.388L7.88 2.162c.296-.462.6-.925.912-1.39" fill="#F7DA3C" mask="url(#e)"/><path d="M7.88 2.162l7.165 7.682c-.3.47-.592.936-.874 1.402L7.006 3.563a68.6 68.6 0 0 1 .874-1.401" fill="#F7D93C" mask="url(#e)"/><path d="M7.006 3.563l7.165 7.683c-.289.474-.566.946-.835 1.417L6.171 4.98c.27-.47.547-.942.835-1.417" fill="#F7D83C" mask="url(#e)"/><path d="M6.171 4.98l7.165 7.683c-.275.48-.54.96-.795 1.436L5.376 6.417c.255-.476.52-.955.795-1.437" fill="#F8D73C" mask="url(#e)"/><path d="M5.376 6.417l7.165 7.682c-.263.49-.515.978-.757 1.462L4.62 7.879c.24-.485.494-.973.756-1.462" fill="#F8D63C" mask="url(#e)"/><path d="M4.62 7.879l7.164 7.682c-.24.485-.472.967-.693 1.446L3.927 9.325c.22-.479.451-.961.693-1.446" fill="#F8D43B" mask="url(#e)"/><path d="M3.927 9.325l7.164 7.682a49.43 49.43 0 0 0-.563 1.276L3.364 10.6c.18-.422.366-.847.563-1.275" fill="#F8D33B" mask="url(#e)"/><path d="M3.364 10.6l7.164 7.683c-.189.446-.369.888-.538 1.327l-7.164-7.683c.17-.438.348-.88.538-1.327" fill="#F8D23B" mask="url(#e)"/><path d="M2.826 11.927L9.99 19.61c-.207.538-.399 1.07-.575 1.594L2.25 13.52a38.71 38.71 0 0 1 .576-1.594" fill="#F8D13B" mask="url(#e)"/><path d="M2.25 13.521l7.165 7.683a33.647 33.647 0 0 0-.477 1.532l-7.164-7.682c.143-.504.303-1.015.476-1.533" fill="#F8D03B" mask="url(#e)"/><path d="M1.774 15.054l7.164 7.682c-.144.503-.27.997-.384 1.486L1.39 16.539c.112-.488.24-.983.384-1.485" fill="#F8CF3B" mask="url(#e)"/><path d="M1.39 16.539l7.164 7.683c-.112.488-.21.969-.293 1.442L1.097 17.98c.082-.472.18-.953.293-1.441" fill="#F8CE3B" mask="url(#e)"/><path d="M1.097 17.98l7.164 7.684c-.083.482-.15.955-.203 1.42L.894 19.4c.052-.464.12-.938.203-1.42" fill="#F8CD3B" mask="url(#e)"/><path d="M.894 19.401l7.164 7.683a20.43 20.43 0 0 0-.105 1.397L.789 20.8c.018-.457.053-.923.105-1.398" fill="#F8CB3B" mask="url(#e)"/><path d="M.789 20.8l7.164 7.681c-.018.47-.018.93 0 1.379L.79 22.177c-.019-.448-.02-.909-.001-1.378" fill="#F8CA3B" mask="url(#e)"/><path d="M.79 22.177l7.164 7.683c.02.485.062.955.128 1.413L.916 23.59a14.765 14.765 0 0 1-.126-1.413" fill="#F8C93B" mask="url(#e)"/><path d="M.916 23.59l7.166 7.683c.068.497.166.978.29 1.44l-7.166-7.682c-.123-.463-.22-.944-.29-1.441" fill="#F8C83B" mask="url(#e)"/><path d="M1.206 25.031l7.165 7.683c.141.528.315 1.033.527 1.512l-7.165-7.683a10.57 10.57 0 0 1-.527-1.512" fill="#F8C73A" mask="url(#e)"/><path d="M1.733 26.543l7.165 7.683A9.15 9.15 0 0 0 9.85 35.9l-7.164-7.684a9.08 9.08 0 0 1-.953-1.673" fill="#F8C63A" mask="url(#e)"/><path d="M2.686 28.216L9.85 35.9c.21.29.438.566.684.83l-7.165-7.683a8.555 8.555 0 0 1-.683-.83" fill="#F7C43A" mask="url(#e)"/></g><g transform="translate(52.8 8.78)"><mask id="g" fill="#fff"><use xlink:href="#f"/></mask><path d="M23.32 3.233l7.165 7.683a8.273 8.273 0 0 0-.555-.543c-1.78-1.597-4.192-2.447-7.057-2.617L15.709.073c2.865.17 5.277 1.02 7.057 2.617.194.174.38.355.554.543" fill="#F7C43A" mask="url(#g)"/><path d="M15.709.073l7.164 7.683a20.189 20.189 0 0 0-2.548.018L13.16.091a20.14 20.14 0 0 1 2.548-.018" fill="#F8C63A" mask="url(#g)"/><path d="M13.16.091l7.165 7.683c-.697.047-1.414.128-2.149.24L11.011.332a25.708 25.708 0 0 1 2.15-.241" fill="#F8C73A" mask="url(#g)"/><path d="M11.011.332l7.165 7.682c-.642.1-1.296.222-1.963.37L9.048.7a30.66 30.66 0 0 1 1.963-.368" fill="#F8C83B" mask="url(#g)"/><path d="M9.048.7l7.165 7.683c-.613.135-1.235.29-1.867.466L7.182 1.165A37.35 37.35 0 0 1 9.048.7" fill="#F8C93B" mask="url(#g)"/><path d="M7.182 1.165l7.164 7.684c-.597.165-1.2.348-1.813.548L5.369 1.714c.612-.2 1.216-.383 1.813-.549" fill="#F8CA3B" mask="url(#g)"/><path d="M5.369 1.714l7.164 7.683c-.583.19-1.173.397-1.77.62L3.6 2.332a46.098 46.098 0 0 1 1.77-.62" fill="#F8CB3B" mask="url(#g)"/><path d="M3.6 2.333l7.163 7.683c-.574.214-1.154.443-1.74.685L1.857 3.02a49.951 49.951 0 0 1 1.741-.686" fill="#F8CD3B" mask="url(#g)"/><path d="M1.858 3.019l7.164 7.682a58.26 58.26 0 0 0-1.612.698L.246 3.717a54.581 54.581 0 0 1 1.612-.698" fill="#F8CE3B" mask="url(#g)"/></g><path d="M76.156 12.006c-7.196-4.08-23.588 2.325-38.88 15.39C19.778 42.344 7.478 62.673 12.814 71.68c6.101 10.303 30.47-.126 50.101-20.998C79.538 33.01 84.128 16.526 76.156 12.006" fill="#E5AC34"/><path fill="#BF862F" d="M63.66 20.844l7.165 7.682-5.71 5.49-7.164-7.683 5.71-5.49M28.484 54.666l2.675 2.87-5.858 6.108-2.906-3.123 6.089-5.855"/><path fill="#F6BE43" d="M22.395 60.521l2.906 3.123-2.706-2.427-2.905-3.121 2.705 2.425"/><path d="M52.966 49.228c.084-.573.08-1.162-.064-1.726l-3.744-3.982c.584 2.273-.888 4.653-2.216 6.37-1.899 2.454-4.379 4.771-7.075 6.343-1.789 1.144-4.105 2.076-6.269 1.834l3.744 3.982c3.485.391 6.933-2.015 9.436-4.152 2.547-2.176 5.67-5.18 6.188-8.67m15.171-24.37l3.81 4.13-6.545 6.293-3.81-4.13 6.545-6.293" fill="#BF862F"/><path fill="#BF862F" d="M33.598 58.067l3.744 3.982-6.727 6.468-3.744-3.982 6.727-6.468"/><path fill="#F6BE43" d="M26.871 64.535l3.744 3.982-2.705-2.425-3.744-3.983 2.705 2.426"/><path d="M65.425 36.143a5.1 5.1 0 0 0 .009-.856l-3.842-4.137c.27 3.26-2.532 6.313-4.71 8.36-2.046 1.92-4.797 3.94-7.724 4.01l3.841 4.136c2.842-.066 5.519-1.988 7.524-3.826 2.147-1.966 4.619-4.639 4.902-7.687" fill="#BF862F"/><g transform="translate(3.2 3.991)"><mask id="i" fill="#fff"><use xlink:href="#h"/></mask><path d="M81.296.251l7.165 7.684c.31.332.597.681.861 1.048L82.158 1.3a10.78 10.78 0 0 0-.862-1.05" fill="#F7C43A" mask="url(#i)"/><path d="M82.158 1.3l7.164 7.683c.472.652.873 1.357 1.204 2.112l-7.164-7.683A11.521 11.521 0 0 0 82.158 1.3" fill="#F8C63A" mask="url(#i)"/><path d="M83.362 3.412l7.164 7.683c.266.606.488 1.243.665 1.908L84.026 5.32a13.167 13.167 0 0 0-.664-1.908" fill="#F8C73A" mask="url(#i)"/><path d="M84.026 5.32l7.165 7.683a15.3 15.3 0 0 1 .366 1.82L84.392 7.14a15.457 15.457 0 0 0-.366-1.82" fill="#F8C83B" mask="url(#i)"/><path d="M84.392 7.14l7.165 7.683c.081.576.134 1.171.16 1.782l-7.164-7.682a18.127 18.127 0 0 0-.161-1.783" fill="#F8C93B" mask="url(#i)"/><path d="M84.553 8.923l7.164 7.682c.024.566.024 1.146 0 1.739l-7.164-7.683c.024-.593.024-1.173 0-1.738" fill="#F8CA3B" mask="url(#i)"/><path d="M84.553 10.661l7.165 7.683a25.255 25.255 0 0 1-.133 1.763l-7.165-7.683c.066-.6.111-1.187.133-1.763" fill="#F8CB3B" mask="url(#i)"/><path d="M84.42 12.424l7.165 7.683c-.065.586-.15 1.183-.255 1.791l-7.164-7.683a28.6 28.6 0 0 0 .254-1.791" fill="#F8CD3B" mask="url(#i)"/><path d="M84.166 14.215l7.164 7.683a32.998 32.998 0 0 1-.37 1.818l-7.164-7.682c.142-.616.266-1.223.37-1.819" fill="#F8CE3B" mask="url(#i)"/><path d="M83.796 16.034l7.164 7.682c-.142.615-.304 1.24-.484 1.873l-7.164-7.683c.18-.633.342-1.257.484-1.872" fill="#F8CF3B" mask="url(#i)"/><path d="M83.312 17.906l7.164 7.683c-.182.636-.382 1.28-.6 1.932L82.71 19.84c.22-.652.42-1.297.602-1.933" fill="#F8D03B" mask="url(#i)"/><path d="M82.71 19.839l7.165 7.682a49.645 49.645 0 0 1-.726 2.01l-7.165-7.682c.262-.678.503-1.348.726-2.01" fill="#F8D13B" mask="url(#i)"/><path d="M81.984 21.849l7.165 7.683c-.214.553-.44 1.111-.679 1.674l-7.164-7.683c.24-.562.465-1.121.678-1.674" fill="#F8D23B" mask="url(#i)"/><path d="M81.306 23.523l7.164 7.683a56.179 56.179 0 0 1-.71 1.607l-7.164-7.683a58.52 58.52 0 0 0 .71-1.607" fill="#F8D33B" mask="url(#i)"/><path d="M80.596 25.13l7.165 7.683c-.279.605-.57 1.213-.875 1.826l-7.164-7.682c.305-.614.596-1.222.874-1.827" fill="#F8D43B" mask="url(#i)"/><path d="M79.722 26.957l7.164 7.682c-.304.61-.622 1.226-.954 1.845L78.768 28.8c.331-.619.649-1.234.954-1.844" fill="#F8D63C" mask="url(#i)"/><path d="M78.768 28.8l7.164 7.684c-.32.6-.654 1.201-1 1.807l-7.165-7.682a73.74 73.74 0 0 0 1.001-1.808" fill="#F8D73C" mask="url(#i)"/><path d="M77.767 30.609l7.164 7.682a81.216 81.216 0 0 1-1.052 1.786l-7.164-7.683c.363-.597.713-1.193 1.052-1.785" fill="#F7D83C" mask="url(#i)"/><path d="M76.715 32.394l7.164 7.683a86.668 86.668 0 0 1-1.1 1.765l-7.165-7.682c.378-.59.745-1.18 1.101-1.766" fill="#F7D93C" mask="url(#i)"/><path d="M75.614 34.16l7.165 7.682c-.374.585-.76 1.171-1.156 1.759l-7.164-7.682c.396-.589.781-1.175 1.155-1.759" fill="#F7DA3C" mask="url(#i)"/><path d="M74.46 35.919l7.163 7.682a92.733 92.733 0 0 1-1.213 1.76l-7.164-7.683c.414-.588.819-1.175 1.213-1.76" fill="#F8DB3C" mask="url(#i)"/><path d="M73.246 37.678l7.164 7.682a98.42 98.42 0 0 1-1.33 1.835l-7.164-7.683c.454-.612.898-1.223 1.33-1.834" fill="#F8DD3D" mask="url(#i)"/><path d="M71.916 39.512l7.165 7.683a104.2 104.2 0 0 1-1.435 1.89l-7.164-7.683c.49-.63.968-1.26 1.434-1.89" fill="#F7DE3D" mask="url(#i)"/><path d="M70.482 41.402l7.164 7.682c-.557.717-1.13 1.433-1.716 2.149l-7.164-7.682a104.79 104.79 0 0 0 1.716-2.15" fill="#F7DF3C" mask="url(#i)"/><path d="M68.766 43.55l7.164 7.683c-.758.927-1.542 1.853-2.35 2.777l-7.164-7.683c.808-.924 1.592-1.85 2.35-2.776" fill="#F8E03C" mask="url(#i)"/><path d="M66.416 46.327l7.165 7.683a122.483 122.483 0 0 1-8.304 8.6l-7.164-7.682a121.801 121.801 0 0 0 8.303-8.601" fill="#F8E853" mask="url(#i)"/><path d="M58.113 54.928l7.164 7.682c-.884.833-1.775 1.646-2.669 2.441l-7.164-7.683a127.59 127.59 0 0 0 2.669-2.44" fill="#F8E03C" mask="url(#i)"/><path d="M55.444 57.368l7.164 7.683c-.64.568-1.282 1.127-1.926 1.675l-7.164-7.683c.644-.548 1.286-1.106 1.926-1.675" fill="#F7DF3C" mask="url(#i)"/><path d="M53.518 59.043l7.164 7.683a126.73 126.73 0 0 1-1.795 1.5l-7.165-7.682c.6-.492 1.199-.992 1.796-1.501" fill="#F7DE3D" mask="url(#i)"/><path d="M51.722 60.544l7.165 7.683a120 120 0 0 1-1.624 1.307l-7.165-7.683c.543-.428 1.084-.864 1.624-1.307" fill="#F8DD3D" mask="url(#i)"/><path d="M50.098 61.851l7.165 7.683c-.533.422-1.066.836-1.6 1.244l-7.165-7.683a98.796 98.796 0 0 0 1.6-1.244" fill="#F8DB3C" mask="url(#i)"/><path d="M48.498 63.095l7.164 7.683c-.516.395-1.034.782-1.55 1.164l-7.165-7.682c.517-.382 1.035-.77 1.551-1.165" fill="#F7DA3C" mask="url(#i)"/><path d="M46.947 64.26l7.164 7.682c-.52.383-1.039.76-1.559 1.13l-7.165-7.684c.52-.369 1.04-.745 1.56-1.128" fill="#F7D93C" mask="url(#i)"/><path d="M45.387 65.388l7.165 7.683c-.53.377-1.06.748-1.589 1.11L43.8 66.498c.529-.363 1.059-.732 1.588-1.11" fill="#F7D83C" mask="url(#i)"/><path d="M43.8 66.498l7.163 7.683c-.53.363-1.059.72-1.588 1.068l-7.165-7.682c.53-.35 1.059-.706 1.59-1.07" fill="#F8D73C" mask="url(#i)"/><path d="M42.21 67.567l7.165 7.682c-.559.368-1.116.728-1.673 1.08l-7.164-7.683c.556-.352 1.114-.712 1.672-1.08" fill="#F8D63C" mask="url(#i)"/><path d="M40.538 68.646l7.164 7.683c-.556.351-1.112.695-1.666 1.03l-7.164-7.682c.554-.335 1.11-.679 1.666-1.031" fill="#F8D43B" mask="url(#i)"/><path d="M38.872 69.677l7.164 7.683a92.67 92.67 0 0 1-1.79 1.057l-7.165-7.682a92.716 92.716 0 0 0 1.791-1.058" fill="#F8D33B" mask="url(#i)"/><path d="M37.08 70.735l7.166 7.682c-.601.347-1.2.683-1.798 1.008l-7.164-7.682a89.343 89.343 0 0 0 1.797-1.008" fill="#F8D23B" mask="url(#i)"/><path d="M35.284 71.743l7.164 7.682a88.23 88.23 0 0 1-1.9 1.01l-7.166-7.682a86.545 86.545 0 0 0 1.902-1.01" fill="#F8D13B" mask="url(#i)"/><path d="M33.382 72.753l7.165 7.682c-.625.321-1.246.632-1.865.93l-7.164-7.682c.618-.299 1.24-.61 1.864-.93" fill="#F8D03B" mask="url(#i)"/><path d="M31.518 73.683l7.164 7.682c-.606.293-1.21.575-1.81.846l-7.164-7.683c.6-.27 1.203-.552 1.81-.845" fill="#F8CF3B" mask="url(#i)"/><path d="M29.708 74.528l7.164 7.683c-.682.308-1.36.601-2.033.88l-7.164-7.683c.672-.278 1.35-.572 2.033-.88" fill="#F8CE3B" mask="url(#i)"/><path d="M27.675 75.408l7.164 7.683a65.92 65.92 0 0 1-2.196.864l-7.164-7.683a64.26 64.26 0 0 0 2.196-.864" fill="#F8CD3B" mask="url(#i)"/><path d="M25.48 76.272l7.163 7.683a58.01 58.01 0 0 1-2.231.781l-7.165-7.682a59.94 59.94 0 0 0 2.232-.782" fill="#F8CB3B" mask="url(#i)"/><path d="M23.247 77.054l7.165 7.682c-.772.253-1.534.483-2.286.691l-7.165-7.682a52.485 52.485 0 0 0 2.286-.691" fill="#F8CA3B" mask="url(#i)"/><path d="M20.96 77.745l7.166 7.682a45.9 45.9 0 0 1-2.356.588l-7.164-7.683a45.04 45.04 0 0 0 2.355-.587" fill="#F8C93B" mask="url(#i)"/><path d="M18.606 78.332l7.164 7.683c-.841.185-1.667.34-2.476.465l-7.164-7.683c.808-.124 1.635-.28 2.476-.465" fill="#F8C83B" mask="url(#i)"/><path d="M16.13 78.797l7.164 7.683c-.928.142-1.832.244-2.712.303L13.418 79.1c.88-.06 1.784-.162 2.712-.304" fill="#F8C73A" mask="url(#i)"/><path d="M13.418 79.1l7.164 7.683a25.365 25.365 0 0 1-3.214.023l-7.164-7.682c1.026.06 2.1.052 3.214-.023" fill="#F8C63A" mask="url(#i)"/><path d="M10.204 79.124l7.164 7.682c-3.618-.215-6.662-1.288-8.912-3.305-.244-.22-.477-.448-.698-.685L.593 75.133c.222.238.455.466.699.686 2.249 2.016 5.294 3.09 8.912 3.305" fill="#F7C43A" mask="url(#i)"/></g><path d="M12.722 71.896c7.95 7.13 28.464-.62 45.813-17.3C75.892 37.905 83.516 18.6 75.566 11.47c-7.947-7.126-28.463.62-45.82 17.308-17.35 16.682-24.97 35.991-17.024 43.117zM83.797 3.557c10.033 8.997.413 33.357-21.492 54.418C40.408 79.03 14.525 88.807 4.492 79.81c-10.03-8.994-.41-33.354 21.488-54.408C47.884 4.34 73.767-5.437 83.797 3.557z" fill="#F8CB3B"/><path d="M51.675 30.003l-6.917 6.65 2.692 2.415c1.081.97 2.692 1.567 5.676-1.302 2.976-2.862 2.378-4.33 1.241-5.35l-2.692-2.413zM35.321 51.259c1.27 1.139 3.04 1.725 6.517-1.62 3.553-3.416 2.684-5.042 1.356-6.234l-2.824-2.532-8.025 7.717 2.976 2.67zm13.837-7.74c.536 2.09-.64 5.197-4.732 9.132-4.23 4.067-8.077 5.724-10.828 5.416l-6.727 6.468-2.705-2.426 6.088-5.855-1.77-1.588-6.089 5.855-2.705-2.425 6.09-5.856-1.451-1.3 29.466-28.333 1.45 1.3 5.71-5.49 2.706 2.427-5.71 5.49 1.77 1.587 5.71-5.49 2.706 2.426-6.545 6.293c.176 2.12-1.104 4.894-4.513 8.172-2.855 2.745-5.744 4.146-7.921 4.198z" fill="#F8C646"/></g></svg>