<svg width="102" height="102" viewBox="0 0 102 102" xmlns="http://www.w3.org/2000/svg" xmlns:xlink="http://www.w3.org/1999/xlink"><title>bitcoin 9</title><defs><path d="M103.982 23.283c5.21 8.847 5.385 20.623-.713 33.008C91.54 80.11 61.04 97.158 35.141 94.364 10.246 91.68-1.332 71.636 8.228 48.928 3.485 60.192 3.945 70.8 8.65 78.96l-4.21-7.299c-5.088-8.822-5.213-20.507.834-32.787C17.007 15.046 47.509-2 73.407.793c12.545 1.353 21.708 7.113 26.489 15.402l4.086 7.088z" id="a"/><path d="M49.765.894l4.211 7.299C42.679 22.833 22.441 32.455 4.879 30.56l-4.211-7.3c17.564 1.895 37.8-7.728 49.097-22.367" id="b"/><path d="M5.333 14.492C7.657 9.773 8.832 5.163 8.965.872l4.21 7.298c-.134 4.292-1.308 8.902-3.631 13.621-1.343 2.726-2.995 5.339-4.901 7.81L.432 22.302c1.908-2.471 3.56-5.084 4.901-7.81" id="d"/><path d="M1.007.347C4.796 6.917 12.059 11.484 22 12.557l4.211 7.3C16.268 18.782 9.005 14.214 5.217 7.644c-1.264-2.19-2.946-5.11-4.21-7.298" id="f"/><path d="M3.632 12.913C3.773 8.353 2.74 4.151.662.547l4.21 7.3c2.079 3.603 3.11 7.805 2.97 12.365-.149-.255-.345-.597-.491-.85l-.523-.905-.54-.938a606.555 606.555 0 0 1-1.101-1.91l-.543-.939-.52-.903-.25-.434c-.073-.125-.207-.278-.242-.42" id="h"/><path d="M26.563 16.195l4.209 7.3C25.991 15.206 16.828 9.447 4.284 8.093L.074.793C12.618 2.146 21.78 7.906 26.562 16.195" id="j"/><path d="M8.65 78.961l-4.209-7.299c-5.088-8.822-5.213-20.507.834-32.787C17.007 15.046 47.509-2 73.407.793l4.21 7.3c-25.897-2.795-56.4 14.251-68.132 38.08-6.046 12.28-5.922 23.965-.834 32.787" id="l"/></defs><g fill="none" fill-rule="evenodd"><use fill="#F4B83A" xlink:href="#a" transform="rotate(-15 64.98 62.647)"/><g transform="rotate(-15 255.994 -96.443)"><mask id="c" fill="#fff"><use xlink:href="#b"/></mask><path d="M4.879 30.56L.668 23.263l.084.009 4.21 7.299-.083-.01" fill="#F8C93B" mask="url(#c)"/><path d="M4.963 30.57l-4.211-7.3c.499.052.999.096 1.501.13l4.211 7.3a39.828 39.828 0 0 1-1.501-.13" fill="#F8CB3B" mask="url(#c)"/><path d="M6.464 30.7l-4.21-7.3c.502.036 1.006.06 1.513.077l4.209 7.299a43.643 43.643 0 0 1-1.512-.076" fill="#F8CD3B" mask="url(#c)"/><path d="M7.976 30.776l-4.21-7.299c.538.017 1.078.024 1.62.021l4.21 7.3a43.525 43.525 0 0 1-1.62-.022" fill="#F8CF3B" mask="url(#c)"/><path d="M9.596 30.797l-4.21-7.299c.54-.002 1.083-.014 1.626-.038l4.21 7.299c-.543.024-1.086.036-1.626.038" fill="#F8D13B" mask="url(#c)"/><path d="M11.221 30.759l-4.209-7.3a44.79 44.79 0 0 0 1.576-.09l4.21 7.299a44.68 44.68 0 0 1-1.577.09" fill="#F8D33B" mask="url(#c)"/><path d="M12.799 30.668l-4.211-7.3a52.81 52.81 0 0 0 1.579-.145l4.209 7.299a56.68 56.68 0 0 1-1.577.146" fill="#F8D63C" mask="url(#c)"/><path d="M14.376 30.522l-4.21-7.3a47.15 47.15 0 0 0 1.533-.19l4.21 7.298a50.48 50.48 0 0 1-1.533.192" fill="#F7D83C" mask="url(#c)"/><path d="M15.91 30.33l-4.211-7.299a42.8 42.8 0 0 0 1.534-.239l4.21 7.299c-.512.088-1.023.167-1.534.24" fill="#F7D93C" mask="url(#c)"/><path d="M17.443 30.09l-4.21-7.298c.504-.086 1.01-.18 1.514-.282l4.21 7.299c-.505.101-1.009.196-1.514.282" fill="#F8DB3C" mask="url(#c)"/><path d="M18.957 29.809l-4.21-7.3c.505-.101 1.009-.21 1.513-.329l4.21 7.3c-.503.117-1.007.227-1.513.329" fill="#F7DE3D" mask="url(#c)"/><path d="M20.47 29.48l-4.21-7.3c.51-.117 1.02-.244 1.528-.377l4.21 7.3c-.509.133-1.018.259-1.529.376" fill="#F8E03C" mask="url(#c)"/><path d="M21.999 29.102l-4.211-7.299c.51-.134 1.019-.274 1.527-.424l4.21 7.3c-.508.149-1.017.29-1.526.423" fill="#F8E854" mask="url(#c)"/><path d="M23.525 28.68l-4.21-7.301a53.999 53.999 0 0 0 1.622-.5l4.21 7.3c-.539.174-1.079.341-1.622.5" fill="#F8EB62" mask="url(#c)"/><path d="M25.147 28.179l-4.21-7.3a53.872 53.872 0 0 0 1.64-.561l4.21 7.3c-.544.194-1.092.382-1.64.56" fill="#F9EC6C" mask="url(#c)"/><path d="M26.787 27.618l-4.21-7.3a53.32 53.32 0 0 0 1.914-.721l4.209 7.3c-.633.252-1.272.492-1.913.721" fill="#F9EE75" mask="url(#c)"/><path d="M28.7 26.897l-4.21-7.3a58.86 58.86 0 0 0 2.15-.9l4.21 7.298c-.711.315-1.429.616-2.15.902" fill="#F9F07D" mask="url(#c)"/><path d="M30.85 25.995l-4.21-7.299a61.852 61.852 0 0 0 3.1-1.472l4.21 7.3a62.371 62.371 0 0 1-3.1 1.471" fill="#FBF084" mask="url(#c)"/><path d="M33.95 24.523l-4.21-7.299a63.07 63.07 0 0 0 5.88-3.406l4.21 7.299a62.899 62.899 0 0 1-5.88 3.406" fill="#FBF18B" mask="url(#c)"/><path d="M39.83 21.117l-4.21-7.3a61.352 61.352 0 0 0 2.815-1.954l4.21 7.299a61.392 61.392 0 0 1-2.816 1.955" fill="#FBF084" mask="url(#c)"/><path d="M42.645 19.162l-4.21-7.299a57.811 57.811 0 0 0 1.926-1.476l4.211 7.3c-.632.503-1.273.996-1.927 1.475" fill="#F9F07D" mask="url(#c)"/><path d="M44.572 17.686l-4.21-7.299c.495-.395.983-.797 1.463-1.207l4.21 7.298c-.48.41-.968.813-1.463 1.208" fill="#F9EE75" mask="url(#c)"/><path d="M46.035 16.478l-4.21-7.298a52.16 52.16 0 0 0 1.364-1.199l4.211 7.3a55.37 55.37 0 0 1-1.365 1.197" fill="#F9EC6C" mask="url(#c)"/><path d="M47.4 15.28l-4.21-7.299c.409-.372.813-.748 1.21-1.129l4.21 7.3c-.398.38-.802.758-1.21 1.128" fill="#F8EB62" mask="url(#c)"/><path d="M48.61 14.152l-4.21-7.3c.39-.373.775-.753 1.153-1.139l4.21 7.3c-.379.385-.763.765-1.154 1.14" fill="#F8E854" mask="url(#c)"/><path d="M49.763 13.014l-4.21-7.3c.363-.37.723-.745 1.075-1.123l4.21 7.299c-.353.378-.71.753-1.075 1.124" fill="#F8E03C" mask="url(#c)"/><path d="M50.839 11.89l-4.211-7.3c.352-.38.699-.762 1.039-1.149l4.21 7.298c-.341.388-.686.77-1.038 1.15" fill="#F7DE3D" mask="url(#c)"/><path d="M51.877 10.739l-4.21-7.298c.341-.388.676-.78 1.002-1.176l4.21 7.3c-.327.395-.662.787-1.002 1.174" fill="#F8DB3C" mask="url(#c)"/><path d="M52.879 9.564l-4.21-7.299c.328-.396.65-.796.966-1.201l4.21 7.299c-.316.405-.637.805-.966 1.201" fill="#F7D93C" mask="url(#c)"/><path d="M53.845 8.363l-4.21-7.3c.322-.414.637-.832.945-1.254l4.21 7.299c-.309.422-.623.84-.945 1.255" fill="#F7D83C" mask="url(#c)"/></g><g transform="rotate(-15 150.02 -273.1)"><mask id="e" fill="#fff"><use xlink:href="#d"/></mask><path d="M4.512 29.771l-4.21-7.299c.322-.415.637-.832.945-1.255l4.21 7.3c-.309.422-.624.84-.945 1.254" fill="#F7D83C" mask="url(#e)"/><path d="M5.457 28.516l-4.21-7.299c.308-.421.609-.847.901-1.279l4.21 7.299a49.81 49.81 0 0 1-.9 1.28" fill="#F8D63C" mask="url(#e)"/><path d="M6.359 27.237l-4.211-7.299c.304-.446.599-.895.885-1.347l4.212 7.299c-.288.452-.584.901-.886 1.347" fill="#F8D33B" mask="url(#e)"/><path d="M7.245 25.89l-4.212-7.3c.286-.45.563-.907.831-1.366l4.21 7.3c-.269.458-.545.913-.829 1.366" fill="#F8D13B" mask="url(#e)"/><path d="M8.075 24.523l-4.211-7.299c.245-.418.481-.839.71-1.261l4.211 7.299c-.23.422-.466.844-.71 1.261" fill="#F8CF3B" mask="url(#e)"/><path d="M8.785 23.262l-4.21-7.3c.229-.423.45-.85.665-1.278l4.21 7.298c-.214.429-.435.855-.665 1.28" fill="#F8CD3B" mask="url(#e)"/><path d="M9.45 21.982l-4.21-7.298c.03-.065.063-.128.093-.192.236-.477.46-.957.672-1.432l4.211 7.3c-.212.474-.436.953-.672 1.431-.03.064-.063.127-.095.191" fill="#F8CB3B" mask="url(#e)"/><path d="M10.216 20.36l-4.21-7.3c.249-.56.483-1.12.7-1.676l4.21 7.299c-.217.557-.45 1.116-.7 1.676" fill="#F8C93B" mask="url(#e)"/><path d="M10.916 18.683l-4.21-7.3c.222-.566.427-1.132.615-1.694l4.21 7.299a35.235 35.235 0 0 1-.615 1.695" fill="#F8C73A" mask="url(#e)"/><path d="M11.53 16.988l-4.209-7.3a33.96 33.96 0 0 0 .531-1.725l4.21 7.299a33.106 33.106 0 0 1-.531 1.726" fill="#F7C43A" mask="url(#e)"/><path d="M12.061 15.262l-4.209-7.3c.163-.585.308-1.17.436-1.748l4.21 7.299a32.828 32.828 0 0 1-.437 1.749" fill="#F7C239" mask="url(#e)"/><path d="M12.497 13.513l-4.209-7.3c.137-.628.253-1.252.35-1.87l4.211 7.298c-.097.62-.213 1.243-.352 1.872" fill="#F6C039" mask="url(#e)"/><path d="M12.85 11.64L8.636 4.344c.104-.662.183-1.318.239-1.968l4.21 7.299c-.057.65-.134 1.306-.237 1.967" fill="#F6BF39" mask="url(#e)"/><path d="M13.085 9.674L8.876 2.375c.063-.715.095-1.421.1-2.12l4.212 7.3a27.22 27.22 0 0 1-.103 2.119" fill="#F5BD39" mask="url(#e)"/></g><g transform="rotate(-15 307.314 -20.774)"><mask id="g" fill="#fff"><use xlink:href="#f"/></mask><path d="M5.219 7.647L1.008.347A21.91 21.91 0 0 0 5.213 5.57l4.21 7.299a21.904 21.904 0 0 1-4.204-5.221" fill="#F4B63A" mask="url(#g)"/><path d="M9.423 12.868l-4.21-7.3a23.627 23.627 0 0 0 2.308 1.86l4.21 7.298a23.95 23.95 0 0 1-2.308-1.858" fill="#F4B83A" mask="url(#g)"/><path d="M11.73 14.726L7.522 7.427a24.89 24.89 0 0 0 2.031 1.294l4.21 7.3a25.739 25.739 0 0 1-2.031-1.295" fill="#F5BA39" mask="url(#g)"/><path d="M13.761 16.02L9.552 8.721c.61.348 1.244.679 1.899.988l4.209 7.299c-.655-.31-1.288-.64-1.899-.988" fill="#F5BD39" mask="url(#g)"/><path d="M15.66 17.008l-4.21-7.3c.585.275 1.186.533 1.805.775l4.21 7.3a30.996 30.996 0 0 1-1.805-.775" fill="#F6BF39" mask="url(#g)"/><path d="M17.465 17.782l-4.21-7.299c.569.221 1.152.429 1.749.62l4.21 7.299a30.586 30.586 0 0 1-1.749-.62" fill="#F6C039" mask="url(#g)"/><path d="M19.215 18.402l-4.211-7.299c.575.183 1.161.353 1.761.51l4.21 7.299a31.36 31.36 0 0 1-1.76-.51" fill="#F7C239" mask="url(#g)"/><path d="M20.975 18.912l-4.21-7.3c.572.15 1.156.286 1.754.406l4.209 7.3a34.627 34.627 0 0 1-1.753-.406" fill="#F7C43A" mask="url(#g)"/><path d="M22.728 19.317l-4.21-7.299c.58.118 1.17.224 1.771.316l4.21 7.299c-.6-.092-1.191-.198-1.771-.316" fill="#F8C73A" mask="url(#g)"/><path d="M24.499 19.633l-4.21-7.3c.563.087 1.134.162 1.712.224l4.211 7.3c-.58-.064-1.15-.138-1.713-.224" fill="#F8C93B" mask="url(#g)"/></g><g transform="rotate(-15 101.62 -287.335)"><mask id="i" fill="#fff"><use xlink:href="#h"/></mask><path d="M7.752 21.716l-4.21-7.299c.063-.714.095-1.42.1-2.12l4.213 7.3a27.22 27.22 0 0 1-.103 2.12" fill="#F5BD39" mask="url(#i)"/><path d="M7.855 19.597l-4.212-7.3a25.546 25.546 0 0 0-.092-2.404l4.209 7.3c.068.787.099 1.59.095 2.404" fill="#F5BA39" mask="url(#i)"/><path d="M7.76 17.192L3.55 9.893a23.792 23.792 0 0 0-.454-3.01l4.21 7.299c.214.978.365 1.983.454 3.01" fill="#F4B83A" mask="url(#i)"/><path d="M7.307 14.182l-4.211-7.3A21.98 21.98 0 0 0 .663.548l4.209 7.3a21.982 21.982 0 0 1 2.435 6.335" fill="#F4B63A" mask="url(#i)"/></g><path d="M62.44 15.426c20.369-2.71 31.13 12.352 25.455 32.242-5.31 18.62-23.654 36.196-42.12 40.489-19.48 4.527-33.54-6.91-30.216-27.002 3.579-21.62 25.242-42.85 46.88-45.73" fill="#E99E34"/><path fill="#BF862F" d="M54.361 36.54l-3.132-2.646 4.551-.708 3.133 2.647-4.552.707"/><path fill="#BF862F" d="M58.913 35.833l-3.191-2.716 1.344-6.782 3.192 2.714-1.345 6.784"/><path d="M49.915 43.008l-1.63 8.219 6.906-1.075c2.777-.43 5.856-1.436 6.559-4.985.702-3.54-2.01-3.688-4.929-3.232l-6.906 1.073zm3.082 21.796c3.258-.507 6.553-1.64 7.373-5.778.838-4.225-2.464-4.238-5.865-3.707l-7.255 1.128-1.891 9.545 7.638-1.188zm10.24-14.091c3.401.468 5.595 2.709 4.63 7.576-.996 5.03-4.464 8.739-8.817 10.754l-1.586 8.002-6.935 1.079 1.436-7.243-4.552.708-1.434 7.243-6.944 1.08 1.436-7.244-3.713.58 6.948-35.05 3.713-.578 1.344-6.781 6.942-1.08-1.344 6.781 4.552-.707 1.345-6.784 6.933-1.077-1.54 7.775c2.919.762 4.545 2.943 3.742 6.998-.674 3.394-3.072 6.245-6.156 7.968z" fill="#F9CB46"/><path fill="#BF862F" d="M60.258 29.05l-3.192-2.715L64 25.257l3.191 2.715-6.933 1.077m-16.552 9.149l-3.195-2.719 3.712-.577 3.196 2.718-3.713.578m-6.948 35.049l-3.18-2.7 6.95-35.048 3.178 2.7-6.948 35.048M47.42 37.62l-3.234-2.761 1.344-6.782 3.233 2.762-1.344 6.781"/><path fill="#BF862F" d="M48.763 30.839l-3.233-2.762 6.97-1.103 3.205 2.784-6.942 1.08"/><g transform="rotate(-15 28.312 -215.864)"><mask id="k" fill="#fff"><use xlink:href="#j"/></mask><path d="M4.284 8.092L.074.793c.731.078 1.451.173 2.16.283l4.211 7.297a46.973 46.973 0 0 0-2.161-.28" fill="#F8C93B" mask="url(#k)"/><path d="M6.445 8.373l-4.21-7.297a42.8 42.8 0 0 1 2.236.399l4.21 7.298a44.44 44.44 0 0 0-2.236-.4" fill="#F8C73A" mask="url(#k)"/><path d="M8.681 8.773l-4.21-7.298c.752.152 1.489.323 2.212.51l4.21 7.298a44.178 44.178 0 0 0-2.212-.51" fill="#F7C43A" mask="url(#k)"/><path d="M10.893 9.283l-4.21-7.299c.757.197 1.498.412 2.222.645l4.21 7.298a42.134 42.134 0 0 0-2.222-.644" fill="#F7C239" mask="url(#k)"/><path d="M13.115 9.927l-4.21-7.298c.754.241 1.49.502 2.207.782l4.21 7.299a38.478 38.478 0 0 0-2.207-.783" fill="#F6C039" mask="url(#k)"/><path d="M15.321 10.71l-4.209-7.3c.781.304 1.54.63 2.277.979l4.21 7.299a36.119 36.119 0 0 0-2.278-.978" fill="#F6BF39" mask="url(#k)"/><path d="M17.599 11.688l-4.21-7.3c.827.389 1.626.806 2.396 1.246l4.21 7.3c-.771-.44-1.57-.858-2.396-1.246" fill="#F5BD39" mask="url(#k)"/><path d="M19.995 12.933l-4.21-7.299a31.904 31.904 0 0 1 2.563 1.634l4.21 7.298a32.029 32.029 0 0 0-2.563-1.633" fill="#F5BA39" mask="url(#k)"/><path d="M22.557 14.566l-4.209-7.298a29.49 29.49 0 0 1 2.91 2.342l4.21 7.299a30.074 30.074 0 0 0-2.91-2.343" fill="#F4B83A" mask="url(#k)"/><path d="M25.468 16.909l-4.21-7.3a27.624 27.624 0 0 1 5.305 6.586l4.209 7.3a27.631 27.631 0 0 0-5.304-6.586" fill="#F4B63A" mask="url(#k)"/></g><g transform="rotate(-15 64.98 62.647)"><mask id="m" fill="#fff"><use xlink:href="#l"/></mask><path d="M8.65 78.961l-4.209-7.299A27.743 27.743 0 0 1 1.37 63.67l4.211 7.297a27.734 27.734 0 0 0 3.07 7.995" fill="#F4B63A" mask="url(#m)"/><path d="M5.58 70.966L1.37 63.67a30.128 30.128 0 0 1-.573-3.799l4.21 7.299a30.09 30.09 0 0 0 .573 3.797" fill="#F4B83A" mask="url(#m)"/><path d="M5.007 67.169L.797 59.87a31.655 31.655 0 0 1-.117-3.035l4.21 7.3c-.009 1.027.03 2.039.117 3.034" fill="#F5BA39" mask="url(#m)"/><path d="M4.89 64.136l-4.21-7.3a34.39 34.39 0 0 1 .125-2.677l4.211 7.3c-.077.902-.12 1.794-.127 2.677" fill="#F5BD39" mask="url(#m)"/><path d="M5.016 61.46l-4.21-7.3c.071-.82.17-1.646.3-2.48l4.21 7.298a36.9 36.9 0 0 0-.3 2.482" fill="#F6BF39" mask="url(#m)"/><path d="M5.316 58.978l-4.21-7.298c.122-.781.27-1.568.443-2.362l4.211 7.3c-.175.793-.321 1.58-.444 2.36" fill="#F6C039" mask="url(#m)"/><path d="M5.76 56.617l-4.21-7.299c.16-.73.343-1.465.55-2.205l4.21 7.3a40.99 40.99 0 0 0-.55 2.204" fill="#F7C239" mask="url(#m)"/><path d="M6.31 54.412L2.1 47.113c.2-.722.423-1.449.668-2.178l4.21 7.299a44.57 44.57 0 0 0-.669 2.178" fill="#F7C43A" mask="url(#m)"/><path d="M6.977 52.234l-4.209-7.299c.237-.71.496-1.424.776-2.138l4.21 7.299a47.73 47.73 0 0 0-.777 2.138" fill="#F8C73A" mask="url(#m)"/><path d="M7.753 50.096l-4.209-7.3a49.28 49.28 0 0 1 .884-2.115l4.21 7.3c-.315.709-.61 1.412-.885 2.115" fill="#F8C93B" mask="url(#m)"/><path d="M8.637 47.98l-4.209-7.299c.267-.6.55-1.202.847-1.806l.12-.24 4.209 7.298-.119.241c-.297.603-.58 1.206-.848 1.806" fill="#F8CB3B" mask="url(#m)"/><path d="M9.604 45.933l-4.21-7.299c.27-.542.55-1.08.84-1.615l4.21 7.298a52.72 52.72 0 0 0-.84 1.616" fill="#F8CD3B" mask="url(#m)"/><path d="M10.444 44.317l-4.21-7.298c.29-.535.589-1.068.897-1.593l4.21 7.299a50.961 50.961 0 0 0-.897 1.592" fill="#F8CF3B" mask="url(#m)"/><path d="M11.341 42.725l-4.21-7.3a59.29 59.29 0 0 1 1.049-1.727l4.21 7.3c-.36.57-.71 1.146-1.049 1.727" fill="#F8D13B" mask="url(#m)"/><path d="M12.39 40.999l-4.21-7.3c.361-.572.735-1.14 1.119-1.703l4.209 7.3c-.384.563-.756 1.13-1.119 1.703" fill="#F8D33B" mask="url(#m)"/><path d="M13.508 39.295l-4.21-7.299c.37-.543.75-1.082 1.14-1.615l4.209 7.3c-.39.533-.77 1.071-1.139 1.614" fill="#F8D63C" mask="url(#m)"/><path d="M14.647 37.68l-4.21-7.299a63.1 63.1 0 0 1 1.194-1.584l4.209 7.299a63.827 63.827 0 0 0-1.193 1.584" fill="#F7D83C" mask="url(#m)"/><path d="M15.84 36.096l-4.21-7.299c.398-.51.803-1.016 1.218-1.516l4.21 7.299c-.414.5-.82 1.006-1.218 1.516" fill="#F7D93C" mask="url(#m)"/><path d="M17.057 34.58l-4.209-7.299c.413-.499.836-.994 1.265-1.484l4.21 7.3c-.43.49-.852.984-1.266 1.483" fill="#F8DB3C" mask="url(#m)"/><path d="M18.323 33.096l-4.21-7.299c.431-.49.87-.975 1.316-1.456l4.211 7.3c-.448.48-.887.965-1.317 1.455" fill="#F7DE3D" mask="url(#m)"/><path d="M19.64 31.64l-4.21-7.299c.447-.48.9-.955 1.363-1.425l4.211 7.3c-.463.469-.917.944-1.364 1.424" fill="#F8E03C" mask="url(#m)"/><path d="M21.004 30.215l-4.21-7.299c.477-.483.96-.962 1.453-1.434l4.21 7.299c-.492.472-.977.951-1.453 1.434" fill="#F8E854" mask="url(#m)"/><path d="M22.457 28.781l-4.21-7.299a68.18 68.18 0 0 1 1.52-1.416l4.209 7.3c-.513.465-1.02.936-1.519 1.415" fill="#F8EB62" mask="url(#m)"/><path d="M23.976 27.365l-4.21-7.299a71.153 71.153 0 0 1 1.718-1.51l4.21 7.299c-.582.495-1.154.998-1.718 1.51" fill="#F9EC6C" mask="url(#m)"/><path d="M25.693 25.855l-4.209-7.3a78.114 78.114 0 0 1 1.847-1.522l4.209 7.299a82.01 82.01 0 0 0-1.847 1.523" fill="#F9EE75" mask="url(#m)"/><path d="M27.54 24.332l-4.21-7.299a77.384 77.384 0 0 1 2.431-1.862l4.21 7.299a77.384 77.384 0 0 0-2.431 1.862" fill="#F9F07D" mask="url(#m)"/><path d="M29.97 22.47l-4.209-7.3a77.728 77.728 0 0 1 3.551-2.464l4.21 7.299a77.768 77.768 0 0 0-3.551 2.465" fill="#FBF084" mask="url(#m)"/><path d="M33.523 20.005l-4.211-7.3a79.528 79.528 0 0 1 7.417-4.297l4.211 7.3a79.185 79.185 0 0 0-7.417 4.297" fill="#FBF18B" mask="url(#m)"/><path d="M40.94 15.707l-4.21-7.299a78.994 78.994 0 0 1 3.909-1.857l4.21 7.3a77.852 77.852 0 0 0-3.909 1.856" fill="#FBF084" mask="url(#m)"/><path d="M44.85 13.851l-4.211-7.3a76.973 76.973 0 0 1 2.712-1.136l4.21 7.299c-.909.36-1.814.74-2.712 1.137" fill="#F9F07D" mask="url(#m)"/><path d="M47.561 12.714l-4.21-7.299c.801-.317 1.606-.62 2.414-.911l4.21 7.299c-.808.289-1.614.594-2.414.91" fill="#F9EE75" mask="url(#m)"/><path d="M49.975 11.803l-4.21-7.3c.687-.244 1.376-.48 2.068-.704l4.211 7.299a78.53 78.53 0 0 0-2.07.705" fill="#F9EC6C" mask="url(#m)"/><path d="M52.044 11.098l-4.21-7.3c.68-.22 1.362-.43 2.046-.63l4.21 7.298c-.683.2-1.366.41-2.046.632" fill="#F8EB62" mask="url(#m)"/><path d="M54.09 10.466l-4.21-7.299a72.291 72.291 0 0 1 1.925-.534l4.211 7.3c-.644.168-1.285.346-1.927.533" fill="#F8E854" mask="url(#m)"/><path d="M56.016 9.932l-4.21-7.299a71.169 71.169 0 0 1 1.929-.477l4.209 7.299c-.643.15-1.287.309-1.928.477" fill="#F8E03C" mask="url(#m)"/><path d="M57.944 9.455l-4.21-7.3a63.77 63.77 0 0 1 1.907-.413l4.212 7.3c-.637.126-1.273.265-1.909.413" fill="#F7DE3D" mask="url(#m)"/><path d="M59.853 9.041l-4.212-7.299c.638-.13 1.275-.249 1.912-.357l4.21 7.299a58.2 58.2 0 0 0-1.91.357" fill="#F8DB3C" mask="url(#m)"/><path d="M61.763 8.684l-4.21-7.3a64.67 64.67 0 0 1 1.935-.3l4.21 7.299c-.645.09-1.289.19-1.935.3" fill="#F7D93C" mask="url(#m)"/><path d="M63.697 8.383l-4.209-7.3a61.43 61.43 0 0 1 1.933-.241l4.211 7.299c-.645.07-1.29.15-1.935.242" fill="#F7D83C" mask="url(#m)"/><path d="M65.632 8.14L61.422.843a58.894 58.894 0 0 1 1.991-.184l4.211 7.3c-.664.049-1.328.11-1.992.183" fill="#F8D63C" mask="url(#m)"/><path d="M67.624 7.957L63.414.658c.663-.05 1.327-.088 1.989-.116l4.209 7.299a58.62 58.62 0 0 0-1.988.116" fill="#F8D33B" mask="url(#m)"/><path d="M69.612 7.84L65.402.543c.685-.028 1.37-.044 2.051-.048l4.211 7.299c-.683.004-1.367.02-2.052.048" fill="#F8D13B" mask="url(#m)"/><path d="M71.664 7.793l-4.21-7.3c.682-.002 1.365.006 2.043.029l4.211 7.299c-.68-.023-1.36-.032-2.044-.028" fill="#F8CF3B" mask="url(#m)"/><path d="M73.708 7.82L69.498.523c.638.02 1.274.052 1.909.095l4.21 7.299a53.16 53.16 0 0 0-1.909-.095" fill="#F8CD3B" mask="url(#m)"/><path d="M75.617 7.916l-4.21-7.3c.633.045 1.265.1 1.894.165l4.21 7.3a49.703 49.703 0 0 0-1.894-.165" fill="#F8CB3B" mask="url(#m)"/><path d="M77.51 8.08L73.302.781l.106.012 4.21 7.3-.106-.013" fill="#F8C93B" mask="url(#m)"/></g><path d="M46.306 91.226c20.402-3.174 40.257-22.489 44.348-43.125 4.093-20.644-9.127-34.806-29.529-31.632-20.4 3.174-40.254 22.482-44.347 43.125C12.686 80.23 25.906 94.4 46.306 91.226zM63.067 6.68c25.738-4.004 42.418 13.864 37.253 39.917-5.165 26.045-30.215 50.405-55.953 54.41C18.63 105.01 1.95 87.142 7.113 61.097 12.278 35.045 37.329 10.684 63.067 6.68z" fill="#F4B83A"/></g></svg>