<svg width="94" height="110" viewBox="0 0 94 110" xmlns="http://www.w3.org/2000/svg" xmlns:xlink="http://www.w3.org/1999/xlink"><title>bitcoin 6</title><defs><path d="M46.209 111.517c.36.015.72.022 1.08.023l-8.463-.011c-10.226-.011-20.427-5.78-28.028-17.215C-3.95 72.127-3.324 37.03 12.188 15.913 19.702 5.683 29.333.613 38.94.626l8.46.01C37.792.623 28.163 5.693 20.648 15.923 12.892 26.48 8.858 40.534 8.608 54.72c.25-14.187 4.284-28.24 12.04-38.797C36.16-5.192 60.688-4.328 75.436 17.857c14.742 22.18 14.116 57.278-1.395 78.393-7.796 10.612-17.869 15.673-27.832 15.267z" id="a"/><path d="M5.962.014l8.46.01C21.416 17.26 19.539 39.76 9.019 54.12l-8.46-.01C11.076 39.749 12.953 17.25 5.961.015" id="b"/><path d="M10.828 10.16C7.908 5.755 4.503 2.404.845.124l8.461.01c3.656 2.281 7.064 5.63 9.982 10.037a46.385 46.385 0 0 1 4.302 8.214l-8.461-.01c-1.181-2.91-2.615-5.669-4.301-8.215" id="d"/><path d="M.35 12.179C7.966 12.188 15.6 8.158 21.556.028l8.461.009c-5.956 8.13-13.59 12.162-21.206 12.15-2.54-.001-5.923-.007-8.463-.008" id="f"/><path d="M27.119.628l8.46.01C25.972.625 16.343 5.71 8.828 15.967l-8.46-.01C7.88 5.698 17.512.614 27.119.627" id="h"/><path d="M47.301 96.165l-8.463-.011c-10.226-.011-20.427-5.797-28.028-17.263C-3.937 56.64-3.312 21.444 12.2.269l8.46.01C5.15 21.454 4.527 56.652 19.274 78.903c7.6 11.466 17.802 17.25 28.028 17.263" id="j"/></defs><g fill="none" fill-rule="evenodd"><use fill="#F4B83A" xlink:href="#a" transform="rotate(-27 43.404 48.082)"/><g transform="rotate(-27 84.573 -92.835)"><mask id="c" fill="#fff"><use xlink:href="#b"/></mask><path d="M9.018 54.119l-8.46-.01c.014-.022.032-.045.049-.07l8.46.012-.049.068" fill="#F8C93B" mask="url(#c)"/><path d="M9.068 54.05l-8.461-.01c.297-.406.587-.823.873-1.241l8.46.009c-.284.42-.575.835-.872 1.243" fill="#F8CB3B" mask="url(#c)"/><path d="M9.94 52.808l-8.46-.01c.282-.422.559-.848.83-1.281l8.459.01c-.27.434-.546.86-.829 1.28" fill="#F8CD3B" mask="url(#c)"/><path d="M10.769 51.526l-8.459-.009c.286-.46.565-.927.836-1.4l8.46.008c-.269.474-.55.94-.837 1.401" fill="#F8CF3B" mask="url(#c)"/><path d="M11.607 50.125l-8.461-.009c.271-.474.534-.953.788-1.438l8.463.01c-.257.486-.52.965-.79 1.437" fill="#F8D13B" mask="url(#c)"/><path d="M12.397 48.688l-8.463-.01c.246-.468.486-.941.717-1.42l8.461.01c-.231.48-.471.953-.715 1.42" fill="#F8D33B" mask="url(#c)"/><path d="M13.112 47.268l-8.46-.01c.23-.48.454-.961.67-1.451l8.463.01c-.218.49-.442.972-.673 1.451" fill="#F8D63C" mask="url(#c)"/><path d="M13.785 45.818l-8.463-.011c.211-.474.415-.95.609-1.432l8.463.01c-.197.482-.4.96-.61 1.433" fill="#F7D83C" mask="url(#c)"/><path d="M14.393 44.386l-8.462-.011c.198-.481.385-.97.568-1.458l8.461.01c-.183.49-.372.976-.567 1.459" fill="#F7D93C" mask="url(#c)"/><path d="M14.96 42.928l-8.46-.011c.18-.485.353-.971.52-1.463l8.459.009c-.167.49-.34.98-.519 1.465" fill="#F8DB3C" mask="url(#c)"/><path d="M15.479 41.463l-8.46-.01c.168-.492.327-.985.48-1.485l8.46.01a49.43 49.43 0 0 1-.48 1.485" fill="#F7DE3D" mask="url(#c)"/><path d="M15.96 39.977l-8.462-.009a52.07 52.07 0 0 0 .446-1.524l8.46.011a46.15 46.15 0 0 1-.445 1.522" fill="#F8E03C" mask="url(#c)"/><path d="M16.405 38.455l-8.461-.01a59.24 59.24 0 0 0 .403-1.545l8.461.01a55.497 55.497 0 0 1-.403 1.545" fill="#F8E854" mask="url(#c)"/><path d="M16.808 36.91l-8.46-.01c.135-.553.263-1.109.386-1.667l8.459.01a62.21 62.21 0 0 1-.385 1.666" fill="#F8EB62" mask="url(#c)"/><path d="M17.193 35.242l-8.459-.01c.121-.566.236-1.14.341-1.71l8.46.009c-.104.573-.22 1.144-.342 1.711" fill="#F9EC6C" mask="url(#c)"/><path d="M17.536 33.53l-8.461-.008c.127-.676.238-1.355.343-2.035l8.459.01a58.093 58.093 0 0 1-.341 2.034" fill="#F9EE75" mask="url(#c)"/><path d="M17.877 31.497l-8.46-.01c.114-.773.217-1.55.305-2.328l8.461.01c-.088.778-.19 1.555-.306 2.328" fill="#F9F07D" mask="url(#c)"/><path d="M18.183 29.168l-8.46-.009a63.41 63.41 0 0 0 .287-3.446l8.46.01a63.19 63.19 0 0 1-.287 3.445" fill="#FBF084" mask="url(#c)"/><path d="M18.47 25.724l-8.46-.011a63.65 63.65 0 0 0 .017-6.847l8.46.011a64.62 64.62 0 0 1-.016 6.847" fill="#FBF18B" mask="url(#c)"/><path d="M18.487 18.877l-8.46-.01a62.587 62.587 0 0 0-.274-3.44l8.461.01c.123 1.141.215 2.289.273 3.44" fill="#FBF084" mask="url(#c)"/><path d="M18.214 15.436l-8.46-.009a62.579 62.579 0 0 0-.309-2.425l8.463.01c.117.805.22 1.615.306 2.424" fill="#F9F07D" mask="url(#c)"/><path d="M17.908 13.013l-8.463-.011a53.048 53.048 0 0 0-.308-1.884l8.463.01c.112.623.214 1.253.308 1.885" fill="#F9EE75" mask="url(#c)"/><path d="M17.6 11.127l-8.463-.009c-.106-.602-.225-1.2-.35-1.796l8.461.011c.127.595.244 1.192.352 1.794" fill="#F9EC6C" mask="url(#c)"/><path d="M17.248 9.333l-8.46-.01a61.195 61.195 0 0 0-.367-1.626l8.46.011c.129.538.253 1.08.367 1.625" fill="#F8EB62" mask="url(#c)"/><path d="M16.881 7.708l-8.46-.01a64.219 64.219 0 0 0-.407-1.58l8.46.011a56.9 56.9 0 0 1 .407 1.58" fill="#F8E854" mask="url(#c)"/><path d="M16.474 6.13l-8.46-.012a45.608 45.608 0 0 0-.431-1.503l8.46.009c.15.5.296.999.431 1.505" fill="#F8E03C" mask="url(#c)"/><path d="M16.044 4.624l-8.461-.01c-.15-.499-.308-.993-.471-1.487l8.46.011c.164.49.321.988.472 1.486" fill="#F7DE3D" mask="url(#c)"/><path d="M15.572 3.138l-8.46-.01a65.22 65.22 0 0 0-.514-1.468l8.461.011c.176.487.348.974.513 1.467" fill="#F8DB3C" mask="url(#c)"/><path d="M15.059 1.671l-8.46-.01A57.375 57.375 0 0 0 6.042.213l8.46.009c.193.479.376.962.556 1.448" fill="#F7D93C" mask="url(#c)"/><path d="M14.504.223L6.043.213c-.198-.488-.4-.974-.61-1.457l8.46.01c.21.482.414.967.61 1.457" fill="#F7D83C" mask="url(#c)"/></g><g transform="rotate(-27 50.917 -64.563)"><mask id="e" fill="#fff"><use xlink:href="#d"/></mask><path d="M23.67 18.583l-8.46-.009c-.199-.488-.4-.975-.611-1.458l8.46.011c.211.482.415.966.611 1.456" fill="#F7D83C" mask="url(#e)"/><path d="M23.06 17.127l-8.461-.01a49.04 49.04 0 0 0-.655-1.43l8.461.008c.226.474.444.95.655 1.432" fill="#F8D63C" mask="url(#e)"/><path d="M22.405 15.695l-8.46-.009c-.235-.49-.474-.973-.723-1.452l8.46.009c.25.48.49.962.723 1.452" fill="#F8D33B" mask="url(#e)"/><path d="M21.683 14.243l-8.461-.01a48.076 48.076 0 0 0-.766-1.415l8.46.011c.264.467.517.937.767 1.414" fill="#F8D13B" mask="url(#e)"/><path d="M20.916 12.83l-8.46-.012c-.239-.422-.484-.84-.736-1.254l8.461.011c.252.411.497.832.735 1.254" fill="#F8CF3B" mask="url(#e)"/><path d="M20.181 11.575l-8.46-.01a46.07 46.07 0 0 0-.774-1.225l8.46.009c.263.402.521.811.774 1.226" fill="#F8CD3B" mask="url(#e)"/><path d="M19.408 10.349l-8.461-.01c-.04-.058-.079-.12-.12-.18a40.973 40.973 0 0 0-.901-1.307l8.459.01c.306.425.608.862.903 1.309l.12.178" fill="#F8CB3B" mask="url(#e)"/><path d="M18.385 8.862l-8.46-.01a41.47 41.47 0 0 0-1.101-1.458l8.463.012c.372.47.738.956 1.098 1.456" fill="#F8C93B" mask="url(#e)"/><path d="M17.287 7.406l-8.463-.012c-.38-.479-.767-.941-1.159-1.391l8.461.01c.392.449.78.913 1.16 1.393" fill="#F8C73A" mask="url(#e)"/><path d="M16.126 6.014l-8.46-.011a36.012 36.012 0 0 0-1.231-1.331l8.46.01c.417.427.828.87 1.231 1.332" fill="#F7C43A" mask="url(#e)"/><path d="M14.896 4.683l-8.461-.011c-.427-.437-.86-.86-1.298-1.264l8.46.011c.439.404.873.823 1.299 1.264" fill="#F7C239" mask="url(#e)"/><path d="M13.598 3.42l-8.461-.012A31.053 31.053 0 0 0 3.692 2.16l8.461.01c.486.396.97.812 1.445 1.25" fill="#F6C039" mask="url(#e)"/><path d="M12.153 2.17l-8.46-.01A29.55 29.55 0 0 0 2.104.96l8.462.01c.536.376 1.064.777 1.586 1.2" fill="#F6BF39" mask="url(#e)"/><path d="M10.567.97L2.105.96A27.08 27.08 0 0 0 .317-.197l8.461.01A28.44 28.44 0 0 1 10.568.97" fill="#F5BD39" mask="url(#e)"/></g><g transform="rotate(-27 207.706 -76.14)"><mask id="g" fill="#fff"><use xlink:href="#f"/></mask><path d="M8.812 12.188l-8.46-.01a21.982 21.982 0 0 0 6.656-1.035l8.46.011a21.932 21.932 0 0 1-6.656 1.034" fill="#F4B63A" mask="url(#g)"/><path d="M15.469 11.154l-8.461-.01a23.285 23.285 0 0 0 2.778-1.077l8.46.011c-.915.422-1.842.78-2.777 1.076" fill="#F4B83A" mask="url(#g)"/><path d="M18.246 10.078l-8.46-.01c.724-.331 1.44-.704 2.15-1.117l8.459.009c-.708.411-1.424.786-2.149 1.118" fill="#F5BA39" mask="url(#g)"/><path d="M20.395 8.96l-8.459-.01a26.22 26.22 0 0 0 1.815-1.158l8.46.011c-.597.415-1.204.8-1.816 1.157" fill="#F5BD39" mask="url(#g)"/><path d="M22.212 7.803l-8.461-.01a29.33 29.33 0 0 0 1.584-1.183l8.46.009a27.74 27.74 0 0 1-1.583 1.184" fill="#F6BF39" mask="url(#g)"/><path d="M23.796 6.619l-8.461-.01c.48-.383.955-.789 1.423-1.213l8.462.01c-.469.425-.944.827-1.424 1.213" fill="#F6C039" mask="url(#g)"/><path d="M25.22 5.405l-8.462-.009a32.12 32.12 0 0 0 1.332-1.278l8.461.01c-.438.444-.881.872-1.33 1.277" fill="#F7C239" mask="url(#g)"/><path d="M26.551 4.127l-8.46-.009c.418-.424.83-.866 1.237-1.325l8.46.01c-.406.46-.819.902-1.237 1.324" fill="#F7C43A" mask="url(#g)"/><path d="M27.789 2.804l-8.461-.011c.396-.445.787-.907 1.17-1.383l8.46.007c-.383.48-.773.94-1.17 1.387" fill="#F8C73A" mask="url(#g)"/><path d="M28.959 1.417l-8.461-.007c.359-.448.711-.909 1.06-1.382l8.46.009c-.348.473-.702.934-1.06 1.38" fill="#F8C93B" mask="url(#g)"/></g><path d="M16.696 33.145c3.769-20.36 21.365-29.2 38.569-17.517C71.369 26.562 82.54 52.915 80.874 71.95c-1.757 20.08-17.053 29.953-35.18 20.46-19.507-10.219-33-37.635-28.998-59.265" fill="#E99E34"/><path fill="#BF862F" d="M34.318 47.513l-3.502 2.17.744-4.58 3.502-2.17-.744 4.58m.744-4.58l-3.585 2.203-6.052-3.417 3.587-2.205 6.05 3.419"/><path d="M39.101 53.803l7.33 4.143 1.13-6.953c.453-2.792.456-6.058-2.711-7.846-3.157-1.786-4.144.767-4.62 3.705l-1.129 6.951zm21.751 3.894c.531-3.279.478-6.792-3.212-8.876-3.77-2.129-4.81 1.029-5.367 4.453l-1.187 7.302 8.516 4.812 1.25-7.69zM50.604 43.464c1.508-3.11 4.33-4.51 8.672-2.057 4.486 2.536 6.94 7.023 7.507 11.824l7.138 4.03-1.132 6.982-6.463-3.65-.743 4.583 6.46 3.649-1.135 6.989-6.462-3.65-.608 3.739-31.263-17.664.607-3.736-6.05-3.418 1.135-6.988 6.05 3.416.745-4.58-6.05-3.419 1.134-6.98 6.935 3.918c1.64-2.557 4.223-3.43 7.841-1.385 3.03 1.71 5 4.902 5.682 8.397z" fill="#F9CB46"/><path fill="#BF862F" d="M29.012 39.514l-3.587 2.205 1.137-6.98 3.584-2.205-1.134 6.98m3.563 18.726l-3.59 2.208.607-3.739 3.59-2.206-.607 3.736"/><path fill="#BF862F" d="M63.838 75.903L60.273 78.1 29.008 60.438l3.567-2.199 31.263 17.664m-30.656-21.4l-3.642 2.229-6.05-3.417 3.641-2.23 6.05 3.418"/><path fill="#BF862F" d="M27.131 51.085l-3.64 2.23 1.12-7.023 3.656-2.195-1.136 6.988"/><g transform="rotate(-27 37.493 23.463)"><mask id="i" fill="#fff"><use xlink:href="#h"/></mask><path d="M8.828 15.968l-8.461-.01a48.94 48.94 0 0 1 1.338-1.743l8.46.009a53.179 53.179 0 0 0-1.337 1.744" fill="#F8C93B" mask="url(#i)"/><path d="M10.166 14.224l-8.461-.01c.482-.603.975-1.185 1.474-1.749l8.463.011c-.5.564-.992 1.146-1.476 1.748" fill="#F8C73A" mask="url(#i)"/><path d="M11.642 12.476l-8.463-.011a48.96 48.96 0 0 1 1.562-1.67l8.46.01a44.059 44.059 0 0 0-1.56 1.671" fill="#F7C43A" mask="url(#i)"/><path d="M13.202 10.805l-8.461-.01a41.787 41.787 0 0 1 1.681-1.613l8.461.01a41.79 41.79 0 0 0-1.681 1.613" fill="#F7C239" mask="url(#i)"/><path d="M14.883 9.191l-8.46-.009a39.29 39.29 0 0 1 1.794-1.531l8.463.01c-.605.487-1.207.996-1.797 1.53" fill="#F6C039" mask="url(#i)"/><path d="M16.68 7.662L8.217 7.65a37.886 37.886 0 0 1 1.998-1.493l8.461.011c-.673.467-1.34.966-1.996 1.493" fill="#F6BF39" mask="url(#i)"/><path d="M18.676 6.17l-8.46-.012c.755-.525 1.52-1.01 2.293-1.46l8.46.01c-.771.451-1.536.936-2.293 1.461" fill="#F5BD39" mask="url(#i)"/><path d="M20.97 4.708l-8.461-.01a32.05 32.05 0 0 1 2.711-1.411l8.461.01a31.77 31.77 0 0 0-2.711 1.41" fill="#F5BA39" mask="url(#i)"/><path d="M23.681 3.298l-8.46-.011a29.752 29.752 0 0 1 3.503-1.355l8.459.009a29.99 29.99 0 0 0-3.502 1.357" fill="#F4B83A" mask="url(#i)"/><path d="M27.183 1.94l-8.46-.008A27.662 27.662 0 0 1 27.12.628l8.46.01a27.634 27.634 0 0 0-8.396 1.303" fill="#F4B63A" mask="url(#i)"/></g><g transform="rotate(-27 76.084 40.263)"><mask id="k" fill="#fff"><use xlink:href="#j"/></mask><path d="M47.301 96.165l-8.463-.011a27.821 27.821 0 0 1-8.488-1.352l8.46.01a27.77 27.77 0 0 0 8.491 1.353" fill="#F4B63A" mask="url(#k)"/><path d="M38.81 94.811l-8.46-.009a30.1 30.1 0 0 1-3.586-1.417l8.463.009a30.074 30.074 0 0 0 3.584 1.417" fill="#F4B83A" mask="url(#k)"/><path d="M35.227 93.394l-8.463-.01a32.194 32.194 0 0 1-2.691-1.428l8.46.011a32.005 32.005 0 0 0 2.694 1.427" fill="#F5BA39" mask="url(#k)"/><path d="M32.533 91.967l-8.46-.01a34.162 34.162 0 0 1-2.257-1.46l8.46.01a35.12 35.12 0 0 0 2.257 1.46" fill="#F5BD39" mask="url(#k)"/><path d="M30.277 90.508l-8.461-.011a37.68 37.68 0 0 1-2.002-1.513l8.462.01a36.207 36.207 0 0 0 2 1.514" fill="#F6BF39" mask="url(#k)"/><path d="M28.276 88.995l-8.462-.011a39.988 39.988 0 0 1-1.824-1.577l8.462.009c.6.552 1.208 1.078 1.824 1.579" fill="#F6C039" mask="url(#k)"/><path d="M26.452 87.416l-8.462-.01a42.844 42.844 0 0 1-1.636-1.591l8.461.009a38.016 38.016 0 0 0 1.637 1.592" fill="#F7C239" mask="url(#k)"/><path d="M24.815 85.824l-8.46-.01a44.31 44.31 0 0 1-1.553-1.681l8.46.01a45.112 45.112 0 0 0 1.553 1.68" fill="#F7C43A" mask="url(#k)"/><path d="M23.262 84.144l-8.46-.011a45.443 45.443 0 0 1-1.463-1.755l8.46.01c.48.605.968 1.19 1.463 1.756" fill="#F8C73A" mask="url(#k)"/><path d="M21.8 82.389l-8.462-.011a47.14 47.14 0 0 1-1.387-1.838l8.462.01c.453.632.917 1.246 1.386 1.839" fill="#F8C93B" mask="url(#k)"/><path d="M20.413 80.55l-8.462-.01a53.212 53.212 0 0 1-1.14-1.65c-.05-.074-.098-.15-.15-.223l8.464.007c.049.076.097.153.148.228a52.58 52.58 0 0 0 1.14 1.649" fill="#F8CB3B" mask="url(#k)"/><path d="M19.125 78.674l-8.463-.007a66.868 66.868 0 0 1-.977-1.55l8.46.011c.32.522.646 1.038.98 1.546" fill="#F8CD3B" mask="url(#k)"/><path d="M18.145 77.128l-8.46-.01a54.255 54.255 0 0 1-.93-1.585l8.461.009c.302.534.61 1.065.93 1.586" fill="#F8CF3B" mask="url(#k)"/><path d="M17.216 75.542l-8.46-.01a57.65 57.65 0 0 1-.967-1.786l8.46.011c.313.602.635 1.197.967 1.785" fill="#F8D13B" mask="url(#k)"/><path d="M16.25 73.757l-8.461-.01a58.75 58.75 0 0 1-.913-1.833l8.46.009c.294.619.598 1.23.914 1.834" fill="#F8D33B" mask="url(#k)"/><path d="M15.337 71.923l-8.461-.01a55.622 55.622 0 0 1-.825-1.808l8.46.01c.265.607.542 1.213.826 1.808" fill="#F8D63C" mask="url(#k)"/><path d="M14.512 70.114l-8.461-.009a59.807 59.807 0 0 1-.772-1.838l8.461.008c.25.619.504 1.232.772 1.84" fill="#F7D83C" mask="url(#k)"/><path d="M13.74 68.275l-8.46-.008a64.733 64.733 0 0 1-.701-1.828l8.46.009c.224.613.459 1.223.701 1.827" fill="#F7D93C" mask="url(#k)"/><path d="M13.04 66.448l-8.461-.01c-.226-.613-.44-1.23-.65-1.85l8.464.01c.207.62.421 1.238.647 1.85" fill="#F8DB3C" mask="url(#k)"/><path d="M12.393 64.597l-8.463-.01a72.543 72.543 0 0 1-.598-1.883l8.461.011c.19.632.39 1.26.6 1.882" fill="#F7DE3D" mask="url(#k)"/><path d="M11.793 62.715l-8.46-.01a71.4 71.4 0 0 1-.549-1.909l8.463.011c.172.64.355 1.275.546 1.908" fill="#F8E03C" mask="url(#k)"/><path d="M11.247 60.807l-8.463-.01a79.022 79.022 0 0 1-.51-1.99l8.461.008c.162.667.332 1.333.512 1.992" fill="#F8E854" mask="url(#k)"/><path d="M10.735 58.815l-8.46-.009a69.678 69.678 0 0 1-.46-2.038l8.46.01c.143.682.297 1.362.46 2.037" fill="#F8EB62" mask="url(#k)"/><path d="M10.275 56.777l-8.46-.009a71.405 71.405 0 0 1-.443-2.262l8.461.011c.136.757.283 1.511.442 2.26" fill="#F9EC6C" mask="url(#k)"/><path d="M9.833 54.517l-8.46-.01a77.392 77.392 0 0 1-.39-2.379l8.462.011c.119.795.247 1.59.388 2.378" fill="#F9EE75" mask="url(#k)"/><path d="M9.444 52.14l-8.46-.012a80.072 80.072 0 0 1-.387-3.058l8.459.009c.11 1.024.24 2.045.389 3.06" fill="#F9F07D" mask="url(#k)"/><path d="M9.056 49.079l-8.46-.01a76.18 76.18 0 0 1-.342-4.34l8.459.011c.075 1.45.189 2.9.343 4.339" fill="#FBF084" mask="url(#k)"/><path d="M8.713 44.74l-8.459-.01a79.339 79.339 0 0 1 .018-8.635l8.461.011a80.275 80.275 0 0 0-.02 8.635" fill="#FBF18B" mask="url(#k)"/><path d="M8.733 36.105l-8.46-.011c.08-1.454.203-2.903.364-4.346l8.461.011a77.848 77.848 0 0 0-.365 4.346" fill="#FBF084" mask="url(#k)"/><path d="M9.098 31.76l-8.46-.012c.107-.982.236-1.963.382-2.938l8.463.01a74.43 74.43 0 0 0-.385 2.94" fill="#F9F07D" mask="url(#k)"/><path d="M9.483 28.82l-8.463-.01c.13-.857.274-1.713.431-2.565l8.461.011c-.158.85-.3 1.704-.429 2.564" fill="#F9EE75" mask="url(#k)"/><path d="M9.912 26.256l-8.46-.01c.133-.724.278-1.444.432-2.16l8.46.01a71.478 71.478 0 0 0-.432 2.16" fill="#F9EC6C" mask="url(#k)"/><path d="M10.345 24.095l-8.461-.009c.152-.705.313-1.406.486-2.102l8.46.007c-.172.698-.333 1.4-.485 2.104" fill="#F8EB62" mask="url(#k)"/><path d="M10.83 21.991l-8.46-.007a74.05 74.05 0 0 1 .51-1.95l8.46.01a77.872 77.872 0 0 0-.51 1.947" fill="#F8E854" mask="url(#k)"/><path d="M11.34 20.043l-8.46-.009c.177-.646.364-1.285.56-1.922l8.461.01a74.56 74.56 0 0 0-.56 1.921" fill="#F8E03C" mask="url(#k)"/><path d="M11.901 18.123l-8.46-.011c.192-.63.395-1.253.604-1.873l8.461.01c-.209.62-.41 1.244-.605 1.874" fill="#F7DE3D" mask="url(#k)"/><path d="M12.506 16.25l-8.46-.011c.21-.619.428-1.236.656-1.845l8.46.009a68.786 68.786 0 0 0-.656 1.847" fill="#F8DB3C" mask="url(#k)"/><path d="M13.162 14.403l-8.46-.01c.229-.618.467-1.231.715-1.84l8.46.01a67.046 67.046 0 0 0-.715 1.84" fill="#F7D93C" mask="url(#k)"/><path d="M13.877 12.563l-8.46-.01c.249-.607.504-1.211.768-1.808l8.46.01c-.263.596-.52 1.2-.768 1.808" fill="#F7D83C" mask="url(#k)"/><path d="M14.646 10.754l-8.461-.009c.273-.617.557-1.226.849-1.83l8.46.01a66.494 66.494 0 0 0-.848 1.83" fill="#F8D63C" mask="url(#k)"/><path d="M15.495 8.926l-8.461-.011a54.58 54.58 0 0 1 .904-1.792l8.46.01a55.61 55.61 0 0 0-.903 1.793" fill="#F8D33B" mask="url(#k)"/><path d="M16.398 7.134l-8.46-.011a56.75 56.75 0 0 1 .995-1.814l8.459.01c-.34.597-.673 1.203-.994 1.815" fill="#F8D13B" mask="url(#k)"/><path d="M17.392 5.32l-8.459-.011c.341-.597.695-1.186 1.056-1.767l8.46.008a58.534 58.534 0 0 0-1.057 1.77" fill="#F8CF3B" mask="url(#k)"/><path d="M18.45 3.55l-8.461-.008c.341-.547.69-1.087 1.047-1.617l8.463.01a54.44 54.44 0 0 0-1.05 1.615" fill="#F8CD3B" mask="url(#k)"/><path d="M19.498 1.936l-8.462-.011c.36-.53.726-1.054 1.102-1.57l8.46.011c-.375.514-.742 1.04-1.1 1.57" fill="#F8CB3B" mask="url(#k)"/><path d="M20.599.366L12.138.355c.022-.028.04-.057.062-.086l8.46.01-.061.087" fill="#F8C93B" mask="url(#k)"/></g><path d="M83.969 72.403c3.334-20.536-8.895-45.62-27.305-56.019-18.415-10.403-36.046-2.19-39.381 18.348-3.336 20.538 8.886 45.616 27.302 56.019 18.408 10.399 36.048 2.19 39.384-18.348zM8.549 29.799C12.757 3.89 35.005-6.474 58.245 6.654c23.233 13.125 38.656 44.77 34.447 70.678-4.208 25.91-26.454 36.274-49.685 23.15C19.765 87.352 4.34 55.707 8.549 29.8z" fill="#F4B83A"/></g></svg>