<svg width="212" height="50" viewBox="0 0 212 50" xmlns="http://www.w3.org/2000/svg" xmlns:xlink="http://www.w3.org/1999/xlink"><title>logo</title><defs><circle id="a" cx="25" cy="25" r="25"/><filter x="-14%" y="-9.7%" width="126%" height="125.8%" filterUnits="objectBoundingBox" id="b"><feOffset dx="-1" dy="4" in="SourceAlpha" result="shadowOffsetOuter1"/><feColorMatrix values="0 0 0 0 0 0 0 0 0 0 0 0 0 0 0 0 0 0 0.2 0" in="shadowOffsetOuter1" result="shadowMatrixOuter1"/><feMerge><feMergeNode in="shadowMatrixOuter1"/><feMergeNode in="SourceGraphic"/></feMerge></filter></defs><g fill="none" fill-rule="evenodd"><path d="M78.95 16.6V32h-3.564v-6.314H68.39V32h-3.564V16.6h3.564v6.072h6.996V16.6h3.564zm15.422 3.564V32h-3.278v-1.364c-.85 1.027-2.083 1.54-3.696 1.54-1.115 0-2.123-.25-3.025-.748a5.356 5.356 0 0 1-2.123-2.134c-.513-.924-.77-1.995-.77-3.212s.257-2.288.77-3.212a5.356 5.356 0 0 1 2.123-2.134c.902-.499 1.91-.748 3.025-.748 1.51 0 2.691.477 3.542 1.43v-1.254h3.432zm-6.38 9.196c.865 0 1.584-.297 2.156-.891.572-.594.858-1.39.858-2.387 0-.997-.286-1.793-.858-2.387-.572-.594-1.29-.891-2.156-.891-.88 0-1.606.297-2.178.891-.572.594-.858 1.39-.858 2.387 0 .997.286 1.793.858 2.387.572.594 1.298.891 2.178.891zm13.53 2.816c-.983 0-1.943-.121-2.882-.363-.939-.242-1.687-.546-2.244-.913l1.144-2.464c.528.337 1.166.612 1.914.825a8.022 8.022 0 0 0 2.2.319c1.452 0 2.178-.36 2.178-1.078 0-.337-.198-.58-.594-.726-.396-.147-1.005-.271-1.826-.374-.968-.147-1.767-.315-2.398-.506a3.72 3.72 0 0 1-1.639-1.012c-.462-.484-.693-1.173-.693-2.068 0-.748.216-1.412.649-1.991.433-.58 1.063-1.03 1.892-1.353.829-.323 1.808-.484 2.937-.484.836 0 1.668.092 2.497.275.829.183 1.514.436 2.057.759l-1.144 2.442a6.83 6.83 0 0 0-3.41-.88c-.733 0-1.283.103-1.65.308-.367.205-.55.47-.55.792 0 .367.198.623.594.77.396.147 1.027.286 1.892.418.968.161 1.76.334 2.376.517a3.57 3.57 0 0 1 1.606 1.001c.455.484.682 1.159.682 2.024 0 .733-.22 1.386-.66 1.958-.44.572-1.082 1.016-1.925 1.331-.843.315-1.844.473-3.003.473zm14.894-12.188c1.467 0 2.651.44 3.553 1.32.902.88 1.353 2.185 1.353 3.916V32h-3.432v-6.248c0-.939-.205-1.639-.616-2.101-.41-.462-1.005-.693-1.782-.693-.865 0-1.555.268-2.068.803-.513.535-.77 1.331-.77 2.387V32h-3.432V15.676h3.432v5.72a4.565 4.565 0 0 1 1.65-1.045 5.969 5.969 0 0 1 2.112-.363zm14.476-3.388h3.564v12.496h7.722V32h-11.286V16.6zm18.678 15.576c-1.247 0-2.365-.26-3.355-.781a5.806 5.806 0 0 1-2.321-2.167c-.557-.924-.836-1.973-.836-3.146 0-1.173.279-2.222.836-3.146a5.806 5.806 0 0 1 2.321-2.167c.99-.52 2.108-.781 3.355-.781 1.247 0 2.361.26 3.344.781a5.824 5.824 0 0 1 2.31 2.167c.557.924.836 1.973.836 3.146 0 1.173-.279 2.222-.836 3.146a5.824 5.824 0 0 1-2.31 2.167c-.983.52-2.097.781-3.344.781zm0-2.816c.88 0 1.602-.297 2.167-.891.565-.594.847-1.39.847-2.387 0-.997-.282-1.793-.847-2.387-.565-.594-1.287-.891-2.167-.891-.88 0-1.606.297-2.178.891-.572.594-.858 1.39-.858 2.387 0 .997.286 1.793.858 2.387.572.594 1.298.891 2.178.891zm15.906 2.068c-.337.25-.752.436-1.243.561a6.193 6.193 0 0 1-1.529.187c-1.423 0-2.515-.36-3.278-1.078-.763-.719-1.144-1.775-1.144-3.168V17.546h3.432v2.882h2.926v2.64h-2.926v4.818c0 .499.125.884.374 1.155.25.271.609.407 1.078.407.528 0 .997-.147 1.408-.44l.902 2.42zm9.064 0c-.337.25-.752.436-1.243.561a6.193 6.193 0 0 1-1.529.187c-1.423 0-2.515-.36-3.278-1.078-.763-.719-1.144-1.775-1.144-3.168V17.546h3.432v2.882h2.926v2.64h-2.926v4.818c0 .499.125.884.374 1.155.25.271.609.407 1.078.407.528 0 .997-.147 1.408-.44l.902 2.42zm7.898-2.002c.616 0 1.162-.092 1.639-.275a3.97 3.97 0 0 0 1.331-.869l1.826 1.98c-1.115 1.276-2.743 1.914-4.884 1.914-1.335 0-2.515-.26-3.542-.781-1.027-.52-1.819-1.243-2.376-2.167-.557-.924-.836-1.973-.836-3.146 0-1.159.275-2.204.825-3.135a5.78 5.78 0 0 1 2.266-2.178c.96-.52 2.042-.781 3.245-.781 1.13 0 2.156.238 3.08.715a5.503 5.503 0 0 1 2.211 2.068c.55.902.825 1.969.825 3.201l-8.756 1.694a2.63 2.63 0 0 0 1.177 1.32c.535.293 1.192.44 1.969.44zm-.506-6.842c-.865 0-1.57.279-2.112.836-.543.557-.829 1.327-.858 2.31l5.764-1.122a2.586 2.586 0 0 0-.99-1.474c-.499-.367-1.1-.55-1.804-.55zm11.704-.858c.41-.572.964-1.005 1.661-1.298.697-.293 1.5-.44 2.409-.44v3.168a11.85 11.85 0 0 0-.77-.044c-.983 0-1.753.275-2.31.825-.557.55-.836 1.375-.836 2.475V32h-3.432V20.164h3.278v1.562zm18.128-1.562v9.856c0 2.17-.55 3.784-1.65 4.84-1.1 1.056-2.699 1.584-4.796 1.584-1.115 0-2.167-.14-3.157-.418-.99-.279-1.822-.682-2.497-1.21l1.364-2.464c.499.41 1.107.733 1.826.968a6.977 6.977 0 0 0 2.178.352c1.144 0 1.98-.264 2.508-.792s.792-1.335.792-2.42v-.396c-.44.44-.96.777-1.562 1.012a5.278 5.278 0 0 1-1.936.352c-1.555 0-2.787-.444-3.696-1.331-.91-.887-1.364-2.218-1.364-3.993v-5.94h3.432v5.434c0 1.921.8 2.882 2.398 2.882.821 0 1.481-.268 1.98-.803.499-.535.748-1.331.748-2.387v-5.126h3.432z" fill="#FFF"/><mask id="c" fill="#fff"><use xlink:href="#a"/></mask><use fill="#FFF" xlink:href="#a"/><g filter="url(#b)" mask="url(#c)" fill="#E60041" fill-rule="nonzero"><path d="M36.958 27.03l11.261-9.85a4 4 0 0 1 5.267 6.022L37.826 36.9c-2.118 1.852-5.435.997-6.394-1.647L17.859-2.155a4 4 0 1 1 7.52-2.729L36.96 27.03zM5.225 16.759a4 4 0 0 1 7.518-2.736l17.87 49.106a4 4 0 0 1-7.519 2.735L5.224 16.76z"/><path d="M8.63 43.748a4 4 0 1 1-5.263-6.024L33.7 11.222a4 4 0 1 1 5.264 6.025L8.63 43.748z"/></g></g></svg>