<svg width="85" height="82" viewBox="0 0 85 82" xmlns="http://www.w3.org/2000/svg"><title>Group</title><g fill="none" fill-rule="evenodd"><circle fill="#FFD750" cx="49" cy="46" r="36"/><g fill-rule="nonzero"><path d="M61.25 12.715c.756 0 1.368-.612 1.368-1.367V4.102A4.106 4.106 0 0 0 58.516 0H4.102A4.106 4.106 0 0 0 .001 4.102v61.796A4.106 4.106 0 0 0 4.102 70h54.414a4.106 4.106 0 0 0 4.102-4.102V62.07a1.367 1.367 0 1 0-2.735 0v3.828a1.37 1.37 0 0 1-1.367 1.368H4.102a1.369 1.369 0 0 1-1.367-1.368V4.102a1.37 1.37 0 0 1 1.367-1.368h54.414a1.37 1.37 0 0 1 1.367 1.368v7.246c0 .755.612 1.367 1.368 1.367z" fill="#272E40"/><path d="M54.689 6.563H7.929c-.755 0-1.367.612-1.367 1.367v28.574a1.367 1.367 0 1 0 2.735 0V9.297h44.025v2.187a1.367 1.367 0 0 0 2.734 0V7.93c0-.755-.612-1.367-1.367-1.367z" fill="#272E40"/><path d="M8.895 40.596a1.375 1.375 0 0 0-.966-.4c-.36 0-.712.146-.967.4-.254.254-.4.607-.4.967s.146.712.4.966c.255.254.607.4.967.4s.712-.146.966-.4a1.37 1.37 0 0 0 .001-1.933z" fill="#E60041"/><path d="M54.689 57.695c-.755 0-1.367.612-1.367 1.367v1.641H9.297V46.826a1.367 1.367 0 1 0-2.735 0V62.07c0 .755.612 1.367 1.367 1.367h46.76c.755 0 1.367-.612 1.367-1.367v-3.008c0-.755-.612-1.367-1.367-1.367z" fill="#272E40"/><path d="M42.37 48.308a1.367 1.367 0 0 0-1.933 0l-2.702 2.702-1.68-1.68a2.723 2.723 0 0 0-3.846 0l-1.093 1.093a1.367 1.367 0 0 0 1.933 1.934l1.083-1.083 1.68 1.68a2.71 2.71 0 0 0 1.923.795c.696 0 1.393-.265 1.923-.795l2.712-2.713c.534-.534.534-1.4 0-1.933z" fill="#E60041"/><path d="M69.371 28.681c.603-.94.783-2.098.494-3.176a3.986 3.986 0 0 0-2.016-2.504 1.246 1.246 0 0 1-.67-1.162 3.986 3.986 0 0 0-1.161-2.997 3.983 3.983 0 0 0-2.998-1.16 1.243 1.243 0 0 1-1.162-.671 3.986 3.986 0 0 0-2.503-2.016 3.985 3.985 0 0 0-3.176.494 1.246 1.246 0 0 1-1.342 0 3.985 3.985 0 0 0-3.176-.494 3.986 3.986 0 0 0-2.504 2.016c-.222.43-.68.692-1.162.67a3.984 3.984 0 0 0-2.997 1.161 3.986 3.986 0 0 0-1.16 2.997c.022.484-.241.94-.671 1.162a3.972 3.972 0 0 0-2.113 4.069H17.197a1.367 1.367 0 1 0 0 2.735h24.556c-.03.075-.064.148-.108.218a3.986 3.986 0 0 0-.35 3.61H17.197a1.367 1.367 0 1 0 0 2.734h26.56c.06.156.09.325.081.498a3.986 3.986 0 0 0 1.16 2.997 3.982 3.982 0 0 0 2.998 1.16c.483-.023.94.241 1.162.671.164.318.37.609.608.868v12.768a1.367 1.367 0 0 0 2.332.97l3.41-3.393 3.411 3.393a1.367 1.367 0 0 0 2.332-.97V42.561a3.98 3.98 0 0 0 .608-.868c.223-.43.68-.693 1.162-.67a3.98 3.98 0 0 0 4.158-4.158c-.022-.484.241-.94.671-1.162a3.986 3.986 0 0 0 2.016-2.504 3.986 3.986 0 0 0-.494-3.176 1.245 1.245 0 0 1 0-1.342zm-10.856 23.36l-2.043-2.033a1.367 1.367 0 0 0-1.929 0L52.5 52.04v-8.202a3.988 3.988 0 0 0 2.337-.624 1.246 1.246 0 0 1 1.342 0 3.985 3.985 0 0 0 2.149.629c.062 0 .125-.003.187-.006v8.203zm8.708-19.55a1.23 1.23 0 0 1-.63.783 3.988 3.988 0 0 0-2.146 3.718 1.23 1.23 0 0 1-.363.937 1.23 1.23 0 0 1-.937.362 3.988 3.988 0 0 0-3.718 2.147c-.162.315-.44.538-.782.63a1.23 1.23 0 0 1-.993-.154 3.975 3.975 0 0 0-2.146-.627c-.748 0-1.495.209-2.147.627a1.23 1.23 0 0 1-.993.154 1.23 1.23 0 0 1-.782-.63 3.987 3.987 0 0 0-3.718-2.147 1.23 1.23 0 0 1-.937-.362c-.25-.25-.38-.583-.363-.937a3.986 3.986 0 0 0-1.148-2.98 3.954 3.954 0 0 0-.998-.738 1.229 1.229 0 0 1-.63-.783 1.229 1.229 0 0 1 .154-.992 3.988 3.988 0 0 0 0-4.293 1.23 1.23 0 0 1-.154-.993 1.23 1.23 0 0 1 .63-.783 3.988 3.988 0 0 0 2.146-3.718 1.23 1.23 0 0 1 .363-.936c.25-.251.584-.38.937-.363a3.987 3.987 0 0 0 3.718-2.147 1.23 1.23 0 0 1 .782-.63 1.23 1.23 0 0 1 .993.155 3.987 3.987 0 0 0 4.293 0 1.23 1.23 0 0 1 .993-.155c.342.092.62.316.782.63a3.988 3.988 0 0 0 3.718 2.147 1.23 1.23 0 0 1 .937.363c.25.25.38.583.363.936a3.988 3.988 0 0 0 2.147 3.718c.314.163.538.44.63.783.09.342.036.694-.155.992a3.988 3.988 0 0 0 0 4.294c.191.298.246.65.154.992z" fill="#272E40"/><path d="M62.01 25.633a1.367 1.367 0 0 0-1.934 0l-4.538 4.538-1.806-1.807a1.367 1.367 0 0 0-1.934 1.934l2.773 2.773c.267.267.617.4.967.4s.7-.133.967-.4l5.505-5.505c.533-.533.533-1.4 0-1.933zm-45.32-9.1a1.378 1.378 0 0 0-.967-.4c-.36 0-.712.146-.966.4-.255.255-.401.607-.401.967s.146.712.4.967c.255.254.608.4.967.4.36 0 .713-.146.967-.4.254-.255.4-.607.4-.967s-.146-.712-.4-.967z" fill="#E60041"/><path d="M27.48 16.133h-6.654a1.367 1.367 0 1 0 0 2.734h6.654a1.367 1.367 0 1 0 0-2.734zm13.924 24.062h-15.63a1.367 1.367 0 1 0 0 2.735h15.63a1.367 1.367 0 0 0 0-2.735z" fill="#272E40"/></g></g></svg>