<svg width="72" height="82" viewBox="0 0 72 82" xmlns="http://www.w3.org/2000/svg"><title>Group 5</title><g fill="none" fill-rule="evenodd"><circle fill="#FFD750" cx="36" cy="46" r="36"/><g fill-rule="nonzero"><path d="M55.22 15.479L60.143 3.9c.268-.63.029-1.36-.56-1.71L57.169.755a5.281 5.281 0 0 0-6.02.447l-.373.305a2.538 2.538 0 0 1-3.202 0l-.015-.013a5.28 5.28 0 0 0-6.666.006 2.538 2.538 0 0 1-3.205.003l-.379-.31a5.285 5.285 0 0 0-6-.46l-2.48 1.46a1.367 1.367 0 0 0-.563 1.716l4.954 11.56a16.925 16.925 0 0 0-8.648 7.02 1.367 1.367 0 1 0 2.327 1.436 14.189 14.189 0 0 1 7.464-5.964h19.683a14.133 14.133 0 0 1 9.572 13.401v3.628a1.367 1.367 0 0 0 2.735 0v-3.628c0-7.149-4.451-13.46-11.132-15.883zm-2.865-.252H36.09L31.252 3.939l1.443-.85a2.54 2.54 0 0 1 2.883.222l.38.31a5.28 5.28 0 0 0 6.667-.006 2.538 2.538 0 0 1 3.205-.002l.015.012a5.282 5.282 0 0 0 6.66 0l.372-.305a2.539 2.539 0 0 1 2.893-.215l1.39.825-4.805 11.297z" fill="#272E40"/><path d="M65.951 39.188a1.378 1.378 0 0 0-.967-.4c-.36 0-.712.146-.966.4a1.38 1.38 0 0 0-.4.967 1.373 1.373 0 0 0 1.367 1.368 1.373 1.373 0 0 0 1.367-1.368c0-.36-.147-.712-.401-.967zM21.915 60.987a1.378 1.378 0 0 0-.966-.4c-.36 0-.713.146-.967.4s-.4.607-.4.966c0 .36.146.713.4.967s.607.4.967.4.712-.146.966-.4a1.371 1.371 0 0 0 0-1.933z" fill="#E60041"/><path d="M71 57.138c0-1.513-.65-2.877-1.687-3.828A5.183 5.183 0 0 0 71 49.482a5.201 5.201 0 0 0-5.195-5.195H51.039a5.201 5.201 0 0 0-5.195 5.195c0 1.514.65 2.878 1.687 3.828a5.183 5.183 0 0 0 0 7.656 5.183 5.183 0 0 0-1.066 6.29h-5.567v-5.347c0-7.23-5.559-13.185-12.626-13.82a1.371 1.371 0 0 0-.59-.04c-.023-.002-.046-.002-.07-.003a9.513 9.513 0 0 0 2.88-6.822V27.607c0-.755-.612-1.367-1.367-1.367H18.997c-4.186 0-7.591 3.405-7.591 7.591v7.393a9.513 9.513 0 0 0 2.88 6.822l-.07.002a1.374 1.374 0 0 0-.59.041C6.558 48.724 1 54.68 1 61.91v6.714c0 .755.612 1.367 1.367 1.367h63.437A5.201 5.201 0 0 0 71 64.794c0-1.513-.65-2.877-1.687-3.828A5.182 5.182 0 0 0 71 57.138zM14.14 35.746v-1.915a4.863 4.863 0 0 1 4.857-4.857h8.76v3.659a3.357 3.357 0 0 1-3.352 3.353H14.14v-.24zm0 5.478V38.72h10.265c1.238 0 2.39-.373 3.353-1.01v3.514a6.817 6.817 0 0 1-6.81 6.808 6.817 6.817 0 0 1-6.808-6.808zm10.44 9.543l-3.631 3.63-3.631-3.63h7.262zm13.583 16.489H3.734V63.32h11.157a1.367 1.367 0 0 0 0-2.735H3.816c.604-5.081 4.64-9.122 9.719-9.736l6.447 6.448a1.363 1.363 0 0 0 1.934 0l6.447-6.448c5.513.666 9.8 5.37 9.8 11.06v5.346zm27.642 0H51.039a2.464 2.464 0 0 1-2.46-2.462 2.464 2.464 0 0 1 2.46-2.46h14.766a2.464 2.464 0 0 1 2.46 2.46 2.464 2.464 0 0 1-2.46 2.461zm0-7.657H51.039a2.464 2.464 0 0 1-2.46-2.46 2.464 2.464 0 0 1 2.46-2.462h14.766a2.464 2.464 0 0 1 2.46 2.461 2.464 2.464 0 0 1-2.46 2.461zm0-7.656H51.039a2.464 2.464 0 0 1-2.46-2.461 2.464 2.464 0 0 1 2.46-2.461h14.766a2.464 2.464 0 0 1 2.46 2.46 2.464 2.464 0 0 1-2.46 2.462z" fill="#272E40"/><path d="M52.133 31.17c-1.095 0-1.985-.75-1.985-1.674 0-.924.89-1.675 1.985-1.675 1.094 0 1.985.751 1.985 1.675a1.367 1.367 0 0 0 2.734 0c0-1.987-1.414-3.67-3.352-4.22v-.204a1.367 1.367 0 0 0-2.734 0v.204c-1.938.55-3.352 2.233-3.352 4.22 0 2.431 2.117 4.41 4.719 4.41 1.094 0 1.985.75 1.985 1.674 0 .924-.89 1.675-1.985 1.675-1.095 0-1.985-.751-1.985-1.675a1.367 1.367 0 0 0-2.734 0c0 1.987 1.414 3.671 3.352 4.22v.088a1.367 1.367 0 0 0 2.734 0V39.8c1.937-.549 3.352-2.233 3.352-4.22 0-2.431-2.117-4.41-4.72-4.41z" fill="#272E40"/></g></g></svg>