<svg width="86" height="82" viewBox="0 0 86 82" xmlns="http://www.w3.org/2000/svg"><title>Group 3</title><g fill="none" fill-rule="evenodd"><circle fill="#FFD750" cx="50" cy="46" r="36"/><g fill-rule="nonzero"><path d="M61.128 11.715c.754 0 1.364-.612 1.364-1.367V4.102A4.102 4.102 0 0 0 58.4 0H4.094A4.102 4.102 0 0 0 0 4.102v61.796A4.102 4.102 0 0 0 4.094 70h54.305a4.102 4.102 0 0 0 4.093-4.102V49.07a1.365 1.365 0 1 0-2.728 0v16.828c0 .754-.613 1.368-1.365 1.368H4.094a1.367 1.367 0 0 1-1.365-1.368V4.102c0-.754.613-1.368 1.365-1.368h54.305c.752 0 1.365.614 1.365 1.368v6.246c0 .755.61 1.367 1.364 1.367z" fill="#272E40"/><path d="M54.58 6.563H7.913c-.754 0-1.365.612-1.365 1.367v28.574a1.366 1.366 0 0 0 2.729 0V9.297h43.937v2.187c0 .755.611 1.368 1.364 1.368.754 0 1.365-.613 1.365-1.368V7.93c0-.755-.611-1.367-1.365-1.367z" fill="#272E40"/><path d="M8.878 40.596a1.371 1.371 0 0 0-.965-.4c-.359 0-.71.146-.965.4-.253.254-.4.607-.4.967s.147.712.4.966c.254.254.606.4.965.4.36 0 .71-.146.965-.4s.4-.607.4-.967-.145-.712-.4-.966z" fill="#E60041"/><path d="M54.58 42.695c-.754 0-1.365.612-1.365 1.367v16.641H9.278V46.826a1.365 1.365 0 1 0-2.729 0V62.07c0 .755.611 1.367 1.365 1.367h46.665c.754 0 1.365-.612 1.365-1.367V44.062c0-.755-.611-1.367-1.365-1.367z" fill="#272E40"/><path d="M42.285 48.308a1.362 1.362 0 0 0-1.93 0L37.66 51.01l-1.676-1.68a2.714 2.714 0 0 0-3.839 0l-1.09 1.093a1.37 1.37 0 0 0 0 1.934 1.363 1.363 0 0 0 1.93 0l1.08-1.083 1.676 1.68c.53.53 1.224.795 1.92.795a2.7 2.7 0 0 0 1.918-.795l2.707-2.713a1.37 1.37 0 0 0 0-1.933zM16.656 16.533a1.373 1.373 0 0 0-.964-.4c-.36 0-.711.146-.965.4-.254.255-.4.607-.4.967s.146.712.4.967c.254.254.606.4.965.4s.71-.146.964-.4c.254-.255.4-.607.4-.967s-.146-.712-.4-.967z" fill="#E60041"/><path d="M27.425 16.133h-6.64c-.754 0-1.365.612-1.365 1.367s.611 1.367 1.365 1.367h6.64c.754 0 1.365-.612 1.365-1.367s-.611-1.367-1.365-1.367zm13.962 24.062H25.788c-.753 0-1.364.612-1.364 1.367 0 .756.61 1.368 1.364 1.368h15.599c.753 0 1.364-.612 1.364-1.367 0-.756-.61-1.368-1.364-1.368zm4.147-13.261H17.056c-.754 0-1.365.612-1.365 1.367s.611 1.367 1.365 1.367h28.478c.753 0 1.364-.612 1.364-1.367s-.61-1.367-1.364-1.367zm0 6.699H17.056c-.754 0-1.365.612-1.365 1.367s.611 1.367 1.365 1.367h28.478c.753 0 1.364-.612 1.364-1.367s-.61-1.367-1.364-1.367z" fill="#272E40"/><path d="M60.104 44.98c-8.777 0-15.896-7.099-15.896-15.859s7.119-15.86 15.896-15.86c8.778 0 15.896 7.1 15.896 15.86s-7.118 15.86-15.896 15.86zm0-2.734c7.273 0 13.167-5.878 13.167-13.125s-5.894-13.125-13.167-13.125-13.167 5.878-13.167 13.125 5.894 13.125 13.167 13.125z" fill="#272E40"/><path d="M58.776 18.047a1.4 1.4 0 1 1 2.8 0v.907a1.4 1.4 0 0 1-2.8 0v-.907zm12.448 9.707c.754 0 1.365.612 1.365 1.367s-.611 1.367-1.365 1.367h-.818a1.366 1.366 0 0 1-1.365-1.367c0-.755.611-1.367 1.365-1.367h.818zm-21.334-.137a1.367 1.367 0 1 1-.001 2.735h-.905a1.366 1.366 0 0 1-1.365-1.368c0-.755.611-1.367 1.365-1.367h.905zm8.886 11.758a1.4 1.4 0 1 1 2.8 0v.82a1.4 1.4 0 0 1-2.8 0v-.82zm.032-16.543a1.365 1.365 0 1 1 2.729 0v5.966a1.366 1.366 0 0 1-2.729 0v-5.966z" fill="#272E40"/><path d="M56.352 30.215a1.366 1.366 0 0 1-1.365-1.367c0-.755.611-1.368 1.365-1.368h3.7a1.367 1.367 0 0 1 0 2.735h-3.7z" fill="#272E40"/></g></g></svg>