<svg width="172" height="40" viewBox="0 0 172 40" xmlns="http://www.w3.org/2000/svg" xmlns:xlink="http://www.w3.org/1999/xlink"><title>logo</title><defs><circle id="a" cx="20" cy="20" r="20"/><filter x="-15%" y="-12%" width="130%" height="130%" filterUnits="objectBoundingBox" id="b"><feOffset dx="-1" dy="4" in="SourceAlpha" result="shadowOffsetOuter1"/><feColorMatrix values="0 0 0 0 0 0 0 0 0 0 0 0 0 0 0 0 0 0 0.2 0" in="shadowOffsetOuter1" result="shadowMatrixOuter1"/><feMerge><feMergeNode in="shadowMatrixOuter1"/><feMergeNode in="SourceGraphic"/></feMerge></filter></defs><g fill="none" fill-rule="evenodd"><path d="M63.05 13.4V26h-2.916v-5.166H54.41V26h-2.916V13.4h2.916v4.968h5.724V13.4h2.916zm12.618 2.916V26h-2.682v-1.116c-.696.84-1.704 1.26-3.024 1.26-.912 0-1.737-.204-2.475-.612a4.382 4.382 0 0 1-1.737-1.746c-.42-.756-.63-1.632-.63-2.628 0-.996.21-1.872.63-2.628a4.382 4.382 0 0 1 1.737-1.746c.738-.408 1.563-.612 2.475-.612 1.236 0 2.202.39 2.898 1.17v-1.026h2.808zm-5.22 7.524c.708 0 1.296-.243 1.764-.729.468-.486.702-1.137.702-1.953 0-.816-.234-1.467-.702-1.953-.468-.486-1.056-.729-1.764-.729-.72 0-1.314.243-1.782.729-.468.486-.702 1.137-.702 1.953 0 .816.234 1.467.702 1.953.468.486 1.062.729 1.782.729zm11.07 2.304c-.804 0-1.59-.099-2.358-.297-.768-.198-1.38-.447-1.836-.747l.936-2.016c.432.276.954.501 1.566.675a6.563 6.563 0 0 0 1.8.261c1.188 0 1.782-.294 1.782-.882 0-.276-.162-.474-.486-.594-.324-.12-.822-.222-1.494-.306-.792-.12-1.446-.258-1.962-.414a3.044 3.044 0 0 1-1.341-.828c-.378-.396-.567-.96-.567-1.692 0-.612.177-1.155.531-1.629.354-.474.87-.843 1.548-1.107s1.479-.396 2.403-.396c.684 0 1.365.075 2.043.225.678.15 1.239.357 1.683.621l-.936 1.998a5.588 5.588 0 0 0-2.79-.72c-.6 0-1.05.084-1.35.252-.3.168-.45.384-.45.648 0 .3.162.51.486.63.324.12.84.234 1.548.342.792.132 1.44.273 1.944.423.504.15.942.423 1.314.819.372.396.558.948.558 1.656 0 .6-.18 1.134-.54 1.602-.36.468-.885.831-1.575 1.089s-1.509.387-2.457.387zm12.186-9.972c1.2 0 2.169.36 2.907 1.08.738.72 1.107 1.788 1.107 3.204V26H94.91v-5.112c0-.768-.168-1.341-.504-1.719-.336-.378-.822-.567-1.458-.567-.708 0-1.272.219-1.692.657-.42.438-.63 1.089-.63 1.953V26h-2.808V12.644h2.808v4.68a3.735 3.735 0 0 1 1.35-.855 4.884 4.884 0 0 1 1.728-.297zm11.844-2.772h2.916v10.224h6.318V26h-9.234V13.4zm15.282 12.744c-1.02 0-1.935-.213-2.745-.639a4.75 4.75 0 0 1-1.899-1.773c-.456-.756-.684-1.614-.684-2.574 0-.96.228-1.818.684-2.574a4.75 4.75 0 0 1 1.899-1.773c.81-.426 1.725-.639 2.745-.639s1.932.213 2.736.639a4.765 4.765 0 0 1 1.89 1.773c.456.756.684 1.614.684 2.574 0 .96-.228 1.818-.684 2.574a4.765 4.765 0 0 1-1.89 1.773c-.804.426-1.716.639-2.736.639zm0-2.304c.72 0 1.311-.243 1.773-.729.462-.486.693-1.137.693-1.953 0-.816-.231-1.467-.693-1.953-.462-.486-1.053-.729-1.773-.729s-1.314.243-1.782.729c-.468.486-.702 1.137-.702 1.953 0 .816.234 1.467.702 1.953.468.486 1.062.729 1.782.729zm13.014 1.692a2.886 2.886 0 0 1-1.017.459 5.067 5.067 0 0 1-1.251.153c-1.164 0-2.058-.294-2.682-.882-.624-.588-.936-1.452-.936-2.592v-8.496h2.808v2.358h2.394v2.16h-2.394v3.942c0 .408.102.723.306.945.204.222.498.333.882.333.432 0 .816-.12 1.152-.36l.738 1.98zm7.416 0a2.886 2.886 0 0 1-1.017.459 5.067 5.067 0 0 1-1.251.153c-1.164 0-2.058-.294-2.682-.882-.624-.588-.936-1.452-.936-2.592v-8.496h2.808v2.358h2.394v2.16h-2.394v3.942c0 .408.102.723.306.945.204.222.498.333.882.333.432 0 .816-.12 1.152-.36l.738 1.98zm6.462-1.638c.504 0 .951-.075 1.341-.225.39-.15.753-.387 1.089-.711l1.494 1.62c-.912 1.044-2.244 1.566-3.996 1.566-1.092 0-2.058-.213-2.898-.639-.84-.426-1.488-1.017-1.944-1.773-.456-.756-.684-1.614-.684-2.574 0-.948.225-1.803.675-2.565a4.729 4.729 0 0 1 1.854-1.782c.786-.426 1.671-.639 2.655-.639.924 0 1.764.195 2.52.585.756.39 1.359.954 1.809 1.692.45.738.675 1.611.675 2.619l-7.164 1.386c.204.48.525.84.963 1.08.438.24.975.36 1.611.36zm-.414-5.598c-.708 0-1.284.228-1.728.684-.444.456-.678 1.086-.702 1.89l4.716-.918a2.116 2.116 0 0 0-.81-1.206c-.408-.3-.9-.45-1.476-.45zm9.576-.702a3.123 3.123 0 0 1 1.359-1.062c.57-.24 1.227-.36 1.971-.36v2.592a10.134 10.134 0 0 0-.63-.036c-.804 0-1.434.225-1.89.675-.456.45-.684 1.125-.684 2.025V26h-2.808v-9.684h2.682v1.278zm14.832-1.278v8.064c0 1.776-.45 3.096-1.35 3.96-.9.864-2.208 1.296-3.924 1.296a9.493 9.493 0 0 1-2.583-.342c-.81-.228-1.491-.558-2.043-.99l1.116-2.016c.408.336.906.6 1.494.792a5.709 5.709 0 0 0 1.782.288c.936 0 1.62-.216 2.052-.648.432-.432.648-1.092.648-1.98v-.324c-.36.36-.786.636-1.278.828a4.318 4.318 0 0 1-1.584.288c-1.272 0-2.28-.363-3.024-1.089-.744-.726-1.116-1.815-1.116-3.267v-4.86h2.808v4.446c0 1.572.654 2.358 1.962 2.358.672 0 1.212-.219 1.62-.657.408-.438.612-1.089.612-1.953v-4.194h2.808z" fill="#FFF"/><mask id="c" fill="#fff"><use xlink:href="#a"/></mask><use fill="#E60041" xlink:href="#a"/><g filter="url(#b)" mask="url(#c)" fill="#FFF" fill-rule="nonzero"><path d="M29.811 20.81l8.679-7.59a3.5 3.5 0 1 1 4.609 5.268L30.57 29.448c-1.852 1.62-4.755.872-5.594-1.441L14.117-1.921a3.5 3.5 0 0 1 6.58-2.387l9.114 25.119zM4.01 13.21a3.5 3.5 0 0 1 6.578-2.393l14.296 39.284a3.5 3.5 0 0 1-6.578 2.394L4.01 13.211z"/><path d="M7.214 34.926a3.5 3.5 0 0 1-4.606-5.272L26.876 8.453a3.5 3.5 0 1 1 4.605 5.271L7.214 34.926z"/></g></g></svg>