<?xml version="1.0" encoding="UTF-8"?>
<svg width="86px" height="82px" viewBox="0 0 86 82" version="1.1" xmlns="http://www.w3.org/2000/svg" xmlns:xlink="http://www.w3.org/1999/xlink">
    <!-- Generator: Sketch 50.2 (55047) - http://www.bohemiancoding.com/sketch -->
    <title>Group 3</title>
    <desc>Created with Sketch.</desc>
    <defs></defs>
    <g id="ICO" stroke="none" stroke-width="1" fill="none" fill-rule="evenodd">
        <g id="01-Ñontract-ICO-hover" transform="translate(-645.000000, -1113.000000)">
            <g id="content">
                <g id="facts" transform="translate(239.000000, 1075.000000)">
                    <g id="2" transform="translate(312.000000, 0.000000)">
                        <g id="Group-3" transform="translate(94.000000, 38.000000)">
                            <circle id="Oval" fill="#FFD750" cx="50" cy="46" r="36"></circle>
                            <g id="Group-2" fill-rule="nonzero">
                                <g id="038-certificate-copy">
                                    <path d="M61.1280144,11.7148438 C61.8816014,11.7148438 62.4924668,11.1027539 62.4924668,10.3476562 L62.4924668,4.1015625 C62.4924668,1.83996094 60.6561867,0 58.3991095,0 L4.09390305,0 C1.83682585,0 0.000545780969,1.83996094 0.000545780969,4.1015625 L0.000545780969,65.8984375 C0.000545780969,68.1600391 1.83682585,70 4.09390305,70 L58.3991095,70 C60.6561867,70 62.4924668,68.1600391 62.4924668,65.8984375 L62.4924668,49.0703125 C62.4924668,48.3152148 61.8816014,47.703125 61.1280144,47.703125 C60.3744273,47.703125 59.7635619,48.3152148 59.7635619,49.0703125 L59.7635619,65.8984375 C59.7635619,66.6523047 59.1514686,67.265625 58.3991095,67.265625 L4.09390305,67.265625 C3.34154399,67.265625 2.72945063,66.6523047 2.72945063,65.8984375 L2.72945063,4.1015625 C2.72945063,3.34769531 3.34154399,2.734375 4.09390305,2.734375 L58.3991095,2.734375 C59.1514686,2.734375 59.7635619,3.34769531 59.7635619,4.1015625 L59.7635619,10.3476562 C59.7635619,11.1027539 60.3744273,11.7148438 61.1280144,11.7148438 Z" id="Shape" fill="#272E40"></path>
                                    <path d="M54.5794614,6.5625 L7.91355117,6.5625 C7.15996409,6.5625 6.54909874,7.17458984 6.54909874,7.9296875 L6.54909874,36.5039063 C6.54909874,37.2590039 7.15996409,37.8710938 7.91355117,37.8710938 C8.66713824,37.8710938 9.27800359,37.2590039 9.27800359,36.5039063 L9.27800359,9.296875 L53.215009,9.296875 L53.215009,11.484375 C53.215009,12.2394727 53.8260108,12.8515625 54.5794614,12.8515625 C55.3330485,12.8515625 55.9439138,12.2394727 55.9439138,11.484375 L55.9439138,7.9296875 C55.9439138,7.17458984 55.3330485,6.5625 54.5794614,6.5625 Z" id="Shape" fill="#272E40"></path>
                                    <path d="M8.87767325,40.5958984 C8.6238851,40.3416016 8.27322083,40.1953125 7.91300539,40.1953125 C7.5541544,40.1953125 7.20212567,40.3416016 6.94833752,40.5958984 C6.69454937,40.8501953 6.54855296,41.2029297 6.54855296,41.5625 C6.54855296,41.9220703 6.69454937,42.2748047 6.94833752,42.5291016 C7.20212567,42.7833984 7.5541544,42.9296875 7.91300539,42.9296875 C8.27322083,42.9296875 8.6238851,42.7833984 8.87767325,42.5291016 C9.13282585,42.2748047 9.27745781,41.9220703 9.27745781,41.5625 C9.27745781,41.2029297 9.13282585,40.8501953 8.87767325,40.5958984 Z" id="Shape" fill="#E60041"></path>
                                    <path d="M54.5794614,42.6953125 C53.8258743,42.6953125 53.215009,43.3074023 53.215009,44.0625 L53.215009,60.703125 L9.27800359,60.703125 L9.27800359,46.8261719 C9.27800359,46.0710742 8.66713824,45.4589844 7.91355117,45.4589844 C7.15996409,45.4589844 6.54909874,46.0710742 6.54909874,46.8261719 L6.54909874,62.0703125 C6.54909874,62.8254102 7.15996409,63.4375 7.91355117,63.4375 L54.5794614,63.4375 C55.3330485,63.4375 55.9439138,62.8254102 55.9439138,62.0703125 L55.9439138,44.0625 C55.9439138,43.3074023 55.3330485,42.6953125 54.5794614,42.6953125 Z" id="Shape" fill="#272E40"></path>
                                    <path d="M42.2854722,48.3076563 C41.7526535,47.7736328 40.8888187,47.7736328 40.3558636,48.3075195 L37.6591598,51.0097656 L35.98293,49.3300391 C34.9245242,48.2696484 33.2027217,48.2696484 32.144316,49.3300391 L31.0535727,50.4229688 C30.520754,50.9568555 30.520754,51.8225586 31.0535727,52.356582 C31.5863914,52.8904688 32.4503627,52.8904688 32.9833178,52.356582 L34.0636912,51.274043 L35.739921,52.9537695 C36.2690557,53.4839648 36.9641077,53.7490625 37.6591598,53.7490625 C38.3542118,53.7490625 39.0492639,53.4839648 39.5783986,52.9537695 L42.2854722,50.2412695 C42.8182908,49.7073828 42.8182908,48.8416797 42.2854722,48.3076563 Z" id="Shape" fill="#E60041"></path>
                                    <path d="M16.6564165,16.5333984 C16.4026284,16.2791016 16.0505996,16.1328125 15.6917487,16.1328125 C15.3328977,16.1328125 14.9808689,16.2791016 14.7270808,16.5333984 C14.4732926,16.7876953 14.3272962,17.1404297 14.3272962,17.5 C14.3272962,17.8595703 14.4732926,18.2123047 14.7270808,18.4666016 C14.9808689,18.7208984 15.3328977,18.8671875 15.6917487,18.8671875 C16.0505996,18.8671875 16.4026284,18.7208984 16.6564165,18.4666016 C16.9102047,18.2123047 17.0562011,17.8595703 17.0562011,17.5 C17.0562011,17.1404297 16.9102047,16.7876953 16.6564165,16.5333984 Z" id="Shape" fill="#E60041"></path>
                                    <path d="M27.4250844,16.1328125 L20.7847038,16.1328125 C20.0311167,16.1328125 19.4202513,16.7449023 19.4202513,17.5 C19.4202513,18.2550977 20.0311167,18.8671875 20.7847038,18.8671875 L27.4250844,18.8671875 C28.1786715,18.8671875 28.7895368,18.2550977 28.7895368,17.5 C28.7895368,16.7449023 28.1786715,16.1328125 27.4250844,16.1328125 Z" id="Shape" fill="#272E40"></path>
                                    <path d="M41.3868438,40.1953125 L25.7881508,40.1953125 C25.0345637,40.1953125 24.4236984,40.8074023 24.4236984,41.5625 C24.4236984,42.3175977 25.0345637,42.9296875 25.7881508,42.9296875 L41.3867074,42.9296875 C42.1402944,42.9296875 42.7511598,42.3175977 42.7511598,41.5625 C42.7511598,40.8074023 42.1404309,40.1953125 41.3868438,40.1953125 Z" id="Shape" fill="#272E40"></path>
                                    <path d="M45.5339392,26.9335938 L17.0556553,26.9335938 C16.3020682,26.9335938 15.6912029,27.5456836 15.6912029,28.3007813 C15.6912029,29.0558789 16.3020682,29.6679688 17.0556553,29.6679688 L45.5338027,29.6679688 C46.2873898,29.6679688 46.8982552,29.0558789 46.8982552,28.3007813 C46.8982552,27.5456836 46.2875263,26.9335938 45.5339392,26.9335938 Z" id="Shape-Copy" fill="#272E40"></path>
                                    <path d="M45.5339392,33.6328125 L17.0556553,33.6328125 C16.3020682,33.6328125 15.6912029,34.2449023 15.6912029,35 C15.6912029,35.7550977 16.3020682,36.3671875 17.0556553,36.3671875 L45.5338027,36.3671875 C46.2873898,36.3671875 46.8982552,35.7550977 46.8982552,35 C46.8982552,34.2449023 46.2875263,33.6328125 45.5339392,33.6328125 Z" id="Shape-Copy-2" fill="#272E40"></path>
                                </g>
                                <path d="M60.1041293,44.9804688 C51.3265159,44.9804688 44.2082585,37.8814287 44.2082585,29.1210938 C44.2082585,20.3607588 51.3265159,13.2617188 60.1041293,13.2617188 C68.8817426,13.2617188 76,20.3607588 76,29.1210938 C76,37.8814287 68.8817426,44.9804688 60.1041293,44.9804688 Z M60.1041293,42.2460938 C67.3774774,42.2460938 73.2710952,36.3683871 73.2710952,29.1210938 C73.2710952,21.8738004 67.3774774,15.9960938 60.1041293,15.9960938 C52.8307812,15.9960938 46.9371634,21.8738004 46.9371634,29.1210938 C46.9371634,36.3683871 52.8307812,42.2460938 60.1041293,42.2460938 Z" id="Oval-3" fill="#272E40"></path>
                                <path d="M58.776158,18.046875 C58.776158,17.2736764 59.4029593,16.646875 60.176158,16.646875 C60.9493566,16.646875 61.576158,17.2736764 61.576158,18.046875 L61.576158,18.9541346 C61.576158,19.7273332 60.9493566,20.3541346 60.176158,20.3541346 C59.4029593,20.3541346 58.776158,19.7273332 58.776158,18.9541346 L58.776158,18.046875 Z" id="Line-19-Copy" fill="#272E40"></path>
                                <path d="M71.2244165,27.7539062 C71.9779828,27.7539062 72.5888689,28.3660169 72.5888689,29.1210938 C72.5888689,29.8761706 71.9779828,30.4882813 71.2244165,30.4882813 L70.4057451,30.4882813 C69.6521788,30.4882813 69.0412926,29.8761706 69.0412926,29.1210938 C69.0412926,28.3660169 69.6521788,27.7539062 70.4057451,27.7539062 L71.2244165,27.7539062 Z" id="Line-19-Copy-3" fill="#272E40"></path>
                                <path d="M49.8892866,27.6171875 C50.6428528,27.6171875 51.253739,28.2292982 51.253739,28.984375 C51.253739,29.7394518 50.6428528,30.3515625 49.8892866,30.3515625 L48.983842,30.3515625 C48.2302757,30.3515625 47.6193896,29.7394518 47.6193896,28.984375 C47.6193896,28.2292982 48.2302757,27.6171875 48.983842,27.6171875 L49.8892866,27.6171875 Z" id="Line-19-Copy-4" fill="#272E40"></path>
                                <path d="M58.776158,39.375 C58.776158,38.6018014 59.4029593,37.975 60.176158,37.975 C60.9493566,37.975 61.576158,38.6018014 61.576158,39.375 L61.576158,40.1953125 C61.576158,40.9685111 60.9493566,41.5953125 60.176158,41.5953125 C59.4029593,41.5953125 58.776158,40.9685111 58.776158,40.1953125 L58.776158,39.375 Z" id="Line-19-Copy-2" fill="#272E40"></path>
                                <path d="M58.8078995,22.8320312 C58.8078995,22.0769544 59.4187856,21.4648438 60.1723519,21.4648438 C60.9259182,21.4648438 61.5368043,22.0769544 61.5368043,22.8320312 L61.5368043,28.7978846 C61.5368043,29.5529614 60.9259182,30.1650721 60.1723519,30.1650721 C59.4187856,30.1650721 58.8078995,29.5529614 58.8078995,28.7978846 L58.8078995,22.8320312 Z" id="Line-19" fill="#272E40"></path>
                                <path d="M56.3518851,30.2148438 C55.5983188,30.2148438 54.9874327,29.6027331 54.9874327,28.8476562 C54.9874327,28.0925794 55.5983188,27.4804688 56.3518851,27.4804688 L60.0524741,27.4804688 C60.8060404,27.4804688 61.4169266,28.0925794 61.4169266,28.8476562 C61.4169266,29.6027331 60.8060404,30.2148438 60.0524741,30.2148438 L56.3518851,30.2148438 Z" id="Line-20" fill="#272E40"></path>
                            </g>
                        </g>
                    </g>
                </g>
            </g>
        </g>
    </g>
</svg>