<?xml version="1.0" encoding="UTF-8"?>
<svg width="72px" height="82px" viewBox="0 0 72 82" version="1.1" xmlns="http://www.w3.org/2000/svg" xmlns:xlink="http://www.w3.org/1999/xlink">
    <!-- Generator: Sketch 50.2 (55047) - http://www.bohemiancoding.com/sketch -->
    <title>Group 5</title>
    <desc>Created with Sketch.</desc>
    <defs></defs>
    <g id="ICO" stroke="none" stroke-width="1" fill="none" fill-rule="evenodd">
        <g id="01-Ñontract-ICO-hover" transform="translate(-959.000000, -1113.000000)">
            <g id="content">
                <g id="facts" transform="translate(239.000000, 1075.000000)">
                    <g id="3" transform="translate(624.000000, 0.000000)">
                        <g id="Group-5" transform="translate(96.000000, 38.000000)">
                            <circle id="Oval" fill="#FFD750" cx="36" cy="46" r="36"></circle>
                            <g id="010-salary" transform="translate(1.000000, 0.000000)" fill-rule="nonzero">
                                <path d="M54.2197852,15.4786133 L59.1433008,3.90072266 C59.4111328,3.27099609 59.1720117,2.54023438 58.5837109,2.19050781 L56.1677539,0.754550781 C54.2736523,-0.371464844 51.8544141,-0.191269531 50.1478906,1.20230469 L49.7749219,1.50677734 C48.8476953,2.26433594 47.5016992,2.26433594 46.5733789,1.50623047 L46.5584766,1.4940625 C44.6255469,-0.0843554687 41.8217188,-0.08203125 39.8915234,1.50007813 C38.9636133,2.26064453 37.6159766,2.26146484 36.6871094,1.5028125 L36.3082617,1.19328125 C34.6098047,-0.194003906 32.1987695,-0.378984375 30.3086328,0.733085938 L27.8280078,2.19242188 C27.2347852,2.54146484 26.9934766,3.276875 27.2645898,3.90947266 L32.2188672,15.4687695 C28.6351953,16.7629492 25.5773438,19.2382422 23.5709961,22.4896875 C23.174375,23.1321289 23.3738477,23.9745898 24.0164258,24.3710742 C24.6590039,24.7674219 25.5013281,24.5679492 25.8979492,23.9253711 C27.6199219,21.134668 30.2647461,19.0233203 33.3618359,17.9612891 L53.0446875,17.9612891 C58.7793555,19.9253906 62.6171875,25.2839453 62.6171875,31.3623242 L62.6171875,34.9897461 C62.6171875,35.744707 63.2292773,36.3569336 63.984375,36.3569336 C64.7394727,36.3569336 65.3515625,35.744707 65.3515625,34.9897461 L65.3515625,31.3623242 C65.3515625,24.2134375 60.9008203,17.9012695 54.2197852,15.4786133 Z M51.3552539,15.2269141 L35.0898242,15.2269141 L30.2516211,3.93873047 L31.6949609,3.08984375 C32.6031836,2.55527344 33.7620117,2.64427734 34.5783594,3.31105469 L34.957207,3.62044922 C36.8901367,5.19941406 39.6942383,5.19708984 41.6248438,3.61484375 C42.5524805,2.85441406 43.8999805,2.85345703 44.8298047,3.61265625 L44.844707,3.62482422 C46.7742188,5.20050781 49.5750391,5.20050781 51.5044141,3.62455078 L51.8772461,3.32007812 C52.6974219,2.65042969 53.8599414,2.56388672 54.7703516,3.10488281 L56.1591406,3.93039062 L51.3552539,15.2269141 Z" id="Shape" fill="#272E40"></path>
                                <path d="M64.9509766,39.1883789 C64.6966797,38.934082 64.3439453,38.787793 63.984375,38.787793 C63.6248047,38.787793 63.2720703,38.9339453 63.0177734,39.1883789 C62.7634766,39.444043 62.6171875,39.7952734 62.6171875,40.1549805 C62.6171875,40.5145508 62.7634766,40.8672852 63.0177734,41.1214453 C63.2720703,41.3771094 63.6248047,41.5233984 63.984375,41.5233984 C64.3439453,41.5233984 64.6966797,41.3771094 64.9509766,41.1214453 C65.2052734,40.8672852 65.3515625,40.5145508 65.3515625,40.1549805 C65.3515625,39.7952734 65.2052734,39.4425391 64.9509766,39.1883789 Z" id="Shape" fill="#E60041"></path>
                                <path d="M20.9152344,60.9868164 C20.6609375,60.7325195 20.3082031,60.5862305 19.9486328,60.5862305 C19.5890625,60.5862305 19.2363281,60.7325195 18.9820313,60.9868164 C18.7277344,61.2411133 18.5814453,61.5938477 18.5814453,61.953418 C18.5814453,62.3129883 18.7277344,62.6657227 18.9820313,62.9200195 C19.2363281,63.1741797 19.5890625,63.3206055 19.9486328,63.3206055 C20.3082031,63.3206055 20.6609375,63.1743164 20.9152344,62.9200195 C21.1695313,62.6657227 21.3158203,62.3129883 21.3158203,61.953418 C21.3158203,61.5938477 21.1695313,61.2411133 20.9152344,60.9868164 Z" id="Shape" fill="#E60041"></path>
                                <path d="M70,57.1381836 C70,55.6245703 69.349082,54.2605273 68.3127539,53.3100586 C69.3489453,52.3595898 70,50.9955469 70,49.4819336 C70,46.6172656 67.6693555,44.2866211 64.8046875,44.2866211 L50.0390625,44.2866211 C47.1743945,44.2866211 44.84375,46.6172656 44.84375,49.4819336 C44.84375,50.9955469 45.494668,52.3595898 46.5309961,53.3100586 C45.4948047,54.2605273 44.84375,55.6245703 44.84375,57.1381836 C44.84375,58.6517969 45.494668,60.0158398 46.5309961,60.9663086 C45.4948047,61.9167773 44.84375,63.2808203 44.84375,64.7944336 C44.84375,65.6843359 45.0689258,66.5224219 45.4648633,67.2553711 L39.8976758,67.2553711 L39.8976758,61.9093945 C39.8976758,54.6791602 34.339375,48.7238281 27.2715625,48.0893164 C27.0798828,48.0323047 26.8783594,48.0195898 26.6816211,48.0484375 C26.6586523,48.0473438 26.6355469,48.0467969 26.6125781,48.0458398 C28.3873242,46.3119727 29.4920117,43.8949219 29.4920117,41.2237109 L29.4920117,27.6069336 C29.4920117,26.8519727 28.8799219,26.2397461 28.1248242,26.2397461 L17.9972461,26.2397461 C13.8111914,26.2397461 10.4056641,29.6452734 10.4056641,33.8311914 L10.4056641,41.2235742 C10.4056641,43.8947852 11.5103516,46.3118359 13.2850977,48.0457031 C13.2621289,48.0466602 13.2390234,48.047207 13.2160547,48.0483008 C13.0193164,48.0195898 12.817793,48.032168 12.6261133,48.0891797 C5.55830078,48.7238281 0,54.6792969 0,61.9093945 L0,68.6225586 C0,69.3775195 0.612089844,69.9897461 1.3671875,69.9897461 L22.421875,69.9897461 L38.5304883,69.9897461 L50.0390625,69.9897461 L63.984375,69.9897461 L64.8046875,69.9897461 C67.6693555,69.9897461 70,67.6591016 70,64.7944336 C70,63.2808203 69.349082,61.9167773 68.3127539,60.9663086 C69.349082,60.0158398 70,58.6517969 70,57.1381836 Z M13.1400391,35.7462109 L13.1400391,33.8311914 C13.1400391,31.1530078 15.3190625,28.9741211 17.9972461,28.9741211 L26.7576367,28.9741211 L26.7576367,32.6328516 C26.7576367,34.4815625 25.2535938,35.9856055 23.4047461,35.9856055 L13.1400391,35.9856055 L13.1400391,35.7462109 Z M13.1400391,41.2237109 L13.1400391,38.7199805 L23.4047461,38.7199805 C24.6430078,38.7199805 25.7954102,38.3474219 26.7576367,37.7099023 L26.7576367,41.2235742 C26.7576367,44.9778711 23.7032031,48.0323047 19.9489063,48.0323047 C16.1946094,48.0323047 13.1400391,44.9780078 13.1400391,41.2237109 Z M23.5797461,50.7666797 L19.9487695,54.3976563 L16.317793,50.7666797 L23.5797461,50.7666797 Z M37.1633008,67.2555078 L22.421875,67.2555078 L22.421875,67.2553711 L2.734375,67.2555078 L2.734375,63.3206055 L13.8910352,63.3206055 C14.6461328,63.3206055 15.2582227,62.7083789 15.2582227,61.953418 C15.2582227,61.198457 14.6461328,60.5862305 13.8910352,60.5862305 L2.81572266,60.5862305 C3.42001953,55.5048047 7.45568359,51.4635352 12.5346484,50.8504883 L18.982168,57.2980078 C19.2491797,57.5648828 19.599043,57.698457 19.9489062,57.698457 C20.2987695,57.698457 20.6487695,57.5648828 20.9156445,57.2980078 L27.3631641,50.8504883 C32.8760742,51.5158984 37.1633008,56.2199805 37.1633008,61.9095313 L37.1633008,67.2555078 Z M64.8046875,67.2553711 L63.984375,67.2553711 L50.0390625,67.2553711 C48.6821289,67.2553711 47.578125,66.1513672 47.578125,64.7944336 C47.578125,63.4375 48.6821289,62.3334961 50.0390625,62.3334961 L64.8046875,62.3334961 C66.1616211,62.3334961 67.265625,63.4375 67.265625,64.7944336 C67.265625,66.1513672 66.1616211,67.2553711 64.8046875,67.2553711 Z M64.8046875,59.5991211 L50.0390625,59.5991211 C48.6821289,59.5991211 47.578125,58.4951172 47.578125,57.1381836 C47.578125,55.78125 48.6821289,54.6772461 50.0390625,54.6772461 L64.8046875,54.6772461 C66.1616211,54.6772461 67.265625,55.78125 67.265625,57.1381836 C67.265625,58.4951172 66.1616211,59.5991211 64.8046875,59.5991211 Z M64.8046875,51.9428711 L50.0390625,51.9428711 C48.6821289,51.9428711 47.578125,50.8388672 47.578125,49.4819336 C47.578125,48.125 48.6821289,47.0209961 50.0390625,47.0209961 L64.8046875,47.0209961 C66.1616211,47.0209961 67.265625,48.125 67.265625,49.4819336 C67.265625,50.8388672 66.1616211,51.9428711 64.8046875,51.9428711 Z" id="Shape" fill="#272E40"></path>
                                <path d="M51.1328125,31.170918 C50.0383789,31.170918 49.1479297,30.4195117 49.1479297,29.4959766 C49.1479297,28.5724414 50.0383789,27.8210352 51.1328125,27.8210352 C52.2272461,27.8210352 53.1176953,28.5724414 53.1176953,29.4959766 C53.1176953,30.2509375 53.7297852,30.8631641 54.4848828,30.8631641 C55.2399805,30.8631641 55.8520703,30.2509375 55.8520703,29.4959766 C55.8520703,27.5087695 54.4375781,25.8250781 52.5,25.2760156 L52.5,25.0718945 C52.5,24.3169336 51.8879102,23.704707 51.1328125,23.704707 C50.3777148,23.704707 49.765625,24.3169336 49.765625,25.0718945 L49.765625,25.2760156 C47.8281836,25.8250781 46.4135547,27.5087695 46.4135547,29.4959766 C46.4135547,31.9272461 48.5305078,33.905293 51.1328125,33.905293 C52.2272461,33.905293 53.1176953,34.6566992 53.1176953,35.5802344 C53.1176953,36.5037695 52.2272461,37.2551758 51.1328125,37.2551758 C50.0383789,37.2551758 49.1479297,36.5037695 49.1479297,35.5802344 C49.1479297,34.8252734 48.5358398,34.2130469 47.7807422,34.2130469 C47.0256445,34.2130469 46.4135547,34.8252734 46.4135547,35.5802344 C46.4135547,37.5674414 47.8280469,39.2511328 49.765625,39.8001953 L49.765625,39.887832 C49.765625,40.642793 50.3777148,41.2550195 51.1328125,41.2550195 C51.8879102,41.2550195 52.5,40.642793 52.5,39.887832 L52.5,39.8001953 C54.4374414,39.2511328 55.8520703,37.5674414 55.8520703,35.5802344 C55.8520703,33.1489648 53.7351172,31.170918 51.1328125,31.170918 Z" id="Shape" fill="#272E40"></path>
                            </g>
                        </g>
                    </g>
                </g>
            </g>
        </g>
    </g>
</svg>