<?xml version="1.0" encoding="UTF-8"?>
<svg width="85px" height="82px" viewBox="0 0 85 82" version="1.1" xmlns="http://www.w3.org/2000/svg" xmlns:xlink="http://www.w3.org/1999/xlink">
    <!-- Generator: Sketch 50.2 (55047) - http://www.bohemiancoding.com/sketch -->
    <title>Group</title>
    <desc>Created with Sketch.</desc>
    <defs></defs>
    <g id="ICO" stroke="none" stroke-width="1" fill="none" fill-rule="evenodd">
        <g id="01-Ñontract-ICO-hover" transform="translate(-336.000000, -1113.000000)">
            <g id="content">
                <g id="facts" transform="translate(239.000000, 1075.000000)">
                    <g id="1">
                        <g id="Group" transform="translate(97.000000, 38.000000)">
                            <circle id="Oval" fill="#FFD750" cx="49" cy="46" r="36"></circle>
                            <g id="038-certificate" fill-rule="nonzero">
                                <path d="M61.2505469,12.7148438 C62.0056445,12.7148438 62.6177344,12.1027539 62.6177344,11.3476562 L62.6177344,4.1015625 C62.6177344,1.83996094 60.7777734,0 58.5161719,0 L4.10210938,0 C1.84050781,0 0.000546875,1.83996094 0.000546875,4.1015625 L0.000546875,65.8984375 C0.000546875,68.1600391 1.84050781,70 4.10210938,70 L58.5161719,70 C60.7777734,70 62.6177344,68.1600391 62.6177344,65.8984375 L62.6177344,62.0703125 C62.6177344,61.3152148 62.0056445,60.703125 61.2505469,60.703125 C60.4954492,60.703125 59.8833594,61.3152148 59.8833594,62.0703125 L59.8833594,65.8984375 C59.8833594,66.6523047 59.2700391,67.265625 58.5161719,67.265625 L4.10210938,67.265625 C3.34824219,67.265625 2.73492188,66.6523047 2.73492188,65.8984375 L2.73492188,4.1015625 C2.73492188,3.34769531 3.34824219,2.734375 4.10210938,2.734375 L58.5161719,2.734375 C59.2700391,2.734375 59.8833594,3.34769531 59.8833594,4.1015625 L59.8833594,11.3476562 C59.8833594,12.1027539 60.4954492,12.7148438 61.2505469,12.7148438 Z" id="Shape" fill="#272E40"></path>
                                <path d="M54.6888672,6.5625 L7.92941406,6.5625 C7.17431641,6.5625 6.56222656,7.17458984 6.56222656,7.9296875 L6.56222656,36.5039063 C6.56222656,37.2590039 7.17431641,37.8710938 7.92941406,37.8710938 C8.68451172,37.8710938 9.29660156,37.2590039 9.29660156,36.5039063 L9.29660156,9.296875 L53.3216797,9.296875 L53.3216797,11.484375 C53.3216797,12.2394727 53.9339062,12.8515625 54.6888672,12.8515625 C55.4439648,12.8515625 56.0560547,12.2394727 56.0560547,11.484375 L56.0560547,7.9296875 C56.0560547,7.17458984 55.4439648,6.5625 54.6888672,6.5625 Z" id="Shape" fill="#272E40"></path>
                                <path d="M8.89546875,40.5958984 C8.64117188,40.3416016 8.28980469,40.1953125 7.92886719,40.1953125 C7.56929688,40.1953125 7.2165625,40.3416016 6.96226562,40.5958984 C6.70796875,40.8501953 6.56167969,41.2029297 6.56167969,41.5625 C6.56167969,41.9220703 6.70796875,42.2748047 6.96226562,42.5291016 C7.2165625,42.7833984 7.56929688,42.9296875 7.92886719,42.9296875 C8.28980469,42.9296875 8.64117188,42.7833984 8.89546875,42.5291016 C9.15113281,42.2748047 9.29605469,41.9220703 9.29605469,41.5625 C9.29605469,41.2029297 9.15113281,40.8501953 8.89546875,40.5958984 Z" id="Shape" fill="#E60041"></path>
                                <path d="M54.6888672,57.6953125 C53.9337695,57.6953125 53.3216797,58.3074023 53.3216797,59.0625 L53.3216797,60.703125 L9.29660156,60.703125 L9.29660156,46.8261719 C9.29660156,46.0710742 8.68451172,45.4589844 7.92941406,45.4589844 C7.17431641,45.4589844 6.56222656,46.0710742 6.56222656,46.8261719 L6.56222656,62.0703125 C6.56222656,62.8254102 7.17431641,63.4375 7.92941406,63.4375 L54.6888672,63.4375 C55.4439648,63.4375 56.0560547,62.8254102 56.0560547,62.0703125 L56.0560547,59.0625 C56.0560547,58.3074023 55.4439648,57.6953125 54.6888672,57.6953125 Z" id="Shape" fill="#272E40"></path>
                                <path d="M42.3702344,48.3076563 C41.8363477,47.7736328 40.9707813,47.7736328 40.4367578,48.3075195 L37.7346484,51.0097656 L36.0550586,49.3300391 C34.9945313,48.2696484 33.2692773,48.2696484 32.20875,49.3300391 L31.1158203,50.4229688 C30.5819336,50.9568555 30.5819336,51.8225586 31.1158203,52.356582 C31.649707,52.8904688 32.5154102,52.8904688 33.0494336,52.356582 L34.1319727,51.274043 L35.8115625,52.9537695 C36.3417578,53.4839648 37.0382031,53.7490625 37.7346484,53.7490625 C38.4310938,53.7490625 39.1275391,53.4839648 39.6577344,52.9537695 L42.3702344,50.2412695 C42.9041211,49.7073828 42.9041211,48.8416797 42.3702344,48.3076563 Z" id="Shape" fill="#E60041"></path>
                                <path d="M69.3710938,28.6811328 C69.9736133,27.7411914 70.1535352,26.583457 69.8645117,25.5050195 C69.5754883,24.426582 68.8410352,23.5139844 67.8491406,23.0012891 C67.4190234,22.7789844 67.1557031,22.3228906 67.1782617,21.8393164 C67.2300781,20.7239648 66.8070703,19.631582 66.0176563,18.8420313 C65.2282422,18.0526172 64.1361328,17.6289258 63.0203711,17.6814258 C62.5344727,17.7049414 62.0807031,17.4405273 61.8583984,17.0105469 C61.3457031,16.0187891 60.4331055,15.2841992 59.354668,14.9951758 C58.2758203,14.7060156 57.1184961,14.8860742 56.1786914,15.4885938 C55.7711328,15.75 55.2444922,15.7498633 54.8370703,15.4885938 C53.8971289,14.8859375 52.739668,14.7061523 51.6610938,14.9951758 C50.5826563,15.2841992 49.6700586,16.0187891 49.1573633,17.0105469 C48.9350586,17.4406641 48.4777344,17.7033008 47.9953906,17.6814258 C46.8796289,17.6293359 45.7876563,18.0526172 44.9982422,18.8420313 C44.2086914,19.631582 43.7856836,20.7239648 43.8375,21.8391797 C43.8600586,22.3228906 43.5966016,22.7789844 43.1666211,23.0012891 C42.1748633,23.5139844 41.4402734,24.4264453 41.15125,25.5050195 C41.0133008,26.0194922 40.9833594,26.5520117 41.054043,27.0703125 L17.1966211,27.0703125 C16.4415234,27.0703125 15.8294336,27.6824023 15.8294336,28.4375 C15.8294336,29.1925977 16.4415234,29.8046875 17.1966211,29.8046875 L41.7525391,29.8046875 C41.7231445,29.8797461 41.6891016,29.9534375 41.6445313,30.0228906 C41.0420117,30.962832 40.8620898,32.1205664 41.1511133,33.1990039 C41.1907617,33.3470703 41.2395703,33.4917188 41.295625,33.6328125 L17.1962109,33.6328125 C16.4411133,33.6328125 15.8290234,34.2449023 15.8290234,35 C15.8290234,35.7550977 16.4411133,36.3671875 17.1962109,36.3671875 L43.7558789,36.3671875 C43.8153516,36.523457 43.8451563,36.6920313 43.8370898,36.864707 C43.7852734,37.9800586 44.2082813,39.0724414 44.997832,39.8619922 C45.7872461,40.6514063 46.8792188,41.0752344 47.9949805,41.0225977 C48.4780078,40.9989453 48.9346484,41.2633594 49.1569531,41.6934766 C49.3211523,42.0112109 49.5269141,42.3020117 49.7654883,42.5608203 L49.7654883,55.3293945 C49.7654883,55.8817383 50.0978516,56.3798047 50.6078125,56.5918555 C51.1176367,56.8039063 51.7052539,56.6882422 52.0969531,56.2985938 L55.5076758,52.9056445 L58.9183984,56.2985938 C59.1798047,56.5586328 59.5283008,56.696582 59.8829492,56.696582 C60.0595898,56.696582 60.2378711,56.6622656 60.4075391,56.5917188 C60.9175,56.379668 61.2498633,55.8816016 61.2498633,55.3292578 L61.2498633,42.5606836 C61.4884375,42.3020117 61.6941992,42.0110742 61.8583984,41.6933398 C62.0807031,41.2632227 62.5373438,41.0004492 63.0203711,41.0224609 C64.1368164,41.0752344 65.2281055,40.6514063 66.0175195,39.8618555 C66.8070703,39.0723047 67.2300781,37.9799219 67.1782617,36.8645703 C67.1557031,36.3809961 67.4191602,35.9249023 67.8491406,35.7025977 C68.8408984,35.1899023 69.5754883,34.2774414 69.8645117,33.1988672 C70.1535352,32.120293 69.9736133,30.9626953 69.3710938,30.0226172 C69.1096875,29.615332 69.1096875,29.0886914 69.3710938,28.6811328 Z M58.5154883,52.0408984 L56.4718164,50.0078906 C55.9384766,49.4772852 55.0767383,49.4772852 54.5433984,50.0078906 L52.4998633,52.0408984 L52.4998633,43.8388672 C53.3178516,43.8774219 54.1376172,43.6635938 54.8369336,43.2154297 C55.2444922,42.9540234 55.7711328,42.9541602 56.1785547,43.2154297 C56.8242773,43.6294141 57.5726758,43.8439258 58.3277734,43.8439258 C58.3903906,43.8439258 58.4528711,43.8407813 58.5154883,43.8377734 L58.5154883,52.0408984 Z M67.2232422,32.4913477 C67.1316406,32.8332813 66.907832,33.1112305 66.5933789,33.2737891 C65.2174414,33.9851367 64.374707,35.4444727 64.4467578,36.9918555 C64.4633008,37.3455469 64.334375,37.6781836 64.084043,37.9286523 C63.8337109,38.1789844 63.5010742,38.3075 63.1473828,38.2913672 C61.5991797,38.2197266 60.1406641,39.0619141 59.4293164,40.4379883 C59.2667578,40.7525781 58.9888086,40.97625 58.6467383,41.0678516 C58.3049414,41.1593164 57.952207,41.1047656 57.6542969,40.9136328 C57.0021484,40.4955469 56.2549805,40.2866406 55.5075391,40.2866406 C54.7603711,40.2866406 54.0129297,40.4956836 53.360918,40.9136328 C53.0628711,41.1046289 52.7102734,41.1593164 52.3683398,41.0678516 C52.0262695,40.97625 51.748457,40.7524414 51.5857617,40.4379883 C50.8744141,39.0620508 49.4161719,38.219043 47.8676953,38.2913672 C47.5148242,38.3076367 47.1813672,38.1789844 46.9310352,37.9286523 C46.6805664,37.6781836 46.5517773,37.3455469 46.5683203,36.9917188 C46.619043,35.8996094 46.2125781,34.8526172 45.4861914,34.080293 C45.4648633,34.0569141 45.443125,34.0339453 45.4201563,34.0120703 C45.1316797,33.7196289 44.7974023,33.4680664 44.4216992,33.2737891 C44.1072461,33.1112305 43.8835742,32.833418 43.7919727,32.4913477 C43.7003711,32.1492773 43.7550586,31.7966797 43.9461914,31.4987695 C44.7822266,30.1947461 44.7822266,28.5095508 43.9461914,27.2055273 C43.7551953,26.9074805 43.7003711,26.5548828 43.7919727,26.2128125 C43.8835742,25.8708789 44.1073828,25.5929297 44.4218359,25.4303711 C45.7977734,24.7190234 46.6403711,23.2596875 46.568457,21.7123047 C46.5519141,21.3586133 46.6808398,21.0259766 46.9311719,20.7755078 C47.1815039,20.5250391 47.5148242,20.3965234 47.867832,20.412793 C49.4161719,20.4845703 50.8746875,19.6422461 51.5858984,18.2661719 C51.748457,17.951582 52.0264063,17.7279102 52.3684766,17.6363086 C52.7104102,17.5448438 53.0630078,17.5993945 53.360918,17.7905273 C54.6650781,18.6266992 56.3504102,18.6266992 57.6541602,17.7905273 C57.952207,17.5995313 58.304668,17.5445703 58.6467383,17.6363086 C58.9888086,17.7279102 59.2666211,17.9517188 59.4293164,18.2661719 C60.1406641,19.6421094 61.5998633,20.4849805 63.1473828,20.412793 C63.5012109,20.3966602 63.8337109,20.5250391 64.084043,20.7755078 C64.3345117,21.0259766 64.4633008,21.3586133 64.4467578,21.7123047 C64.3748438,23.2595508 65.2173047,24.7190234 66.5935156,25.4303711 C66.9079688,25.5929297 67.1316406,25.8707422 67.2232422,26.2128125 C67.3148438,26.5548828 67.2601563,26.9074805 67.0690234,27.2053906 C66.2329883,28.5094141 66.2329883,30.1946094 67.0690234,31.4986328 C67.2601563,31.7966797 67.3149805,32.1492773 67.2232422,32.4913477 Z" id="Shape" fill="#272E40"></path>
                                <path d="M62.0096094,25.6328516 C61.4757227,25.0989648 60.6100195,25.0989648 60.0761328,25.6328516 L55.5383008,30.1708203 L53.7318359,28.3643555 C53.1979492,27.8304688 52.3322461,27.8304688 51.7982227,28.3643555 C51.2643359,28.8982422 51.2643359,29.7639453 51.7982227,30.2979688 L54.5714258,33.0711719 C54.8384375,33.3381836 55.1883008,33.4716211 55.5381641,33.4716211 C55.8880273,33.4716211 56.2380273,33.3381836 56.5049023,33.0711719 L62.0096094,27.5664648 C62.5434961,27.0325781 62.5434961,26.166875 62.0096094,25.6328516 Z" id="Shape" fill="#E60041"></path>
                                <path d="M16.6898047,16.5333984 C16.4355078,16.2791016 16.0827734,16.1328125 15.7232031,16.1328125 C15.3636328,16.1328125 15.0108984,16.2791016 14.7566016,16.5333984 C14.5023047,16.7876953 14.3560156,17.1404297 14.3560156,17.5 C14.3560156,17.8595703 14.5023047,18.2123047 14.7566016,18.4666016 C15.0108984,18.7208984 15.3636328,18.8671875 15.7232031,18.8671875 C16.0827734,18.8671875 16.4355078,18.7208984 16.6898047,18.4666016 C16.9441016,18.2123047 17.0903906,17.8595703 17.0903906,17.5 C17.0903906,17.1404297 16.9441016,16.7876953 16.6898047,16.5333984 Z" id="Shape" fill="#E60041"></path>
                                <path d="M27.4800586,16.1328125 L20.8263672,16.1328125 C20.0712695,16.1328125 19.4591797,16.7449023 19.4591797,17.5 C19.4591797,18.2550977 20.0712695,18.8671875 20.8263672,18.8671875 L27.4800586,18.8671875 C28.2351563,18.8671875 28.8472461,18.2550977 28.8472461,17.5 C28.8472461,16.7449023 28.2351563,16.1328125 27.4800586,16.1328125 Z" id="Shape" fill="#272E40"></path>
                                <path d="M41.4036328,40.1953125 L25.7736719,40.1953125 C25.0185742,40.1953125 24.4064844,40.8074023 24.4064844,41.5625 C24.4064844,42.3175977 25.0185742,42.9296875 25.7736719,42.9296875 L41.4034961,42.9296875 C42.1585938,42.9296875 42.7706836,42.3175977 42.7706836,41.5625 C42.7706836,40.8074023 42.1587305,40.1953125 41.4036328,40.1953125 Z" id="Shape" fill="#272E40"></path>
                            </g>
                        </g>
                    </g>
                </g>
            </g>
        </g>
    </g>
</svg>